<?xml version="1.0" encoding="UTF-8" standalone="no"?>
<svg
   xmlns:dc="http://purl.org/dc/elements/1.1/"
   xmlns:cc="http://creativecommons.org/ns#"
   xmlns:rdf="http://www.w3.org/1999/02/22-rdf-syntax-ns#"
   xmlns:svg="http://www.w3.org/2000/svg"
   xmlns="http://www.w3.org/2000/svg"
   xmlns:sodipodi="http://sodipodi.sourceforge.net/DTD/sodipodi-0.dtd"
   xmlns:inkscape="http://www.inkscape.org/namespaces/inkscape"
   viewBox="0 0 22 22"
   id="svg2"
   version="1.1"
   inkscape:version="0.91 r13725"
   sodipodi:docname="update-medium.svg">
  <metadata
     id="metadata13">
    <rdf:RDF>
      <cc:Work
         rdf:about="">
        <dc:format>image/svg+xml</dc:format>
        <dc:type
           rdf:resource="http://purl.org/dc/dcmitype/StillImage" />
      </cc:Work>
    </rdf:RDF>
  </metadata>
  <sodipodi:namedview
     pagecolor="#ffffff"
     bordercolor="#666666"
     borderopacity="1"
     objecttolerance="10"
     gridtolerance="10"
     guidetolerance="10"
     inkscape:pageopacity="0"
     inkscape:pageshadow="2"
     inkscape:window-width="707"
     inkscape:window-height="480"
     id="namedview11"
     showgrid="false"
     inkscape:zoom="10.727273"
     inkscape:cx="11"
     inkscape:cy="11"
     inkscape:window-x="0"
     inkscape:window-y="26"
     inkscape:window-maximized="0"
     inkscape:current-layer="svg2" />
  <defs
     id="defs3051">
    <style
       type="text/css"
       id="current-color-scheme">
      .ColorScheme-Text {
        color:#f2f2f2;
      }
      .ColorScheme-NeutralText {
        color:#f67400;
      }
      </style>
  </defs>
  <path
     inkscape:connector-curvature="0"
     class="ColorScheme-Text"
     id="path6941"
     d="M 11.126953,3.0019531 C 9.2851775,2.9719906 7.4335432,3.5755063 5.921875,4.8164062 2.8985906,7.2983061 2.1145626,11.6125 4.0703125,15 L 3.2050781,15.5 5.5039062,16.482422 5.8027344,14 4.9375,14.5 C 3.2230001,11.5304 3.9082004,7.7655436 6.5585938,5.5898438 9.2089874,3.4141439 13.034664,3.4761283 15.613281,5.7363281 L 16.271484,4.984375 C 14.800746,3.6952251 12.968729,3.0319156 11.126953,3.0019531 Z M 16.494141,5.5195312 16.195312,8 17.0625,7.5 c 0.896607,1.5529689 1.131185,3.323632 0.777344,4.970703 0.320602,0.168764 0.618291,0.373397 0.880859,0.619141 C 19.259064,11.093388 19.024658,8.89995 17.927734,7 L 18.792969,6.5 16.494141,5.5195312 Z M 11,6 l -4,4 2,0 0,5 3.144531,0 C 12.303295,14.3945 12.599063,13.848272 13,13.388672 L 13,10 15,10 11,6 Z M 6.3847656,16.265625 5.7265625,17.017578 c 2.0663121,1.81119 4.8448035,2.380136 7.3632815,1.701172 -0.245353,-0.262183 -0.448572,-0.558857 -0.617188,-0.878906 -2.106154,0.453549 -4.372671,-0.0708 -6.0878904,-1.574219 z"
     style="color:#f2f2f2;opacity:1;fill:currentColor;fill-opacity:1;stroke:none" />
  <path
     inkscape:connector-curvature="0"
     id="path9"
     d="M 19,16 A 2.9999907,2.9999907 0 0 1 16.00001,19 2.9999907,2.9999907 0 0 1 13.000019,16 2.9999907,2.9999907 0 0 1 16.00001,13 2.9999907,2.9999907 0 0 1 19,16 Z"
     class="ColorScheme-NeutralText"
     style="color:#f67400;fill:#fbbc05;fill-opacity:1;stroke:none" />
</svg>
