<?xml version="1.0" encoding="UTF-8" standalone="no"?>
<!-- Created with Inkscape (http://www.inkscape.org/) -->

<svg
   xmlns:dc="http://purl.org/dc/elements/1.1/"
   xmlns:cc="http://creativecommons.org/ns#"
   xmlns:rdf="http://www.w3.org/1999/02/22-rdf-syntax-ns#"
   xmlns:svg="http://www.w3.org/2000/svg"
   xmlns="http://www.w3.org/2000/svg"
   xmlns:sodipodi="http://sodipodi.sourceforge.net/DTD/sodipodi-0.dtd"
   xmlns:inkscape="http://www.inkscape.org/namespaces/inkscape"
   width="64"
   height="64"
   viewBox="0 0 64 64"
   id="svg4178"
   version="1.1"
   inkscape:version="0.91 r13725"
   sodipodi:docname="hplip.svg">
  <defs
     id="defs4180" />
  <sodipodi:namedview
     id="base"
     pagecolor="#ffffff"
     bordercolor="#666666"
     borderopacity="1.0"
     inkscape:pageopacity="0.0"
     inkscape:pageshadow="2"
     inkscape:zoom="6.0042102"
     inkscape:cx="38.335837"
     inkscape:cy="19.573642"
     inkscape:document-units="px"
     inkscape:current-layer="layer1"
     showgrid="false"
     units="px"
     inkscape:window-width="1280"
     inkscape:window-height="724"
     inkscape:window-x="0"
     inkscape:window-y="26"
     inkscape:window-maximized="1" />
  <metadata
     id="metadata4183">
    <rdf:RDF>
      <cc:Work
         rdf:about="">
        <dc:format>image/svg+xml</dc:format>
        <dc:type
           rdf:resource="http://purl.org/dc/dcmitype/StillImage" />
        <dc:title />
      </cc:Work>
    </rdf:RDF>
  </metadata>
  <g
     inkscape:label="Layer 1"
     inkscape:groupmode="layer"
     id="layer1"
     transform="translate(0,-988.3622)">
    <circle
       style="opacity:1;fill:#31363b;fill-opacity:1;stroke:none;stroke-width:1.24300003;stroke-miterlimit:4;stroke-dasharray:none;stroke-opacity:1"
       id="path4746"
       cx="32"
       cy="1020.3622"
       r="32" />
    <path
       inkscape:connector-curvature="0"
       style="opacity:1;fill:#ffffff;fill-opacity:1;stroke:none;stroke-width:1.24300003;stroke-miterlimit:4;stroke-dasharray:none;stroke-opacity:1"
       d="m 31.999999,989.36223 a 31,31 0 0 0 -30.99999956,31.00007 31,31 0 0 0 30.99999956,31 31,31 0 0 0 31,-31 31,31 0 0 0 -31,-31.00007 z m 0,2.69565 a 28.304348,28.304348 0 0 1 28.304348,28.30442 28.304348,28.304348 0 0 1 -28.304348,28.3043 28.304348,28.304348 0 0 1 -28.3043474,-28.3043 28.304348,28.304348 0 0 1 28.3043474,-28.30442 z"
       id="path4145-3" />
    <path
       d="m 27.043431,1000.8879 c -3.251146,9.0026 -6.412597,18.023 -9.662224,27.0278 0.20739,0.064 0.4128,0.041 0.625898,0.042 1.184461,0 2.372448,0 3.556976,0 0.161357,0 0.14099,-0.2311 0.208638,-0.3342 1.427403,-4.0241 2.879526,-8.0285 4.311512,-12.0512 0.08597,-0.2489 0.177491,-0.5141 0.292067,-0.7509 0.7424,0.014 1.476042,-0.014 2.218442,0 -1.556828,4.3605 -3.10735,8.7425 -4.686523,13.0951 0.165031,0.067 0.327675,0.039 0.500705,0.042 1.244163,-0.014 2.479756,0.017 3.723933,0 1.40564,-3.9619 2.860623,-7.9209 4.270359,-11.8809 0.301179,-0.8101 0.311905,-1.7634 -0.166916,-2.5105 -0.418101,-0.6615 -1.210765,-1.0158 -1.968053,-1.0465 -1.035662,-0.031 -2.057817,0.019 -3.094604,0 1.42499,-4.0389 2.89398,-8.0502 4.308081,-12.0936 -4.43101,0.4627 -3.56941,0.3648 -4.436705,0.4621 m 9.249478,11.5475 c -0.03186,0.067 -0.05179,0.2267 -0.08352,0.2917 -3.22381,9.0426 -6.471226,18.0733 -9.707878,27.1113 4.085845,0.5925 1.13958,0.1855 4.099445,0.5874 1.412515,-3.9688 2.844664,-7.9187 4.270319,-11.8843 1.551023,-0.029 3.090833,-0.014 4.641872,-0.042 0.989924,-0.035 1.9764,-0.6278 2.30185,-1.5887 1.311702,-3.6886 2.620294,-7.3424 3.890824,-11.0465 0.208512,-0.5597 0.333021,-1.1703 0.166899,-1.7558 -0.224754,-0.7427 -0.900133,-1.3087 -1.630698,-1.5053 -0.634655,-0.1974 -1.269758,-0.1153 -1.922769,-0.1274 -1.991088,0 -4.035583,-0.023 -6.026094,-0.042 m 3.647358,2.3296 c 0.09402,-8e-4 0.192265,0.024 0.285174,0.014 0.575127,0.014 1.139017,-0.014 1.714144,0 -1.339629,3.8178 -2.698173,7.6418 -4.015544,11.4671 -0.744597,0.053 -1.514345,0 -2.260121,0 1.359769,-3.7932 2.698163,-7.5874 4.057707,-11.3802 0.03081,-0.035 0.08791,-0.075 0.128638,-0.088 0.03046,-0.014 0.05906,-0.014 0.09042,-0.014"
       inkscape:connector-curvature="0"
       id="path66"
       style="fill:none;stroke:#ffffff;stroke-opacity:1" />
  </g>
</svg>
