<?xml version="1.0" encoding="UTF-8" standalone="no"?>
<!-- Created with Inkscape (http://www.inkscape.org/) -->

<svg
   xmlns:dc="http://purl.org/dc/elements/1.1/"
   xmlns:cc="http://creativecommons.org/ns#"
   xmlns:rdf="http://www.w3.org/1999/02/22-rdf-syntax-ns#"
   xmlns:svg="http://www.w3.org/2000/svg"
   xmlns="http://www.w3.org/2000/svg"
   xmlns:sodipodi="http://sodipodi.sourceforge.net/DTD/sodipodi-0.dtd"
   xmlns:inkscape="http://www.inkscape.org/namespaces/inkscape"
   width="64"
   height="64"
   viewBox="0 0 64 64"
   id="svg4178"
   version="1.1"
   inkscape:version="0.91 r13725"
   sodipodi:docname="kmenuedit.svg">
  <defs
     id="defs4180" />
  <sodipodi:namedview
     id="base"
     pagecolor="#ffffff"
     bordercolor="#666666"
     borderopacity="1.0"
     inkscape:pageopacity="0.0"
     inkscape:pageshadow="2"
     inkscape:zoom="4.1803005"
     inkscape:cx="68.834163"
     inkscape:cy="25.680656"
     inkscape:document-units="px"
     inkscape:current-layer="layer1"
     showgrid="false"
     units="px"
     inkscape:window-width="1280"
     inkscape:window-height="724"
     inkscape:window-x="0"
     inkscape:window-y="26"
     inkscape:window-maximized="1" />
  <metadata
     id="metadata4183">
    <rdf:RDF>
      <cc:Work
         rdf:about="">
        <dc:format>image/svg+xml</dc:format>
        <dc:type
           rdf:resource="http://purl.org/dc/dcmitype/StillImage" />
        <dc:title></dc:title>
      </cc:Work>
    </rdf:RDF>
  </metadata>
  <g
     inkscape:label="Layer 1"
     inkscape:groupmode="layer"
     id="layer1"
     transform="translate(0,-988.3622)">
    <circle
       style="opacity:1;fill:#31363b;fill-opacity:1;stroke:none;stroke-width:1.24300003;stroke-miterlimit:4;stroke-dasharray:none;stroke-opacity:1"
       id="path4746"
       cx="32"
       cy="1020.3622"
       r="32" />
    <path
       inkscape:connector-curvature="0"
       style="opacity:1;fill:#ffffff;fill-opacity:1;stroke:none;stroke-width:1.24300003;stroke-miterlimit:4;stroke-dasharray:none;stroke-opacity:1"
       d="m 32,989.36216 a 31,31 0 0 0 -31,31.00004 31,31 0 0 0 31,31 31,31 0 0 0 30.999997,-31 A 31,31 0 0 0 32,989.36216 Z m 0,2.69564 A 28.304348,28.304348 0 0 1 60.304347,1020.3622 28.304348,28.304348 0 0 1 32,1048.6665 28.304348,28.304348 0 0 1 3.695653,1020.3622 28.304348,28.304348 0 0 1 32,992.0578 Z"
       id="path4145-3" />
    <g
       id="g4362"
       transform="translate(0.23921725,-0.23921725)">
      <g
         id="g4323">
        <rect
           width="19"
           x="32.570122"
           y="1003.0457"
           height="28"
           style="fill:none;stroke:#ffffff;stroke-width:0.5;stroke-linecap:square;stroke-opacity:1"
           id="rect4169-2" />
        <rect
           width="19"
           x="32.570122"
           y="1019.0456"
           height="4"
           style="fill:none;stroke:#ffffff;stroke-width:0.5;stroke-linecap:square;stroke-opacity:1"
           id="rect4169-9-9" />
        <rect
           width="6"
           x="39.570122"
           y="1016.0456"
           height="2"
           style="fill:none;stroke:#ffffff;stroke-width:0.5;stroke-linecap:square;stroke-opacity:1"
           id="rect4216-0" />
        <rect
           width="4"
           x="33.570122"
           y="1012.0456"
           height="2"
           style="fill:none;stroke:#ffffff;stroke-width:0.5;stroke-linecap:square;stroke-opacity:1"
           id="rect4216-2-4" />
        <rect
           width="6"
           x="37.570122"
           y="1024.0457"
           height="2"
           style="fill:none;stroke:#ffffff;stroke-width:0.5;stroke-linecap:square;stroke-opacity:1"
           id="rect4220-0-19" />
        <rect
           width="3"
           x="33.570122"
           y="1016.0456"
           height="2"
           style="fill:none;stroke:#ffffff;stroke-width:0.5;stroke-linecap:square;stroke-opacity:1"
           id="rect4218-3-3-8" />
        <rect
           width="2"
           x="44.570122"
           y="1024.0457"
           height="2"
           style="fill:none;stroke:#ffffff;stroke-width:0.5;stroke-linecap:square;stroke-opacity:1"
           id="rect4218-3-3-2-5" />
        <rect
           width="3"
           x="33.570122"
           y="1024.0457"
           height="2"
           style="fill:none;stroke:#ffffff;stroke-width:0.5;stroke-linecap:square;stroke-opacity:1"
           id="rect4218-3-3-1-5" />
        <rect
           width="9"
           x="36.570122"
           y="1028.0457"
           height="2"
           style="fill:none;stroke:#ffffff;stroke-width:0.5;stroke-linecap:square;stroke-opacity:1"
           id="rect4220-0-1-3" />
        <rect
           width="1"
           x="-38.570122"
           y="1016.0456"
           height="2"
           style="fill:none;stroke:#ffffff;stroke-width:0.5;stroke-linecap:square;stroke-opacity:1"
           id="rect4220-0-1-2-0"
           transform="scale(-1,1)" />
        <rect
           width="2"
           x="33.570122"
           y="1028.0457"
           height="2"
           style="fill:none;stroke:#ffffff;stroke-width:0.5;stroke-linecap:square;stroke-opacity:1"
           id="rect4218-3-3-2-2-2" />
        <rect
           width="12"
           x="38.570122"
           y="1012.0456"
           height="2"
           style="fill:none;stroke:#ffffff;stroke-width:0.5;stroke-linecap:square;stroke-opacity:1"
           id="rect4216-2-3-6" />
        <rect
           width="9"
           x="33.570122"
           y="1008.0457"
           height="2"
           style="fill:none;stroke:#ffffff;stroke-width:0.5;stroke-linecap:square;stroke-opacity:1"
           id="rect4220-0-1-3-5" />
        <rect
           width="1"
           x="-44.570122"
           y="1008.0457"
           height="2"
           style="fill:none;stroke:#ffffff;stroke-width:0.5;stroke-linecap:square;stroke-opacity:1"
           id="rect4220-0-1-2-0-8"
           transform="scale(-1,1)" />
        <rect
           width="6"
           x="33.570122"
           y="1004.0457"
           height="2"
           style="fill:none;stroke:#ffffff;stroke-width:0.5;stroke-linecap:square;stroke-opacity:1"
           id="rect4216-0-3" />
        <rect
           width="3"
           x="43.570122"
           y="1004.0457"
           height="2"
           style="fill:none;stroke:#ffffff;stroke-width:0.5;stroke-linecap:square;stroke-opacity:1"
           id="rect4218-3-3-8-0" />
        <rect
           width="2"
           x="-42.570122"
           y="1004.0457"
           height="2"
           style="fill:none;stroke:#ffffff;stroke-width:0.5;stroke-linecap:square;stroke-opacity:1"
           id="rect4220-0-1-2-0-1"
           transform="scale(-1,1)" />
        <rect
           width="19"
           x="11.570121"
           y="1009.0457"
           height="29"
           style="fill:none;stroke:#ffffff;stroke-width:0.5;stroke-linecap:square;stroke-opacity:1"
           id="rect4169" />
        <g
           id="g4366"
           transform="translate(7.5701213,993.04571)"
           style="fill:none;stroke:#ffffff;stroke-opacity:1">
          <rect
             width="6"
             x="6"
             y="18"
             height="2"
             style="fill:none;stroke:#ffffff;stroke-width:0.5;stroke-linecap:square;stroke-opacity:1"
             id="rect4216" />
          <rect
             width="4"
             x="6"
             y="26"
             height="2"
             style="fill:none;stroke:#ffffff;stroke-width:0.5;stroke-linecap:square;stroke-opacity:1"
             id="rect4216-2" />
          <rect
             width="6"
             x="6"
             y="30"
             height="2"
             style="fill:none;stroke:#ffffff;stroke-width:0.5;stroke-linecap:square;stroke-opacity:1"
             id="rect4220-0" />
          <rect
             width="3"
             x="11"
             y="26"
             height="2"
             style="fill:none;stroke:#ffffff;stroke-width:0.5;stroke-linecap:square;stroke-opacity:1"
             id="rect4218-3-3" />
          <rect
             width="2"
             x="13"
             y="30"
             height="2"
             style="fill:none;stroke:#ffffff;stroke-width:0.5;stroke-linecap:square;stroke-opacity:1"
             id="rect4218-3-3-2" />
          <rect
             width="3"
             x="6"
             y="34"
             height="2"
             style="fill:none;stroke:#ffffff;stroke-width:0.5;stroke-linecap:square;stroke-opacity:1"
             id="rect4218-3-3-1" />
          <rect
             width="9"
             x="10"
             y="34"
             height="2"
             style="fill:none;stroke:#ffffff;stroke-width:0.5;stroke-linecap:square;stroke-opacity:1"
             id="rect4220-0-1" />
          <rect
             width="1"
             x="-21"
             y="34"
             height="2"
             style="fill:none;stroke:#ffffff;stroke-width:0.5;stroke-linecap:square;stroke-opacity:1"
             id="rect4220-0-1-2"
             transform="scale(-1,1)" />
          <rect
             width="2"
             x="6"
             y="38"
             height="2"
             style="fill:none;stroke:#ffffff;stroke-width:0.5;stroke-linecap:square;stroke-opacity:1"
             id="rect4218-3-3-2-2" />
          <rect
             width="4"
             x="9"
             y="38"
             height="2"
             style="fill:none;stroke:#ffffff;stroke-width:0.5;stroke-linecap:square;stroke-opacity:1"
             id="rect4216-2-3" />
          <rect
             width="6"
             x="10"
             y="42"
             height="2"
             style="fill:none;stroke:#ffffff;stroke-width:0.5;stroke-linecap:square;stroke-opacity:1"
             id="rect4220-0-19-9" />
          <rect
             width="3"
             x="6"
             y="42"
             height="2"
             style="fill:none;stroke:#ffffff;stroke-width:0.5;stroke-linecap:square;stroke-opacity:1"
             id="rect4218-3-3-1-5-4" />
        </g>
        <rect
           width="19"
           x="11.570121"
           y="1014.0456"
           height="4"
           style="fill:none;stroke:#ffffff;stroke-width:0.5;stroke-linecap:square;stroke-opacity:1"
           id="rect4169-9" />
        <rect
           width="3"
           x="13.570121"
           y="1015.0456"
           height="2"
           style="fill:none;stroke:#ffffff;stroke-width:0.5;stroke-linecap:square;stroke-opacity:1"
           id="rect4218" />
        <rect
           width="6"
           x="17.570122"
           y="1015.0456"
           height="2"
           style="fill:none;stroke:#ffffff;stroke-width:0.5;stroke-linecap:square;stroke-opacity:1"
           id="rect4220" />
        <rect
           width="3"
           x="13.570121"
           y="1015.0456"
           height="2"
           style="fill:none;stroke:#ffffff;stroke-width:0.5;stroke-linecap:square;stroke-opacity:1"
           id="rect4218-3" />
        <rect
           width="2"
           x="44.570122"
           y="1020.0456"
           height="2"
           style="fill:none;stroke:#ffffff;stroke-width:0.5;stroke-linecap:square;stroke-opacity:1"
           id="rect4220-6" />
        <rect
           width="10"
           x="33.570122"
           y="1020.0456"
           height="2"
           style="fill:none;stroke:#ffffff;stroke-width:0.5;stroke-linecap:square;stroke-opacity:1"
           id="rect4218-3-4" />
      </g>
      <path
         inkscape:connector-curvature="0"
         id="path61"
         d="m 44.266166,1000.5333 0,0 0.002,0 -0.002,0 z m 0,0 -2.328125,1.1426 c -2.332,1.144 -4.794922,3.75 -4.794922,3.75 l 0.367187,2.9453 c -0.138,0.201 -0.283687,0.4149 -0.429687,0.6289 l -1.035156,-1.8575 -1.685547,2.0977 1.142578,1.959 c 4.439758,-6.0243 8.753225,-10.6509 8.763672,-10.6621 l 0,0 z m 0,0.01 c -0.0017,0 -1.814292,2.3312 -3.925782,5.1328 l 3.716797,-2.1738 c 0,0 0.04767,-0.5856 0.138672,-1.3496 0.09097,-0.7555 0.07074,-1.5906 0.07031,-1.6094 z m -0.390625,3.6328 -4.169922,2.3477 c -0.760712,1.0161 -1.466036,1.9781 -2.207031,3.0019 0.456412,-0.2027 1.108265,-0.4823 1.728515,-0.6758 0.939,-0.292 3.800781,-0.6972 3.800781,-0.6972 0,0 0.02252,-0.4034 0.228516,-1.2344 0.206,-0.832 0.619141,-2.7422 0.619141,-2.7422 z m -9.839844,5.4492 c 0,0 -0.970219,1.1414 -3.949219,5.4005 -2.979,4.259 -5.441406,9.2167 -5.441406,9.2167 l 0.105469,3.0801 c 3.450388,-5.6732 6.891629,-10.8238 10.296875,-15.5117 0.140497,-0.1935 0.279519,-0.3718 0.419922,-0.5625 l -1.431641,-1.6231 z m 3.212891,0.252 c -0.538259,0.7478 -1.111184,1.5277 -1.570313,2.1972 -2.096197,3.057 -3.84554,5.7572 -5.458984,8.3087 l 7.636719,-1.1953 c 0,0 0.552531,-1.0484 1.394531,-2.7324 0.842,-1.6841 3.019531,-5.9239 3.019531,-5.9239 0,0 -1.461578,-0.042 -2.767578,-0.2207 -1.03686,-0.1432 -1.886658,-0.3437 -2.253906,-0.4336 z m -7.746094,11.6544 c -3.021337,4.8347 -5.364849,8.8996 -7.296875,12.2479 -0.03824,0.066 -0.06018,0.1064 -0.0918,0.1621 l -1.074216,-0.285 c -4.052,7.104 -2.585937,7.0507 -2.585937,7.0507 0,0 0.463098,-1.1851 3.667968,-6.7422 0.749204,-0.2238 1.652344,-0.6972 1.652344,-0.6972 l 0.128906,-0.8555 1.97461,-0.6367 -2.199219,-0.4375 c 0.053,-0.089 0.117875,-0.1971 0.171875,-0.2871 0.263,0.081 0.573297,0.1732 1.154297,0.2793 1.393,0.2539 2.330078,-0.2539 2.330078,-0.2539 l 1,-1.2735 c 0,0 -0.777344,0.5412 -1.652344,0.6993 -0.861,0.157 -2.32514,-0.2039 -2.36914,-0.2149 0.077,-0.1271 0.159281,-0.2656 0.238281,-0.3945 0.37,-0.094 3.703109,-0.9637 5.662109,-2.3458 2.073,-1.4619 6.185547,-5.9746 6.185547,-5.9746 0,0 -0.991906,-0.01 -3.128906,-0.041 -1.893208,-0.028 -3.405122,-0.015 -3.767578,0 z m -5.699219,4.0468 -1.035156,1.7149 -0.259766,1.6542 -0.582031,0.6993 c 0,0 -0.701926,2.6393 -0.787109,3.8026 1.03608,-1.8158 2.070034,-3.5654 3.105468,-5.2832 l -0.441406,-2.5878 z"
         style="fill:#ffffff;fill-opacity:1;fill-rule:evenodd" />
    </g>
  </g>
</svg>
