<?xml version="1.0" encoding="UTF-8" standalone="no"?>
<!-- Created with Inkscape (http://www.inkscape.org/) -->

<svg
   xmlns:dc="http://purl.org/dc/elements/1.1/"
   xmlns:cc="http://creativecommons.org/ns#"
   xmlns:rdf="http://www.w3.org/1999/02/22-rdf-syntax-ns#"
   xmlns:svg="http://www.w3.org/2000/svg"
   xmlns="http://www.w3.org/2000/svg"
   xmlns:sodipodi="http://sodipodi.sourceforge.net/DTD/sodipodi-0.dtd"
   xmlns:inkscape="http://www.inkscape.org/namespaces/inkscape"
   width="64"
   height="64"
   viewBox="0 0 64 64"
   id="svg4178"
   version="1.1"
   inkscape:version="0.91 r13725"
   sodipodi:docname="ktnef.svg">
  <defs
     id="defs4180">
    <linearGradient
       id="g"
       y1="527.79999"
       y2="511.79999"
       x2="0"
       gradientUnits="userSpaceOnUse"
       gradientTransform="translate(-383.72419,506.70269)">
      <stop
         stop-color="#7cbaf8"
         id="stop37" />
      <stop
         offset="1"
         stop-color="#f4fcff"
         id="stop39" />
    </linearGradient>
  </defs>
  <sodipodi:namedview
     id="base"
     pagecolor="#ffffff"
     bordercolor="#666666"
     borderopacity="1.0"
     inkscape:pageopacity="0.0"
     inkscape:pageshadow="2"
     inkscape:zoom="8.3926339"
     inkscape:cx="25.286309"
     inkscape:cy="35.395551"
     inkscape:document-units="px"
     inkscape:current-layer="layer1"
     showgrid="false"
     units="px"
     inkscape:window-width="1280"
     inkscape:window-height="726"
     inkscape:window-x="0"
     inkscape:window-y="26"
     inkscape:window-maximized="1" />
  <metadata
     id="metadata4183">
    <rdf:RDF>
      <cc:Work
         rdf:about="">
        <dc:format>image/svg+xml</dc:format>
        <dc:type
           rdf:resource="http://purl.org/dc/dcmitype/StillImage" />
        <dc:title></dc:title>
      </cc:Work>
    </rdf:RDF>
  </metadata>
  <g
     inkscape:label="Layer 1"
     inkscape:groupmode="layer"
     id="layer1"
     transform="translate(0,-988.3622)">
    <circle
       style="opacity:1;fill:#31363b;fill-opacity:1;stroke:none;stroke-width:1.24300003;stroke-miterlimit:4;stroke-dasharray:none;stroke-opacity:1"
       id="path4746"
       cx="32"
       cy="1020.3622"
       r="32" />
    <path
       inkscape:connector-curvature="0"
       style="opacity:1;fill:#ffffff;fill-opacity:1;stroke:none;stroke-width:1.24300003;stroke-miterlimit:4;stroke-dasharray:none;stroke-opacity:1"
       d="m 31.999999,989.36223 a 31,31 0 0 0 -30.99999956,31.00007 31,31 0 0 0 30.99999956,31 31,31 0 0 0 31,-31 31,31 0 0 0 -31,-31.00007 z m 0,2.69565 a 28.304348,28.304348 0 0 1 28.304348,28.30442 28.304348,28.304348 0 0 1 -28.304348,28.3043 28.304348,28.304348 0 0 1 -28.3043474,-28.3043 28.304348,28.304348 0 0 1 28.3043474,-28.30442 z"
       id="path4145-3" />
    <path
       inkscape:connector-curvature="0"
       style="color-interpolation:sRGB;color-interpolation-filters:linearRGB;fill:#ffffff;fill-opacity:1;color-rendering:auto;image-rendering:auto;shape-rendering:auto;text-rendering:auto;stroke:#31363b;stroke-opacity:1"
       id="path67"
       d="m 47.928862,1006.7978 c 2.41388,2.4141 2.41388,6.3008 0,8.7163 l -18.834548,18.8347 c -3.219224,3.2184 -8.402429,3.2184 -11.621619,0 -3.219223,-3.2192 -3.219223,-8.4038 0,-11.622 l 18.834537,-18.8349 1.45246,1.4518 -18.834554,18.8352 c -2.413888,2.4152 -2.413888,6.302 0,8.7182 2.413881,2.4117 6.300777,2.4117 8.716728,0 l 18.834553,-18.8356 c 1.608572,-1.6093 1.608572,-4.2013 0,-5.8082 -1.608579,-1.6092 -4.2012,-1.6092 -5.809789,0 l -18.834542,18.8332 c -0.805324,0.8046 -0.805324,2.1019 0,2.9056 0.805311,0.805 2.09957,0.805 2.90489,0 l 17.382095,-17.3825 1.45246,1.4519 -17.38211,17.383 c -1.60858,1.6076 -4.201201,1.6076 -5.809789,0 -1.608567,-1.6099 -1.608567,-4.203 0,-5.8117 l 18.834551,-18.834 c 2.413895,-2.4138 6.300788,-2.4138 8.716728,0" />
  </g>
</svg>
