<?xml version="1.0" encoding="UTF-8" standalone="no"?>
<!-- Created with Inkscape (http://www.inkscape.org/) -->

<svg
   xmlns:dc="http://purl.org/dc/elements/1.1/"
   xmlns:cc="http://creativecommons.org/ns#"
   xmlns:rdf="http://www.w3.org/1999/02/22-rdf-syntax-ns#"
   xmlns:svg="http://www.w3.org/2000/svg"
   xmlns="http://www.w3.org/2000/svg"
   xmlns:sodipodi="http://sodipodi.sourceforge.net/DTD/sodipodi-0.dtd"
   xmlns:inkscape="http://www.inkscape.org/namespaces/inkscape"
   width="64"
   height="64"
   viewBox="0 0 64 64"
   id="svg4178"
   version="1.1"
   inkscape:version="0.91 r13725"
   sodipodi:docname="partitionmanager.svg">
  <defs
     id="defs4180" />
  <sodipodi:namedview
     id="base"
     pagecolor="#ffffff"
     bordercolor="#666666"
     borderopacity="1.0"
     inkscape:pageopacity="0.0"
     inkscape:pageshadow="2"
     inkscape:zoom="4.2954346"
     inkscape:cx="53.071027"
     inkscape:cy="25.834415"
     inkscape:document-units="px"
     inkscape:current-layer="layer1"
     showgrid="false"
     units="px"
     inkscape:window-width="1280"
     inkscape:window-height="722"
     inkscape:window-x="0"
     inkscape:window-y="28"
     inkscape:window-maximized="1" />
  <metadata
     id="metadata4183">
    <rdf:RDF>
      <cc:Work
         rdf:about="">
        <dc:format>image/svg+xml</dc:format>
        <dc:type
           rdf:resource="http://purl.org/dc/dcmitype/StillImage" />
        <dc:title />
      </cc:Work>
    </rdf:RDF>
  </metadata>
  <g
     inkscape:label="Layer 1"
     inkscape:groupmode="layer"
     id="layer1"
     transform="translate(0,-988.3622)">
    <circle
       style="opacity:1;fill:#31363b;fill-opacity:1;stroke:none;stroke-width:1.24300003;stroke-miterlimit:4;stroke-dasharray:none;stroke-opacity:1"
       id="path4746"
       cx="32"
       cy="1020.3622"
       r="32" />
    <path
       inkscape:connector-curvature="0"
       style="opacity:1;fill:#ffffff;fill-opacity:1;stroke:none;stroke-width:1.24300003;stroke-miterlimit:4;stroke-dasharray:none;stroke-opacity:1"
       d="m 31.999999,989.36223 a 31,31 0 0 0 -30.99999956,31.00007 31,31 0 0 0 30.99999956,31 31,31 0 0 0 31,-31 31,31 0 0 0 -31,-31.00007 z m 0,2.69565 a 28.304348,28.304348 0 0 1 28.304348,28.30442 28.304348,28.304348 0 0 1 -28.304348,28.3043 28.304348,28.304348 0 0 1 -28.3043474,-28.3043 28.304348,28.304348 0 0 1 28.3043474,-28.30442 z"
       id="path4145-3" />
    <path
       inkscape:connector-curvature="0"
       style="display:inline;opacity:1;fill:#ffffff;fill-opacity:1;stroke:none;stroke-width:2.79999995;stroke-miterlimit:4;stroke-dasharray:none;stroke-opacity:0.55026455"
       d="m 17000,1005.3618 0,0.9903 0,0.01 0.01,0 8.99,8.9921 0,0.6172 -9,9 0,0.3906 0,1.0234 0,7.9766 0,1 1,0 9,0 0.424,0 9,-9 0.586,0 8.99,8.9902 0,0.01 1,0 0,-0.4238 0,-19.1523 0,-1.4141 0,-9.0098 -29.576,0 -0.424,0 z m 1.424,1 27.576,0 0,9.0098 0,1.4141 0,17.1523 -8,-8 0,-1.1524 0,-1.414 0,-9.0098 -11.578,0 -7.998,-8 z m 8.576,9 0.424,0 9.576,0 0,9.0098 0,0.5664 0,0.4238 -10,0 0,-8.9765 0,-0.033 0,-0.9903 z m -1,2.0234 0,8.9766 9.01,0 -8.01,8.0098 0,-0.01 -9,0 0,-8.9766 8,-8 z"
       id="rect4166" />
    <path
       inkscape:connector-curvature="0"
       style="display:inline;opacity:1;fill:#ffffff;fill-opacity:1;stroke:none"
       d="m 32,-15977.638 a 14.999999,4.5 0 0 0 -15,4.5 l 0,4 a 14.999999,4.5 0 0 0 1.576172,1.996 14.999999,4.5 0 0 0 -1.576172,2.004 l 0,4 a 14.999999,4.5 0 0 0 2.539062,2.502 14.999999,4.5 0 0 0 -2.539062,2.498 l 0,4 a 14.999999,4.5 0 0 0 15,4.5 14.999999,4.5 0 0 0 15,-4.5 l 0,-4 a 14.999999,4.5 0 0 0 -2.539062,-2.502 14.999999,4.5 0 0 0 2.539062,-2.498 l 0,-4 a 14.999999,4.5 0 0 0 -1.576172,-1.996 14.999999,4.5 0 0 0 1.576172,-2.004 l 0,-4 a 14.999999,4.5 0 0 0 -15,-4.5 z m 0,1 a 14,3.5 0 0 1 14,3.5 14,3.5 0 0 1 -2,1.795 l 0,-0.01 a 14,3.5 0 0 1 -0.507812,0.203 14,3.5 0 0 1 -0.01563,0.01 14,3.5 0 0 1 -11.476558,1.502 14,3.5 0 0 1 -11.476562,-1.502 14,3.5 0 0 1 -0.01563,-0.01 14,3.5 0 0 1 -0.507812,-0.203 l 0,0.01 a 14,3.5 0 0 1 -2,-1.795 14,3.5 0 0 1 14,-3.5 z m -14,5.102 a 14.999999,4.5 0 0 0 14,2.898 14.999999,4.5 0 0 0 14,-2.898 l 0,2.398 a 14,3.5 0 0 1 -14,3.5 14,3.5 0 0 1 -14,-3.5 l 0,-2.398 z m 26.558594,4.855 a 14,3.5 0 0 1 1.441406,1.543 14,3.5 0 0 1 -2,1.795 l 0,-0.01 a 14,3.5 0 0 1 -0.507812,0.203 14,3.5 0 0 1 -0.01563,0.01 14,3.5 0 0 1 -11.476558,1.502 14,3.5 0 0 1 -11.476562,-1.502 14,3.5 0 0 1 -0.01563,-0.01 14,3.5 0 0 1 -0.507812,-0.203 l 0,0.01 a 14,3.5 0 0 1 -2,-1.795 14,3.5 0 0 1 1.449219,-1.541 14.999999,4.5 0 0 0 12.550781,2.037 14.999999,4.5 0 0 0 12.558594,-2.043 z M 18,-15963.536 a 14.999999,4.5 0 0 0 14,2.898 14.999999,4.5 0 0 0 14,-2.898 l 0,2.398 a 14,3.5 0 0 1 -14,3.5 14,3.5 0 0 1 -14,-3.5 l 0,-2.398 z m 25.314453,5.343 a 14,3.5 0 0 1 2.685547,2.055 14,3.5 0 0 1 -2,1.795 l 0,-0.01 a 14,3.5 0 0 1 -0.507812,0.203 14,3.5 0 0 1 -0.01563,0.01 14,3.5 0 0 1 -11.476558,1.502 14,3.5 0 0 1 -11.476562,-1.502 14,3.5 0 0 1 -0.01563,-0.01 14,3.5 0 0 1 -0.507812,-0.203 l 0,0.01 a 14,3.5 0 0 1 -2,-1.795 14,3.5 0 0 1 2.677734,-2.053 14.999999,4.5 0 0 0 11.322266,1.549 14.999999,4.5 0 0 0 11.314453,-1.555 z M 18,-15954.536 a 14.999999,4.5 0 0 0 14,2.898 14.999999,4.5 0 0 0 14,-2.898 l 0,2.398 a 14,3.5 0 0 1 -14,3.5 14,3.5 0 0 1 -14,-3.5 l 0,-2.398 z"
       id="path4169" />
    <path
       inkscape:connector-curvature="0"
       style="opacity:1;fill:#ffffff;fill-opacity:1;stroke:none;stroke-width:2.79999995;stroke-miterlimit:4;stroke-dasharray:none;stroke-opacity:0.55026455"
       d="m 30.666667,1000.3622 0,9.3333 1.333333,0 0,-7.9999 c 10.341328,0 18.666667,8.3253 18.666667,18.6666 l 1.333333,0 c 0,-11.08 -8.920007,-20 -20,-20 l -1.333333,0 z M 32,1009.6955 c -5.456716,0 -9.922108,4.0591 -10.575521,9.3334 l -9.424479,0 0,1.3333 c 0,11.08 8.920007,20 20,20 l 0,-1.3333 c -10.341328,0 -18.666667,-8.3254 -18.666667,-18.6667 l 8,0 c 0,5.9093 4.757334,10.6667 10.666667,10.6667 5.909333,0 10.666667,-4.7574 10.666667,-10.6667 l 0,-1.3333 -9.333334,0 0,-9.3334 -1.333333,0 z m 0,1.3334 0,9.3333 9.333333,0 c 0,5.1707 -4.162666,9.3333 -9.333333,9.3333 -5.170667,0 -9.333333,-4.1626 -9.333333,-9.3333 0,-5.1707 4.162666,-9.3333 9.333333,-9.3333 z"
       id="rect4166-3" />
  </g>
</svg>
