<?xml version="1.0" encoding="UTF-8" standalone="no"?>
<!-- Created with Inkscape (http://www.inkscape.org/) -->

<svg
   xmlns:dc="http://purl.org/dc/elements/1.1/"
   xmlns:cc="http://creativecommons.org/ns#"
   xmlns:rdf="http://www.w3.org/1999/02/22-rdf-syntax-ns#"
   xmlns:svg="http://www.w3.org/2000/svg"
   xmlns="http://www.w3.org/2000/svg"
   xmlns:sodipodi="http://sodipodi.sourceforge.net/DTD/sodipodi-0.dtd"
   xmlns:inkscape="http://www.inkscape.org/namespaces/inkscape"
   width="68.26667"
   height="68.26667"
   viewBox="0 0 64 64"
   id="svg4178"
   version="1.1"
   inkscape:version="0.92.1 r"
   sodipodi:docname="qelectrotech.svg">
  <defs
     id="defs4180" />
  <sodipodi:namedview
     id="base"
     pagecolor="#ffffff"
     bordercolor="#666666"
     borderopacity="1.0"
     inkscape:pageopacity="0.0"
     inkscape:pageshadow="2"
     inkscape:zoom="8.2004362"
     inkscape:cx="28.135707"
     inkscape:cy="30.333747"
     inkscape:document-units="px"
     inkscape:current-layer="layer1"
     showgrid="false"
     units="px"
     inkscape:window-width="1280"
     inkscape:window-height="726"
     inkscape:window-x="0"
     inkscape:window-y="26"
     inkscape:window-maximized="1" />
  <metadata
     id="metadata4183">
    <rdf:RDF>
      <cc:Work
         rdf:about="">
        <dc:format>image/svg+xml</dc:format>
        <dc:type
           rdf:resource="http://purl.org/dc/dcmitype/StillImage" />
        <dc:title></dc:title>
      </cc:Work>
    </rdf:RDF>
  </metadata>
  <g
     inkscape:label="Layer 1"
     inkscape:groupmode="layer"
     id="layer1"
     transform="translate(0,-988.3622)">
    <circle
       style="opacity:1;fill:#31363b;fill-opacity:1;stroke:none;stroke-width:1.24300003;stroke-miterlimit:4;stroke-dasharray:none;stroke-opacity:1"
       id="path4746"
       cx="32"
       cy="1020.3622"
       r="32" />
    <path
       inkscape:connector-curvature="0"
       style="opacity:1;fill:#ffffff;fill-opacity:1;stroke:none;stroke-width:1.24300003;stroke-miterlimit:4;stroke-dasharray:none;stroke-opacity:1"
       d="m 31.999999,989.36223 a 31,31 0 0 0 -30.99999956,31.00007 31,31 0 0 0 30.99999956,31 31,31 0 0 0 31,-31 31,31 0 0 0 -31,-31.00007 z m 0,2.69565 a 28.304348,28.304348 0 0 1 28.304348,28.30442 28.304348,28.304348 0 0 1 -28.304348,28.3043 28.304348,28.304348 0 0 1 -28.3043474,-28.3043 28.304348,28.304348 0 0 1 28.3043474,-28.30442 z"
       id="path4145-3" />
    <path
       style="color:#000000;fill:#ffffff;fill-opacity:1;fill-rule:evenodd;stroke-width:1.31583118"
       inkscape:connector-curvature="0"
       id="path11"
       d="m 25.902611,1004.5974 c -2.322442,0 -4.248819,1.7119 -4.564618,3.9475 h -0.04079 -0.905292 -5.67518 -1.315831 v 10.5267 h -2.631663 v 1.3158 h 6.579157 v -1.3158 h -2.631662 v -9.2109 h 5.67518 0.905292 0.04079 c 0.315799,2.2357 2.240861,3.9476 4.564618,3.9476 2.322442,0 4.248819,-1.7119 4.564618,-3.9476 h 0.04079 0.411855 4.852786 v 2.6318 h 11.842481 v -2.6318 h 2.631662 v 21.0533 h -3.986969 c -0.315799,-2.2355 -2.240861,-3.9474 -4.564618,-3.9474 -2.322444,0 -4.24882,1.7119 -4.56462,3.9474 h -4.111971 c -0.268429,-0.7711 -0.986873,-1.3158 -1.850058,-1.3158 -1.089509,0 -1.973747,0.8843 -1.973747,1.9737 0,1.0895 0.884238,1.9738 1.973747,1.9738 0.863185,0 1.581629,-0.5447 1.850058,-1.3158 h 4.111973 c 0.315799,2.2355 2.24086,3.9474 4.564619,3.9474 2.322442,0 4.248819,-1.7119 4.564618,-3.9474 h 3.98697 1.31583 v -23.685 h -3.947493 v -2.6316 H 35.772661 v 2.6316 H 30.919875 30.50802 30.46723 c -0.315799,-2.2356 -2.24086,-3.9475 -4.564618,-3.9475 m 0,1.3159 c 0.661864,0 1.293462,0.1974 1.809269,0.5342 l -1.809269,1.8093 -1.809268,-1.8093 c 0.515807,-0.3368 1.147405,-0.5342 1.809268,-0.5342 m -2.755349,1.4803 1.809266,1.8093 -1.809266,1.8092 c -0.336852,-0.5158 -0.534228,-1.1474 -0.534228,-1.8092 0,-0.6619 0.197376,-1.2935 0.534228,-1.8093 m 5.5107,0 c 0.336854,0.5158 0.534227,1.1474 0.534227,1.8093 0,0.6618 -0.197373,1.2934 -0.534227,1.8092 l -1.809268,-1.8092 1.809268,-1.8093 m -2.755351,2.7553 1.809269,1.8093 c -0.515807,0.3369 -1.147405,0.5343 -1.809269,0.5343 -0.661863,0 -1.293461,-0.1974 -1.809268,-0.5343 l 1.809268,-1.8093 m -13.816227,11.5543 v 1.3158 h 1.31583 v 9.2109 h 1.315831 4.071183 c 0.268428,0.7711 0.986873,1.3158 1.850058,1.3158 1.089509,0 1.973747,-0.8843 1.973747,-1.9738 0,-0.1355 -0.01447,-0.2828 -0.04079,-0.4118 l 6.991012,-4.0304 -0.657916,-1.1513 -7.031801,4.0711 c -0.339486,-0.2762 -0.761867,-0.4527 -1.234251,-0.4527 -0.863185,0 -1.581629,0.5448 -1.850058,1.3158 h -4.071182 v -7.8949 h 1.315831 v -1.3158 h -3.947494 m 29.606202,6.5791 c 1.817163,0 3.289578,1.4725 3.289578,3.2896 0,1.8172 -1.472415,3.2896 -3.289578,3.2896 -1.817162,0 -3.289578,-1.4724 -3.289578,-3.2896 0,-1.8171 1.472416,-3.2896 3.289578,-3.2896 m -21.053299,2.6316 c 0.36317,0 0.657916,0.2949 0.657916,0.658 0,0.3632 -0.294746,0.658 -0.657916,0.658 -0.36317,0 -0.657916,-0.2948 -0.657916,-0.658 0,-0.3631 0.294746,-0.658 0.657916,-0.658 m 10.526649,0 c 0.36317,0 0.657916,0.2949 0.657916,0.658 0,0.3632 -0.294746,0.658 -0.657916,0.658 -0.363168,0 -0.657916,-0.2948 -0.657916,-0.658 0,-0.3631 0.294748,-0.658 0.657916,-0.658" />
  </g>
</svg>
