<?xml version="1.0" encoding="UTF-8" standalone="no"?>
<!-- Created with Inkscape (http://www.inkscape.org/) -->

<svg
   xmlns:dc="http://purl.org/dc/elements/1.1/"
   xmlns:cc="http://creativecommons.org/ns#"
   xmlns:rdf="http://www.w3.org/1999/02/22-rdf-syntax-ns#"
   xmlns:svg="http://www.w3.org/2000/svg"
   xmlns="http://www.w3.org/2000/svg"
   xmlns:sodipodi="http://sodipodi.sourceforge.net/DTD/sodipodi-0.dtd"
   xmlns:inkscape="http://www.inkscape.org/namespaces/inkscape"
   width="64"
   height="64"
   viewBox="0 0 64 64"
   id="svg4178"
   version="1.1"
   inkscape:version="0.91 r13725"
   sodipodi:docname="retroshare06.svg">
  <defs
     id="defs4180" />
  <sodipodi:namedview
     id="base"
     pagecolor="#ffffff"
     bordercolor="#666666"
     borderopacity="1.0"
     inkscape:pageopacity="0.0"
     inkscape:pageshadow="2"
     inkscape:zoom="0.52453962"
     inkscape:cx="77.730041"
     inkscape:cy="202.55479"
     inkscape:document-units="px"
     inkscape:current-layer="layer1"
     showgrid="false"
     units="px"
     inkscape:window-width="1280"
     inkscape:window-height="726"
     inkscape:window-x="0"
     inkscape:window-y="26"
     inkscape:window-maximized="1" />
  <metadata
     id="metadata4183">
    <rdf:RDF>
      <cc:Work
         rdf:about="">
        <dc:format>image/svg+xml</dc:format>
        <dc:type
           rdf:resource="http://purl.org/dc/dcmitype/StillImage" />
        <dc:title></dc:title>
      </cc:Work>
    </rdf:RDF>
  </metadata>
  <g
     inkscape:label="Layer 1"
     inkscape:groupmode="layer"
     id="layer1"
     transform="translate(0,-988.3622)">
    <circle
       style="opacity:1;fill:#31363b;fill-opacity:1;stroke:none;stroke-width:1.24300003;stroke-miterlimit:4;stroke-dasharray:none;stroke-opacity:1"
       id="path4746"
       cx="32"
       cy="1020.3622"
       r="32" />
    <path
       inkscape:connector-curvature="0"
       style="opacity:1;fill:#ffffff;fill-opacity:1;stroke:none;stroke-width:1.24300003;stroke-miterlimit:4;stroke-dasharray:none;stroke-opacity:1"
       d="m 31.999999,989.36223 a 31,31 0 0 0 -30.99999956,31.00007 31,31 0 0 0 30.99999956,31 31,31 0 0 0 31,-31 31,31 0 0 0 -31,-31.00007 z m 0,2.69565 a 28.304348,28.304348 0 0 1 28.304348,28.30442 28.304348,28.304348 0 0 1 -28.304348,28.3043 28.304348,28.304348 0 0 1 -28.3043474,-28.3043 28.304348,28.304348 0 0 1 28.3043474,-28.30442 z"
       id="path4145-3" />
    <path
       style="fill:#ffffff;fill-opacity:1;stroke:none;stroke-opacity:1"
       d="m 20.139532,1040.2218 c -0.631398,-0.2548 -0.904862,-0.8159 -0.700155,-1.4354 0.172291,-0.5224 0.544664,-0.7696 1.113408,-0.7394 0.503824,0.022 0.734932,-0.095 0.845891,-0.4443 0.03732,-0.116 0.793965,-1.4283 1.68133,-2.9138 1.458243,-2.4391 2.324631,-3.8938 2.603996,-4.3701 0.05555,-0.095 0.317708,-0.5372 0.582566,-0.9847 0.264876,-0.4459 0.466132,-0.8269 0.447174,-0.8459 -0.01908,-0.016 -0.660439,0.1416 -1.425579,0.3563 -0.765154,0.2154 -1.406201,0.3757 -1.42461,0.3581 -0.0603,-0.058 0.50237,-0.2449 1.721586,-0.5659 0.659463,-0.1731 1.217795,-0.3326 1.240678,-0.354 0.02305,-0.018 -0.521016,-0.033 -1.208711,-0.033 l -1.250316,0 -0.358929,0.3485 c -0.311006,0.3023 -0.351577,0.394 -0.303639,0.6898 0.04646,0.2862 0.01532,0.3671 -0.195328,0.5053 -0.338546,0.2218 -0.730968,0.1122 -0.851724,-0.2314 -0.079,-0.2265 -0.184237,-0.2864 -0.687047,-0.3903 -0.326531,-0.065 -0.674677,-0.1227 -0.773667,-0.1227 -0.167329,0 -1.056986,0.6564 -1.325441,0.9781 -0.06536,0.076 -0.16471,0.126 -0.221093,0.1083 -0.05646,-0.016 0.192941,-0.2789 0.554052,-0.5755 0.543362,-0.4461 0.628456,-0.5556 0.493363,-0.6308 -0.120577,-0.064 -0.267446,-0.01 -0.560415,0.2231 -0.218438,0.173 -0.39715,0.267 -0.39715,0.2091 0,-0.057 0.112516,-0.18 0.249829,-0.2702 0.297274,-0.195 0.322851,-0.3406 0.05984,-0.3406 -0.124247,0 -0.228898,0.1092 -0.302264,0.3222 -0.129092,0.3702 -0.595577,0.8957 -0.724466,0.8163 -0.048,-0.024 -0.07472,0 -0.05972,0.077 0.01521,0.072 0.139874,0.1548 0.277274,0.1828 0.177484,0.03 0.258482,0.1254 0.279827,0.3082 0.04283,0.3676 -0.209834,0.5548 -0.5437,0.4027 -0.207702,-0.095 -0.248058,-0.1696 -0.207166,-0.383 0.08013,-0.4195 -9.98e-4,-0.5223 -0.337094,-0.4259 -0.16176,0.038 -0.450779,0.056 -0.642296,0.023 -0.293289,-0.039 -0.348881,-0.022 -0.352672,0.1313 -0.003,0.1329 -0.04082,0.1021 -0.128659,-0.1022 l -0.12418,-0.2908 -0.351761,0.834 c -0.193452,0.4587 -0.416592,0.8558 -0.495814,0.8824 -0.112109,0.031 -0.119269,0.013 -0.03106,-0.094 0.0622,-0.075 0.252852,-0.4627 0.423944,-0.8558 l 0.311125,-0.7146 -0.292471,-0.3134 c -0.4007,-0.4288 -0.543278,-0.9158 -0.470872,-1.6083 0.054,-0.5163 0.0081,-0.7184 -0.44729,-2.0087 -0.278975,-0.7894 -0.58041,-1.6709 -0.669833,-1.9591 -0.173581,-0.5602 -0.223907,-0.607 -0.410977,-0.3813 -0.08676,0.1032 -0.08999,0.1975 -0.01233,0.3428 0.273814,0.5118 -0.07772,1.1135 -0.649001,1.1107 -0.349226,0 -0.474616,-0.07 -0.628079,-0.3666 -0.1802,-0.3423 -0.13646,-0.6188 0.142028,-0.8966 0.215889,-0.2164 0.316953,-0.2477 0.633349,-0.1968 0.326205,0.043 0.393429,0.024 0.503869,-0.1782 0.107879,-0.2016 0.09608,-0.3278 -0.07698,-0.8229 -0.539095,-1.5431 -1.446403,-4.1349 -1.603674,-4.5812 -0.199401,-0.5657 -0.01431,-0.4961 -2.139538,-0.8042 -1.0598286,-0.1544 -1.1941706,-0.1563 -1.3489226,-0.014 -0.481867,0.4306 -1.126915,0.1055 -0.976972,-0.4907 0.125976,-0.5021 0.858242,-0.5043 1.048682,0 0.07433,0.1958 0.21969,0.2412 1.2692286,0.395 0.651778,0.096 1.354893,0.2016 1.562417,0.2359 l 0.377347,0.058 -0.332905,-0.9379 -0.33294,-0.9372 -0.435122,-0.054 c -0.727441,-0.098 -1.025073,-0.77 -0.656646,-1.4827 0.17024,-0.3291 0.330948,-0.4072 0.842099,-0.4072 0.520418,0 1.010109,0.4653 1.010109,0.9593 0,0.1906 0.148481,0.256 1.323977,0.5793 0.728162,0.2005 1.732832,0.4778 2.232535,0.6159 1.248027,0.346 1.480553,0.3552 1.522407,0.058 0.01829,-0.128 -0.03294,-0.308 -0.113895,-0.3996 -0.240935,-0.2734 -0.01558,-0.6814 0.348493,-0.6304 0.03718,0 0.202906,-0.2098 0.368003,-0.4783 l 0.300161,-0.4879 -0.203361,-0.1841 c -0.11187,-0.1011 -0.267595,-0.3083 -0.346144,-0.4598 -0.167607,-0.3243 -0.130924,-0.3291 -1.835166,0.2268 -1.084344,0.354 -2.776503,0.8929 -3.272413,1.0432 -0.123634,0.031 -0.2248,0.025 -0.2248,-0.012 0,-0.038 0.303494,-0.1694 0.674445,-0.2752 0.370984,-0.1044 1.34896,-0.4096 2.173285,-0.6755 0.824359,-0.266 1.667446,-0.5289 1.873505,-0.5849 0.34975,-0.092 0.374716,-0.1268 0.374716,-0.4823 0,-0.5427 0.179727,-1.0103 0.532827,-1.3852 l 0.306143,-0.3248 -0.218351,-0.4496 c -0.203792,-0.4192 -0.244515,-0.4495 -0.611657,-0.4495 -0.277366,0 -0.483939,-0.078 -0.700728,-0.2583 -0.265322,-0.2234 -0.307454,-0.3253 -0.307454,-0.7426 0,-0.4043 0.04343,-0.5172 0.266038,-0.6927 0.367355,-0.2886 0.683125,-0.3496 1.042625,-0.2009 0.459228,0.1904 0.627434,0.5133 0.560735,1.0765 -0.05424,0.4582 -0.04353,0.4833 0.306589,0.7211 0.199491,0.1357 0.481316,0.362 0.626227,0.5027 0.144908,0.1407 0.423201,0.3318 0.61842,0.4242 0.195249,0.094 0.495801,0.3289 0.667897,0.5249 0.172131,0.1962 0.997527,0.9005 1.834252,1.5652 0.836761,0.665 1.540059,1.2244 1.562943,1.2425 0.02303,0.015 0.01394,0.059 -0.01991,0.095 -0.03389,0.028 -0.300023,-0.1385 -0.591203,-0.384 -0.291181,-0.2454 -0.934095,-0.7726 -1.428716,-1.1718 l -0.899275,-0.7257 -0.05814,0.5926 c -0.03184,0.326 -0.08886,0.6427 -0.126743,0.704 -0.07514,0.1217 -0.07005,0.1247 3.127274,2.1555 2.036559,1.2932 2.152257,1.3529 2.328628,1.1931 0.180655,-0.1636 0.180471,-0.1721 -0.0071,-0.3222 -1.047122,-0.8404 -1.413221,-1.0912 -1.466667,-1.005 -0.03409,0.049 -0.191966,0.1001 -0.350469,0.1001 -0.297653,0 -0.599316,-0.3006 -0.599316,-0.5973 0,-0.1605 -0.412313,-0.3738 -1.74066,-0.8997 -0.856663,-0.3391 -1.366175,-0.5912 -1.206976,-0.5972 0.05495,0 0.746409,0.267 1.536595,0.5969 1.307155,0.5472 1.447722,0.5863 1.558873,0.4341 0.09535,-0.1302 0.218713,-0.1541 0.561723,-0.1063 0.295543,0.033 0.499616,0.012 0.622872,-0.074 0.170485,-0.1263 0.128436,-0.194 -0.599517,-0.9672 -2.066877,-2.1955 -1.934583,-2.0759 -2.191983,-1.9782 -0.475721,0.1813 -0.93901,-0.1666 -0.93901,-0.7034 0,-0.4175 0.205535,-0.6574 0.680457,-0.7941 0.228977,-0.063 0.338527,-0.043 0.425688,0.044 0.06459,0.076 0.159048,0.1412 0.209951,0.1412 0.121664,0 1.281842,-0.819 1.281842,-0.905 0,-0.03 -0.102507,-0.2181 -0.227668,-0.405 -0.125203,-0.186 -0.353556,-0.5549 -0.50744,-0.8195 -0.264593,-0.4549 -0.297022,-0.4765 -0.596697,-0.4081 -0.447395,0.1044 -0.851366,0.054 -1.15986,-0.1223 -1.24655,-0.7361 -0.725708,-2.6352 0.723051,-2.6357 1.249074,-9e-4 1.84249,1.4839 0.968413,2.422 -0.166202,0.1784 -0.152793,0.2174 0.310898,0.9056 0.266527,0.3956 0.485665,0.7754 0.486976,0.8446 0.004,0.2282 0.19417,0.1299 1.255387,-0.65 0.579461,-0.4261 1.247329,-0.9094 1.484207,-1.0739 0.236888,-0.1648 0.80119,-0.5697 1.254049,-0.8997 0.45284,-0.3291 0.949652,-0.6894 1.10407,-0.7991 0.154454,-0.1083 0.923627,-0.6719 1.709264,-1.2491 0.78568,-0.5771 1.529856,-1.1166 1.653781,-1.199 0.123902,-0.079 0.856901,-0.6143 1.628862,-1.1826 1.306643,-0.9613 1.403604,-1.0553 1.403604,-1.3586 0,-0.40385 0.261434,-0.65643 0.680025,-0.65643 0.225027,0 0.361013,0.0655 0.477769,0.24911 0.269432,0.41132 0.002,1.04992 -0.439718,1.04992 -0.161878,0 -0.230359,0.1419 -0.398124,0.8243 -0.111532,0.4537 -0.206014,0.7344 -0.210157,0.6246 -0.003,-0.1082 0.05886,-0.4472 0.139997,-0.7492 0.08109,-0.3027 0.148037,-0.6072 0.148697,-0.6776 0.003,-0.3392 -0.388295,-0.1526 -1.77327,0.8462 -2.238838,1.6142 -7.209261,5.2169 -7.682947,5.5686 -0.785653,0.5834 -0.957409,0.7085 -1.382619,1.0074 -2.01354,1.4147 -2.219005,1.586 -2.211468,1.842 0.003,0.1409 -0.02318,0.3694 -0.06123,0.5065 -0.05794,0.2115 0.02083,0.3461 0.501742,0.8556 0.313707,0.3326 0.915347,0.9728 1.33696,1.4234 0.42163,0.4495 0.812414,0.8178 0.868396,0.8178 0.272787,0 0.155208,-0.2436 -0.464919,-0.9627 -1.142524,-1.3263 -2.040105,-2.4471 -1.995411,-2.4915 0.03719,-0.031 0.422569,0.4055 1.955754,2.2487 0.856998,1.0297 0.773799,0.9634 1.032179,0.8233 0.129552,-0.068 0.318129,-0.1895 0.419066,-0.2649 0.203179,-0.1513 0.203156,-0.1514 -0.713796,-1.5735 -0.33195,-0.5155 -1.370237,-2.1898 -1.497987,-2.4156 -0.02795,-0.043 0.002,-0.05 0.0682,-0.014 0.06573,0.034 0.254975,0.3065 0.42097,0.5902 0.165974,0.2836 0.477635,0.786 0.69256,1.116 0.214873,0.3292 0.578592,0.9138 0.808229,1.2985 0.229591,0.3849 0.43186,0.7169 0.449463,0.7384 0.0177,0.017 0.325495,-0.1592 0.684221,-0.4003 0.628773,-0.4217 0.652291,-0.4528 0.652778,-0.8551 8.65e-4,-0.7186 0.68031,-1.0619 1.235989,-0.6246 0.35501,0.2797 0.363564,0.8263 0.01885,1.1864 l -0.244683,0.2559 0.234345,0.8301 c 0.128924,0.4565 0.255169,0.8513 0.280535,0.8765 0.02535,0.021 0.29984,0.014 0.609865,-0.017 l 0.563708,-0.063 0,-0.4204 c 0,-0.2306 -0.02922,-0.9668 -0.06547,-1.6347 -0.0488,-0.9083 -0.09874,-1.2146 -0.197534,-1.2146 -0.07265,0 -0.204282,-0.1082 -0.292387,-0.2444 -0.137742,-0.2106 -0.141475,-0.284 -0.02688,-0.5247 0.16066,-0.3368 0.743973,-0.454 0.938259,-0.1881 0.103136,0.1412 0.214749,0.1217 1.046242,-0.1884 0.511942,-0.1903 0.984058,-0.4035 1.049085,-0.4747 0.09085,-0.099 1.04548,-4.667 1.04548,-5.003 0,-0.2977 -0.309106,0.1656 -1.101463,1.652 -1.46656,2.751 -2.034458,3.7671 -2.079845,3.7218 -0.03782,-0.031 1.456081,-2.8778 2.04983,-3.8964 0.128107,-0.2197 0.369414,-0.6829 0.536226,-1.0282 l 0.303361,-0.6288 -0.203768,-0.2593 c -0.304102,-0.3866 -0.27923,-1.0706 0.04998,-1.376 0.734927,-0.6815 1.874172,-0.1734 1.775223,0.7914 -0.02245,0.2166 -0.0785,0.4408 -0.125303,0.4979 -0.08387,0.1045 -1.304192,4.9015 -1.304192,5.1288 0,0.073 0.363769,-0.014 0.974257,-0.2438 0.535814,-0.1988 1.27772,-0.4735 1.648667,-0.6111 0.652404,-0.2409 0.674482,-0.2604 0.674482,-0.5907 0,-0.653 0.492413,-1.2304 1.048843,-1.2304 1.076549,0 1.633772,1.1531 0.939215,1.945 -0.282924,0.3215 -0.357305,0.3531 -0.848487,0.3531 -0.474427,0 -0.574291,-0.031 -0.841405,-0.3175 l -0.303054,-0.317 -0.522134,0.2113 c -0.287196,0.1127 -0.904346,0.3526 -1.371479,0.5244 -0.46711,0.1727 -0.974718,0.3615 -1.12794,0.4195 -0.15322,0.051 -0.316205,0.1782 -0.362135,0.2669 -0.04588,0.088 -0.345187,1.2139 -0.66497,2.5017 -0.319765,1.2871 -0.596388,2.2949 -0.614761,2.2402 -0.01852,-0.049 0.215166,-1.0917 0.518887,-2.3035 0.303716,-1.2122 0.552249,-2.2543 0.552249,-2.3155 0,-0.1581 -0.25881,-0.138 -0.430601,0.028 -0.07968,0.078 -0.169713,0.1217 -0.199794,0.09 -0.02984,-0.025 -0.406353,0.078 -0.836224,0.2454 -0.429866,0.1654 -0.860259,0.3256 -0.956427,0.3565 -0.103738,0.027 -0.174876,0.155 -0.174876,0.3001 0,0.1404 -0.101875,0.323 -0.239382,0.4279 -0.238465,0.1829 -0.239154,0.1891 -0.186485,1.6996 l 0.05297,1.5167 0.761038,0.061 c 1.047584,0.09 1.072689,0.095 1.850504,0.3901 0.379421,0.1433 0.707356,0.2434 0.728788,0.2214 0.02155,-0.018 0.334475,-0.5503 0.695635,-1.1753 0.361171,-0.6249 0.747771,-1.294 0.859116,-1.4863 0.111418,-0.1922 0.315359,-0.5521 0.453438,-0.799 0.13803,-0.247 0.4914,-0.8499 0.785252,-1.3391 0.293825,-0.4892 0.535213,-0.9162 0.536447,-0.9494 0.003,-0.091 0.392744,-0.5687 0.395218,-0.483 10e-4,0.035 -0.408275,0.7846 -0.909978,1.649 -2.182525,3.7611 -2.684937,4.6432 -2.684937,4.7129 0,0.034 0.101263,0.1221 0.224815,0.1788 0.123668,0.052 0.438355,0.2932 0.699322,0.5236 0.260971,0.231 0.514237,0.405 0.562758,0.3867 0.0485,-0.015 1.010513,-0.8377 2.137697,-1.8209 l 2.049405,-1.7876 -0.0487,-0.5605 c -0.04136,-0.476 -0.01656,-0.5947 0.164698,-0.7855 l 0.213459,-0.2252 -0.241636,-0.424 c -0.42654,-0.7498 -0.965573,-1.7657 -0.965573,-1.8204 0,-0.2347 0.230783,0.1083 0.686428,1.0261 l 0.536528,1.079 0.529344,0 c 0.467276,0 0.559553,0.025 0.787274,0.295 0.141872,0.1643 0.258004,0.333 0.258084,0.3741 1.93e-4,0.193 0.316721,0.021 1.002121,-0.5304 1.589242,-1.2891 1.480566,-1.1664 1.421448,-1.607 -0.06271,-0.4666 0.0956,-0.817 0.439965,-0.9737 0.391307,-0.1782 0.800379,-0.1299 1.102851,0.1302 0.236431,0.2033 0.277708,0.3112 0.263446,0.6879 -0.0156,0.4102 0.0097,0.4612 0.312917,0.6243 0.329508,0.1779 0.33013,0.1778 0.608045,-0.1001 0.540743,-0.5401 1.236399,-0.6842 1.921936,-0.3981 1.536779,0.6414 1.508663,2.7595 -0.04363,3.2907 -0.258535,0.089 -0.394627,0.2 -0.416118,0.3414 -0.04148,0.2721 0.02734,0.2655 0.898699,-0.083 2.251762,-0.9105 2.330703,-0.9534 2.330703,-1.2634 0,-0.2843 -0.01223,-0.2904 -0.683744,-0.357 -0.376096,-0.031 -0.713041,-0.096 -0.748835,-0.1323 -0.06321,-0.058 1.107994,0.022 1.356627,0.1032 0.0682,0.017 0.151744,-0.071 0.185784,-0.2081 0.103487,-0.4123 0.591795,-0.7456 1.092184,-0.7456 0.852632,0 1.269127,0.4027 1.269127,1.228 0,0.4619 -0.03547,0.5436 -0.37229,0.852 -0.346724,0.3181 -0.40923,0.3383 -0.909298,0.2965 -0.313226,-0.021 -0.616018,-0.1144 -0.726683,-0.2161 -0.218299,-0.1973 -0.135044,-0.243 -1.811805,0.9895 -0.522075,0.3843 -1.136976,0.8254 -1.366458,0.981 -0.229439,0.1558 -0.441595,0.3465 -0.47144,0.4238 -0.02972,0.078 -0.04435,0.9281 -0.03231,1.8903 0.01225,0.9618 -0.01221,1.7484 -0.05317,1.7483 -0.04124,0 -0.07472,-0.7865 -0.07472,-1.7483 0,-0.9621 -0.03511,-1.7486 -0.07814,-1.7486 -0.04313,0 -0.460813,0.2808 -0.928378,0.6247 -0.467603,0.3433 -1.140593,0.8367 -1.4955,1.0963 l -0.645377,0.4712 0.0081,0.5514 c 0.0087,0.6118 0.07752,0.6994 1.111212,1.4119 l 0.519566,0.3583 0.379724,-0.3002 c 0.886444,-0.7007 2.000324,-0.6499 2.777542,0.1275 0.529461,0.5293 0.68995,0.9943 0.62448,1.8098 l -0.05019,0.6263 0.904726,0.4147 c 0.781169,0.3579 0.916557,0.393 0.991962,0.2585 0.126544,-0.2267 0.618518,-0.4555 0.976651,-0.4555 0.752996,0 1.259561,0.5925 1.171782,1.371 -0.08501,0.7555 -0.706286,1.1839 -1.468749,1.0147 -0.190798,-0.035 -0.350993,-0.063 -0.355993,-0.052 -0.004,0.01 -0.224699,0.3704 -0.488196,0.7996 -0.263516,0.4291 -0.462444,0.7971 -0.442054,0.8173 0.03497,0.029 1.78079,0.5312 2.80722,0.7981 0.261046,0.064 0.47464,0.083 0.47464,0.034 0,-0.152 0.416811,-0.3058 0.662189,-0.2443 0.636454,0.1601 0.460749,1.0993 -0.193723,1.0359 -0.249702,-0.02 -0.349504,-0.1011 -0.461541,-0.3555 -0.0785,-0.1786 -0.194761,-0.3248 -0.258128,-0.3248 -0.0635,0 -0.771159,-0.1797 -1.572895,-0.3993 -0.801758,-0.2202 -1.497837,-0.3998 -1.546912,-0.3998 -0.04895,0 -0.164777,0.1461 -0.257128,0.3245 -0.09223,0.179 -0.395784,0.6814 -0.674299,1.1173 -0.351393,0.5493 -0.489849,0.8582 -0.452301,1.0078 0.02958,0.1185 -0.0087,0.3007 -0.08374,0.4046 -0.115254,0.1573 -0.185185,0.1715 -0.422517,0.083 -0.166562,-0.058 -0.279136,-0.171 -0.271613,-0.2668 0.0097,-0.1158 -0.337777,-0.3217 -1.220376,-0.7187 -0.678272,-0.306 -1.268592,-0.552 -1.311837,-0.5466 -0.04323,0 -0.253398,0.2085 -0.467028,0.4509 l -0.388444,0.4407 0.238562,0.2254 c 0.131192,0.124 0.251985,0.3148 0.26837,0.4239 0.01656,0.1074 0.0461,0.2988 0.0661,0.4217 0.08035,0.4977 -0.348359,1.2663 -0.879027,1.575 -0.156638,0.09 -0.123414,0.2381 0.380712,1.6817 0.303801,0.8702 0.552335,1.596 0.552335,1.613 0,0.014 0.111755,0.054 0.248292,0.093 0.257507,0.057 0.421724,0.4308 0.316357,0.7052 -0.07885,0.2061 -0.534511,0.3029 -0.7158,0.1525 -0.08158,-0.067 -0.148612,-0.2455 -0.148612,-0.3953 0,-0.2812 -0.446281,-0.7296 -2.947659,-2.9596 -0.549555,-0.4895 -1.035164,-0.9468 -1.079113,-1.0158 -0.04383,-0.064 -0.138125,-0.1247 -0.209297,-0.1247 -0.07134,0 -1.271767,0.3742 -2.667908,0.8322 l -2.538531,0.8333 -0.08523,0.9159 c -0.04697,0.5031 -0.12867,0.9157 -0.181615,0.9157 -0.05307,0 -0.07375,-0.079 -0.04672,-0.175 0.02708,-0.094 0.0791,-0.495 0.115837,-0.8875 l 0.06631,-0.7131 -0.408656,0.1084 c -0.39276,0.1073 -0.408719,0.1256 -0.409313,0.5138 -1.98e-4,0.2218 -0.06597,0.5287 -0.145547,0.6816 -0.07956,0.1525 -0.13176,0.3329 -0.115833,0.3992 0.01619,0.062 0.0097,0.084 -0.01331,0.038 -0.02317,-0.035 -0.176752,0.03 -0.341004,0.1749 -0.366099,0.3082 -0.674884,0.3926 -1.188611,0.3235 -0.246176,-0.027 -0.393634,-0.011 -0.393634,0.045 0,0.1121 -0.148014,0.01 -0.152454,-0.1082 -10e-4,-0.03 -0.136313,-0.2035 -0.299764,-0.3702 -0.163436,-0.1674 -0.34286,-0.3851 -0.398695,-0.4849 -0.0969,-0.1731 -0.15861,-0.1693 -1.365419,0.094 l -1.263873,0.277 -0.03348,0.4751 -0.03349,0.4759 0.949252,0.1606 c 0.522074,0.088 1.323498,0.2315 1.780887,0.3171 0.45742,0.083 0.848366,0.1382 0.868799,0.1142 0.02059,-0.017 -5.98e-4,-0.2038 -0.04672,-0.4087 -0.04609,-0.2043 -0.0487,-0.3716 -0.0055,-0.3716 0.04297,0 0.108489,0.2019 0.14548,0.4498 0.06097,0.4055 0.09351,0.4491 0.336065,0.4461 0.21695,0 0.326379,-0.1022 0.568452,-0.5204 0.343435,-0.5928 0.718527,-0.8472 1.382781,-0.9384 0.397865,-0.047 0.561059,-0.014 1.113767,0.2548 0.627291,0.3088 0.653684,0.3128 0.841662,0.1383 0.106761,-0.099 0.533041,-0.4509 0.947326,-0.7799 0.900678,-0.7163 0.949882,-0.9137 0.410729,-1.6481 -0.192357,-0.262 -0.349707,-0.5068 -0.349707,-0.5445 0,-0.141 0.217664,0.074 0.459491,0.4602 0.145662,0.2306 0.377633,0.4425 0.551016,0.503 0.404124,0.1405 0.379301,0.5799 -0.03896,0.6908 -0.15266,0.034 -0.426062,0.2007 -0.607512,0.3562 -0.322264,0.2762 -0.874622,0.7284 -1.350543,1.1058 -0.229468,0.1818 -0.231928,0.1984 -0.0748,0.502 0.205583,0.3971 0.210108,1.2962 0.0083,1.7004 -0.220861,0.442 -0.783153,0.9007 -1.202188,0.9788 -0.518777,0.095 -1.336068,-0.018 -1.570095,-0.2291 -0.501338,-0.4442 -0.771047,-0.9488 -0.771047,-1.442 0,-0.4502 -0.0178,-0.4846 -0.249789,-0.4846 -0.269348,0 -0.301325,0.1175 -0.187348,0.687 0.04568,0.2287 0.117635,0.3124 0.26888,0.3124 0.189421,0 0.192379,0.01 0.03595,0.1247 -0.159944,0.118 -0.160256,0.177 -0.004,0.9743 0.212448,1.0925 0.340405,1.2464 0.585368,0.7031 0.100357,-0.2224 0.249038,-0.46 0.330473,-0.5276 0.08736,-0.069 0.04531,0.079 -0.103012,0.3756 -0.165305,0.3275 -0.23527,0.6023 -0.204945,0.8036 0.06194,0.4104 -0.175388,0.6194 -0.523529,0.4608 -0.267551,-0.1221 -0.320033,-0.4026 -0.131762,-0.7033 0.08884,-0.1428 0.07514,-0.3905 -0.06086,-1.0897 l -0.175807,-0.9048 -1.113364,0.4031 c -0.612317,0.2224 -1.345324,0.4765 -1.628824,0.5648 -0.474323,0.1476 -0.520112,0.1888 -0.573038,0.5202 -0.141373,0.8843 -1.255241,1.0429 -1.566837,0.2232 -0.144849,-0.38 0.04926,-0.8805 0.397937,-1.0249 0.25325,-0.1044 0.288303,-0.1785 0.345373,-0.7245 0.03486,-0.3349 0.06359,-0.8904 0.06359,-1.236 0,-0.6871 0.02182,-0.6642 -0.749407,-0.7882 -0.219809,-0.029 -0.476712,-0.086 -0.570889,-0.1115 -0.122998,-0.03 -0.211193,0.038 -0.313406,0.2902 -0.501249,1.1996 -2.323994,1.0286 -2.668324,-0.2498 -0.207245,-0.7693 0.333935,-1.6592 1.102943,-1.8127 0.381973,-0.074 0.935332,0.091 1.294876,0.3945 l 0.300244,0.2528 0.837621,-0.457 0.837662,-0.4558 0.06159,-0.8743 c 0.03379,-0.4804 0.09183,-1.8071 0.129005,-2.9472 0.03708,-1.1404 0.10612,-2.0733 0.153125,-2.0733 0.08423,0 0.06169,0.7595 -0.119383,3.9846 -0.05044,0.8999 -0.06808,1.6748 -0.03896,1.7217 0.02892,0.039 0.231345,-0.027 0.449647,-0.1777 0.218275,-0.1442 0.429721,-0.2271 0.469795,-0.1842 0.03995,0.036 0.02815,0.096 -0.02684,0.1172 -0.05496,0.017 -0.27978,0.1391 -0.499604,0.2635 -0.379518,0.2141 -0.401234,0.2525 -0.430321,0.7602 -0.02922,0.5132 -0.02169,0.5319 0.199856,0.4781 0.12676,-0.025 0.713819,-0.1562 1.30459,-0.2796 l 1.074166,-0.2231 0,-0.3875 c 0,-0.2134 0.06946,-0.5215 0.153955,-0.6848 0.08459,-0.1638 0.132973,-0.3322 0.107368,-0.3734 -0.05055,-0.083 -1.064711,-5.0779 -1.054292,-5.1939 0.02165,-0.2405 0.226459,0.6246 0.645369,2.7273 0.262797,1.319 0.487804,2.4109 0.499982,2.4273 0.01234,0.013 0.1846,-0.061 0.383145,-0.1839 0.281602,-0.1665 0.341712,-0.2496 0.273304,-0.3796 -0.0747,-0.1408 -0.360389,-1.1389 -1.173293,-4.0981 -0.08082,-0.2943 -0.126082,-0.5559 -0.100478,-0.582 0.0512,-0.043 0.134677,0.2261 0.804989,2.6782 0.609315,2.2283 0.591072,2.1866 0.956307,2.1866 0.16624,0 0.302261,-0.03 0.302261,-0.083 0,-0.037 -0.160685,-0.5283 -0.357085,-1.0746 -0.390127,-1.0841 -1.224436,-3.4815 -1.313382,-3.7736 -0.0395,-0.1293 -0.116889,-0.1652 -0.266775,-0.1238 -0.116183,0.026 -0.615758,0.1082 -1.110373,0.1719 -0.742455,0.095 -1.024282,0.089 -1.61621,-0.029 l -0.716931,-0.15 -0.206642,0.7596 c -0.113711,0.418 -0.486887,1.8762 -0.829422,3.2406 -0.342516,1.3638 -0.637806,2.435 -0.656166,2.3795 -0.01856,-0.05 0.221262,-1.1035 0.532558,-2.33 0.311298,-1.2268 0.668214,-2.6496 0.793189,-3.1618 l 0.227235,-0.9313 -0.212656,-0.083 c -0.117122,-0.037 -0.441146,-0.1737 -0.720404,-0.2844 l -0.507785,-0.2023 -0.591346,0.9904 c -0.325266,0.545 -0.623033,0.9908 -0.661753,0.9913 -0.03866,0 0.15872,-0.3825 0.438747,-0.8516 0.280024,-0.4682 0.491573,-0.8658 0.470078,-0.8825 -0.02169,-0.014 -0.528878,0.083 -1.127514,0.2292 l -1.088442,0.2612 -0.831283,0.8968 -0.831308,0.8971 1.267431,0.023 c 1.218791,0.022 1.274078,0.016 1.439679,-0.1995 0.116299,-0.1538 0.253906,-0.2175 0.42327,-0.1966 0.227068,0.024 0.299706,-0.059 0.761004,-0.9846 0.28049,-0.5589 0.532498,-0.9938 0.56004,-0.9664 0.02733,0.023 -0.180947,0.4871 -0.463227,1.0224 -0.365671,0.6927 -0.482356,1.0036 -0.405915,1.0794 0.191797,0.1919 0.118232,0.5556 -0.147708,0.7294 -0.242612,0.1596 -0.269327,0.1571 -0.547436,-0.042 l -0.292389,-0.2164 -0.263277,0.4266 c -0.144816,0.2341 -0.400008,0.6506 -0.567071,0.9252 -0.167092,0.2749 -0.402641,0.6572 -0.52347,0.8495 -0.252108,0.4018 -2.37964,4.0057 -2.732886,4.6299 -0.129557,0.2289 -0.335226,0.573 -0.45712,0.7654 -0.41965,0.6629 -0.856179,1.4127 -0.856179,1.4715 0,0.027 -0.114857,0.2094 -0.254886,0.393 l -0.254913,0.3341 0.254913,0.3342 c 0.36972,0.4848 0.345541,0.9724 -0.06993,1.4087 -0.355848,0.3738 -0.786937,0.5008 -1.173992,0.3444 z m 14.624409,-3.4786 c 0.273421,-0.1055 0.282871,-0.131 0.21678,-0.571 -0.03793,-0.2539 -0.08884,-0.5131 -0.113229,-0.5761 -0.04558,-0.118 -0.743299,-0.2731 -2.288054,-0.5065 -0.494595,-0.068 -1.017254,-0.1655 -1.161469,-0.2016 l -0.26219,-0.065 -0.04559,1.2315 c -0.02509,0.6825 -0.0055,1.2471 0.04393,1.2668 0.04937,0.016 0.209072,0.1387 0.354981,0.2642 l 0.265275,0.2287 1.351722,-0.4792 c 0.743436,-0.2638 1.480358,-0.5292 1.637567,-0.591 z m -3.681139,-2.8865 c -0.02405,-0.02 -0.382963,0.03 -0.797363,0.1335 -0.833014,0.1966 -0.984459,0.3976 -0.378727,0.5038 0.206074,0.03 0.532088,0.096 0.724414,0.1349 0.344983,0.066 0.350741,0.058 0.422673,-0.3299 0.03996,-0.2192 0.05317,-0.4181 0.02892,-0.4423 z m -0.451676,-0.057 c 0.447871,-0.1092 0.449775,-0.1102 0.480113,-0.5842 0.01677,-0.2611 -3.97e-4,-0.4746 -0.03806,-0.4746 -0.13028,0 -1.641043,0.838 -1.641043,0.9104 0,0.033 0.0263,0.1412 0.05911,0.2261 0.06195,0.1617 0.190726,0.1522 1.14004,-0.077 z m 16.857332,0.1083 c -0.02772,-0.071 -0.164805,-0.4883 -0.304298,-0.924 -0.139499,-0.4357 -0.365088,-1.1073 -0.501239,-1.492 l -0.247622,-0.6995 -0.608233,-0.055 c -0.604387,-0.056 -0.840598,-0.1853 -1.22646,-0.6523 -0.171593,-0.2079 -0.187514,-0.2091 -0.7273,-0.042 -0.30352,0.087 -0.551945,0.1944 -0.552046,0.2334 -2.02e-4,0.097 4.025142,3.7744 4.132219,3.7754 0.04707,0 0.06291,-0.054 0.03486,-0.1316 z m -9.682642,-2.2427 c 0.02188,-0.1425 -0.04139,-0.2178 -0.223002,-0.2629 -0.525342,-0.1322 -0.742841,-1.2783 -0.30347,-1.6001 0.155867,-0.1122 0.130556,-0.1947 -0.298972,-0.9516 -0.258068,-0.4547 -0.623153,-1.0672 -0.81128,-1.3614 -0.188126,-0.2943 -0.342053,-0.5584 -0.342053,-0.5874 0,-0.038 -0.664589,-1.1302 -0.764343,-1.2477 -0.01958,-0.019 -0.25936,0.058 -0.532803,0.1908 -0.582691,0.2729 -0.586347,0.1426 0.05495,1.9491 0.234112,0.6596 0.59815,1.7089 0.808967,2.3322 0.358636,1.0601 0.407338,1.1447 0.755989,1.325 0.204964,0.1055 0.441636,0.3255 0.525964,0.4884 l 0.153367,0.2967 0.473225,-0.1855 c 0.316219,-0.124 0.483269,-0.2512 0.503542,-0.3856 z m 1.138052,-0.1342 c 0.511469,-0.1712 0.94059,-0.3203 0.953659,-0.3322 0.0132,-0.01 -0.114605,-0.209 -0.283446,-0.4388 -0.345619,-0.47 -0.589607,-0.5423 -0.589607,-0.176 0,0.3302 -0.439988,0.8286 -0.802048,0.9076 -0.163402,0.03 -0.297072,0.1298 -0.297072,0.2072 0,0.182 -0.06261,0.1925 1.018514,-0.1678 z m 2.328805,-0.7619 c 1.19053,-0.3726 1.648724,-0.5459 1.648724,-0.6235 0,-0.032 -0.110864,-0.1289 -0.245901,-0.2013 -0.247793,-0.1325 -1.03258,-0.055 -2.221405,0.2045 -0.230443,0.043 -0.533947,0.093 -0.674485,0.093 -0.160515,0 -0.255511,0.047 -0.255511,0.1496 0,0.083 0.03509,0.1502 0.07825,0.1502 0.04312,0 0.159171,0.1366 0.257896,0.304 0.141425,0.2389 0.225567,0.2897 0.396246,0.2384 0.119385,-0.029 0.576424,-0.1774 1.016062,-0.3154 z m -2.36691,-0.9932 c -0.182004,-0.2565 -0.455061,-0.5377 -0.606776,-0.6238 -0.159148,-0.09 -0.313879,-0.2952 -0.365793,-0.4802 -0.04948,-0.1775 -0.487375,-0.866 -0.973171,-1.5315 -0.485731,-0.6648 -0.985602,-1.3642 -1.110759,-1.5539 -0.193967,-0.2935 -0.256692,-0.3287 -0.424666,-0.2388 -0.108477,0.052 -0.197127,0.1444 -0.197127,0.1922 0,0.068 0.792531,1.4698 1.330165,2.3481 0.06549,0.1081 0.258576,0.4216 0.429562,0.6995 0.170963,0.2784 0.342605,0.6065 0.381438,0.7302 0.06086,0.1936 0.139686,0.2254 0.568011,0.2254 0.394869,0 0.547946,0.045 0.742648,0.2452 0.134894,0.1343 0.245272,0.2922 0.245272,0.3493 0,0.047 0.07006,0.1073 0.156061,0.1073 0.116653,0 0.07212,-0.1176 -0.174865,-0.4664 z m 3.405014,-0.094 c 0.02146,-0.015 -0.20294,-0.2492 -0.498497,-0.5116 -0.295543,-0.2619 -1.077722,-0.972 -1.738195,-1.5767 -1.00461,-0.9196 -2.257549,-2.0444 -3.319668,-2.9805 l -0.221665,-0.1954 -0.388591,0.3511 -0.388606,0.351 0.743425,0.9874 c 0.408854,0.5426 0.831054,1.0901 0.938183,1.2163 0.107101,0.1258 0.163911,0.2796 0.126216,0.3401 -0.03973,0.058 -0.02316,0.083 0.03896,0.037 0.05934,-0.03 0.201394,0.06 0.315893,0.2257 0.15372,0.2159 0.175309,0.3067 0.08239,0.3476 -0.06909,0.025 -0.004,0.025 0.141972,-9e-4 0.440451,-0.091 0.681662,0.031 0.681662,0.3631 0,0.1576 -0.045,0.3153 -0.09999,0.3488 -0.162623,0.1 -0.120455,0.2059 0.290778,0.7261 l 0.390687,0.4941 1.432863,-0.2491 c 0.788065,-0.1368 1.450343,-0.2639 1.471724,-0.2825 z m 1.52476,0.2533 0.464513,-0.1292 0.0055,-0.5334 c 0.0081,-0.7031 0.24852,-1.1856 0.726181,-1.4592 0.211816,-0.1217 0.373193,-0.2564 0.358598,-0.3017 -0.02932,-0.091 -0.319571,-0.2486 -3.96863,-2.1587 -1.401397,-0.7335 -2.78335,-1.4623 -3.071061,-1.6193 -0.287695,-0.1581 -0.61634,-0.2862 -0.730319,-0.2862 -0.114123,0 -0.179464,-0.037 -0.145502,-0.1001 0.03389,-0.049 0.01073,-0.099 -0.05244,-0.099 -0.409848,0 0.430165,0.5944 5.348937,3.7854 0.964549,0.626 1.731973,1.1598 1.705312,1.1861 -0.02641,0.022 -0.421418,-0.1975 -0.877246,-0.4978 -3.695966,-2.4357 -6.251452,-4.0741 -6.355642,-4.0741 -0.05233,0 -0.212591,0.1541 -0.356382,0.3426 l -0.261385,0.3427 0.274529,0.2162 c 0.150955,0.1141 0.547336,0.4699 0.880795,0.7811 0.333448,0.311 0.760599,0.7019 0.949238,0.8687 1.032872,0.9117 3.64975,3.2993 3.705914,3.3802 0.0407,0.057 0.35302,0.038 0.826509,-0.029 0.418508,-0.072 0.78546,-0.1055 0.815475,-0.072 0.02985,0.025 -0.139618,0.083 -0.376898,0.119 -1.025251,0.1548 -1.015426,0.1503 -0.81694,0.3693 0.09777,0.1083 0.247076,0.1767 0.331696,0.1518 0.08447,-0.02 0.362829,-0.1044 0.6183,-0.1739 z m -21.098143,-0.9424 c 0.06865,-0.083 0.282364,-0.1501 0.475415,-0.1501 0.247962,0 0.420386,-0.071 0.587287,-0.2551 0.129974,-0.1399 0.236296,-0.2736 0.236296,-0.2969 0,-0.019 -0.49173,-0.02 -1.092708,0 -1.029041,0.032 -1.111069,0.053 -1.408697,0.3217 l -0.315994,0.2818 0.534366,0.1128 c 0.743399,0.1575 0.842502,0.1562 0.984035,-0.011 z m -1.38068,-0.3995 c 0.29103,-0.2451 0.292251,-0.2501 0.06172,-0.2501 -0.282198,0 -0.706119,0.2762 -0.625192,0.4066 0.09361,0.1513 0.248466,0.1082 0.563529,-0.1565 z m -0.703728,-0.039 0.235878,-0.1963 -0.474622,0 c -0.34596,0 -0.474618,0.029 -0.474618,0.139 0,0.1221 0.11853,0.1921 0.413611,0.2457 0.03496,0.01 0.170009,-0.074 0.299751,-0.1848 z m 0.785419,-0.6015 c 0.192379,-0.1486 0.484637,-0.3499 0.649504,-0.4471 l 0.299759,-0.1764 -0.269293,0.2517 c -0.148118,0.1384 -0.370256,0.3228 -0.493585,0.4087 -0.295143,0.2072 -0.162538,0.3287 0.185258,0.17 0.149896,-0.064 0.285146,-0.083 0.300586,-0.033 0.01545,0.038 0.50137,0.065 1.079913,0.041 l 1.051951,-0.029 0.482269,-0.5147 c 0.91853,-0.9813 1.176401,-1.3092 0.960287,-1.2215 -0.109975,0.037 -0.618546,0.1865 -1.130296,0.3166 -1.084976,0.2749 -1.007342,0.2364 -1.731015,0.8564 -0.74091,0.6348 -0.892642,0.6181 -0.18626,-0.017 0.492011,-0.4445 0.492011,-0.5095 0,-0.3182 -0.08229,0.026 -0.223604,0.065 -0.313725,0.073 -0.0901,0.01 -0.663407,0.1422 -1.273991,0.2933 -0.930205,0.231 -1.110143,0.3069 -1.110143,0.4665 0,0.1678 0.06983,0.1889 0.574526,0.1744 0.455484,-0.011 0.647036,-0.068 0.924255,-0.287 z m 16.299522,-0.023 c -0.09873,-0.096 -0.110219,-0.084 -0.05599,0.05 0.03746,0.098 0.09338,0.1537 0.124181,0.1235 0.0306,-0.025 7.7e-5,-0.1114 -0.06835,-0.1793 z m 12.817662,-0.055 c 0.0365,-0.057 -0.408483,-2.6136 -0.483728,-2.7764 -0.003,-0.01 -0.141021,-0.033 -0.305883,-0.07 -0.268395,-0.044 -0.336193,-0.01 -0.647621,0.4025 -0.191299,0.2548 -0.545509,0.683 -0.787132,0.9518 -0.241606,0.2685 -0.422335,0.5038 -0.401574,0.5227 0.125562,0.1129 2.30712,1.0513 2.45493,1.0544 0.06562,0 0.142408,-0.029 0.171008,-0.079 z m -3.262646,-0.4312 c 0.178603,-0.2231 0.323607,-0.4344 0.322206,-0.4697 -0.001,-0.029 -0.37234,-0.2165 -0.824363,-0.4033 -0.451981,-0.1863 -0.998207,-0.4221 -1.213863,-0.5236 -0.215603,-0.1011 -0.401926,-0.1737 -0.413995,-0.1604 -0.01222,0.011 0.05683,0.3351 0.15306,0.7148 0.185103,0.7299 0.372218,0.9555 0.79697,0.9613 0.140627,0 0.368092,0.064 0.505503,0.1469 0.137387,0.076 0.272284,0.1415 0.299753,0.1407 0.02734,0 0.196098,-0.1834 0.374729,-0.4067 z m 4.139724,-0.3098 c 0.257237,-0.3983 0.523001,-0.847 0.590603,-0.9983 0.06778,-0.1511 0.160661,-0.2749 0.206788,-0.2749 0.160932,0 0.08239,-0.2867 -0.09096,-0.3325 -0.09625,-0.021 -0.545111,-0.1489 -0.997685,-0.2742 -0.452523,-0.1259 -0.853364,-0.198 -0.89078,-0.1611 -0.104008,0.1064 0.477846,2.7669 0.604149,2.7653 0.06076,0 0.320683,-0.3268 0.57791,-0.7243 z m -30.216445,0.3127 c 1.248008,-0.3068 1.288543,-0.3262 2.206611,-1.0242 1.987389,-1.5115 2.872597,-2.1933 3.151049,-2.4276 l 0.289337,-0.2436 -0.214372,-0.2897 c -0.117983,-0.1599 -0.214388,-0.3285 -0.214388,-0.3752 0,-0.04 -0.05784,-0.1634 -0.128169,-0.2598 -0.119016,-0.1628 -0.248634,-0.122 -1.773611,0.5688 -0.904969,0.41 -1.807366,0.8123 -2.00538,0.8947 -0.270691,0.1119 -0.374974,0.2252 -0.420632,0.4527 -0.128934,0.6451 -0.891804,1.0126 -1.597001,0.7698 -0.485676,-0.1673 -0.769894,-0.052 -0.769894,0.2963 0,0.538 -0.79643,0.7406 -1.042442,0.2649 -0.133897,-0.259 -0.130864,-0.3207 0.03083,-0.6382 0.173508,-0.3402 0.173055,-0.3687 -0.01398,-0.8695 -0.106331,-0.2846 -0.215163,-0.4957 -0.24219,-0.4687 -0.02688,0.022 -0.113746,0.5109 -0.192503,1.0757 -0.07874,0.5642 -0.170851,1.0509 -0.204367,1.0813 -0.03348,0.025 -0.03473,-0.1011 -0.002,-0.2937 0.03173,-0.192 0.110352,-0.7836 0.174278,-1.3142 l 0.116531,-0.9645 -0.325099,-0.8612 c -0.178796,-0.4739 -0.302088,-0.8848 -0.273988,-0.9124 0.04949,-0.043 0.334607,0.6736 0.445537,1.13 0.0964,0.3964 0.209607,0.2416 0.282485,-0.3862 0.0662,-0.5693 0.05337,-0.6287 -0.184308,-0.8662 -0.21501,-0.2152 -0.279805,-0.235 -0.411264,-0.1258 -0.176767,0.1467 -0.856048,0.1888 -1.30423,0.078 -0.283231,-0.065 -0.334874,-0.023 -0.935658,0.7244 l -0.635878,0.7968 0.575826,1.6722 c 0.316723,0.9199 0.640266,1.8264 0.719016,2.0148 l 0.143137,0.3427 0.216639,-0.2565 c 0.252014,-0.2992 0.570391,-0.4746 1.063645,-0.5877 0.571876,-0.1302 1.063546,9e-4 1.521481,0.4078 l 0.416264,0.3692 2.154811,-1.291 c 4.950972,-2.9662 4.50351,-2.7075 4.501214,-2.6022 -9.96e-4,0.037 -0.282,0.2449 -0.624505,0.4452 -0.604887,0.354 -5.884262,3.497 -5.952641,3.5437 -0.04672,0.027 0.08609,0.4384 0.14337,0.4384 0.02534,0 0.617973,-0.1404 1.317199,-0.3129 z m 23.956274,-0.9747 -0.170862,-0.6969 -0.615461,-0.2513 c -0.338508,-0.1379 -1.087573,-0.459 -1.664629,-0.7128 -2.369726,-1.0438 -3.808952,-1.6475 -3.92438,-1.6469 -0.06748,0 -0.302276,0.043 -0.522086,0.1113 l -0.399694,0.111 0.549575,0.2711 c 0.302249,0.1486 1.471339,0.7575 2.597939,1.3542 3.866063,2.0449 4.240208,2.2366 4.280288,2.1969 0.022,-0.018 -0.0367,-0.3538 -0.13069,-0.7375 z m -21.657798,0.3324 c 0.122252,-0.083 0.260856,-0.1317 0.307986,-0.1021 0.04721,0.024 0.552933,-0.058 1.12393,-0.2067 0.902584,-0.2254 1.082833,-0.3064 1.379843,-0.6214 0.187917,-0.1997 0.535602,-0.5654 0.772654,-0.8136 l 0.430981,-0.4514 -0.232321,-0.2703 -0.232305,-0.2706 -1.039923,0.8551 c -0.571972,0.4705 -1.233355,1.0194 -1.469748,1.2202 -0.236393,0.2005 -0.506164,0.4074 -0.599514,0.4589 -0.149005,0.083 -0.152992,0.071 -0.03269,-0.071 0.187773,-0.2296 2.762616,-2.3324 2.927619,-2.3908 0.07295,-0.022 0.102099,-0.078 0.06459,-0.1224 -0.03758,-0.034 -0.127543,-0.02 -0.19985,0.029 -0.344127,0.2853 -2.391023,1.8859 -2.876464,2.249 -0.893483,0.6688 -0.876149,0.6527 -0.699531,0.6563 0.08387,0 0.252656,-0.061 0.37486,-0.1523 z m 25.105746,-0.9709 c 0.452813,-0.5374 0.80205,-0.9984 0.776081,-1.0244 -0.04279,-0.035 -0.662176,-0.2158 -3.57743,-0.9996 -0.522086,-0.1403 -1.039175,-0.2807 -1.149103,-0.3122 -0.162467,-0.038 -0.176475,-0.027 -0.07484,0.072 0.06886,0.069 0.12679,0.246 0.129084,0.386 0.002,0.1402 0.08463,0.5889 0.183006,0.9972 l 0.178844,0.7416 1.290824,0.5771 c 0.709927,0.317 1.319963,0.5679 1.355597,0.5566 0.03547,-0.01 0.435263,-0.4596 0.88803,-0.9968 z m -21.086852,0.013 c 1.047914,-0.2599 1.193712,-0.3571 0.864709,-0.5766 -0.132051,-0.086 -0.363925,-0.248 -0.515253,-0.3551 l -0.275116,-0.1945 -0.694983,0.7329 c -0.511457,0.5397 -0.633411,0.7161 -0.461815,0.6688 0.128223,-0.029 0.615353,-0.16 1.082458,-0.2755 z m 17.384692,-0.4119 c -7.1e-4,-0.066 -0.06321,-0.3273 -0.138472,-0.5746 -0.112549,-0.3694 -0.175936,-0.4456 -0.354797,-0.425 -0.306359,0.029 -0.604342,-0.1473 -0.604342,-0.3704 0,-0.1556 -0.301969,-0.2868 -1.739633,-0.7545 -1.728894,-0.5635 -1.743062,-0.5663 -2.302731,-0.4408 -0.309712,0.067 -0.583323,0.1585 -0.608033,0.1989 -0.02466,0.033 0.348292,0.2316 0.828914,0.4267 0.480599,0.1954 1.345928,0.5647 1.922984,0.8208 1.608697,0.7148 2.839716,1.2372 2.922676,1.2406 0.04126,0 0.07423,-0.044 0.07323,-0.1217 z m -25.001334,-0.056 c 0.10167,-0.058 0.0967,-0.1538 -0.02511,-0.4447 -0.190185,-0.4549 -0.1915,-0.7422 -0.004,-1.0999 0.143918,-0.2755 0.137104,-0.2885 -0.525209,-0.9848 l -0.671027,-0.7054 -0.06321,0.2852 c -0.152017,0.6883 -0.08758,1.4285 0.180788,2.0824 0.181343,0.4421 0.322238,0.6516 0.437401,0.6516 0.09337,0 0.225872,0.063 0.294288,0.1498 0.141204,0.17 0.197467,0.1804 0.376984,0.063 z m 33.069751,-0.7367 0.5229,-0.8186 -0.214836,-0.2288 c -0.147296,-0.1568 -0.228921,-0.3984 -0.259618,-0.7682 l -0.04471,-0.5396 -0.839513,-0.4104 c -0.461763,-0.2259 -0.872515,-0.41 -0.912808,-0.41 -0.04023,0 -0.15726,0.1257 -0.259972,0.2788 -0.43505,0.65 -1.441979,0.9688 -2.312839,0.7332 -0.48602,-0.1308 -1.108007,-0.6945 -1.318796,-1.1947 -0.202694,-0.4808 -0.19905,-1.3042 0.0071,-1.7186 0.09045,-0.1815 0.153132,-0.3381 0.139166,-0.3476 -0.402369,-0.286 -1.442243,-1.1113 -1.490723,-1.1836 -0.04108,-0.058 -0.163208,-0.03 -0.321195,0.064 -0.41812,0.2742 -1.025132,0.2184 -1.368698,-0.1254 -0.625775,-0.6256 -0.188368,-1.6062 0.716551,-1.6062 0.251324,0 0.497596,0.063 0.603645,0.1623 0.167734,0.152 0.252112,0.1082 1.327567,-0.6745 1.135096,-0.8267 1.476272,-1.0735 1.948544,-1.4075 0.214122,-0.1521 0.239368,-0.238 0.218787,-0.7473 -0.01293,-0.3165 -0.03998,-0.5926 -0.06062,-0.6131 -0.02061,-0.017 -0.793379,0.2757 -1.717579,0.658 -0.924181,0.3823 -2.309848,0.9538 -3.079239,1.2694 -0.769374,0.3162 -1.437947,0.6111 -1.485671,0.6558 -0.08664,0.078 0.182855,1.5014 0.342492,1.8045 0.05634,0.1063 0.190407,0.1487 0.413424,0.1278 l 0.330083,-0.025 -0.362548,0.1045 -0.362535,0.1032 0.323938,1.267 0.323901,1.2672 1.637335,0.045 1.637359,0.047 -1.630435,0.017 c -1.499804,0.016 -1.626424,0.029 -1.580146,0.1961 0.02784,0.097 0.105089,0.3652 0.171876,0.5977 0.139335,0.4848 -0.04558,0.4838 1.769334,0.01 0.620802,-0.1618 1.181834,-0.2777 1.246781,-0.2555 0.06508,0.018 -0.562015,0.2082 -1.393191,0.4155 l -1.511264,0.376 0.164559,0.6022 0.16456,0.6026 0.699425,0.1741 c 1.970138,0.4924 3.640868,0.8827 3.821993,0.8932 0.06863,0 0.124891,0.038 0.124891,0.091 0,0.039 -0.977964,-0.1539 -2.173272,-0.4456 -2.299686,-0.5623 -2.423075,-0.5857 -2.423075,-0.458 0,0.037 0.460864,0.2073 1.024191,0.3625 0.563293,0.1548 1.561873,0.4337 2.219071,0.6184 0.657222,0.1855 1.252977,0.337 1.323957,0.337 0.07107,0 0.129035,-0.1034 0.129035,-0.2304 0,-0.6285 0.895264,-0.9094 1.291732,-0.4055 0.243782,0.3102 0.251717,0.398 0.06778,0.7514 -0.137334,0.2628 -0.13536,0.2653 0.32537,0.3846 0.254942,0.061 0.643424,0.179 0.86326,0.2514 0.219813,0.073 0.467116,0.1355 0.549556,0.1392 0.08239,0 0.384971,-0.3615 0.672756,-0.8122 z m -29.780597,-0.7815 c 2.579576,-1.1816 2.928517,-1.352 2.928557,-1.4311 2.5e-5,-0.039 -0.05624,-0.057 -0.124851,-0.028 -0.06886,0.024 -0.664499,0.2762 -1.32397,0.5515 -0.659434,0.275 -1.49128,0.6134 -1.84854,0.7517 -0.361404,0.1403 -0.663775,0.321 -0.681782,0.4083 -0.04721,0.2287 0.0761,0.1996 1.050586,-0.2468 z m 0.880222,-0.798 c 0.989223,-0.398 1.828057,-0.7516 1.86405,-0.7854 0.03594,-0.028 0.001,-0.354 -0.07732,-0.711 -0.07849,-0.3573 -0.142602,-0.9668 -0.142187,-1.3546 l 6.68e-4,-0.7054 -2.071554,-0.3266 c -1.139316,-0.1792 -2.521189,-0.3897 -3.070733,-0.4671 -0.549566,-0.075 -1.096449,-0.1639 -1.215279,-0.1923 -0.234622,-0.048 -0.248156,-0.01 -0.392041,1.2721 l -0.06449,0.5748 3.283937,0.019 3.283886,0.02 -3.243815,0.023 c -1.78412,0.013 -3.275022,0.054 -3.313119,0.101 -0.03806,0.033 -0.09532,0.3391 -0.127216,0.6637 -0.03174,0.3247 -0.08686,0.6168 -0.122162,0.6495 -0.0352,0.027 -0.03306,-0.2664 0.004,-0.6649 0.04646,-0.487 0.03419,-0.7243 -0.03684,-0.7243 -0.05834,0 -0.10789,0.078 -0.11023,0.1743 -0.002,0.097 -0.08337,0.324 -0.18052,0.5061 l -0.176303,0.331 0.992961,0.9801 c 0.969996,0.9579 0.998976,0.9776 1.254628,0.8438 0.143971,-0.072 0.36732,-0.1363 0.496442,-0.1366 0.330445,0 0.901727,0.2885 1.025422,0.5193 0.05732,0.1064 0.156853,0.1739 0.221343,0.1481 0.06459,-0.021 0.926615,-0.3716 1.915823,-0.7707 z m 20.020845,0.4263 c 0.342689,-0.1265 -2.840334,-0.9839 -3.247166,-0.8743 -0.24856,0.063 -0.07372,0.1466 1.311993,0.5982 0.8793,0.2865 1.622452,0.4848 1.65148,0.4415 0.02892,-0.036 0.156697,-0.1168 0.283693,-0.1654 z m -5.632258,-0.3969 c 0.167552,-0.041 0.135249,-0.083 -0.199835,-0.235 -0.534803,-0.2372 -0.598941,-0.2325 -0.728218,0.043 -0.161255,0.3543 0.136433,0.4131 0.928053,0.1838 z m 5.904503,0.087 c -0.02892,-0.039 -0.581409,-0.2119 -1.227758,-0.3671 -0.646329,-0.1548 -1.127648,-0.2978 -1.069578,-0.3168 0.05814,-0.016 0.571238,0.075 1.14043,0.2152 0.56915,0.1377 1.044114,0.2399 1.055431,0.2273 0.01073,-0.011 -0.0282,-0.2591 -0.08813,-0.5473 -0.07225,-0.349 -0.158624,-0.5248 -0.257122,-0.5248 -0.181709,0 -1.684428,0.3835 -1.960501,0.5005 -0.109972,0.038 -0.258535,0.1 -0.330255,0.1168 -0.12106,0.026 2.368774,0.7548 2.659317,0.7718 0.07196,0 0.107103,-0.025 0.07798,-0.077 z m -28.896239,-0.7139 c 0.258058,-0.3287 0.539633,-0.6678 0.625812,-0.7534 0.142205,-0.1423 0.141311,-0.1738 -0.0097,-0.3404 -0.26872,-0.2976 -0.379444,-0.8503 -0.259433,-1.2959 0.141435,-0.5253 0.693108,-1.0099 1.149545,-1.0099 0.39309,0 0.420227,-0.024 0.467141,-0.4992 0.0343,-0.3463 0.02922,-0.3511 -0.414754,-0.4122 -0.247318,-0.028 -1.231175,-0.1822 -2.186341,-0.3285 -0.955223,-0.1462 -1.754092,-0.2489 -1.775309,-0.2272 -0.02106,0.018 0.167613,0.6179 0.419547,1.3272 0.251938,0.7092 0.652744,1.8511 0.890709,2.5379 0.466114,1.3458 0.560955,1.5989 0.598973,1.5989 0.01368,0 0.235637,-0.2689 0.493683,-0.5973 z m 24.090853,0.3632 0.499615,-0.1307 -0.999196,-0.3338 c -0.549584,-0.1836 -0.952836,-0.3493 -0.896147,-0.3687 0.05673,-0.016 0.503519,0.1011 0.992971,0.2667 0.86831,0.2937 1.925953,0.4253 1.520283,0.1894 -0.207226,-0.1222 -2.234948,-0.682 -2.475386,-0.6855 -0.156523,0 -0.390725,0.3808 -0.390725,0.6389 0,0.1351 0.826123,0.5502 1.099122,0.5524 0.08229,0 0.374689,-0.048 0.649463,-0.1287 z m 3.273146,-0.8384 c 0.938371,-0.2112 1.166757,-0.2958 1.134815,-0.4201 -0.02221,-0.083 -0.09559,-0.3697 -0.163636,-0.6306 l -0.123571,-0.4748 -2.72413,0 c -3.021426,0 -2.845629,-0.035 -2.845249,0.6826 l 2.06e-4,0.3666 1.023963,0.2372 c 1.413193,0.3281 2.100317,0.522 1.703738,0.4811 -0.175716,-0.015 -0.294495,0.01 -0.26399,0.048 0.0747,0.1217 0.844659,0.016 2.257866,-0.2989 z m -23.944773,-2.5826 c 0.06158,-0.4901 0.10167,-0.9039 0.08899,-0.919 -0.05297,-0.063 -1.264997,-0.2406 -1.313937,-0.1918 -0.02932,0.024 -0.0891,0.211 -0.132663,0.4039 -0.07322,0.3254 -0.05774,0.3599 0.215008,0.4727 0.32401,0.1339 0.7808,0.7328 0.7808,1.0231 0,0.102 0.05521,0.1668 0.124898,0.1439 0.07536,-0.02 0.169229,-0.3941 0.236788,-0.9328 z m 24.718418,0.8046 c 0,-0.2163 -0.514322,-2.2807 -0.589603,-2.3667 -0.03409,-0.032 -0.376472,0 -0.760513,0.078 -0.384023,0.08 -1.454881,0.3014 -2.379673,0.4867 -0.924809,0.1857 -1.705928,0.362 -1.735809,0.3918 -0.0297,0.025 -0.02267,0.3938 0.01645,0.8085 l 0.07085,0.7538 2.689338,0 c 2.347679,0 2.68931,-0.016 2.68931,-0.1529 z m -17.83774,-1.0966 c 0.160099,-0.7709 0.174203,-0.7188 -0.224006,-0.8255 -0.757051,-0.2022 -2.393335,-0.6445 -3.121449,-0.8434 -0.412163,-0.1114 -1.311457,-0.3549 -1.998406,-0.5388 -0.686929,-0.1836 -1.493048,-0.4023 -1.791304,-0.486 -0.298247,-0.083 -0.55449,-0.14 -0.569418,-0.1246 -0.01491,0.012 -0.115372,0.4217 -0.222754,0.9045 -0.141685,0.6364 -0.163756,0.8891 -0.07983,0.917 0.16534,0.049 1.210756,0.2336 1.234934,0.2102 0.07742,-0.071 0.195429,-1.2286 0.132337,-1.2949 -0.04343,-0.038 -0.168339,-0.023 -0.277443,0.034 -0.109259,0.066 -0.271794,0.096 -0.3615,0.058 -0.204656,-0.079 -0.214485,-0.5276 -0.01333,-0.6046 0.211056,-0.078 0.449677,0.024 0.449677,0.208 0,0.1 0.06531,0.1342 0.195029,0.099 0.107368,-0.023 0.208925,-0.01 0.225882,0.034 0.01709,0.043 1.446684,0.4543 3.177187,0.8967 2.887069,0.738 3.414444,0.8882 3.128129,0.8882 -0.113469,0 -5.955821,-1.4783 -6.175147,-1.5623 -0.09886,-0.031 -0.156682,0.053 -0.199452,0.3298 -0.03307,0.2103 -0.07864,0.5019 -0.101569,0.6477 -0.04936,0.3167 -0.123635,0.2932 1.84826,0.5899 0.796858,0.1184 2.123309,0.3213 2.947673,0.447 0.82435,0.1268 1.554152,0.2341 1.621798,0.2386 0.06778,0 0.14634,-0.1032 0.174868,-0.2415 z m 13.990802,-0.805 c 0.604525,-0.1291 1.563286,-0.3227 2.130613,-0.4304 0.567305,-0.1063 1.047842,-0.211 1.067884,-0.2309 0.03533,-0.029 -0.355429,-1.7914 -0.416519,-1.8709 -0.01694,-0.018 -0.559761,0.176 -1.206456,0.4393 -1.380119,0.5626 -3.563156,1.4702 -3.598616,1.4968 -0.01368,0.01 0.04623,0.2267 0.132909,0.4809 0.181031,0.5311 -0.002,0.5204 1.890185,0.1129 z m -13.739096,-0.2194 c 0,-0.1313 -0.207036,-0.2424 -0.824349,-0.4429 -0.453375,-0.1473 -1.341436,-0.4539 -1.973429,-0.681 -2.772968,-0.9973 -3.638137,-1.2852 -3.714953,-1.238 -0.04511,0.023 -0.08158,0.2164 -0.08109,0.4197 l 6.92e-4,0.3689 1.622876,0.4407 c 0.89256,0.2428 2.11747,0.5738 2.721995,0.7359 0.604524,0.1614 1.30145,0.3508 1.548751,0.4205 0.629143,0.1772 0.699472,0.1748 0.699472,-0.02 z m -8.297043,-0.8827 c 0.107006,-0.4897 0.162693,-0.9205 0.123961,-0.9586 -0.03866,-0.031 -1.160052,-0.3614 -2.491882,-0.7188 l -2.421489,-0.6503 -0.309819,0.3104 -0.309797,0.3098 0.271589,0.8082 c 0.149407,0.4444 0.306504,0.8762 0.349128,0.9595 0.05508,0.1075 0.520961,0.2194 1.610403,0.3873 0.843049,0.1296 1.847585,0.2885 2.23225,0.3527 0.384729,0.057 0.711114,0.1082 0.725378,0.1032 0.01441,-0.01 0.11349,-0.4138 0.220278,-0.9034 z m 8.704738,0.02 0.2578,-0.5227 -0.254365,-0.1955 c -0.139903,-0.1083 -0.306739,-0.2182 -0.370702,-0.2461 -0.124072,-0.044 -1.74139,-1.0847 -3.564084,-2.2731 l -1.111334,-0.7249 -0.255474,0.2437 c -0.14049,0.1339 -0.376911,0.2897 -0.52534,0.3453 -0.322014,0.1222 -1.028326,0.1527 -1.384973,0.054 -0.226906,-0.048 -0.276868,-0.016 -0.439832,0.3417 -0.101263,0.2243 -0.218099,0.4079 -0.259958,0.4079 -0.04184,0 -0.02536,0.1333 0.03608,0.297 0.09734,0.2582 0.473111,0.5022 0.772986,0.5022 0.04023,0 0.10475,-0.2921 0.142942,-0.6498 0.03823,-0.357 0.103841,-0.649 0.145677,-0.649 0.04185,0 0.04094,0.2131 -0.002,0.4745 -0.155131,0.9423 -0.279734,0.83 1.683545,1.5219 0.975497,0.3439 2.223254,0.7802 2.772808,0.9698 0.54958,0.1891 1.156576,0.4059 1.348939,0.4823 0.596754,0.2356 0.72439,0.1865 1.007228,-0.3862 z m 13.40544,-0.5258 c 2.901635,-1.1755 2.671814,-1.0305 2.551947,-1.6092 -0.05446,-0.263 -0.135983,-0.5176 -0.181143,-0.5658 -0.04595,-0.042 -0.360084,0.063 -0.713926,0.2616 -0.34748,0.1918 -0.991509,0.5443 -1.431155,0.7834 -0.439648,0.2392 -1.024178,0.5585 -1.298948,0.7101 -0.274808,0.1517 -0.679467,0.3721 -0.899313,0.4906 -0.219804,0.1181 -0.418472,0.2315 -0.441442,0.2527 -0.04195,0.031 0.197392,0.5372 0.257569,0.5372 0.0178,0 0.988084,-0.3873 2.156411,-0.8606 z m -0.873423,-0.6895 c 0.274802,-0.153 0.836845,-0.4576 1.249028,-0.6768 0.412183,-0.2197 1.027421,-0.5503 1.367234,-0.7359 l 0.617812,-0.3369 -0.19761,-0.7131 c -0.10872,-0.3924 -0.182248,-0.7852 -0.163474,-0.8734 0.01898,-0.089 0.116887,0.1774 0.218007,0.5897 0.101262,0.4122 0.204033,0.7847 0.228732,0.8286 0.02466,0.036 0.344523,-0.084 0.710742,-0.2887 0.366205,-0.202 1.003051,-0.5484 1.415231,-0.77 0.412167,-0.2203 1.213658,-0.6638 1.781069,-0.9849 0.56743,-0.3216 1.07814,-0.5837 1.134964,-0.5837 0.106994,0 0.02583,-0.4949 -0.100357,-0.6132 -0.03732,-0.029 -0.899703,0.036 -1.91639,0.1731 -2.841368,0.363 -2.697846,0.3285 -2.697846,0.6557 0,0.2872 -0.562722,0.7836 -0.88911,0.7836 -0.197846,0 -0.845248,0.4616 -2.462465,1.7556 -1.206711,0.9657 -2.259365,1.793 -2.339233,1.8388 -0.120458,0.065 -0.09734,0.1523 0.133032,0.4849 l 0.278209,0.4011 0.566427,-0.3283 c 0.311527,-0.1803 0.791248,-0.4533 1.066006,-0.6062 z m -19.700135,0.3762 c 0.0251,-0.034 0.06183,-0.2282 0.08071,-0.4145 0.03221,-0.3145 0.0071,-0.3497 -0.343625,-0.4711 -0.503309,-0.174 -0.84505,-0.039 -0.888378,0.3304 -0.02922,0.2565 0.01073,0.2942 0.467509,0.4448 0.607139,0.2012 0.626036,0.2043 0.683664,0.1082 z m 18.334733,-1.0266 c 0.476222,-0.3855 1.090646,-0.8795 1.365402,-1.0969 1.149133,-0.9098 2.24824,-1.8154 2.24824,-1.8518 0,-0.018 -0.08586,-0.083 -0.190993,-0.1417 -0.157526,-0.084 -0.274796,-0.023 -0.66943,0.3211 -0.444562,0.3931 -1.464353,1.2918 -3.071756,2.7067 -0.591088,0.5201 -0.784605,0.7641 -0.605733,0.7641 0.03209,0 0.448101,-0.316 0.92427,-0.7015 z m -9.992861,0.2938 c 0.366416,-0.333 0.378933,-0.279 -0.229894,-0.9988 -0.166313,-0.1967 -0.419872,-0.5067 -0.56344,-0.6884 l -0.261053,-0.3313 -0.413427,0.2325 c -0.365128,0.2051 -0.413399,0.2742 -0.413399,0.5923 0,0.3222 0.0717,0.4206 0.674457,0.9287 0.370982,0.3132 0.71944,0.5683 0.774377,0.568 0.05495,0 0.249546,-0.1372 0.432379,-0.303 z m -0.70714,-0.9362 c -0.370948,-0.4001 -0.674493,-0.7663 -0.674493,-0.8134 0,-0.1064 1.280103,1.1481 1.409573,1.3829 0.19271,0.35 -0.07515,0.1424 -0.73508,-0.5695 z m 18.410381,-0.2726 c 1.071667,-0.4378 2.363995,-0.9617 2.871838,-1.1633 0.850976,-0.3385 0.923444,-0.3889 0.924272,-0.6423 4.97e-4,-0.1536 -0.05434,-0.2751 -0.123997,-0.2753 -0.361783,0 -0.897732,-0.2426 -1.191737,-0.5356 l -0.332085,-0.3312 -1.698644,0.9395 c -0.934272,0.517 -2.013406,1.1045 -2.398084,1.3059 -0.384715,0.201 -0.714442,0.4002 -0.732766,0.4429 -0.01845,0.035 -0.097,0.075 -0.174872,0.075 -0.175255,0 -0.175964,-0.017 0.02358,0.696 l 0.164866,0.5928 0.359689,-0.1549 c 0.197834,-0.083 1.236522,-0.5137 2.308145,-0.9518 z m -16.634202,0.37 c 0.317029,-0.1905 0.772129,-0.4213 1.011297,-0.5127 0.239244,-0.089 0.43494,-0.197 0.43494,-0.2347 0,-0.031 -0.06533,-0.2681 -0.144918,-0.5113 -0.07957,-0.2432 -0.193846,-0.6332 -0.253634,-0.8671 -0.07537,-0.2951 -0.161741,-0.4243 -0.282485,-0.4243 -0.09561,0 -0.272989,-0.067 -0.394246,-0.155 -0.208899,-0.1462 -0.253754,-0.1287 -0.854609,0.3258 -0.611924,0.4635 -0.682548,0.601 -0.447801,0.8735 0.233368,0.271 0.895899,1.3695 0.852179,1.4134 -0.02708,0.022 -0.306992,-0.3589 -0.621907,-0.8579 l -0.572598,-0.9075 -0.363611,0.27 c -0.199964,0.1491 -0.381431,0.2846 -0.403192,0.3017 -0.02199,0.014 0.136639,0.2224 0.352027,0.4572 0.215386,0.2348 0.519572,0.5953 0.675928,0.8016 0.156404,0.2058 0.318549,0.3745 0.360321,0.3745 0.04171,0 0.335332,-0.156 0.652309,-0.3472 z m 20.845955,-0.8603 c 0.111086,-0.055 0.789055,-0.5352 1.506814,-1.0572 0.71776,-0.5225 1.365942,-0.9736 1.440343,-1.0021 0.07433,-0.024 0.135314,-0.1129 0.135314,-0.1925 0,-0.1151 -0.06271,-0.1129 -0.374679,0.017 -0.206108,0.088 -0.869349,0.3628 -1.473861,0.6084 -1.535229,0.6249 -1.538131,0.627 -1.533464,1.2301 0.004,0.5475 0.0055,0.5503 0.299533,0.3928 z m -4.197462,-3.0385 c 1.008848,-0.1374 1.841929,-0.2495 1.851302,-0.2497 0.0097,0 0.04646,-0.1468 0.08229,-0.3252 0.03583,-0.179 0.08423,-0.3934 0.107519,-0.4773 0.0262,-0.095 -0.0879,-0.2226 -0.30707,-0.3404 -0.335922,-0.1808 -0.356634,-0.1811 -0.547105,-0.01 -0.230394,0.2085 -0.92196,0.2424 -1.146456,0.048 -0.123305,-0.1022 -0.322182,0.013 -1.175741,0.6994 -0.565053,0.4523 -1.046101,0.8389 -1.068997,0.8589 -0.08885,0.078 0.438176,0.023 2.2042,-0.2128 z m -25.624048,-0.421 c 0.358835,-0.057 0.365475,-0.041 -0.402023,-0.6664 -0.609036,-0.4898 -0.75331,-0.3866 -0.444076,0.3176 0.162329,0.3693 0.269235,0.4997 0.376569,0.459 0.08229,-0.026 0.293719,-0.078 0.46953,-0.1081 z m 15.541623,-4.1148 c 0.329564,-1.3306 0.582697,-2.4327 0.562467,-2.45 -0.02023,-0.014 -0.194773,-0.01 -0.387956,0.011 l -0.351189,0.036 -0.477544,2.4147 c -0.26267,1.3286 -0.47558,2.4729 -0.47318,2.5433 0.003,0.1032 0.05794,0.1 0.266264,-0.01 0.241048,-0.1267 0.309601,-0.3302 0.861138,-2.5563 z m -15.245824,31.4866 c -0.02497,-0.034 -0.227796,-0.6147 -0.450217,-1.2741 -0.222443,-0.6591 -0.590358,-1.7162 -0.817653,-2.3481 -0.227273,-0.6319 -0.49462,-1.3965 -0.594137,-1.6985 -0.236017,-0.7169 -0.512455,-1.3988 -0.567086,-1.3988 -0.02405,0 -0.242013,0.146 -0.484843,0.324 -0.358488,0.2641 -0.44228,0.3848 -0.445435,0.6431 -0.004,0.3768 -0.227569,0.6312 -0.553469,0.6312 -0.31632,0 -0.549591,-0.2522 -0.549591,-0.5943 0,-0.3802 0.217994,-0.5367 0.673103,-0.4811 0.315367,0.032 0.452859,-0.01 0.851668,-0.3137 0.416911,-0.3148 0.470008,-0.3964 0.430275,-0.6596 -0.04157,-0.2746 -0.03635,-0.2806 0.06331,-0.075 l 0.108762,0.2226 0.489937,-0.3594 c 0.607293,-0.4458 0.750701,-0.3833 0.160426,0.069 -0.236137,0.1815 -0.464614,0.3594 -0.507785,0.396 -0.04323,0.03 0.375813,1.3653 0.931123,2.9546 1.078808,3.0866 1.394686,4.0382 1.341067,4.0382 -0.01869,0 -0.05424,-0.028 -0.07922,-0.071 z m 7.83921,-6.7446 c -0.06847,-0.8384 -0.150077,-1.704 -0.181655,-1.9238 -0.03146,-0.2199 -0.02119,-0.366 0.02317,-0.3248 0.04406,0.034 0.09025,0.1758 0.102374,0.2999 0.01223,0.1235 0.07595,0.8547 0.141489,1.6237 0.06585,0.7692 0.135376,1.5001 0.154761,1.6238 0.01948,0.1239 0.001,0.2251 -0.04008,0.2251 -0.04149,0 -0.131375,-0.6861 -0.199712,-1.5239 z m 4.489038,0.8788 c -0.137551,-0.1656 -0.06414,-0.4801 0.166321,-0.7099 0.142999,-0.1432 0.142119,-0.3353 -0.0097,-2.1241 -0.09193,-1.082 -0.190138,-2.113 -0.218241,-2.2918 -0.02794,-0.1784 -0.01431,-0.3246 0.03095,-0.3246 0.04521,0 0.162037,1.0228 0.259556,2.2735 0.171511,2.198 0.18541,2.2792 0.421899,2.4561 0.26158,0.1958 0.320732,0.5502 0.124634,0.746 -0.165574,0.1653 -0.629617,0.1505 -0.775402,-0.021 z m 16.538549,-2.2752 c -0.08548,-0.1219 -0.155548,-0.2993 -0.155548,-0.3939 0,-0.2001 0.364258,-0.4831 0.62179,-0.4831 0.235525,0 0.577299,0.3508 0.577299,0.5923 0,0.4913 -0.754809,0.6969 -1.043541,0.2847 z m -0.85496,-0.3771 c -0.212201,-0.064 -0.185907,-0.082 0.174865,-0.091 0.233549,0 0.424638,0.029 0.424638,0.091 0,0.1128 -0.239905,0.1128 -0.599503,0 z m 0.499606,-0.2999 c -0.08229,-0.044 -0.307273,-0.098 -0.499606,-0.1001 -0.255272,0 -0.310001,-0.023 -0.20263,-0.096 0.125995,-0.079 0.12239,-0.1021 -0.02481,-0.1587 -0.09463,-0.03 -0.172081,-0.1083 -0.172081,-0.1577 0,-0.043 0.108348,-0.017 0.240788,0.064 0.242286,0.1586 0.616207,0.1221 2.129249,-0.2087 0.207548,-0.038 0.240603,-0.029 0.130605,0.035 -0.08082,0.049 -0.463201,0.1555 -0.849349,0.2197 -0.850402,0.1415 -0.914423,0.1743 -0.683049,0.3495 0.206946,0.157 0.1561,0.189 -0.069,0.036 z m 2.543844,-10.0851 c 0.03162,-0.043 0.352232,-0.3093 0.71233,-0.5739 0.561712,-0.4124 0.647771,-0.5165 0.605964,-0.7312 -0.123855,-0.6363 0.513601,-1.1757 1.053075,-0.8914 0.315744,0.1663 0.377263,0.2811 0.379053,0.7101 0.002,0.5605 -0.569107,0.8634 -1.096182,0.5809 -0.148832,-0.078 -0.289971,-0.014 -0.717829,0.32 -0.292948,0.231 -0.592014,0.4775 -0.664638,0.549 -0.151347,0.1486 -0.358272,0.1763 -0.271773,0.03 z m -18.032459,-5.1612 c -0.002,-0.258 0.841809,-4.3631 0.876224,-4.2601 0.02196,0.063 -0.147686,1.0543 -0.377448,2.1952 -0.37268,1.8494 -0.495887,2.3596 -0.498776,2.0649 z m -10.614896,-5.0625 c -0.421164,-0.5552 -0.999562,-1.2518 -2.426645,-2.9229 -0.815764,-0.9549 -1.672419,-1.9991 -1.782788,-2.1729 -0.06123,-0.097 -0.193382,-0.1749 -0.294058,-0.1749 -0.161256,0 -0.176288,0.057 -0.126704,0.5247 0.11712,1.0927 0.279461,3.5838 0.236232,3.627 -0.02482,0.021 -0.09859,-0.5958 -0.163953,-1.3788 -0.228953,-2.7432 -0.232949,-2.7729 -0.374579,-2.7729 -0.07401,0 -0.206744,-0.1083 -0.294864,-0.2443 -0.137737,-0.2103 -0.141458,-0.2839 -0.02655,-0.5248 0.303164,-0.6354 1.159102,-0.2796 1.029837,0.4281 -0.05347,0.2925 0.137581,0.5454 2.679048,3.549 0.121058,0.143 0.602512,0.7135 1.069626,1.2675 l 0.849343,1.0072 0.02969,-0.7181 c 0.04536,-1.0907 0.169949,-0.9902 0.169949,0.137 0,0.5462 -0.02247,0.9939 -0.04998,0.9939 -0.02734,0 -0.263203,-0.2812 -0.523793,-0.6248 z m 15.593443,-5.1357 c -0.866655,-2.5999 -0.930344,-2.806 -0.841118,-2.7229 0.10114,0.095 1.6681,4.8084 1.633281,4.9126 -0.01724,0.043 -0.373529,-0.9339 -0.792163,-2.1897 z"
       id="path4257"
       inkscape:connector-curvature="0" />
  </g>
</svg>
