<?xml version="1.0" encoding="UTF-8" standalone="no"?>
<!-- Created with Inkscape (http://www.inkscape.org/) -->

<svg
   xmlns:dc="http://purl.org/dc/elements/1.1/"
   xmlns:cc="http://creativecommons.org/ns#"
   xmlns:rdf="http://www.w3.org/1999/02/22-rdf-syntax-ns#"
   xmlns:svg="http://www.w3.org/2000/svg"
   xmlns="http://www.w3.org/2000/svg"
   xmlns:sodipodi="http://sodipodi.sourceforge.net/DTD/sodipodi-0.dtd"
   xmlns:inkscape="http://www.inkscape.org/namespaces/inkscape"
   width="128"
   height="128"
   id="svg5048"
   version="1.1"
   inkscape:version="0.91 r13725"
   sodipodi:docname="system-users.svg">
  <defs
     id="defs5050">
    <filter
       id="filter4004-4"
       inkscape:label="Colorize"
       inkscape:menu="Color"
       inkscape:menu-tooltip="Blend image or object with a flood color and set lightness and contrast"
       x="0"
       y="0"
       width="1"
       height="1"
       color-interpolation-filters="sRGB">
      <feColorMatrix
         id="feColorMatrix4006-0"
         values="1"
         in="SourceGraphic"
         type="saturate"
         result="result2" />
      <feFlood
         id="feFlood4008-2"
         flood-color="rgb(250,247,247)"
         flood-opacity="1"
         result="result1" />
      <feBlend
         id="feBlend4010-1"
         in2="result2"
         mode="multiply"
         in="result1"
         result="result3" />
      <feComposite
         id="feComposite4012-3"
         in2="SourceGraphic"
         operator="in"
         result="result4" />
    </filter>
    <style
       id="current-color-scheme"
       type="text/css">      .ColorScheme-Text {
        color:#31363b;
      }
      .ColorScheme-Background{
        color:#eff0f1;
      }
      .ColorScheme-ViewText {
        color:#31363b;
      }
      .ColorScheme-ViewBackground{
        color:#fcfcfc;
      }
      .ColorScheme-ViewHover {
        color:#3daee9;
      }
      .ColorScheme-ViewFocus{
        color:#3daee9;
      }
      .ColorScheme-ButtonText {
        color:#31363b;
      }
      .ColorScheme-ButtonBackground{
        color:#eff0f1;
      }
      .ColorScheme-ButtonHover {
        color:#3daee9;
      }
      .ColorScheme-ButtonFocus{
        color:#3daee9;
      }</style>
  </defs>
  <sodipodi:namedview
     id="base"
     pagecolor="#383838"
     bordercolor="#666666"
     borderopacity="1.0"
     inkscape:pageopacity="0.12941176"
     inkscape:pageshadow="2"
     inkscape:zoom="1.0156251"
     inkscape:cx="-42.338446"
     inkscape:cy="193.23431"
     inkscape:document-units="px"
     inkscape:current-layer="layer1"
     showgrid="true"
     inkscape:window-width="1280"
     inkscape:window-height="722"
     inkscape:window-x="0"
     inkscape:window-y="28"
     inkscape:window-maximized="1"
     fit-margin-top="0"
     fit-margin-left="0"
     fit-margin-right="0"
     fit-margin-bottom="0"
     inkscape:snap-bbox="true">
    <inkscape:grid
       type="xygrid"
       id="grid3001"
       empspacing="4"
       visible="true"
       enabled="true"
       snapvisiblegridlinesonly="true"
       color="#0101ff"
       opacity="0.01960784"
       empcolor="#0000ff"
       empopacity="0.03921569" />
  </sodipodi:namedview>
  <metadata
     id="metadata5053">
    <rdf:RDF>
      <cc:Work
         rdf:about="">
        <dc:format>image/svg+xml</dc:format>
        <dc:type
           rdf:resource="http://purl.org/dc/dcmitype/StillImage" />
        <dc:title></dc:title>
      </cc:Work>
    </rdf:RDF>
  </metadata>
  <g
     inkscape:label="Layer 1"
     inkscape:groupmode="layer"
     id="layer1"
     transform="translate(-6.129729,-913.75296)">
    <path
       style="color:#000000;font-style:normal;font-variant:normal;font-weight:normal;font-stretch:normal;font-size:medium;line-height:normal;font-family:sans-serif;text-indent:0;text-align:start;text-decoration:none;text-decoration-line:none;text-decoration-style:solid;text-decoration-color:#000000;letter-spacing:normal;word-spacing:normal;text-transform:none;direction:ltr;block-progression:tb;writing-mode:lr-tb;baseline-shift:baseline;text-anchor:start;white-space:normal;clip-rule:nonzero;display:inline;overflow:visible;visibility:visible;opacity:1;isolation:auto;mix-blend-mode:normal;color-interpolation:sRGB;color-interpolation-filters:linearRGB;solid-color:#000000;solid-opacity:1;fill:#f7f7f7;fill-opacity:1;fill-rule:nonzero;stroke:none;stroke-width:1;stroke-linecap:butt;stroke-linejoin:miter;stroke-miterlimit:4;stroke-dasharray:none;stroke-dashoffset:0;stroke-opacity:1;color-rendering:auto;image-rendering:auto;shape-rendering:auto;text-rendering:auto;enable-background:accumulate"
       d="m 70.129725,917.75297 c -33.004031,0 -59.999998,26.83443 -59.999998,60 0,33.16403 26.836028,60.00003 59.999998,60.00003 33.165595,0 60.000005,-26.9959 60.000005,-60.00004 0,-33.004 -26.83441,-60 -60.000005,-60 z m 0,3.08754 c 31.336675,0 56.912445,25.5758 56.912445,56.91246 l 0,0.002 c 0.15988,31.49793 -25.41147,56.90863 -56.912445,56.90863 -31.499297,0 -56.910509,-25.5722 -56.910509,-56.91057 0,-31.49928 25.572152,-56.91245 56.910509,-56.91245 z"
       id="path4147"
       inkscape:connector-curvature="0"
       sodipodi:nodetypes="ssssscscsscc" />
    <path
       inkscape:connector-curvature="0"
       style="color:#31363b;fill:#ffffff;fill-opacity:1;stroke:none"
       d="m 79.067226,954.7529 c -4.674372,0 -8.437499,3.76311 -8.437499,8.4375 0,4.67437 3.763127,8.43751 8.437499,8.43751 4.674378,0 8.43749,-3.76314 8.43749,-8.43751 0,-4.67439 -3.763112,-8.4375 -8.43749,-8.4375 z m -16.874999,8.4375 c -4.674373,0 -8.437497,3.76311 -8.437497,8.43751 0,4.67436 3.763124,8.4375 8.437497,8.4375 4.674377,0 8.4375,-3.76314 8.4375,-8.4375 0,-4.6744 -3.763123,-8.43751 -8.4375,-8.43751 z m 16.874999,11.25001 c -1.817846,0 -3.532495,0.37742 -5.114135,1.01627 l 1.279913,2.5704 c 1.203228,-0.45118 2.4687,-0.77417 3.834222,-0.77417 6.232538,0 11.250001,5.01748 11.250001,11.25 l -9.843751,0 1.40625,2.81248 11.250003,0 0,-2.81248 c 0,-7.79064 -6.271819,-14.0625 -14.062503,-14.0625 z m -16.874999,8.4375 c -7.790673,0 -14.062498,6.27186 -14.062498,14.06251 l 0,2.81254 28.124995,0 0,-2.81254 c 0,-7.79065 -6.271823,-14.06251 -14.062497,-14.06251 z m 0,2.8125 c 6.232518,0 11.249997,5.01745 11.249997,11.25001 l -22.499995,0 c 0,-6.23256 5.017486,-11.25001 11.249998,-11.25001 z"
       class="ColorScheme-Text"
       id="path6" />
  </g>
</svg>
