<?xml version="1.0" encoding="UTF-8" standalone="no"?>
<!-- Created with Inkscape (http://www.inkscape.org/) -->

<svg
   xmlns:dc="http://purl.org/dc/elements/1.1/"
   xmlns:cc="http://creativecommons.org/ns#"
   xmlns:rdf="http://www.w3.org/1999/02/22-rdf-syntax-ns#"
   xmlns:svg="http://www.w3.org/2000/svg"
   xmlns="http://www.w3.org/2000/svg"
   xmlns:sodipodi="http://sodipodi.sourceforge.net/DTD/sodipodi-0.dtd"
   xmlns:inkscape="http://www.inkscape.org/namespaces/inkscape"
   width="128"
   height="128"
   id="svg5048"
   version="1.1"
   inkscape:version="0.91 r13725"
   sodipodi:docname="restart_primary.svgz">
  <defs
     id="defs5050">
    <filter
       id="filter4004-4"
       inkscape:label="Colorize"
       inkscape:menu="Color"
       inkscape:menu-tooltip="Blend image or object with a flood color and set lightness and contrast"
       x="0"
       y="0"
       width="1"
       height="1"
       color-interpolation-filters="sRGB">
      <feColorMatrix
         id="feColorMatrix4006-0"
         values="1"
         in="SourceGraphic"
         type="saturate"
         result="result2" />
      <feFlood
         id="feFlood4008-2"
         flood-color="rgb(250,247,247)"
         flood-opacity="1"
         result="result1" />
      <feBlend
         id="feBlend4010-1"
         in2="result2"
         mode="multiply"
         in="result1"
         result="result3" />
      <feComposite
         id="feComposite4012-3"
         in2="SourceGraphic"
         operator="in"
         result="result4" />
    </filter>
    <filter
       id="filter4004-44"
       inkscape:label="Colorize"
       inkscape:menu="Color"
       inkscape:menu-tooltip="Blend image or object with a flood color and set lightness and contrast"
       x="0"
       y="0"
       width="1"
       height="1"
       color-interpolation-filters="sRGB">
      <feColorMatrix
         id="feColorMatrix4006-8"
         values="1"
         in="SourceGraphic"
         type="saturate"
         result="result2" />
      <feFlood
         id="feFlood4008-0"
         flood-color="rgb(250,247,247)"
         flood-opacity="1"
         result="result1" />
      <feBlend
         id="feBlend4010-5"
         in2="result2"
         mode="multiply"
         in="result1"
         result="result3" />
      <feComposite
         id="feComposite4012-6"
         in2="SourceGraphic"
         operator="in"
         result="result4" />
    </filter>
    <filter
       id="filter4004-4-4"
       inkscape:label="Colorize"
       inkscape:menu="Color"
       inkscape:menu-tooltip="Blend image or object with a flood color and set lightness and contrast"
       x="0"
       y="0"
       width="1"
       height="1"
       color-interpolation-filters="sRGB">
      <feColorMatrix
         id="feColorMatrix4006-0-1"
         values="1"
         in="SourceGraphic"
         type="saturate"
         result="result2" />
      <feFlood
         id="feFlood4008-2-5"
         flood-color="rgb(250,247,247)"
         flood-opacity="1"
         result="result1" />
      <feBlend
         id="feBlend4010-1-5"
         in2="result2"
         mode="multiply"
         in="result1"
         result="result3" />
      <feComposite
         id="feComposite4012-3-5"
         in2="SourceGraphic"
         operator="in"
         result="result4" />
    </filter>
    <style
       id="current-color-scheme"
       type="text/css">      .ColorScheme-Text {
        color:#31363b;
      }
      .ColorScheme-Background{
        color:#eff0f1;
      }
      .ColorScheme-ViewText {
        color:#31363b;
      }
      .ColorScheme-ViewBackground{
        color:#fcfcfc;
      }
      .ColorScheme-ViewHover {
        color:#3daee9;
      }
      .ColorScheme-ViewFocus{
        color:#3daee9;
      }
      .ColorScheme-ButtonText {
        color:#31363b;
      }
      .ColorScheme-ButtonBackground{
        color:#eff0f1;
      }
      .ColorScheme-ButtonHover {
        color:#3daee9;
      }
      .ColorScheme-ButtonFocus{
        color:#3daee9;
      }</style>
  </defs>
  <sodipodi:namedview
     id="base"
     pagecolor="#1d1d1d"
     bordercolor="#666666"
     borderopacity="1.0"
     inkscape:pageopacity="0.10588235"
     inkscape:pageshadow="2"
     inkscape:zoom="2.0000001"
     inkscape:cx="-14.03165"
     inkscape:cy="54.213297"
     inkscape:document-units="px"
     inkscape:current-layer="layer1"
     showgrid="true"
     inkscape:window-width="1358"
     inkscape:window-height="693"
     inkscape:window-x="0"
     inkscape:window-y="0"
     inkscape:window-maximized="0"
     fit-margin-top="0"
     fit-margin-left="0"
     fit-margin-right="0"
     fit-margin-bottom="0"
     inkscape:snap-bbox="true">
    <inkscape:grid
       type="xygrid"
       id="grid3011"
       empspacing="4"
       visible="true"
       enabled="true"
       snapvisiblegridlinesonly="true"
       color="#0000ff"
       opacity="0.01960784"
       empcolor="#0000ff"
       empopacity="0.03921569" />
  </sodipodi:namedview>
  <metadata
     id="metadata5053">
    <rdf:RDF>
      <cc:Work
         rdf:about="">
        <dc:format>image/svg+xml</dc:format>
        <dc:type
           rdf:resource="http://purl.org/dc/dcmitype/StillImage" />
        <dc:title />
      </cc:Work>
    </rdf:RDF>
  </metadata>
  <g
     inkscape:label="Layer 1"
     inkscape:groupmode="layer"
     id="layer1"
     transform="translate(-6.1297004,-913.75296)">
    <path
       inkscape:connector-curvature="0"
       d="m 75.089436,922.75223 c -11.808964,-0.002 -23.713478,3.78785 -33.750164,11.60526 -13.922547,10.8407 -21.21248,27.05666 -21.211052,43.43127 0,0.17718 0.0046,0.35383 0.0075,0.53093 l -7.478279,-9.03344 c -0.502692,-0.60694 -1.402405,-0.69096 -2.010777,-0.18835 -0.608369,0.50269 -0.6909653,1.4024 -0.188282,2.01078 l 11.096923,13.40894 11.096923,-13.40894 c 0.502691,-0.60696 0.416329,-1.50809 -0.192042,-2.01078 -0.608369,-0.5027 -1.508085,-0.4201 -2.010774,0.18835 l -7.459451,9.01461 c -0.0014,-0.1714 -0.0075,-0.34075 -0.0075,-0.5121 0.0014,-15.53488 6.903546,-30.89341 20.107752,-41.17574 9.524004,-7.41468 20.798622,-11.00511 31.999204,-11.00655 15.53487,0.002 30.897163,6.90732 41.179503,20.11153 7.41467,9.524 11.00135,20.79485 11.00278,31.99543 -0.002,15.53488 -6.90356,30.89717 -20.10776,41.17957 -9.524013,7.4146 -20.79863,11.0013 -31.999223,11.0027 -15.53486,0 -30.893386,-6.9035 -41.175708,-20.1077 -0.484126,-0.6226 -1.382021,-0.7327 -2.003244,-0.2486 -0.622652,0.4841 -0.736416,1.3821 -0.25229,2.0033 10.840709,13.9225 27.056663,21.2125 43.431242,21.211 11.808974,0 23.71725,-3.7893 33.753943,-11.6052 13.92254,-10.8407 21.21248,-27.0567 21.21104,-43.43129 0.002,-11.80754 -3.78783,-23.71724 -11.60525,-33.75394 C 107.68374,930.04073 91.465449,922.7508 75.089436,922.75223 Z m 0.04144,25.72588 c -0.788316,0 -1.430897,0.64258 -1.430897,1.43089 l 0,6.22814 0,25.18741 c 0,0.78831 0.642581,1.43089 1.430897,1.43089 0.788315,0 1.427118,-0.64258 1.427118,-1.43089 l 0,-25.18741 0,-6.22814 c 0,-0.78831 -0.638803,-1.43089 -1.427118,-1.43089 z m -14.399267,6.25073 c -0.182888,0.031 -0.361153,0.0974 -0.527175,0.20334 -7.720302,4.92694 -12.844114,13.58178 -12.844114,23.42138 0,15.3378 12.434183,27.76914 27.770556,27.77054 15.336354,0 27.766784,-12.43416 27.766784,-27.77054 0,-9.84103 -5.1238,-18.48924 -12.844121,-23.41762 -0.664059,-0.42414 -1.545206,-0.23247 -1.96935,0.43303 -0.152887,0.23849 -0.199584,0.50397 -0.199584,0.76817 0.0019,0.46984 0.207047,0.9322 0.632616,1.20496 6.931986,4.42853 11.526179,12.17867 11.526179,21.01146 -0.002,6.88345 -2.787603,13.10599 -7.297521,17.61879 -4.512815,4.50995 -10.731561,7.29375 -17.615003,7.29375 -6.883443,0 -13.102208,-2.7838 -17.615004,-7.29375 -4.509937,-4.5128 -7.297527,-10.73534 -7.297527,-17.61879 0,-8.83279 4.59419,-16.58293 11.526186,-21.01146 0.425578,-0.27134 0.631181,-0.73512 0.632606,-1.20496 -0.0028,-0.2642 -0.04678,-0.52825 -0.199575,-0.76817 -0.318103,-0.49912 -0.897291,-0.73324 -1.445944,-0.64013 z"
       id="path3"
       style="fill:#f7f7f7;fill-opacity:1" />
    <path
       style="fill:#ffffff"
       id="path4171"
       d="m -58.869123,948.47811 c -0.788316,0 -1.430897,0.64258 -1.430897,1.43089 l 0,6.22814 0,25.18741 c 0,0.78831 0.642581,1.43089 1.430897,1.43089 0.788315,0 1.427118,-0.64258 1.427118,-1.43089 l 0,-25.18741 0,-6.22814 c 0,-0.78831 -0.638803,-1.43089 -1.427118,-1.43089 z m -14.399267,6.25073 c -0.182888,0.031 -0.361153,0.0974 -0.527175,0.20334 -7.720302,4.92694 -12.844114,13.58178 -12.844114,23.42138 0,15.3378 12.434183,27.76914 27.770556,27.77054 15.336354,0 27.766783,-12.43416 27.766783,-27.77054 0,-9.84103 -5.123799,-18.48924 -12.84412,-23.41762 -0.664059,-0.42414 -1.545206,-0.23247 -1.96935,0.43303 -0.152887,0.23849 -0.199584,0.50397 -0.199584,0.76817 0.0019,0.46984 0.207047,0.9322 0.632616,1.20496 6.931986,4.42853 11.526178,12.17867 11.526178,21.01146 -0.002,6.88345 -2.787602,13.10599 -7.29752,17.61879 -4.512815,4.50995 -10.731561,7.29375 -17.615003,7.29375 -6.883443,0 -13.102208,-2.7838 -17.615004,-7.29375 -4.509937,-4.5128 -7.297527,-10.73534 -7.297527,-17.61879 0,-8.83279 4.59419,-16.58293 11.526186,-21.01146 0.425578,-0.27134 0.631181,-0.73512 0.632606,-1.20496 -0.0028,-0.2642 -0.04678,-0.52825 -0.199575,-0.76817 -0.318103,-0.49912 -0.897291,-0.73324 -1.445953,-0.64013 z"
       inkscape:connector-curvature="0"
       sodipodi:nodetypes="sscssscssccscsccccccscscccc" />
  </g>
</svg>
