<?xml version="1.0" encoding="UTF-8" standalone="no"?>
<!-- Created with Inkscape (http://www.inkscape.org/) -->

<svg
   xmlns:dc="http://purl.org/dc/elements/1.1/"
   xmlns:cc="http://creativecommons.org/ns#"
   xmlns:rdf="http://www.w3.org/1999/02/22-rdf-syntax-ns#"
   xmlns:svg="http://www.w3.org/2000/svg"
   xmlns="http://www.w3.org/2000/svg"
   xmlns:sodipodi="http://sodipodi.sourceforge.net/DTD/sodipodi-0.dtd"
   xmlns:inkscape="http://www.inkscape.org/namespaces/inkscape"
   width="64"
   height="64"
   viewBox="0 0 64 64"
   id="svg4178"
   version="1.1"
   inkscape:version="0.91 r13725"
   sodipodi:docname="applications-multimedia.svg">
  <defs
     id="defs4180">
    <linearGradient
       id="b"
       y1="39"
       y2="9"
       gradientUnits="userSpaceOnUse"
       x2="0"
       gradientTransform="matrix(1.1428556,0,0,1.3333333,-0.57111064,-1243.5489)">
      <stop
         stop-color="#197cf1"
         id="stop12" />
      <stop
         offset="1"
         stop-color="#20bcfa"
         id="stop14" />
    </linearGradient>
  </defs>
  <sodipodi:namedview
     id="base"
     pagecolor="#ffffff"
     bordercolor="#666666"
     borderopacity="1.0"
     inkscape:pageopacity="0.0"
     inkscape:pageshadow="2"
     inkscape:zoom="5.8891869"
     inkscape:cx="14.483755"
     inkscape:cy="25.439769"
     inkscape:document-units="px"
     inkscape:current-layer="layer1"
     showgrid="false"
     units="px"
     inkscape:window-width="1280"
     inkscape:window-height="722"
     inkscape:window-x="0"
     inkscape:window-y="28"
     inkscape:window-maximized="1" />
  <metadata
     id="metadata4183">
    <rdf:RDF>
      <cc:Work
         rdf:about="">
        <dc:format>image/svg+xml</dc:format>
        <dc:type
           rdf:resource="http://purl.org/dc/dcmitype/StillImage" />
        <dc:title></dc:title>
      </cc:Work>
    </rdf:RDF>
  </metadata>
  <g
     inkscape:label="Layer 1"
     inkscape:groupmode="layer"
     id="layer1"
     transform="translate(0,-988.3622)">
    <circle
       style="opacity:1;fill:#31363b;fill-opacity:1;stroke:none;stroke-width:1.24300003;stroke-miterlimit:4;stroke-dasharray:none;stroke-opacity:1"
       id="path4746"
       cx="32"
       cy="1020.3622"
       r="32" />
    <path
       inkscape:connector-curvature="0"
       style="opacity:1;fill:#ffffff;fill-opacity:1;stroke:none;stroke-width:1.24300003;stroke-miterlimit:4;stroke-dasharray:none;stroke-opacity:1"
       d="m 31.999999,989.36223 a 31,31 0 0 0 -30.99999956,31.00007 31,31 0 0 0 30.99999956,31 31,31 0 0 0 31,-31 31,31 0 0 0 -31,-31.00007 z m 0,2.69565 a 28.304348,28.304348 0 0 1 28.304348,28.30442 28.304348,28.304348 0 0 1 -28.304348,28.3043 28.304348,28.304348 0 0 1 -28.3043474,-28.3043 28.304348,28.304348 0 0 1 28.3043474,-28.30442 z"
       id="path4145-3" />
    <path
       inkscape:connector-curvature="0"
       style="opacity:1;fill:#ffffff;fill-opacity:1;stroke:none;stroke-width:0.1;stroke-miterlimit:4;stroke-dasharray:none;stroke-opacity:1"
       d="m 24.5,1005.3622 0,1.25 0,2.5 0,1.2501 0,17.5657 c -0.793209,-0.8103 -1.896205,-1.3159 -3.125001,-1.3159 -2.423737,0 -4.374999,1.9513 -4.374999,4.3752 0,2.4236 1.951262,4.3749 4.374999,4.3749 2.423738,0 4.375002,-1.9513 4.375002,-4.3749 l 0,-0.6252 0,-0.6249 0,-19.3749 19.999998,0 0,15.0658 c -0.793209,-0.8104 -1.896204,-1.3159 -3.124998,-1.3159 -2.423738,0 -4.375002,1.9513 -4.375002,4.3749 0,2.4239 1.951264,4.3752 4.375002,4.3752 2.423736,0 4.374999,-1.9513 4.374999,-4.3752 l 0,-1.2498 0,-21.8751 -22.5,0 z m 1.250001,1.25 19.999998,0 0,2.5 -19.999998,0 0,-2.5 z m 16.875,18.7501 c 1.731236,0 3.124998,1.3937 3.124998,3.1248 0,1.7314 -1.393762,3.1251 -3.124998,3.1251 -1.731239,0 -3.125001,-1.3937 -3.125001,-3.1251 0,-1.7311 1.393762,-3.1248 3.125001,-3.1248 z m -21.250002,2.4999 c 1.731239,0 3.125001,1.3937 3.125001,3.1251 0,1.7311 -1.393762,3.1248 -3.125001,3.1248 -1.731238,0 -3.124998,-1.3937 -3.124998,-3.1248 0,-1.7314 1.39376,-3.1251 3.124998,-3.1251 z"
       id="rect3344" />
  </g>
</svg>
