<?xml version="1.0" encoding="UTF-8" standalone="no"?>
<!-- Created with Inkscape (http://www.inkscape.org/) -->

<svg
   xmlns:dc="http://purl.org/dc/elements/1.1/"
   xmlns:cc="http://creativecommons.org/ns#"
   xmlns:rdf="http://www.w3.org/1999/02/22-rdf-syntax-ns#"
   xmlns:svg="http://www.w3.org/2000/svg"
   xmlns="http://www.w3.org/2000/svg"
   xmlns:sodipodi="http://sodipodi.sourceforge.net/DTD/sodipodi-0.dtd"
   xmlns:inkscape="http://www.inkscape.org/namespaces/inkscape"
   width="64"
   height="64"
   viewBox="0 0 64 64"
   id="svg4178"
   version="1.1"
   inkscape:version="0.91 r13725"
   sodipodi:docname="applications-graphics.svg">
  <defs
     id="defs4180">
    <linearGradient
       id="b"
       y1="39"
       y2="9"
       gradientUnits="userSpaceOnUse"
       x2="0"
       gradientTransform="matrix(1.1428556,0,0,1.3333333,-0.57111064,-1243.5489)">
      <stop
         stop-color="#197cf1"
         id="stop12" />
      <stop
         offset="1"
         stop-color="#20bcfa"
         id="stop14" />
    </linearGradient>
  </defs>
  <sodipodi:namedview
     id="base"
     pagecolor="#ffffff"
     bordercolor="#666666"
     borderopacity="1.0"
     inkscape:pageopacity="0.0"
     inkscape:pageshadow="2"
     inkscape:zoom="5.8891869"
     inkscape:cx="14.483755"
     inkscape:cy="25.439769"
     inkscape:document-units="px"
     inkscape:current-layer="layer1"
     showgrid="false"
     units="px"
     inkscape:window-width="1280"
     inkscape:window-height="722"
     inkscape:window-x="0"
     inkscape:window-y="28"
     inkscape:window-maximized="1" />
  <metadata
     id="metadata4183">
    <rdf:RDF>
      <cc:Work
         rdf:about="">
        <dc:format>image/svg+xml</dc:format>
        <dc:type
           rdf:resource="http://purl.org/dc/dcmitype/StillImage" />
        <dc:title></dc:title>
      </cc:Work>
    </rdf:RDF>
  </metadata>
  <g
     inkscape:label="Layer 1"
     inkscape:groupmode="layer"
     id="layer1"
     transform="translate(0,-988.3622)">
    <circle
       style="opacity:1;fill:#31363b;fill-opacity:1;stroke:none;stroke-width:1.24300003;stroke-miterlimit:4;stroke-dasharray:none;stroke-opacity:1"
       id="path4746"
       cx="32"
       cy="1020.3622"
       r="32" />
    <path
       inkscape:connector-curvature="0"
       style="opacity:1;fill:#ffffff;fill-opacity:1;stroke:none;stroke-width:1.24300003;stroke-miterlimit:4;stroke-dasharray:none;stroke-opacity:1"
       d="m 31.999999,989.36223 a 31,31 0 0 0 -30.99999956,31.00007 31,31 0 0 0 30.99999956,31 31,31 0 0 0 31,-31 31,31 0 0 0 -31,-31.00007 z m 0,2.69565 a 28.304348,28.304348 0 0 1 28.304348,28.30442 28.304348,28.304348 0 0 1 -28.304348,28.3043 28.304348,28.304348 0 0 1 -28.3043474,-28.3043 28.304348,28.304348 0 0 1 28.3043474,-28.30442 z"
       id="path4145-3" />
    <path
       inkscape:connector-curvature="0"
       style="opacity:1;fill:#ffffff;fill-opacity:1;stroke:none;stroke-width:0;stroke-miterlimit:4;stroke-dasharray:none;stroke-opacity:0.2751323"
       d="m 28.25,1005.3622 0,11.438 c -0.605466,-0.1225 -1.232553,-0.188 -1.875,-0.188 -5.19375,0 -9.375,4.1812 -9.375,9.375 0,5.1938 4.18125,9.375 9.375,9.375 5.19375,0 9.375,-4.1812 9.375,-9.375 0,-0.6425 -0.06603,-1.2695 -0.187989,-1.875 l 11.437989,0 0,-18.75 -18.75,0 z m 1.25,1.25 16.25,0 0,16.25 -10.541993,0 c -0.938811,-2.6667 -3.041202,-4.7691 -5.708007,-5.708 l 0,-10.542 z m -3.125,11.25 c 4.50125,0 8.125,3.6237 8.125,8.125 0,4.5013 -3.62375,8.125 -8.125,8.125 -4.50125,0 -8.125,-3.6237 -8.125,-8.125 0,-4.5013 3.62375,-8.125 8.125,-8.125 z"
       id="rect4140" />
  </g>
</svg>
