<?xml version="1.0" encoding="UTF-8" standalone="no"?>
<!-- Created with Inkscape (http://www.inkscape.org/) -->

<svg
   xmlns:dc="http://purl.org/dc/elements/1.1/"
   xmlns:cc="http://creativecommons.org/ns#"
   xmlns:rdf="http://www.w3.org/1999/02/22-rdf-syntax-ns#"
   xmlns:svg="http://www.w3.org/2000/svg"
   xmlns="http://www.w3.org/2000/svg"
   xmlns:sodipodi="http://sodipodi.sourceforge.net/DTD/sodipodi-0.dtd"
   xmlns:inkscape="http://www.inkscape.org/namespaces/inkscape"
   width="64"
   height="64"
   viewBox="0 0 64 64"
   id="svg4178"
   version="1.1"
   inkscape:version="0.91 r13725"
   sodipodi:docname="karbon.svg">
  <defs
     id="defs4180" />
  <sodipodi:namedview
     id="base"
     pagecolor="#ffffff"
     bordercolor="#666666"
     borderopacity="1.0"
     inkscape:pageopacity="0.0"
     inkscape:pageshadow="2"
     inkscape:zoom="2.1146755"
     inkscape:cx="127.74353"
     inkscape:cy="-22.203258"
     inkscape:document-units="px"
     inkscape:current-layer="layer1"
     showgrid="false"
     units="px"
     inkscape:window-width="1280"
     inkscape:window-height="722"
     inkscape:window-x="0"
     inkscape:window-y="28"
     inkscape:window-maximized="1" />
  <metadata
     id="metadata4183">
    <rdf:RDF>
      <cc:Work
         rdf:about="">
        <dc:format>image/svg+xml</dc:format>
        <dc:type
           rdf:resource="http://purl.org/dc/dcmitype/StillImage" />
        <dc:title />
      </cc:Work>
    </rdf:RDF>
  </metadata>
  <g
     inkscape:label="Layer 1"
     inkscape:groupmode="layer"
     id="layer1"
     transform="translate(0,-988.3622)">
    <circle
       style="opacity:1;fill:#31363b;fill-opacity:1;stroke:none;stroke-width:1.24300003;stroke-miterlimit:4;stroke-dasharray:none;stroke-opacity:1"
       id="path4746"
       cx="32"
       cy="1020.3622"
       r="32" />
    <path
       inkscape:connector-curvature="0"
       style="opacity:1;fill:#ffffff;fill-opacity:1;stroke:none;stroke-width:1.24300003;stroke-miterlimit:4;stroke-dasharray:none;stroke-opacity:1"
       d="m 31.999999,989.36223 a 31,31 0 0 0 -30.99999956,31.00007 31,31 0 0 0 30.99999956,31 31,31 0 0 0 31,-31 31,31 0 0 0 -31,-31.00007 z m 0,2.69565 a 28.304348,28.304348 0 0 1 28.304348,28.30442 28.304348,28.304348 0 0 1 -28.304348,28.3043 28.304348,28.304348 0 0 1 -28.3043474,-28.3043 28.304348,28.304348 0 0 1 28.3043474,-28.30442 z"
       id="path4145-3" />
    <path
       inkscape:connector-curvature="0"
       style="fill:#ffffff;fill-opacity:1;stroke:none;stroke-width:1;stroke-miterlimit:4;stroke-dasharray:none;stroke-opacity:1"
       d="M 32,1000.3622 A 20,20 0 0 0 17.623047,1006.4638 2,2 0 0 0 17,1006.3622 a 2,2 0 0 0 -2,2 2,2 0 0 0 0.287109,1.0293 A 20,20 0 0 0 12,1020.3622 a 20,20 0 0 0 20,20 20,20 0 0 0 13.277344,-5.0684 4,4 0 0 0 0.722656,0.068 4,4 0 0 0 4,-4 4,4 0 0 0 -0.349609,-1.623 20,20 0 0 0 2.349609,-9.377 20,20 0 0 0 -20,-20 z m 0,0.5 a 19.5,19.5 0 0 1 19.5,19.5 19.5,19.5 0 0 1 -2.138672,8.834 4,4 0 0 0 -3.361328,-1.834 4,4 0 0 0 -3.992188,3.8242 c -3.521665,-0.3794 -7.560675,-1.1254 -10.011718,-2.5898 A 3,3 0 0 0 33,1026.3622 a 3,3 0 0 0 -3,-3 3,3 0 0 0 -0.142578,0.01 c 0.724978,-1.8505 2.745677,-3.1555 3.732422,-5.0098 A 2.5,2.5 0 0 0 36,1015.8622 a 2.5,2.5 0 0 0 -2.5,-2.5 2.5,2.5 0 0 0 -0.236328,0.014 c -2.495358,-3.785 -9.65562,-4.8605 -14.269531,-5.1602 A 2,2 0 0 0 18.109375,1006.7001 19.5,19.5 0 0 1 32,1000.8622 Z m -15,6.5 a 1,1 0 0 1 1,1 1,1 0 0 1 -1,1 1,1 0 0 1 -1,-1 1,1 0 0 1 1,-1 z m 1.998047,0.9317 c 4.684803,0.391 11.233141,1.5994 13.416015,5.3183 a 2.5,2.5 0 0 0 -1.414062,2.25 2.5,2.5 0 0 0 1.650391,2.3477 c -1.017528,2.0283 -3.309602,3.3782 -3.933594,5.4433 A 3,3 0 0 0 27,1026.3622 a 3,3 0 0 0 3,3 3,3 0 0 0 1.441406,-0.3711 c 2.775479,1.688 7.12878,2.8465 10.740235,3.5488 a 4,4 0 0 0 2.507812,2.5977 A 19.5,19.5 0 0 1 32,1039.8622 a 19.5,19.5 0 0 1 -19.5,-19.5 19.5,19.5 0 0 1 3.125,-10.5508 2,2 0 0 0 1.375,0.5508 2,2 0 0 0 2,-2 2,2 0 0 0 -0.002,-0.068 z M 33.5,1014.3622 a 1.5,1.5 0 0 1 1.5,1.5 1.5,1.5 0 0 1 -1.5,1.5 1.5,1.5 0 0 1 -1.5,-1.5 1.5,1.5 0 0 1 1.5,-1.5 z m -3.5,10 a 2,2 0 0 1 2,2 2,2 0 0 1 -2,2 2,2 0 0 1 -2,-2 2,2 0 0 1 2,-2 z m 16,4 a 3,3 0 0 1 3,3 3,3 0 0 1 -3,3 3,3 0 0 1 -3,-3 3,3 0 0 1 3,-3 z"
       id="circle37" />
  </g>
</svg>
