<?xml version="1.0" encoding="UTF-8" standalone="no"?>
<!-- Created with Inkscape (http://www.inkscape.org/) -->

<svg
   xmlns:dc="http://purl.org/dc/elements/1.1/"
   xmlns:cc="http://creativecommons.org/ns#"
   xmlns:rdf="http://www.w3.org/1999/02/22-rdf-syntax-ns#"
   xmlns:svg="http://www.w3.org/2000/svg"
   xmlns="http://www.w3.org/2000/svg"
   xmlns:sodipodi="http://sodipodi.sourceforge.net/DTD/sodipodi-0.dtd"
   xmlns:inkscape="http://www.inkscape.org/namespaces/inkscape"
   width="64"
   height="64"
   viewBox="0 0 64 64"
   id="svg4178"
   version="1.1"
   inkscape:version="0.91 r13725"
   sodipodi:docname="firefox.svg">
  <defs
     id="defs4180" />
  <sodipodi:namedview
     id="base"
     pagecolor="#ffffff"
     bordercolor="#666666"
     borderopacity="1.0"
     inkscape:pageopacity="0.0"
     inkscape:pageshadow="2"
     inkscape:zoom="8.4587019"
     inkscape:cx="31.373727"
     inkscape:cy="30.821828"
     inkscape:document-units="px"
     inkscape:current-layer="layer1"
     showgrid="false"
     units="px"
     inkscape:window-width="1280"
     inkscape:window-height="722"
     inkscape:window-x="0"
     inkscape:window-y="28"
     inkscape:window-maximized="1" />
  <metadata
     id="metadata4183">
    <rdf:RDF>
      <cc:Work
         rdf:about="">
        <dc:format>image/svg+xml</dc:format>
        <dc:type
           rdf:resource="http://purl.org/dc/dcmitype/StillImage" />
        <dc:title />
      </cc:Work>
    </rdf:RDF>
  </metadata>
  <g
     inkscape:label="Layer 1"
     inkscape:groupmode="layer"
     id="layer1"
     transform="translate(0,-988.3622)">
    <circle
       style="opacity:1;fill:#31363b;fill-opacity:1;stroke:none;stroke-width:1.24300003;stroke-miterlimit:4;stroke-dasharray:none;stroke-opacity:1"
       id="path4746"
       cx="32"
       cy="1020.3622"
       r="32" />
    <path
       inkscape:connector-curvature="0"
       style="opacity:1;fill:#ffffff;fill-opacity:1;stroke:none;stroke-width:1.24300003;stroke-miterlimit:4;stroke-dasharray:none;stroke-opacity:1"
       d="m 31.999999,989.36223 a 31,31 0 0 0 -30.99999956,31.00007 31,31 0 0 0 30.99999956,31 31,31 0 0 0 31,-31 31,31 0 0 0 -31,-31.00007 z m 0,2.69565 a 28.304348,28.304348 0 0 1 28.304348,28.30442 28.304348,28.304348 0 0 1 -28.304348,28.3043 28.304348,28.304348 0 0 1 -28.3043474,-28.3043 28.304348,28.304348 0 0 1 28.3043474,-28.30442 z"
       id="path4145-3" />
    <path
       style="fill:none;fill-opacity:1;stroke:#ffffff;stroke-width:1.47;stroke-opacity:1;stroke-miterlimit:4;stroke-dasharray:none"
       d="m 32.00133,1000.797 c -5.876804,0 -11.118789,2.7616 -14.52339,7.0566 -0.343294,-0.72 -0.57577,-1.6379 -0.747184,-2.7758 -1.407618,1.3901 -2.100724,3.8937 -2.054758,7.4802 -0.09657,0.1354 -0.233897,0.345 -0.37359,0.5645 -0.04527,0.034 -0.09595,0.062 -0.140087,0.094 -0.0099,0 0,0.037 0,0.047 l -0.04671,0 c -0.214967,0.3348 -0.468872,0.8723 -0.840582,1.5524 -0.586947,1.0546 -0.811317,1.9329 -0.840581,2.6814 0.0099,-0.018 0.03566,-0.078 0.0467,-0.093 0.0034,0.1725 0.001,0.3631 0.0467,0.5173 l 1.074078,-0.8938 c -0.01048,0.079 -0.0371,0.1545 -0.04671,0.2352 -0.355098,0.9654 -0.574778,1.9846 -0.700486,3.058 -0.423218,3.8645 0.627899,7.7072 3.222232,11.4786 3.891593,5.0699 8.775607,7.7308 14.663488,8.0915 5.888514,0.3522 10.934485,-1.8306 15.083778,-6.5393 2.80556,-3.4662 4.539325,-7.0772 5.183589,-10.8669 0.644511,-2.6044 0.739275,-4.8364 0.233495,-6.7273 -0.174877,1.3532 -0.414149,2.0235 -0.607087,2.07 -0.05503,-2.2522 -0.364795,-4.2517 -0.980679,-6.0217 0,-0.015 -0.03826,-0.027 -0.04671,-0.047 -0.479383,-1.3811 -1.095955,-2.6225 -1.914659,-3.7165 0.207311,0.8208 0.324507,1.537 0.420291,2.1644 -3.20574,-5.6213 -9.217745,-9.4091 -16.111167,-9.4091 z m 0,2.6817 c 2.281272,0 4.463649,0.4417 6.444461,1.2698 -0.679613,-0.072 -1.393363,-0.1186 -2.148153,-0.1412 0.965488,0.1942 1.766496,0.3995 2.428349,0.7054 1.021282,0.4541 1.694652,1.0455 2.008056,1.7407 -0.948144,-0.1759 -1.813906,-0.1085 -2.568446,0.1882 5.409595,2.1501 7.999989,4.7117 7.705338,7.6682 -0.395699,-0.6209 -0.916179,-1.0197 -1.587768,-1.2233 0.828358,3.2439 0.905084,5.9312 0.233496,8.0446 -0.45978,-1.4088 -0.883287,-2.2437 -1.260874,-2.5404 0.525304,4.3471 -0.207213,7.5495 -2.148153,9.6439 0.367789,-1.2788 0.550601,-2.3266 0.466988,-3.1518 -2.280843,3.4388 -4.89079,5.2041 -7.798734,5.3158 -1.149459,-0.015 -2.248008,-0.1831 -3.268928,-0.5175 -1.497461,-0.5054 -2.855497,-1.3612 -4.062815,-2.5873 1.882916,0.156 3.624384,-0.1699 5.136889,-0.9409 l 2.47505,-1.6465 c 0.321882,-0.1204 0.59256,-0.093 0.887279,0.047 0.606828,-0.083 0.855779,-0.4413 0.653788,-0.9881 -0.294088,-0.4076 -0.736964,-0.7578 -1.307571,-1.0819 -1.242149,-0.6491 -2.570496,-0.5328 -3.922717,0.3293 -1.288167,0.7327 -2.530722,0.683 -3.735921,-0.093 -0.791449,-0.546 -1.552204,-1.2938 -2.28825,-2.2112 l -0.280196,-0.4234 c 0.03648,-0.9079 0.403245,-1.3939 1.120776,-1.5053 0.809583,0.073 1.753476,0.2584 2.801941,0.5644 0.174895,-1.0101 -0.06589,-2.0676 -0.700487,-3.1518 l 0,-0.047 c 0.984387,-0.9178 1.870114,-1.5495 2.615145,-1.9759 0.331275,-0.176 0.542636,-0.4381 0.607089,-0.7997 0.0099,-0.015 -0.0093,-0.047 0,-0.047 0.0099,-0.016 0.03725,-0.038 0.04671,-0.047 0.192981,-0.2873 0.14433,-0.5019 -0.186796,-0.7056 -0.689988,0.038 -1.411468,-0.049 -2.101455,-0.1882 l 0,0.047 c -0.285356,-0.084 -0.632344,-0.3262 -1.074077,-0.7527 l -1.120776,-1.1291 -0.373591,-0.2821 -0.04671,-0.047 c 0.03684,-0.017 0.06588,-0.031 0.09339,-0.047 0.156329,-0.8436 0.42605,-1.59 0.793883,-2.2113 l 0.0934,-0.047 c 0.368205,-0.6115 1.061703,-1.2715 2.101455,-1.9758 -1.932175,0.2407 -3.675765,1.0858 -5.230289,2.5875 -1.179702,-0.4332 -2.581798,-0.346 -4.156209,0.1882 3.071733,-3.5642 7.593966,-5.835 12.655421,-5.835 z"
       id="path4145-8"
       inkscape:connector-curvature="0" />
  </g>
</svg>
