<?xml version="1.0" encoding="UTF-8" standalone="no"?>
<!-- Created with Inkscape (http://www.inkscape.org/) -->

<svg
   xmlns:dc="http://purl.org/dc/elements/1.1/"
   xmlns:cc="http://creativecommons.org/ns#"
   xmlns:rdf="http://www.w3.org/1999/02/22-rdf-syntax-ns#"
   xmlns:svg="http://www.w3.org/2000/svg"
   xmlns="http://www.w3.org/2000/svg"
   xmlns:sodipodi="http://sodipodi.sourceforge.net/DTD/sodipodi-0.dtd"
   xmlns:inkscape="http://www.inkscape.org/namespaces/inkscape"
   width="64"
   height="64"
   viewBox="0 0 64 64"
   id="svg4178"
   version="1.1"
   inkscape:version="0.91 r13725"
   sodipodi:docname="guitarpro.svg">
  <defs
     id="defs4180" />
  <sodipodi:namedview
     id="base"
     pagecolor="#ffffff"
     bordercolor="#666666"
     borderopacity="1.0"
     inkscape:pageopacity="0.0"
     inkscape:pageshadow="2"
     inkscape:zoom="1.0450751"
     inkscape:cx="-99.871802"
     inkscape:cy="-43.757963"
     inkscape:document-units="px"
     inkscape:current-layer="layer1"
     showgrid="false"
     units="px"
     inkscape:window-width="1280"
     inkscape:window-height="724"
     inkscape:window-x="0"
     inkscape:window-y="26"
     inkscape:window-maximized="1" />
  <metadata
     id="metadata4183">
    <rdf:RDF>
      <cc:Work
         rdf:about="">
        <dc:format>image/svg+xml</dc:format>
        <dc:type
           rdf:resource="http://purl.org/dc/dcmitype/StillImage" />
        <dc:title></dc:title>
      </cc:Work>
    </rdf:RDF>
  </metadata>
  <g
     inkscape:label="Layer 1"
     inkscape:groupmode="layer"
     id="layer1"
     transform="translate(0,-988.3622)">
    <circle
       style="opacity:1;fill:#31363b;fill-opacity:1;stroke:none;stroke-width:1.24300003;stroke-miterlimit:4;stroke-dasharray:none;stroke-opacity:1"
       id="path4746"
       cx="32"
       cy="1020.3622"
       r="32" />
    <path
       inkscape:connector-curvature="0"
       style="opacity:1;fill:#ffffff;fill-opacity:1;stroke:none;stroke-width:1.24300003;stroke-miterlimit:4;stroke-dasharray:none;stroke-opacity:1"
       d="m 31.999999,989.36223 a 31,31 0 0 0 -30.99999956,31.00007 31,31 0 0 0 30.99999956,31 31,31 0 0 0 31,-31 31,31 0 0 0 -31,-31.00007 z m 0,2.69565 a 28.304348,28.304348 0 0 1 28.304348,28.30442 28.304348,28.304348 0 0 1 -28.304348,28.3043 28.304348,28.304348 0 0 1 -28.3043474,-28.3043 28.304348,28.304348 0 0 1 28.3043474,-28.30442 z"
       id="path4145-3" />
    <g
       transform="matrix(0.08233785,0,0,0.08233785,10.854819,1000.611)"
       id="g4252"
       style="fill:#ffffff;fill-opacity:1;stroke:none;stroke-opacity:1;stroke-width:22.8570457;stroke-miterlimit:4;stroke-dasharray:none">
      <g
         id="g4249"
         style="fill:#ffffff;fill-opacity:1;stroke:none;stroke-opacity:1;stroke-width:22.8570457;stroke-miterlimit:4;stroke-dasharray:none">
        <path
           style="fill:#ffffff;fill-opacity:1;stroke:none;stroke-opacity:1;stroke-width:22.8570457;stroke-miterlimit:4;stroke-dasharray:none"
           inkscape:connector-curvature="0"
           id="path18"
           d="M 222.9,6.1 C 126.10987,14.215519 96.557933,24.45823 52,102.4 42,132.7 41.7,171 51.1,208 c 4.8,18.6 21.1,57.4 40.3,95.8 37.5,69.3 22.67879,43.57888 37.5,69.3 26.9,45 53.9,80.7 81.3,107.6 27.54752,29.80707 66.27298,28.77148 87.6,4.4 8.4,-7.4 21,-20.8 31.3,-33.3 l 6.4,-7.7 c 26.20299,-36.12313 28.32582,-38.61494 30.4,-41.9 5.4,-8.1 13.7,-21.2 18.5,-29.2 18.93394,-27.15072 30.6071,-55.92309 37,-69.7 11.2,-23.6 25.2,-56.2 32.6,-75.8 9,-24.1 12.4,-41 13.6,-68.5 l 0.7,-15.5 -2.4,1.6 c -1.3,0.9 -4,4.5 -5.9,8 -1.9,3.6 -4.5,7.8 -5.6,9.5 -1.2,1.6 -5,9.2 -8.4,16.9 -3.4,7.7 -7.2,16.3 -8.5,19 -1.2,2.8 -5.8,12.9 -10,22.5 -4.2,9.6 -10.6,23.9 -14.2,31.8 -5.8,12.9 -6.4,14.9 -6.2,20 0.2,3.1 0,6.7 -0.4,7.8 -0.7,1.9 -0.3,2.3 2.8,2.8 3.5,0.7 4.2,1.9 2.6,4.5 -0.7,1.1 -1.3,1 -3.5,-0.4 -1.4,-1 -2.6,-2.2 -2.7,-2.9 -0.1,-1.4 -2.8,4.4 -2.9,6.1 0,0.7 0.8,1.3 1.8,1.3 1,0 2.7,0.6 3.8,1.4 1.7,1.3 1.8,1.6 0.3,3.1 -1.4,1.4 -1.8,1.4 -4.2,-0.5 l -2.7,-2.1 -1,2.6 c -1.6,4.1 -1.2,5.5 1.4,5.5 3.2,0 5.1,2.3 3.3,3.9 -1.1,0.8 -2,0.6 -4,-0.9 l -2.5,-2 -0.7,3.2 c -1,4.6 -2.3,6 -4.5,4.8 -1,-0.6 -3,-1 -4.3,-1 -3,0 -7.8,-2.4 -10.2,-5 -1,-1.1 -2.4,-2 -3.2,-2 -1.7,0 -1.7,-1.4 0.2,-5 1.5,-2.9 1.4,-3 -1,-3.6 -1.5,-0.4 -2.5,-1.3 -2.5,-2.4 0,-2.8 1.8,-3.4 4.5,-1.6 2.2,1.5 2.4,1.4 3.4,-1.6 1.4,-4 1.4,-3.8 -0.8,-3.8 -2.5,0 -3.4,-1.5 -2.6,-4.1 0.6,-1.9 0.8,-1.9 3.2,-0.4 1.3,0.9 2.6,1.5 2.8,1.3 0.6,-0.7 2.5,-4.7 2.5,-5.2 0,-0.3 -1.1,-0.6 -2.5,-0.6 -3,0 -4.3,-2.4 -2.5,-4.5 1,-1.2 1.5,-1.2 3.6,0.2 1.6,1 2.4,1.1 2.4,0.4 0,-0.7 1.6,-2.6 3.5,-4.4 2.7,-2.5 5,-7.1 11.1,-22.2 13.7,-34 24.1,-59.8 27.9,-69 4.1,-10 9.5,-23.5 9.5,-23.9 0,-0.1 -2.1,-1.7 -4.6,-3.6 -3.2,-2.3 -4.8,-2.9 -5.3,-2.1 -0.6,0.9 -1.1,0.8 -2,-0.3 -0.9,-1.1 -0.9,-1.5 0,-1.8 0.8,-0.3 0.2,-1.9 -1.6,-4.7 -3.6,-5.4 -4.6,-14.1 -2.1,-18.9 0.9,-1.7 1.6,-3.4 1.6,-3.8 0,-1 -9.6,0.3 -11.8,1.7 -1.1,0.7 -3.9,4.4 -6.3,8.3 -5.6,8.9 -12.9,16.2 -17.7,17.6 -8.6,2.4 -17.2,0.3 -25.2,-6.1 l -3.9,-3.2 -7.3,5.9 c -4,3.2 -8.2,6.6 -9.3,7.6 -1.1,0.9 -11.7,9.8 -23.6,19.7 -22.1,18.4 -27.6,24 -25.8,25.8 0.8,0.8 0.1,1.7 -2,2.9 -1.7,1 -3.1,2.2 -3.1,2.7 0,1.6 -9.2,9.7 -11.1,9.7 -1.1,0 -2.9,0.9 -4.1,2 -2.1,1.9 -2.3,1.9 -4.1,0.2 -1.1,-0.9 -3.8,-3.9 -6,-6.6 l -4.1,-4.9 2.7,-2.3 c 1.5,-1.3 2.7,-3 2.7,-3.8 0,-0.9 1.2,-2.3 2.8,-3.3 1.5,-1 3.3,-2.6 4,-3.5 0.7,-1 2.2,-1.8 3.3,-1.8 1,0 1.9,-0.5 1.9,-1 0,-1.7 3.9,-5 5.3,-4.4 3.2,1.2 5.7,-0.6 22.7,-16.1 3.6,-3.3 11.9,-10.7 18.5,-16.5 6.5,-5.8 14.5,-12.9 17.7,-15.9 3.3,-3 6.6,-6 7.5,-6.6 1.4,-1.1 1.2,-1.9 -1.7,-7.9 -8.3,-16.8 -3.2,-28.9 15.7,-37.1 9.6,-4.2 13.8,-7.5 14.8,-11.8 0.6,-2.2 0.4,-2.7 -1.3,-2.7 -2.8,0 -7.2,-3.8 -7.2,-6.2 0,-1.1 2.2,-4.1 5.2,-6.8 4.3,-4 5.2,-5.4 5.2,-8.2 0,-4.7 -1,-6.8 -3.3,-6.8 -1.8,0 -15.2,5 -52.6,19.5 -30.8,12 -46.8,18.2 -65.5,25.3 -10.2,3.9 -20.6,8 -23.2,9.2 -5.3,2.3 -8.8,6.1 -8.8,9.6 0,2.9 -5.9,5 -18.4,6.3 -4.9,0.6 -9,1.2 -9.1,1.3 -0.2,0.2 -1,2 -1.8,4.1 -2.6,6.2 -10.8,8.1 -15.4,3.4 -3.3,-3.2 -3.4,-7.3 -0.4,-11.5 2.1,-3.1 1.6,-4.7 -1.2,-3.6 -2.5,0.9 -4.1,-3.1 -2.5,-6.3 2.5,-5.2 10.1,-3.4 9.1,2.1 -0.6,3.2 -0.3,3.2 4.1,0.2 3.7,-2.5 3.7,-3.6 0.1,-3.6 -3.5,0 -4.5,-2 -3,-5.8 2.6,-6 10.4,-3.5 8.8,2.8 l -0.6,2.4 3.4,-2.1 c 4.2,-2.7 4.8,-4.3 1.5,-4.3 -3.3,0 -4.7,-2.5 -3.4,-6.2 0.8,-2.3 1.6,-2.8 4.3,-2.8 4.1,0 5.8,1.9 4.9,5.5 -0.6,2.5 -0.5,2.6 1.2,1.6 5.1,-2.9 7.1,-5.8 3.5,-4.8 -2.8,0.7 -5.1,-2.2 -4.4,-5.6 0.4,-1.8 1.3,-2.9 2.8,-3.3 4.4,-1.1 6,-0.1 6.3,3.9 l 0.3,3.7 2.9,-1.7 c 2.8,-1.6 3,-1.6 6.4,1 1.9,1.5 3.9,2.7 4.5,2.7 1,0 16.2,-6.4 48.6,-20.5 11,-4.8 27.7,-12 37,-16 9.4,-4 19,-8.2 21.5,-9.3 2.5,-1.1 7.5,-3.4 11.3,-5.1 5.7,-2.5 6.7,-3.3 6.7,-5.5 0,-5.3 -7.3,-7.1 -16.3,-4 -4.1,1.4 -12.9,1.6 -14.2,0.3 -0.3,-0.3 0.1,-2.7 0.9,-5.3 1.1,-3.5 1.1,-4.8 0.3,-5.1 C 323.1,9.6 298.6,7 284.5,6 267.4,4.9 240,4.9 222.9,6.1 Z m 52.5,262.4 c 5.6,2.4 12.1,8.9 14.6,14.6 2,4.8 2.1,6.4 1.8,23.8 -0.3,18.2 -0.4,18.7 -3,23.3 -5.8,9.7 -15,14.4 -26.7,13.6 -6.4,-0.5 -13.4,-3.1 -17.3,-6.6 -1.7,-1.4 -1.8,-0.6 -1.8,15.5 l 0,17.1 -7.5,1.1 c -4.2,0.6 -8.2,1.1 -9,1.1 -1.3,0 -1.5,-6.7 -1.3,-51.2 l 0.3,-51.2 3.5,-0.7 c 1.9,-0.4 5.9,-1 8.8,-1.3 l 5.2,-0.7 0,4.2 0,4.2 2.3,-2 c 7.4,-6.8 20.3,-8.9 30.1,-4.8 z m -84.5,0.4 c 2.8,1 6.2,2.9 7.8,4.1 l 2.8,2.2 0.3,-2.6 c 0.2,-1.7 1.1,-2.8 2.5,-3.1 4.9,-1.1 14.2,-2.3 15,-1.8 1.1,0.6 0.9,75.2 -0.3,81.2 -2,10.4 -8,18.4 -16.9,22.4 -9.2,4.1 -28.5,3.2 -38.4,-1.9 -2.5,-1.4 -2.8,-1.9 -2.3,-5.2 0.3,-2 0.8,-6.1 1.2,-9 0.6,-5.2 0.6,-5.3 2.8,-3.7 6,4.4 13.1,6.9 20.1,7 11.8,0 16.5,-4.6 16.5,-16.5 l 0,-6.1 -3.3,2.5 c -7.9,6 -21.2,7.5 -30.2,3.2 -6,-2.8 -12.7,-9.8 -14.6,-15.2 -1,-2.7 -1.4,-9 -1.4,-20.9 0,-15.8 0.2,-17.4 2.4,-22.3 2.8,-6.2 9.4,-12.4 15.4,-14.6 5.9,-2.1 14.7,-2 20.6,0.3 z"
           sodipodi:nodetypes="ccccccccccccccccccscsccccccccscscccscccccscsccsccscccssccscccsccscccsscccccccscsscccccsccssccccccccsscsscccscscccccccsccccscscccccccccsccscscsccccccccccsccsccccccccccccccccccccccsccccsccc" />
      </g>
      <path
         d="m 251.1,283.2 c -6.9,3.6 -8.1,6.8 -8.1,21.6 0,9.4 0.4,13.2 1.6,15.8 3.7,7.7 13.7,10.6 21.4,6.3 6.6,-3.7 8,-7.5 8,-21.9 0,-9.9 -0.3,-12.7 -1.9,-15.8 -3.8,-7.3 -13.3,-10 -21,-6 z"
         id="path20"
         inkscape:connector-curvature="0"
         style="fill:#ffffff;fill-opacity:1;stroke:none;stroke-opacity:1;stroke-width:22.8570457;stroke-miterlimit:4;stroke-dasharray:none" />
      <path
         d="m 178.2,284 c -6.1,3.8 -7.2,6.9 -7.2,21.5 0,11.2 0.3,13.4 2,16.3 6.2,10.1 21.6,9.7 27.1,-0.8 2.7,-4.9 2.7,-25.8 0.1,-31 -3.8,-7.6 -14.6,-10.5 -22,-6 z"
         id="path22"
         inkscape:connector-curvature="0"
         style="fill:#ffffff;fill-opacity:1;stroke:none;stroke-opacity:1;stroke-width:22.8570457;stroke-miterlimit:4;stroke-dasharray:none" />
      <path
         d="m 283.5,185 c -0.4,0.6 -0.3,1.6 0.3,2.2 0.6,0.6 1.2,0.6 1.7,-0.2 0.4,-0.6 0.3,-1.6 -0.3,-2.2 -0.6,-0.6 -1.2,-0.6 -1.7,0.2 z"
         id="path60"
         inkscape:connector-curvature="0"
         style="fill:#ffffff;stroke:none;stroke-opacity:1;fill-opacity:1;stroke-width:22.8570457;stroke-miterlimit:4;stroke-dasharray:none" />
      <path
         d="m 278.2,188.6 c -1.9,1.3 -2.1,1.9 -1.1,3 1,1.3 1.5,1.2 3.5,-0.7 3.6,-3.4 1.7,-5.2 -2.4,-2.3 z"
         id="path62"
         inkscape:connector-curvature="0"
         style="fill:#ffffff;stroke:none;stroke-opacity:1;fill-opacity:1;stroke-width:22.8570457;stroke-miterlimit:4;stroke-dasharray:none" />
      <path
         d="m 288,191.5 c 0,0.9 0.5,1.5 1.1,1.3 0.6,-0.2 1.1,-0.8 1.1,-1.3 0,-0.5 -0.5,-1.1 -1.1,-1.3 -0.6,-0.2 -1.1,0.4 -1.1,1.3 z"
         id="path64"
         inkscape:connector-curvature="0"
         style="fill:#ffffff;stroke:none;stroke-opacity:1;fill-opacity:1;stroke-width:22.8570457;stroke-miterlimit:4;stroke-dasharray:none" />
      <path
         d="m 272.1,193.4 c -2.8,3 -1.2,4.4 2.4,2 2,-1.3 2.3,-1.9 1.4,-3 -1.4,-1.7 -1.2,-1.8 -3.8,1 z"
         id="path66"
         inkscape:connector-curvature="0"
         style="fill:#ffffff;stroke:none;stroke-opacity:1;fill-opacity:1;stroke-width:22.8570457;stroke-miterlimit:4;stroke-dasharray:none" />
      <path
         d="m 283.7,194.8 c -2.5,2.8 -0.6,4.8 2.3,2.4 1.3,-1.1 2,-2.4 1.6,-3 -1,-1.7 -2,-1.5 -3.9,0.6 z"
         id="path68"
         inkscape:connector-curvature="0"
         style="fill:#ffffff;stroke:none;stroke-opacity:1;fill-opacity:1;stroke-width:22.8570457;stroke-miterlimit:4;stroke-dasharray:none" />
      <path
         d="m 268,196.9 c 0,0.5 0.5,1.3 1,1.6 0.6,0.3 1,0.2 1,-0.4 0,-0.5 -0.4,-1.3 -1,-1.6 -0.5,-0.3 -1,-0.2 -1,0.4 z"
         id="path70"
         inkscape:connector-curvature="0"
         style="fill:#ffffff;stroke:none;stroke-opacity:1;fill-opacity:1;stroke-width:22.8570457;stroke-miterlimit:4;stroke-dasharray:none" />
      <path
         d="m 278.5,200 c -0.9,1 -1.5,2.6 -1.1,3.5 0.5,1.3 0.9,1.2 3.1,-0.7 1.9,-1.6 2.2,-2.4 1.4,-3.5 -1.4,-1.6 -1.3,-1.7 -3.4,0.7 z"
         id="path72"
         inkscape:connector-curvature="0"
         style="fill:#ffffff;stroke:none;stroke-opacity:1;fill-opacity:1;stroke-width:22.8570457;stroke-miterlimit:4;stroke-dasharray:none" />
      <path
         d="m 275,205 c 0,0.5 0.5,1 1.1,1 0.5,0 0.7,-0.5 0.4,-1 -0.3,-0.6 -0.8,-1 -1.1,-1 -0.2,0 -0.4,0.4 -0.4,1 z"
         id="path74"
         inkscape:connector-curvature="0"
         style="fill:#ffffff;stroke:none;stroke-opacity:1;fill-opacity:1;stroke-width:22.8570457;stroke-miterlimit:4;stroke-dasharray:none" />
    </g>
  </g>
</svg>
