<?xml version="1.0" encoding="UTF-8" standalone="no"?>
<!-- Created with Inkscape (http://www.inkscape.org/) -->

<svg
   xmlns:dc="http://purl.org/dc/elements/1.1/"
   xmlns:cc="http://creativecommons.org/ns#"
   xmlns:rdf="http://www.w3.org/1999/02/22-rdf-syntax-ns#"
   xmlns:svg="http://www.w3.org/2000/svg"
   xmlns="http://www.w3.org/2000/svg"
   xmlns:sodipodi="http://sodipodi.sourceforge.net/DTD/sodipodi-0.dtd"
   xmlns:inkscape="http://www.inkscape.org/namespaces/inkscape"
   width="64"
   height="64"
   viewBox="0 0 64 64"
   id="svg4178"
   version="1.1"
   inkscape:version="0.91 r13725"
   sodipodi:docname="hardinfo.svg">
  <defs
     id="defs4180" />
  <sodipodi:namedview
     id="base"
     pagecolor="#ffffff"
     bordercolor="#666666"
     borderopacity="1.0"
     inkscape:pageopacity="0.0"
     inkscape:pageshadow="2"
     inkscape:zoom="4.164284"
     inkscape:cx="22.804165"
     inkscape:cy="22.69367"
     inkscape:document-units="px"
     inkscape:current-layer="layer1"
     showgrid="false"
     units="px"
     inkscape:window-width="1280"
     inkscape:window-height="722"
     inkscape:window-x="0"
     inkscape:window-y="28"
     inkscape:window-maximized="1" />
  <metadata
     id="metadata4183">
    <rdf:RDF>
      <cc:Work
         rdf:about="">
        <dc:format>image/svg+xml</dc:format>
        <dc:type
           rdf:resource="http://purl.org/dc/dcmitype/StillImage" />
        <dc:title></dc:title>
      </cc:Work>
    </rdf:RDF>
  </metadata>
  <g
     inkscape:label="Layer 1"
     inkscape:groupmode="layer"
     id="layer1"
     transform="translate(0,-988.3622)">
    <circle
       style="opacity:1;fill:#31363b;fill-opacity:1;stroke:none;stroke-width:1.24300003;stroke-miterlimit:4;stroke-dasharray:none;stroke-opacity:1"
       id="path4746"
       cx="32"
       cy="1020.3622"
       r="32" />
    <path
       inkscape:connector-curvature="0"
       style="opacity:1;fill:#ffffff;fill-opacity:1;stroke:none;stroke-width:1.24300003;stroke-miterlimit:4;stroke-dasharray:none;stroke-opacity:1"
       d="m 31.999999,989.36223 a 31,31 0 0 0 -30.99999956,31.00007 31,31 0 0 0 30.99999956,31 31,31 0 0 0 31,-31 31,31 0 0 0 -31,-31.00007 z m 0,2.69565 a 28.304348,28.304348 0 0 1 28.304348,28.30442 28.304348,28.304348 0 0 1 -28.304348,28.3043 28.304348,28.304348 0 0 1 -28.3043474,-28.3043 28.304348,28.304348 0 0 1 28.3043474,-28.30442 z"
       id="path4145-3" />
    <path
       inkscape:connector-curvature="0"
       d="m 19.385039,1029.501 c 0,-1.0084 -0.703406,-1.8521 -1.653232,-2.0888 l 0,-1.3562 c 0.02737,-1.2392 0.581088,-1.6753 1.386427,-1.987 1.230039,-0.4263 2.999023,-0.814 3.303455,-0.8811 0.285275,0.4726 0.803972,0.7926 1.40353,0.7926 0.904264,0 1.637772,-0.7212 1.637772,-1.6113 0,-0.8897 -0.733099,-1.6111 -1.637772,-1.6111 -0.816012,0 -1.487129,0.5887 -1.611775,1.3562 -0.239166,0.053 -2.098043,0.4534 -3.46299,0.9241 -1.100055,0.347 -2.156466,1.3454 -2.128281,3.0176 l 0,1.3641 C 15.688219,1027.6677 15,1028.5038 15,1029.501 c 0,1.1915 0.981294,2.1577 2.192999,2.1577 1.210747,0 2.191904,-0.9659 2.191904,-2.1577 z m -3.274994,0 c 0,-0.5883 0.484764,-1.0638 1.082681,-1.0644 0.597232,6e-4 1.081174,0.4765 1.081858,1.0644 0,0.5881 -0.485037,1.0647 -1.081858,1.0656 -0.597917,-9e-4 -1.08186,-0.4769 -1.082681,-1.0656 z m 15.844784,5.5664 c 0,-1.0024 -0.695881,-1.8424 -1.637497,-2.0845 l 0,-3.1977 c 0.62966,-0.2244 1.082544,-0.8126 1.082544,-1.5098 0,-0.8896 -0.73296,-1.6112 -1.637635,-1.6112 -0.904673,0 -1.63777,0.7211 -1.63777,1.6112 0,0.6972 0.452473,1.2854 1.082407,1.5098 l 0,3.1977 c -0.941753,0.2424 -1.637361,1.0828 -1.637361,2.0849 0,1.1919 0.981021,2.157 2.192314,2.1577 1.21143,0 2.192451,-0.9666 2.192998,-2.1581 z m -3.275405,0 c 0,-0.5882 0.484491,-1.0636 1.082407,-1.0646 0.597644,6e-4 1.081997,0.4764 1.082406,1.0646 0,0.588 -0.484762,1.0645 -1.082406,1.0654 -0.597916,-9e-4 -1.081449,-0.4772 -1.082407,-1.0654 z m 6.348861,-0.8124 c -0.284182,-0.2126 -0.464378,-0.5126 -0.475186,-1.2353 0,-1.19 0.01368,-2.5394 0.01916,-3.1426 0.631985,-0.2232 1.086785,-0.8119 1.086785,-1.5108 0,-0.8899 -0.732961,-1.6113 -1.637908,-1.6113 -0.904673,0 -1.637908,0.7212 -1.637908,1.6113 0,0.696 0.451106,1.2833 1.078986,1.5085 0,0.6095 -0.01779,1.9549 -0.01779,3.1454 -0.01369,0.9163 0.304569,1.6776 0.931355,2.1172 0.618576,0.4357 1.393405,0.5488 2.272493,0.5527 l 9.023338,0 c 0.224253,0.9574 1.094037,1.6713 2.13526,1.6721 1.210746,-9e-4 2.192451,-0.9657 2.193135,-2.1579 0,-1.1915 -0.981294,-2.1561 -2.193135,-2.1569 -0.996209,2e-4 -1.836439,0.6545 -2.103517,1.5497 l -9.055355,0 c -0.778112,0 -1.327594,-0.1266 -1.619711,-0.3422 z m 12.777761,-0.1155 c 0.597232,6e-4 1.081585,0.4771 1.082132,1.0646 0,0.5888 -0.484353,1.0643 -1.082132,1.0657 -0.597506,0 -1.081996,-0.4772 -1.082817,-1.0657 0,-0.5877 0.485174,-1.0641 1.082817,-1.0646 z m -16.437365,-22.1002 c 0,-0.6972 -0.452748,-1.285 -1.082408,-1.5096 l 0,-3.9252 c 0.941617,-0.242 1.636814,-1.0822 1.637635,-2.085 0,-1.1908 -0.981704,-2.1571 -2.193135,-2.1571 -1.211021,0 -2.192315,0.9652 -2.193,2.1571 1.38e-4,1.0028 0.696293,1.8427 1.637499,2.085 l 0,3.9256 c -0.62966,0.2244 -1.082134,0.8122 -1.082134,1.5094 0,0.8897 0.732961,1.6116 1.637635,1.6116 0.904262,0 1.637908,-0.7219 1.637908,-1.6116 z m -2.720725,-7.5199 c 0,-0.5877 0.485173,-1.0638 1.082679,-1.0646 0.597643,8e-4 1.081996,0.4769 1.082818,1.0646 0,0.5887 -0.48449,1.0648 -1.082818,1.0655 -0.597506,-7e-4 -1.081859,-0.4768 -1.082679,-1.0655 z m 4.723265,0.091 c 0,0.6828 0.323587,1.2901 0.825864,1.6854 -0.10262,0.2632 -0.242724,0.6222 -0.375579,0.948 -0.158304,0.376 -0.30019,0.8165 -0.293348,1.5064 0,0.4664 0,1.6478 0,1.8709 -0.62966,0.2247 -1.08227,0.8126 -1.08227,1.5094 0,0.8897 0.733371,1.6116 1.638044,1.6116 0.904674,0 1.637635,-0.7216 1.637635,-1.6116 0,-0.6975 -0.452747,-1.2855 -1.082954,-1.5098 l 0,-1.8704 c 0.01369,-0.5836 0.07525,-0.743 0.214539,-1.1016 0.125876,-0.3108 0.259415,-0.6502 0.361075,-0.9108 0.114928,0.017 0.231367,0.029 0.351088,0.029 1.210473,0 2.192314,-0.9646 2.192314,-2.1577 0,-1.1908 -0.981568,-2.1567 -2.192314,-2.1577 -1.211021,10e-4 -2.192725,0.9659 -2.193409,2.1577 z m 3.275405,0 c 0,0.5885 -0.484215,1.0648 -1.081859,1.0654 -0.598326,-6e-4 -1.08268,-0.4769 -1.083501,-1.0654 0,-0.5877 0.485175,-1.0638 1.083501,-1.0646 0.597917,8e-4 1.081176,0.4769 1.081859,1.0646 z m -10.001075,18.5483 c 0,1.2669 1.043822,2.2932 2.331463,2.2938 l 5.847267,0 c 1.287368,-7e-4 2.33078,-1.0269 2.33078,-2.2938 l 0,-5.911 c 0,-1.2669 -1.043686,-2.2934 -2.331327,-2.2943 l 0,9e-4 -5.84754,0 c -1.287641,0 -2.330643,1.0263 -2.331327,2.2934 l 0,5.911 z m -7.233831,-4.515 2.879029,0 c 0.227947,0.6198 0.825591,1.0648 1.53447,1.0648 0.904264,0 1.637772,-0.721 1.637772,-1.6108 0,-0.89 -0.733099,-1.6115 -1.637772,-1.6115 -0.709427,0 -1.306933,0.4458 -1.53447,1.0659 l -2.878618,0 c -0.246419,-0.9273 -1.100057,-1.612 -2.119525,-1.612 -1.211021,0 -2.192315,0.9654 -2.192998,2.1576 0,1.1915 0.981977,2.157 2.192998,2.157 1.019057,0 1.872696,-0.6842 2.119114,-1.611 z m -3.202478,-0.546 c 0,-0.5879 0.485448,-1.0647 1.082954,-1.0655 0.598053,8e-4 1.081585,0.4765 1.08309,1.0655 0,0.5876 -0.485037,1.0645 -1.08309,1.0652 -0.596823,-7e-4 -1.081449,-0.4776 -1.082954,-1.0652 z m 22.05258,4.2748 c 0,0.6579 0.401712,1.2214 0.975684,1.4718 l 0,5.1263 c 0,0.5595 0.134088,1.1604 0.563848,1.6338 0.430856,0.4762 1.11716,0.7373 1.980103,0.7329 0.243818,-2e-4 0.503918,-0.013 0.727624,-0.017 0.235199,0.9425 1.096773,1.6423 2.127324,1.6423 1.21102,0 2.192315,-0.9655 2.192862,-2.157 0,-1.1916 -0.981568,-2.157 -2.192862,-2.157 -1.007291,0 -1.853131,0.6681 -2.110631,1.5779 -0.226443,0.014 -0.500226,0.019 -0.744455,0.019 -0.664001,0 -0.971989,-0.1748 -1.153691,-0.3703 -0.182385,-0.1973 -0.280077,-0.507 -0.280077,-0.9039 l 0,-5.0554 c 0.68521,-0.1926 1.189539,-0.8064 1.189539,-1.5428 0,-0.8894 -0.73255,-1.6111 -1.637633,-1.6111 -0.904264,1e-4 -1.637635,0.7217 -1.637635,1.6111 z m 6.374583,7.3668 c 0.597506,0 1.081859,0.4768 1.082954,1.0654 0,0.588 -0.485448,1.0638 -1.082954,1.0653 -0.598328,0 -1.081585,-0.4776 -1.08227,-1.0653 0,-0.5886 0.483942,-1.0636 1.08227,-1.0654 z m -0.649088,-17.6622 c -0.528684,-0.014 -1.371924,-0.032 -2.205313,-0.032 -0.8639,0 -1.54952,0.2567 -1.980239,0.7333 -0.430719,0.4735 -0.564259,1.0741 -0.564259,1.6331 l 0,2.1365 0.227127,0 c -0.691914,0.1887 -1.202811,0.8059 -1.202811,1.5469 0,0.8892 0.73296,1.6112 1.637635,1.6112 0.904673,0 1.637633,-0.7216 1.637633,-1.6112 0,-0.741 -0.510623,-1.3582 -1.203084,-1.5469 l 0.01368,0 c 0,0 0,-0.2492 0,-0.6415 0,-0.3922 0,-0.9265 0,-1.495 0,-0.3964 0.09715,-0.706 0.279392,-0.9037 0.182385,-0.1951 0.490237,-0.3659 1.154786,-0.3705 0.847345,0 1.710698,0.017 2.228299,0.033 0.261606,0.9033 1.104846,1.5663 2.107211,1.5663 1.211021,0 2.192725,-0.9659 2.192725,-2.1574 0,-1.1917 -0.981295,-2.1573 -2.192725,-2.1573 -1.034519,0 -1.900061,0.7057 -2.130197,1.6551 z m 3.213287,0.5023 c 0,0.5882 -0.484764,1.0643 -1.082681,1.065 -0.597915,-7e-4 -1.081995,-0.4768 -1.082679,-1.065 0,-0.5885 0.484764,-1.0646 1.082679,-1.0652 0.597917,6e-4 1.08186,0.4765 1.082681,1.0652 z"
       id="path3"
       style="fill:#ffffff;fill-opacity:1" />
  </g>
</svg>
