<?xml version="1.0" encoding="UTF-8" standalone="no"?>
<!-- Created with Inkscape (http://www.inkscape.org/) -->

<svg
   xmlns:dc="http://purl.org/dc/elements/1.1/"
   xmlns:cc="http://creativecommons.org/ns#"
   xmlns:rdf="http://www.w3.org/1999/02/22-rdf-syntax-ns#"
   xmlns:svg="http://www.w3.org/2000/svg"
   xmlns="http://www.w3.org/2000/svg"
   xmlns:sodipodi="http://sodipodi.sourceforge.net/DTD/sodipodi-0.dtd"
   xmlns:inkscape="http://www.inkscape.org/namespaces/inkscape"
   width="64"
   height="64"
   viewBox="0 0 64 64"
   id="svg4178"
   version="1.1"
   inkscape:version="0.91 r13725"
   sodipodi:docname="octopi.svg">
  <defs
     id="defs4180" />
  <sodipodi:namedview
     id="base"
     pagecolor="#ffffff"
     bordercolor="#666666"
     borderopacity="1.0"
     inkscape:pageopacity="0.0"
     inkscape:pageshadow="2"
     inkscape:zoom="1.041071"
     inkscape:cx="111.1912"
     inkscape:cy="-67.959207"
     inkscape:document-units="px"
     inkscape:current-layer="layer1"
     showgrid="false"
     units="px"
     inkscape:window-width="1280"
     inkscape:window-height="722"
     inkscape:window-x="0"
     inkscape:window-y="28"
     inkscape:window-maximized="1" />
  <metadata
     id="metadata4183">
    <rdf:RDF>
      <cc:Work
         rdf:about="">
        <dc:format>image/svg+xml</dc:format>
        <dc:type
           rdf:resource="http://purl.org/dc/dcmitype/StillImage" />
        <dc:title></dc:title>
      </cc:Work>
    </rdf:RDF>
  </metadata>
  <g
     inkscape:label="Layer 1"
     inkscape:groupmode="layer"
     id="layer1"
     transform="translate(0,-988.3622)">
    <circle
       style="opacity:1;fill:#31363b;fill-opacity:1;stroke:none;stroke-width:1.24300003;stroke-miterlimit:4;stroke-dasharray:none;stroke-opacity:1"
       id="path4746"
       cx="32"
       cy="1020.3622"
       r="32" />
    <path
       inkscape:connector-curvature="0"
       style="opacity:1;fill:#ffffff;fill-opacity:1;stroke:none;stroke-width:1.24300003;stroke-miterlimit:4;stroke-dasharray:none;stroke-opacity:1"
       d="m 31.999999,989.36223 a 31,31 0 0 0 -30.99999956,31.00007 31,31 0 0 0 30.99999956,31 31,31 0 0 0 31,-31 31,31 0 0 0 -31,-31.00007 z m 0,2.69565 a 28.304348,28.304348 0 0 1 28.304348,28.30442 28.304348,28.304348 0 0 1 -28.304348,28.3043 28.304348,28.304348 0 0 1 -28.3043474,-28.3043 28.304348,28.304348 0 0 1 28.3043474,-28.30442 z"
       id="path4145-3" />
    <g
       id="g4157"
       transform="matrix(0.87209299,0,0,0.87209299,4.0349067,129.79363)">
      <path
         sodipodi:nodetypes="ccssczzzzzzcc"
         d="m 48.664808,1015.6196 c 0,-4.5397 -1.714923,-8.8091 -4.830451,-12.0192 -3.1139,-3.21 -7.255456,-4.97955 -11.659184,-4.97955 -4.403769,0 -8.545315,1.76785 -11.660833,4.97955 -3.113889,3.2101 -4.83043,7.4795 -4.83043,12.0192 0.0041,7.575 -0.30562,16.2385 -0.189015,21.3842 0.116605,5.1457 6.527743,5.6172 6.581732,0.3204 0.05399,-5.2968 6.830638,-4.9001 6.866925,-0.1074 0.03627,4.7927 6.410646,5.5276 6.501004,0.1074 0.09036,-5.4202 6.773339,-5.169 6.840903,0.1274 0.06761,5.2963 6.249661,4.5451 6.28898,-0.289 0.03934,-4.8341 0.09056,-14.7415 0.09036,-21.543 z"
         id="path15"
         inkscape:connector-curvature="0"
         style="fill:none;fill-opacity:1;stroke:#ffffff;stroke-width:1.20366812;stroke-miterlimit:4;stroke-dasharray:none;stroke-opacity:1" />
      <ellipse
         ry="4.6289062"
         rx="5.1122522"
         cy="1014.4376"
         cx="24.389677"
         id="path4805"
         style="opacity:1;fill:none;fill-opacity:1;stroke:#ffffff;stroke-width:1.2342217;stroke-miterlimit:4;stroke-dasharray:none;stroke-opacity:1" />
      <ellipse
         ry="0.80904263"
         rx="0.84539747"
         cy="1014.6597"
         cx="26.406885"
         id="path4822"
         style="opacity:1;fill:#ffffff;fill-opacity:1;stroke:#ffffff;stroke-width:1.20366812;stroke-miterlimit:4;stroke-dasharray:none;stroke-opacity:1" />
      <ellipse
         ry="0.80904263"
         rx="0.84539747"
         cy="1014.7786"
         cx="42.688145"
         id="path4822-7"
         style="opacity:1;fill:#ffffff;fill-opacity:1;stroke:#ffffff;stroke-width:1.20366812;stroke-miterlimit:4;stroke-dasharray:none;stroke-opacity:1" />
      <ellipse
         ry="4.6289062"
         rx="5.1122522"
         cy="1014.6409"
         cx="40.157169"
         id="path4805-5"
         style="opacity:1;fill:none;fill-opacity:1;stroke:#ffffff;stroke-width:1.2342217;stroke-miterlimit:4;stroke-dasharray:none;stroke-opacity:1" />
    </g>
  </g>
</svg>
