<?xml version="1.0" encoding="UTF-8" standalone="no"?>
<!-- Created with Inkscape (http://www.inkscape.org/) -->

<svg
   xmlns:dc="http://purl.org/dc/elements/1.1/"
   xmlns:cc="http://creativecommons.org/ns#"
   xmlns:rdf="http://www.w3.org/1999/02/22-rdf-syntax-ns#"
   xmlns:svg="http://www.w3.org/2000/svg"
   xmlns="http://www.w3.org/2000/svg"
   xmlns:sodipodi="http://sodipodi.sourceforge.net/DTD/sodipodi-0.dtd"
   xmlns:inkscape="http://www.inkscape.org/namespaces/inkscape"
   width="64"
   height="64"
   viewBox="0 0 64 64"
   id="svg4178"
   version="1.1"
   inkscape:version="0.91 r13725"
   sodipodi:docname="rekonq.svg">
  <defs
     id="defs4180" />
  <sodipodi:namedview
     id="base"
     pagecolor="#ffffff"
     bordercolor="#666666"
     borderopacity="1.0"
     inkscape:pageopacity="0.0"
     inkscape:pageshadow="2"
     inkscape:zoom="12.149324"
     inkscape:cx="10.012317"
     inkscape:cy="26.797751"
     inkscape:document-units="px"
     inkscape:current-layer="layer1"
     showgrid="false"
     units="px"
     inkscape:window-width="1280"
     inkscape:window-height="722"
     inkscape:window-x="0"
     inkscape:window-y="28"
     inkscape:window-maximized="1" />
  <metadata
     id="metadata4183">
    <rdf:RDF>
      <cc:Work
         rdf:about="">
        <dc:format>image/svg+xml</dc:format>
        <dc:type
           rdf:resource="http://purl.org/dc/dcmitype/StillImage" />
        <dc:title />
      </cc:Work>
    </rdf:RDF>
  </metadata>
  <g
     inkscape:label="Layer 1"
     inkscape:groupmode="layer"
     id="layer1"
     transform="translate(0,-988.3622)">
    <circle
       style="opacity:1;fill:#31363b;fill-opacity:1;stroke:none;stroke-width:1.24300003;stroke-miterlimit:4;stroke-dasharray:none;stroke-opacity:1"
       id="path4746"
       cx="32"
       cy="1020.3622"
       r="32" />
    <path
       inkscape:connector-curvature="0"
       style="opacity:1;fill:#ffffff;fill-opacity:1;stroke:none;stroke-width:1.24300003;stroke-miterlimit:4;stroke-dasharray:none;stroke-opacity:1"
       d="m 31.999999,989.36223 a 31,31 0 0 0 -30.99999956,31.00007 31,31 0 0 0 30.99999956,31 31,31 0 0 0 31,-31 31,31 0 0 0 -31,-31.00007 z m 0,2.69565 a 28.304348,28.304348 0 0 1 28.304348,28.30442 28.304348,28.304348 0 0 1 -28.304348,28.3043 28.304348,28.304348 0 0 1 -28.3043474,-28.3043 28.304348,28.304348 0 0 1 28.3043474,-28.30442 z"
       id="path4145-3" />
    <path
       inkscape:connector-curvature="0"
       style="display:inline;opacity:1;fill:#ffffff;fill-opacity:1;stroke:none;stroke-width:2.79999995;stroke-miterlimit:4;stroke-dasharray:none;stroke-opacity:0.55026455"
       d="m 17000,1005.3618 0,0.9903 0,0.01 0.01,0 8.99,8.9921 0,0.6172 -9,9 0,0.3906 0,1.0234 0,7.9766 0,1 1,0 9,0 0.424,0 9,-9 0.586,0 8.99,8.9902 0,0.01 1,0 0,-0.4238 0,-19.1523 0,-1.4141 0,-9.0098 -29.576,0 -0.424,0 z m 1.424,1 27.576,0 0,9.0098 0,1.4141 0,17.1523 -8,-8 0,-1.1524 0,-1.414 0,-9.0098 -11.578,0 -7.998,-8 z m 8.576,9 0.424,0 9.576,0 0,9.0098 0,0.5664 0,0.4238 -10,0 0,-8.9765 0,-0.033 0,-0.9903 z m -1,2.0234 0,8.9766 9.01,0 -8.01,8.0098 0,-0.01 -9,0 0,-8.9766 8,-8 z"
       id="rect4166" />
    <path
       inkscape:connector-curvature="0"
       style="display:inline;opacity:1;fill:#ffffff;fill-opacity:1;stroke:none"
       d="m 32,-15977.638 a 14.999999,4.5 0 0 0 -15,4.5 l 0,4 a 14.999999,4.5 0 0 0 1.576172,1.996 14.999999,4.5 0 0 0 -1.576172,2.004 l 0,4 a 14.999999,4.5 0 0 0 2.539062,2.502 14.999999,4.5 0 0 0 -2.539062,2.498 l 0,4 a 14.999999,4.5 0 0 0 15,4.5 14.999999,4.5 0 0 0 15,-4.5 l 0,-4 a 14.999999,4.5 0 0 0 -2.539062,-2.502 14.999999,4.5 0 0 0 2.539062,-2.498 l 0,-4 a 14.999999,4.5 0 0 0 -1.576172,-1.996 14.999999,4.5 0 0 0 1.576172,-2.004 l 0,-4 a 14.999999,4.5 0 0 0 -15,-4.5 z m 0,1 a 14,3.5 0 0 1 14,3.5 14,3.5 0 0 1 -2,1.795 l 0,-0.01 a 14,3.5 0 0 1 -0.507812,0.203 14,3.5 0 0 1 -0.01563,0.01 14,3.5 0 0 1 -11.476558,1.502 14,3.5 0 0 1 -11.476562,-1.502 14,3.5 0 0 1 -0.01563,-0.01 14,3.5 0 0 1 -0.507812,-0.203 l 0,0.01 a 14,3.5 0 0 1 -2,-1.795 14,3.5 0 0 1 14,-3.5 z m -14,5.102 a 14.999999,4.5 0 0 0 14,2.898 14.999999,4.5 0 0 0 14,-2.898 l 0,2.398 a 14,3.5 0 0 1 -14,3.5 14,3.5 0 0 1 -14,-3.5 l 0,-2.398 z m 26.558594,4.855 a 14,3.5 0 0 1 1.441406,1.543 14,3.5 0 0 1 -2,1.795 l 0,-0.01 a 14,3.5 0 0 1 -0.507812,0.203 14,3.5 0 0 1 -0.01563,0.01 14,3.5 0 0 1 -11.476558,1.502 14,3.5 0 0 1 -11.476562,-1.502 14,3.5 0 0 1 -0.01563,-0.01 14,3.5 0 0 1 -0.507812,-0.203 l 0,0.01 a 14,3.5 0 0 1 -2,-1.795 14,3.5 0 0 1 1.449219,-1.541 14.999999,4.5 0 0 0 12.550781,2.037 14.999999,4.5 0 0 0 12.558594,-2.043 z M 18,-15963.536 a 14.999999,4.5 0 0 0 14,2.898 14.999999,4.5 0 0 0 14,-2.898 l 0,2.398 a 14,3.5 0 0 1 -14,3.5 14,3.5 0 0 1 -14,-3.5 l 0,-2.398 z m 25.314453,5.343 a 14,3.5 0 0 1 2.685547,2.055 14,3.5 0 0 1 -2,1.795 l 0,-0.01 a 14,3.5 0 0 1 -0.507812,0.203 14,3.5 0 0 1 -0.01563,0.01 14,3.5 0 0 1 -11.476558,1.502 14,3.5 0 0 1 -11.476562,-1.502 14,3.5 0 0 1 -0.01563,-0.01 14,3.5 0 0 1 -0.507812,-0.203 l 0,0.01 a 14,3.5 0 0 1 -2,-1.795 14,3.5 0 0 1 2.677734,-2.053 14.999999,4.5 0 0 0 11.322266,1.549 14.999999,4.5 0 0 0 11.314453,-1.555 z M 18,-15954.536 a 14.999999,4.5 0 0 0 14,2.898 14.999999,4.5 0 0 0 14,-2.898 l 0,2.398 a 14,3.5 0 0 1 -14,3.5 14,3.5 0 0 1 -14,-3.5 l 0,-2.398 z"
       id="path4169" />
    <path
       inkscape:connector-curvature="0"
       style="color:#000000;text-decoration:none;text-decoration-line:none;text-decoration-style:solid;text-decoration-color:#000000;white-space:normal;clip-rule:nonzero;display:inline;overflow:visible;visibility:visible;opacity:1;isolation:auto;mix-blend-mode:normal;color-interpolation:sRGB;color-interpolation-filters:linearRGB;solid-color:#000000;solid-opacity:1;fill:#ffffff;fill-opacity:1;fill-rule:nonzero;stroke:none;stroke-width:1;stroke-linecap:butt;stroke-linejoin:miter;stroke-miterlimit:4;stroke-dasharray:none;stroke-dashoffset:0;stroke-opacity:1;color-rendering:auto;image-rendering:auto;shape-rendering:auto;text-rendering:auto;enable-background:accumulate"
       d="m 32.000034,1000.3675 c -0.983929,0 -1.942892,0.093 -2.888021,0.2292 l -0.0027,0 c -0.0097,0 -0.01895,0 -0.02864,0 -0.722819,0.1054 -1.432456,0.2474 -2.127604,0.4271 -0.0043,10e-4 -0.0088,0 -0.01307,0 -0.576177,0.1495 -1.140839,0.3228 -1.695312,0.5209 -0.0081,0 -0.01535,0.013 -0.02344,0.013 -0.623205,0.2236 -1.230456,0.4762 -1.822917,0.7579 -5.496406,2.6136 -9.597402,7.6403 -10.927082,13.7431 -0.05357,0.2459 -0.09613,0.4956 -0.140625,0.7448 -0.06528,0.3629 -0.1186,0.7295 -0.164063,1.0991 -0.02269,0.186 -0.05273,0.3697 -0.07031,0.5573 -0.05869,0.6269 -0.09625,1.2601 -0.09625,1.9033 0,0.6424 0.03772,1.2747 0.09636,1.9012 l 0,0 c 0.01759,0.1876 0.04763,0.3712 0.07031,0.5572 0.04547,0.3696 0.09879,0.7363 0.164062,1.0992 0.04449,0.2492 0.08704,0.4988 0.140626,0.7448 1.960077,8.9962 9.928568,15.6963 19.528644,15.6963 0.69427,0 1.379041,-0.036 2.054688,-0.104 0.02908,0 0.05689,-0.013 0.08593,-0.013 0.701722,-0.075 1.392556,-0.1866 2.070312,-0.3308 2.295441,-0.4884 4.432954,-1.3795 6.359374,-2.5784 0.541744,-0.3371 1.065116,-0.6974 1.570313,-1.0834 0.0079,0 0.01559,-0.013 0.02344,-0.019 l 0.0027,0 c 4.240144,-3.2502 7.139118,-8.1516 7.721354,-13.7719 0.05741,-0.5541 0.07955,-1.118 0.09115,-1.6849 3.76e-4,-0.019 0.0023,-0.036 0.0027,-0.055 l 0,0 c 0.002,-0.1213 0.01811,-0.2377 0.01811,-0.3592 0,-0.1213 -0.01609,-0.2385 -0.01823,-0.3593 l 0,0 c -3.54e-4,-0.019 -0.0021,-0.036 -0.0027,-0.055 -0.0116,-0.5669 -0.03373,-1.1308 -0.09115,-1.6849 -1.044691,-10.087 -9.518566,-17.9019 -19.887961,-17.9019 z m 0,1.3335 c 9.519192,0 17.312998,7.0604 18.494791,16.2484 -2.442693,-3.0781 -5.590601,-5.5584 -9.197917,-7.2269 0.01253,-0.1174 0.03645,-0.233 0.03645,-0.3543 0,-1.8468 -1.486667,-3.3336 -3.333333,-3.3336 -0.325032,0 -0.633104,0.06 -0.929688,0.1459 -1.702199,-2.1114 -3.718735,-3.9579 -6.007812,-5.4326 0.312607,-0.016 0.620933,-0.047 0.9375,-0.047 z m -3.143229,0.2813 c 2.705823,1.4786 5.083875,3.4639 7.023437,5.8286 -0.320243,0.2653 -0.586819,0.586 -0.789063,0.953 -1.435089,-0.2565 -2.912415,-0.3958 -4.424478,-0.3958 -1.936948,0 -3.811296,0.2405 -5.617188,0.6562 -0.350765,-0.7978 -1.004802,-1.4274 -1.817707,-1.7501 0.297789,-1.3756 0.709306,-2.7085 1.23177,-3.9847 1.383471,-0.6085 2.855747,-1.048 4.393229,-1.3072 z m -6.151041,2.198 c -0.316186,0.9284 -0.560393,1.8892 -0.770833,2.8622 -1.81558,0.035 -3.268229,1.5013 -3.268229,3.3257 0,0.3413 0.0644,0.6644 0.158855,0.974 -1.600698,0.8363 -3.107367,1.8228 -4.476563,2.9768 1.470956,-4.3163 4.464612,-7.9061 8.35677,-10.1387 z m -0.705729,4.1878 c 0.168721,0 0.329283,0.027 0.484375,0.068 0.02481,0 0.04848,0.013 0.07292,0.021 0.144358,0.044 0.284501,0.1 0.414062,0.1719 0.0017,9e-4 0.0035,0 0.0052,0 0.307555,0.1729 0.56086,0.4229 0.739583,0.7266 0.07928,0.1348 0.139345,0.2808 0.1875,0.4324 0.0083,0.027 0.01895,0.053 0.02604,0.081 0.04293,0.1586 0.07032,0.3244 0.07032,0.4973 0,0.1 -0.01719,0.1956 -0.03125,0.2917 -0.108374,0.7404 -0.613814,1.3424 -1.299479,1.586 -7.92e-4,3e-4 -0.0019,-2e-4 -0.0027,0 -0.209521,0.075 -0.430932,0.1227 -0.666601,0.1227 -0.230807,0 -0.44782,-0.045 -0.653645,-0.1173 -0.0033,0 -0.0071,0 -0.0104,0 -0.236732,-0.083 -0.452014,-0.2095 -0.63802,-0.3698 -0.163412,-0.1408 -0.30078,-0.3092 -0.411459,-0.4948 -0.0071,-0.013 -0.01399,-0.024 -0.02084,-0.036 -0.105773,-0.1864 -0.18572,-0.39 -0.226563,-0.6093 -0.0224,-0.12 -0.03908,-0.2429 -0.03908,-0.3699 0,-0.99 0.714184,-1.8008 1.656251,-1.9636 0.112267,-0.019 0.225767,-0.036 0.343749,-0.036 z m 15.999999,0 c 8.84e-4,0 0.0017,0 0.0027,0 1.031706,0 1.864239,0.7794 1.973958,1.7814 0.0079,0.073 0.02337,0.1436 0.02337,0.2187 0,0.1856 -0.03373,0.3611 -0.08073,0.5313 -0.01173,0.043 -0.02471,0.084 -0.03907,0.1254 -0.05801,0.166 -0.129306,0.3261 -0.226562,0.4688 -0.09915,0.1453 -0.221067,0.2738 -0.354167,0.3881 -0.02627,0.023 -0.05329,0.044 -0.08073,0.065 -0.139056,0.108 -0.288364,0.2027 -0.453124,0.2708 -6.99e-4,3e-4 -0.0019,-2e-4 -0.0027,0 -0.235321,0.097 -0.491762,0.1511 -0.762946,0.1511 -1.108,0 -2,-0.892 -2,-2.0001 0,-0.019 0.0047,-0.036 0.0052,-0.055 4.8e-5,0 -5.2e-5,0 0,0 0.01431,-0.4791 0.197485,-0.9111 0.489584,-1.2476 0.0013,0 0.0013,0 0.0027,0 0.06089,-0.069 0.125347,-0.1347 0.195312,-0.1953 0.0024,0 0.0055,0 0.0079,0 0.170689,-0.1466 0.365197,-0.2652 0.578124,-0.349 0.05388,-0.021 0.110613,-0.033 0.166667,-0.049 0.05552,-0.016 0.1092,-0.039 0.166666,-0.049 0.125587,-0.024 0.25481,-0.039 0.387914,-0.039 z m -7.333333,1.3334 c 1.376731,0 2.721859,0.1254 4.03125,0.3516 -0.0099,0.1054 -0.03125,0.2074 -0.03125,0.3151 0,1.8468 1.486667,3.3336 3.333333,3.3336 0.474154,0 0.923115,-0.099 1.33073,-0.276 1.284687,2.9387 2.002606,6.1857 2.002606,9.6099 0,2.03 -0.276223,3.9884 -0.747396,5.8676 -1.527089,0.6918 -3.146313,1.2062 -4.828125,1.56 -0.490643,-1.228 -1.684048,-2.0939 -3.091145,-2.0939 -1.062509,0 -1.994609,0.5011 -2.604167,1.2709 -4.259214,-4.0882 -7.037048,-9.7013 -7.361978,-16.014 1.50809,-0.3202 2.632812,-1.6517 2.632812,-3.2581 0,-0.017 -0.0049,-0.035 -0.0052,-0.052 1.716933,-0.3928 3.498649,-0.6145 5.338533,-0.6145 z m 10.226562,2.2996 c 3.956884,1.8632 7.318728,4.7607 9.726562,8.3678 -2.151746,3.2234 -5.057352,5.8921 -8.476562,7.7532 0.335357,-1.6427 0.523437,-3.3407 0.523437,-5.0864 0,-3.7148 -0.804608,-7.2294 -2.23177,-10.3991 0.17829,-0.1915 0.328853,-0.4057 0.458333,-0.6355 z m -21.43229,0.5079 c 0.481631,0.5713 1.140845,0.9844 1.90625,1.1304 0.337315,6.8407 3.38092,12.9283 8.070312,17.2719 -0.0069,0.028 -0.01983,0.055 -0.02604,0.083 -6.141421,-0.3145 -11.657176,-2.9125 -15.718751,-6.9718 -0.232804,-1.181 -0.359375,-2.4012 -0.359375,-3.6532 0,-1.252 0.126573,-2.4723 0.359375,-3.6539 1.685497,-1.6845 3.639377,-3.0867 5.768229,-4.206 z m 31.033852,10.2793 c -0.709148,5.5134 -3.793658,10.2564 -8.213541,13.1702 -0.952622,-0.1747 -1.885196,-0.4019 -2.794271,-0.6851 0.944647,-1.7036 1.71051,-3.5197 2.244791,-5.4377 3.43024,-1.6666 6.416315,-4.09 8.763021,-7.0474 z m -36.145831,3.6304 c 4.098239,3.454 9.314369,5.6095 15.04427,5.8936 0.285073,1.5535 1.63528,2.7242 3.273437,2.7242 0.667903,0 1.28688,-0.1983 1.807292,-0.5339 0.986574,0.5455 1.997188,1.0515 3.0625,1.4611 -0.613371,0.9573 -1.276423,1.8769 -2.015626,2.7345 -1.140787,0.2163 -2.315251,0.3385 -3.520833,0.3385 -8.218734,0 -15.146153,-5.2677 -17.65104,-12.618 z m 18.317707,3.2842 c 0.747396,0 1.388421,0.4113 1.731771,1.0156 0.07689,0.1353 0.136533,0.2806 0.182291,0.4322 0.0055,0.019 0.01067,0.039 0.01563,0.057 0.04247,0.158 0.07031,0.3228 0.07031,0.4949 0,0.1147 -0.01532,0.2261 -0.03385,0.336 -0.05455,0.3231 -0.185923,0.6171 -0.374999,0.8671 -7.39e-4,10e-4 -0.0019,0 -0.0027,0 -0.07312,0.096 -0.153395,0.1869 -0.242187,0.2682 -9.04e-4,8e-4 -0.0017,0 -0.0027,0 -0.0019,0 -0.0033,0 -0.0052,0 -0.08784,0.08 -0.182824,0.1507 -0.283854,0.2138 -0.0016,9e-4 -0.0036,0 -0.0052,0 -0.0059,0 -0.01227,0.013 -0.01823,0.013 -0.09972,0.06 -0.204714,0.112 -0.315106,0.1536 -0.116986,0.045 -0.24028,0.08 -0.367186,0.1013 -0.113747,0.02 -0.229104,0.036 -0.348855,0.036 -0.874348,0 -1.607059,-0.56 -1.880208,-1.3386 -5.57e-4,0 5.53e-4,0 0,0 -0.07204,-0.2067 -0.119787,-0.4244 -0.119787,-0.6563 0,-0.1937 0.03695,-0.3784 0.08855,-0.5548 0.0096,-0.033 0.01741,-0.067 0.02864,-0.099 0.06087,-0.1738 0.139057,-0.3386 0.242187,-0.487 0.360598,-0.5188 0.958128,-0.8594 1.640626,-0.8594 z m 7.460937,0.8464 c -0.493115,1.5012 -1.126233,2.9368 -1.890625,4.2893 -0.968456,-0.3617 -1.892206,-0.8065 -2.794271,-1.2865 0.336525,-0.5059 0.532784,-1.1118 0.54948,-1.7631 1.427147,-0.2976 2.811389,-0.7075 4.135416,-1.2397 z m -1.294271,5.8728 c 0.583547,0.1885 1.171985,0.3661 1.773437,0.5129 -0.945561,0.4905 -1.933515,0.9121 -2.966145,1.2372 0.422102,-0.5651 0.81784,-1.1501 1.192708,-1.7501 z"
       id="rect4166-5" />
  </g>
</svg>
