<?xml version="1.0" encoding="UTF-8" standalone="no"?>
<!-- Created with Inkscape (http://www.inkscape.org/) -->

<svg
   xmlns:dc="http://purl.org/dc/elements/1.1/"
   xmlns:cc="http://creativecommons.org/ns#"
   xmlns:rdf="http://www.w3.org/1999/02/22-rdf-syntax-ns#"
   xmlns:svg="http://www.w3.org/2000/svg"
   xmlns="http://www.w3.org/2000/svg"
   xmlns:sodipodi="http://sodipodi.sourceforge.net/DTD/sodipodi-0.dtd"
   xmlns:inkscape="http://www.inkscape.org/namespaces/inkscape"
   width="64"
   height="64"
   viewBox="0 0 64 64"
   id="svg4178"
   version="1.1"
   inkscape:version="0.91 r13725"
   sodipodi:docname="skypeforlinux.svg">
  <defs
     id="defs4180" />
  <sodipodi:namedview
     id="base"
     pagecolor="#ffffff"
     bordercolor="#666666"
     borderopacity="1.0"
     inkscape:pageopacity="0.0"
     inkscape:pageshadow="2"
     inkscape:zoom="14.937631"
     inkscape:cx="37.698251"
     inkscape:cy="35.038303"
     inkscape:document-units="px"
     inkscape:current-layer="layer1"
     showgrid="false"
     units="px"
     inkscape:window-width="1280"
     inkscape:window-height="722"
     inkscape:window-x="0"
     inkscape:window-y="28"
     inkscape:window-maximized="1" />
  <metadata
     id="metadata4183">
    <rdf:RDF>
      <cc:Work
         rdf:about="">
        <dc:format>image/svg+xml</dc:format>
        <dc:type
           rdf:resource="http://purl.org/dc/dcmitype/StillImage" />
        <dc:title />
      </cc:Work>
    </rdf:RDF>
  </metadata>
  <g
     inkscape:label="Layer 1"
     inkscape:groupmode="layer"
     id="layer1"
     transform="translate(0,-988.3622)">
    <circle
       style="opacity:1;fill:#31363b;fill-opacity:1;stroke:none;stroke-width:1.24300003;stroke-miterlimit:4;stroke-dasharray:none;stroke-opacity:1"
       id="path4746"
       cx="32"
       cy="1020.3622"
       r="32" />
    <path
       inkscape:connector-curvature="0"
       style="opacity:1;fill:#ffffff;fill-opacity:1;stroke:none;stroke-width:1.24300003;stroke-miterlimit:4;stroke-dasharray:none;stroke-opacity:1"
       d="m 31.999999,989.36223 a 31,31 0 0 0 -30.99999956,31.00007 31,31 0 0 0 30.99999956,31 31,31 0 0 0 31,-31 31,31 0 0 0 -31,-31.00007 z m 0,2.69565 a 28.304348,28.304348 0 0 1 28.304348,28.30442 28.304348,28.304348 0 0 1 -28.304348,28.3043 28.304348,28.304348 0 0 1 -28.3043474,-28.3043 28.304348,28.304348 0 0 1 28.3043474,-28.30442 z"
       id="path4145-3" />
    <path
       inkscape:connector-curvature="0"
       style="display:inline;opacity:1;fill:#ffffff;fill-opacity:1;stroke:none;stroke-width:2.79999995;stroke-miterlimit:4;stroke-dasharray:none;stroke-opacity:0.55026455"
       d="m 17000,1005.3618 0,0.9903 0,0.01 0.01,0 8.99,8.9921 0,0.6172 -9,9 0,0.3906 0,1.0234 0,7.9766 0,1 1,0 9,0 0.424,0 9,-9 0.586,0 8.99,8.9902 0,0.01 1,0 0,-0.4238 0,-19.1523 0,-1.4141 0,-9.0098 -29.576,0 -0.424,0 z m 1.424,1 27.576,0 0,9.0098 0,1.4141 0,17.1523 -8,-8 0,-1.1524 0,-1.414 0,-9.0098 -11.578,0 -7.998,-8 z m 8.576,9 0.424,0 9.576,0 0,9.0098 0,0.5664 0,0.4238 -10,0 0,-8.9765 0,-0.033 0,-0.9903 z m -1,2.0234 0,8.9766 9.01,0 -8.01,8.0098 0,-0.01 -9,0 0,-8.9766 8,-8 z"
       id="rect4166" />
    <path
       inkscape:connector-curvature="0"
       style="color:#f2f2f2;fill:none;fill-opacity:1;stroke:#ffffff;stroke-opacity:1;stroke-width:1.6;stroke-miterlimit:4;stroke-dasharray:none"
       d="m 23.684407,1001.5681 c -5.651727,0 -10.233606,4.5163 -10.233606,10.0897 0,1.8621 0.516029,3.6042 1.409188,5.1029 -0.234537,1.1289 -0.361338,2.3018 -0.361338,3.4996 0,9.6112 7.898099,17.4052 17.644862,17.4052 1.104964,0 2.187829,-0.095 3.235881,-0.2931 1.440313,0.763 3.087938,1.1957 4.837799,1.1957 5.652568,0 10.233608,-4.5156 10.233608,-10.0897 0,-1.6087 -0.387406,-3.1288 -1.067919,-4.4803 0.266468,-1.2023 0.413508,-2.4552 0.413508,-3.7378 0,-9.6111 -7.902052,-17.3994 -17.64886,-17.3994 -1.028748,0 -2.037905,0.087 -3.019103,0.2571 -1.577678,-0.9804 -3.442234,-1.5499 -5.44402,-1.5499 z m 8.338653,7.7875 c -1.751677,0 -3.302822,0.2409 -4.604911,0.7161 -1.319206,0.481 -2.342059,1.185 -3.043189,2.0868 -0.707148,0.9092 -1.063922,1.9592 -1.063922,3.1284 0,1.2259 0.338272,2.2687 1.01173,3.0999 0.662923,0.8186 1.573279,1.4739 2.697904,1.9459 1.100187,0.4628 2.483266,0.8698 4.111108,1.2129 1.19631,0.2477 2.162063,0.4843 2.874585,0.7026 0.68489,0.2109 1.246633,0.5178 1.674139,0.9121 0.407432,0.3761 0.60624,0.8544 0.60624,1.4642 0,0.7735 -0.379374,1.406 -1.160268,1.9308 -0.799628,0.5395 -1.862382,0.8111 -3.159625,0.8111 -0.943067,0 -1.711102,-0.1343 -2.280376,-0.4017 -0.565148,-0.2639 -1.004846,-0.6014 -1.312822,-1.0035 -0.320011,-0.4169 -0.624821,-0.9448 -0.903314,-1.5729 -0.248407,-0.5772 -0.558574,-1.0235 -0.919382,-1.3251 -0.377926,-0.3157 -0.841838,-0.4742 -1.381084,-0.4742 -0.65638,0 -1.208313,0.2045 -1.638019,0.6017 -0.43401,0.4019 -0.654413,0.8903 -0.654413,1.4586 0,0.9063 0.337598,1.8502 1.003697,2.797 0.659669,0.94 1.531707,1.6948 2.585505,2.2564 1.473866,0.7711 3.363304,1.1653 5.616643,1.1653 1.877088,0 3.526521,-0.2878 4.902025,-0.8512 1.389233,-0.5704 2.45886,-1.3711 3.18369,-2.3857 0.728725,-1.015 1.099828,-2.1773 1.100041,-3.4521 0,-1.0652 -0.21471,-1.9793 -0.638341,-2.721 -0.421781,-0.7402 -1.014881,-1.3609 -1.766487,-1.843 -0.735482,-0.4729 -1.641904,-0.8791 -2.685869,-1.2092 -1.031852,-0.3256 -2.199124,-0.6268 -3.46875,-0.895 -1.002427,-0.2286 -1.731576,-0.4064 -2.167982,-0.5254 -0.425052,-0.1149 -0.852702,-0.2779 -1.264648,-0.4817 -0.397302,-0.1968 -0.71248,-0.4312 -0.935434,-0.699 -0.211239,-0.2539 -0.313145,-0.5472 -0.313145,-0.9007 0,-0.5728 0.320886,-1.0607 0.975591,-1.485 0.679242,-0.4388 1.593348,-0.6568 2.717993,-0.6568 1.210912,0 2.090591,0.1966 2.617607,0.5939 0.54318,0.4072 1.017787,0.9838 1.409188,1.7176 0.337985,0.5741 0.641362,0.9725 0.935434,1.228 0.315163,0.2767 0.768276,0.4191 1.348962,0.4191 0.639263,0 1.183644,-0.2277 1.613934,-0.6686 0.427564,-0.4352 0.642359,-0.9402 0.642359,-1.4926 0,-0.5739 -0.164027,-1.1641 -0.489806,-1.7632 -0.322387,-0.5884 -0.835766,-1.1579 -1.525601,-1.6889 -0.684793,-0.527 -1.556154,-0.9558 -2.589525,-1.274 -1.028581,-0.3145 -2.260077,-0.4779 -3.661462,-0.4779 z"
       id="path6-3"
       sodipodi:nodetypes="sscsscsscsscssccscccccscsccccscsccsccccccccccscscccscscccs" />
  </g>
</svg>
