<?xml version="1.0" encoding="UTF-8" standalone="no"?>
<!-- Created with Inkscape (http://www.inkscape.org/) -->

<svg
   xmlns:dc="http://purl.org/dc/elements/1.1/"
   xmlns:cc="http://creativecommons.org/ns#"
   xmlns:rdf="http://www.w3.org/1999/02/22-rdf-syntax-ns#"
   xmlns:svg="http://www.w3.org/2000/svg"
   xmlns="http://www.w3.org/2000/svg"
   xmlns:sodipodi="http://sodipodi.sourceforge.net/DTD/sodipodi-0.dtd"
   xmlns:inkscape="http://www.inkscape.org/namespaces/inkscape"
   width="64"
   height="64"
   viewBox="0 0 64 64"
   id="svg4178"
   version="1.1"
   inkscape:version="0.91 r13725"
   sodipodi:docname="applications-utilities.svg">
  <defs
     id="defs4180">
    <linearGradient
       id="b"
       y1="39"
       y2="9"
       gradientUnits="userSpaceOnUse"
       x2="0"
       gradientTransform="matrix(1.1428556,0,0,1.3333333,-0.57111064,-1243.5489)">
      <stop
         stop-color="#197cf1"
         id="stop12" />
      <stop
         offset="1"
         stop-color="#20bcfa"
         id="stop14" />
    </linearGradient>
  </defs>
  <sodipodi:namedview
     id="base"
     pagecolor="#ffffff"
     bordercolor="#666666"
     borderopacity="1.0"
     inkscape:pageopacity="0.0"
     inkscape:pageshadow="2"
     inkscape:zoom="5.8891869"
     inkscape:cx="14.483755"
     inkscape:cy="25.439769"
     inkscape:document-units="px"
     inkscape:current-layer="layer1"
     showgrid="false"
     units="px"
     inkscape:window-width="1280"
     inkscape:window-height="722"
     inkscape:window-x="0"
     inkscape:window-y="28"
     inkscape:window-maximized="1" />
  <metadata
     id="metadata4183">
    <rdf:RDF>
      <cc:Work
         rdf:about="">
        <dc:format>image/svg+xml</dc:format>
        <dc:type
           rdf:resource="http://purl.org/dc/dcmitype/StillImage" />
        <dc:title></dc:title>
      </cc:Work>
    </rdf:RDF>
  </metadata>
  <g
     inkscape:label="Layer 1"
     inkscape:groupmode="layer"
     id="layer1"
     transform="translate(0,-988.3622)">
    <circle
       style="opacity:1;fill:#31363b;fill-opacity:1;stroke:none;stroke-width:1.24300003;stroke-miterlimit:4;stroke-dasharray:none;stroke-opacity:1"
       id="path4746"
       cx="32"
       cy="1020.3622"
       r="32" />
    <path
       inkscape:connector-curvature="0"
       style="opacity:1;fill:#ffffff;fill-opacity:1;stroke:none;stroke-width:1.24300003;stroke-miterlimit:4;stroke-dasharray:none;stroke-opacity:1"
       d="m 31.999999,989.36223 a 31,31 0 0 0 -30.99999956,31.00007 31,31 0 0 0 30.99999956,31 31,31 0 0 0 31,-31 31,31 0 0 0 -31,-31.00007 z m 0,2.69565 a 28.304348,28.304348 0 0 1 28.304348,28.30442 28.304348,28.304348 0 0 1 -28.304348,28.3043 28.304348,28.304348 0 0 1 -28.3043474,-28.3043 28.304348,28.304348 0 0 1 28.3043474,-28.30442 z"
       id="path4145-3" />
    <path
       inkscape:connector-curvature="0"
       style="opacity:1;fill:#ffffff;fill-opacity:1;stroke:none;stroke-width:0.1;stroke-miterlimit:4;stroke-dasharray:none;stroke-opacity:1"
       d="m 32.023722,1003.0428 c -6.463312,0 -11.666667,5.2033 -11.666667,11.6667 0,4.9113 3.012164,9.0768 7.291667,10.8008 l 0,2.3242 0,1.4583 8.75,0 0,-1.4583 0,-2.3242 c 4.279502,-1.724 7.291666,-5.8895 7.291666,-10.8008 0,-6.4634 -5.203355,-11.6667 -11.666666,-11.6667 z m 0,1.4583 c 5.655394,0 10.208333,4.553 10.208333,10.2084 0,4.6293 -3.054341,8.5102 -7.263184,9.7696 l -0.02848,0 0,3.3554 -5.833334,0 0,-1.8372 0,-1.5068 0,-0.015 -0.02848,0 c -4.208846,-1.2562 -7.263187,-5.1371 -7.263187,-9.7664 0,-5.6555 4.552939,-10.2084 10.208334,-10.2084 z m -5.833334,8.75 0,2.9167 0,1.4583 2.916667,0 0,5.8334 1.458333,0 0,-5.8334 2.916667,0 0,5.8334 1.458333,0 0,-5.8334 1.458334,0 1.458333,0 0,-1.4583 0,-1.4583 0,-1.4584 -1.458333,0 -2.916667,0 0,1.4584 0,1.4583 -2.916667,0 0,-1.4583 0,-1.4584 -2.916666,0 -1.458334,0 z m 1.458334,1.4584 1.458333,0 0,1.4583 -1.458333,0 0,-1.4583 z m 7.291666,0 1.458334,0 0,1.4583 -1.458334,0 0,-1.4583 z m -7.291666,17.5 0,1.4583 8.75,0 0,-1.4583 -8.75,0 z m 1.458333,4.375 0,1.4583 5.833333,0 0,-1.4583 -5.833333,0 z"
       id="rect3344" />
  </g>
</svg>
