<?xml version="1.0" encoding="UTF-8" standalone="no"?>
<!-- Created with Inkscape (http://www.inkscape.org/) -->

<svg
   xmlns:dc="http://purl.org/dc/elements/1.1/"
   xmlns:cc="http://creativecommons.org/ns#"
   xmlns:rdf="http://www.w3.org/1999/02/22-rdf-syntax-ns#"
   xmlns:svg="http://www.w3.org/2000/svg"
   xmlns="http://www.w3.org/2000/svg"
   xmlns:sodipodi="http://sodipodi.sourceforge.net/DTD/sodipodi-0.dtd"
   xmlns:inkscape="http://www.inkscape.org/namespaces/inkscape"
   width="64"
   height="64"
   viewBox="0 0 64 64"
   id="svg4178"
   version="1.1"
   inkscape:version="0.91 r13725"
   sodipodi:docname="applications-internet.svg">
  <defs
     id="defs4180">
    <linearGradient
       id="b"
       y1="39"
       y2="9"
       gradientUnits="userSpaceOnUse"
       x2="0"
       gradientTransform="matrix(1.1428556,0,0,1.3333333,-0.57111064,-1243.5489)">
      <stop
         stop-color="#197cf1"
         id="stop12" />
      <stop
         offset="1"
         stop-color="#20bcfa"
         id="stop14" />
    </linearGradient>
  </defs>
  <sodipodi:namedview
     id="base"
     pagecolor="#ffffff"
     bordercolor="#666666"
     borderopacity="1.0"
     inkscape:pageopacity="0.0"
     inkscape:pageshadow="2"
     inkscape:zoom="5.8891869"
     inkscape:cx="14.483755"
     inkscape:cy="25.439769"
     inkscape:document-units="px"
     inkscape:current-layer="layer1"
     showgrid="false"
     units="px"
     inkscape:window-width="1280"
     inkscape:window-height="722"
     inkscape:window-x="0"
     inkscape:window-y="28"
     inkscape:window-maximized="1" />
  <metadata
     id="metadata4183">
    <rdf:RDF>
      <cc:Work
         rdf:about="">
        <dc:format>image/svg+xml</dc:format>
        <dc:type
           rdf:resource="http://purl.org/dc/dcmitype/StillImage" />
        <dc:title></dc:title>
      </cc:Work>
    </rdf:RDF>
  </metadata>
  <g
     inkscape:label="Layer 1"
     inkscape:groupmode="layer"
     id="layer1"
     transform="translate(0,-988.3622)">
    <circle
       style="opacity:1;fill:#31363b;fill-opacity:1;stroke:none;stroke-width:1.24300003;stroke-miterlimit:4;stroke-dasharray:none;stroke-opacity:1"
       id="path4746"
       cx="32"
       cy="1020.3622"
       r="32" />
    <path
       inkscape:connector-curvature="0"
       style="opacity:1;fill:#ffffff;fill-opacity:1;stroke:none;stroke-width:1.24300003;stroke-miterlimit:4;stroke-dasharray:none;stroke-opacity:1"
       d="m 31.999999,989.36223 a 31,31 0 0 0 -30.99999956,31.00007 31,31 0 0 0 30.99999956,31 31,31 0 0 0 31,-31 31,31 0 0 0 -31,-31.00007 z m 0,2.69565 a 28.304348,28.304348 0 0 1 28.304348,28.30442 28.304348,28.304348 0 0 1 -28.304348,28.3043 28.304348,28.304348 0 0 1 -28.3043474,-28.3043 28.304348,28.304348 0 0 1 28.3043474,-28.30442 z"
       id="path4145-3" />
    <path
       inkscape:connector-curvature="0"
       style="opacity:1;fill:#ffffff;fill-opacity:1;stroke:none;stroke-width:0.1;stroke-miterlimit:4;stroke-dasharray:none;stroke-opacity:1"
       d="m 32,1000.3622 c -11.08,0 -20,8.92 -20,20 0,11.08 8.92,20 20,20 11.08,0 20,-8.92 20,-20 0,-11.08 -8.92,-20 -20,-20 z m 0,1.6667 c 10.156666,0 18.333334,8.1766 18.333334,18.3333 0,10.1567 -8.176668,18.3334 -18.333334,18.3334 -10.156666,0 -18.333334,-8.1767 -18.333334,-18.3334 0,-10.1567 8.176668,-18.3333 18.333334,-18.3333 z m 10,8.3333 -6.888021,4.1309 c -0.931529,-0.4934 -1.980514,-0.7975 -3.111979,-0.7975 -3.693334,0 -6.666666,2.9732 -6.666666,6.6666 0,1.1315 0.304204,2.1805 0.797525,3.112 L 22,1030.3622 l 6.888019,-4.1309 c 0.931531,0.4934 1.980516,0.7975 3.111981,0.7975 3.693334,0 6.666666,-2.9732 6.666666,-6.6666 0,-1.1315 -0.304204,-2.1803 -0.797527,-3.112 L 42,1010.3622 Z m -10,5 c 0.787921,0 1.522601,0.1957 2.184245,0.5177 0.0035,0 0.0063,0 0.0098,0 0.994311,0.4866 1.795143,1.2874 2.281901,2.2818 0.0017,0 0.0048,0 0.0065,0.016 0.321909,0.6614 0.51752,1.396 0.51752,2.1839 0,2.7701 -2.23,5 -5,5 -0.787921,0 -1.522601,-0.1956 -2.184245,-0.5175 -0.0035,0 -0.0062,0 -0.0098,0 -0.994311,-0.4868 -1.795143,-1.2876 -2.281902,-2.282 -0.0017,0 -0.0048,0 -0.0065,-0.016 -0.321909,-0.6613 -0.51752,-1.3959 -0.51752,-2.1839 0,-2.7699 2.23,-5 5,-5 z"
       id="rect4777" />
  </g>
</svg>
