<?xml version="1.0" encoding="UTF-8" standalone="no"?>
<!-- Created with Inkscape (http://www.inkscape.org/) -->

<svg
   xmlns:dc="http://purl.org/dc/elements/1.1/"
   xmlns:cc="http://creativecommons.org/ns#"
   xmlns:rdf="http://www.w3.org/1999/02/22-rdf-syntax-ns#"
   xmlns:svg="http://www.w3.org/2000/svg"
   xmlns="http://www.w3.org/2000/svg"
   xmlns:sodipodi="http://sodipodi.sourceforge.net/DTD/sodipodi-0.dtd"
   xmlns:inkscape="http://www.inkscape.org/namespaces/inkscape"
   width="64"
   height="64"
   viewBox="0 0 64 64"
   id="svg4178"
   version="1.1"
   inkscape:version="0.91 r13725"
   sodipodi:docname="applications-development.svg">
  <defs
     id="defs4180">
    <linearGradient
       id="b"
       y1="39"
       y2="9"
       gradientUnits="userSpaceOnUse"
       x2="0"
       gradientTransform="matrix(1.1428556,0,0,1.3333333,-0.57111064,-1243.5489)">
      <stop
         stop-color="#197cf1"
         id="stop12" />
      <stop
         offset="1"
         stop-color="#20bcfa"
         id="stop14" />
    </linearGradient>
  </defs>
  <sodipodi:namedview
     id="base"
     pagecolor="#ffffff"
     bordercolor="#666666"
     borderopacity="1.0"
     inkscape:pageopacity="0.0"
     inkscape:pageshadow="2"
     inkscape:zoom="5.8891869"
     inkscape:cx="14.483755"
     inkscape:cy="25.439769"
     inkscape:document-units="px"
     inkscape:current-layer="layer1"
     showgrid="false"
     units="px"
     inkscape:window-width="1280"
     inkscape:window-height="722"
     inkscape:window-x="0"
     inkscape:window-y="28"
     inkscape:window-maximized="1" />
  <metadata
     id="metadata4183">
    <rdf:RDF>
      <cc:Work
         rdf:about="">
        <dc:format>image/svg+xml</dc:format>
        <dc:type
           rdf:resource="http://purl.org/dc/dcmitype/StillImage" />
        <dc:title></dc:title>
      </cc:Work>
    </rdf:RDF>
  </metadata>
  <g
     inkscape:label="Layer 1"
     inkscape:groupmode="layer"
     id="layer1"
     transform="translate(0,-988.3622)">
    <circle
       style="opacity:1;fill:#31363b;fill-opacity:1;stroke:none;stroke-width:1.24300003;stroke-miterlimit:4;stroke-dasharray:none;stroke-opacity:1"
       id="path4746"
       cx="32"
       cy="1020.3622"
       r="32" />
    <path
       inkscape:connector-curvature="0"
       style="opacity:1;fill:#ffffff;fill-opacity:1;stroke:none;stroke-width:1.24300003;stroke-miterlimit:4;stroke-dasharray:none;stroke-opacity:1"
       d="m 31.999999,989.36223 a 31,31 0 0 0 -30.99999956,31.00007 31,31 0 0 0 30.99999956,31 31,31 0 0 0 31,-31 31,31 0 0 0 -31,-31.00007 z m 0,2.69565 a 28.304348,28.304348 0 0 1 28.304348,28.30442 28.304348,28.304348 0 0 1 -28.304348,28.3043 28.304348,28.304348 0 0 1 -28.3043474,-28.3043 28.304348,28.304348 0 0 1 28.3043474,-28.30442 z"
       id="path4145-3" />
    <path
       style="opacity:1;fill:#ffffff;fill-opacity:1;stroke:none;stroke-width:0;stroke-miterlimit:4;stroke-dasharray:none;stroke-opacity:0.2751323"
       d="m 17,1005.3622 0,1.25 0,4.8755 0,1.25 0,22.6245 1.250001,0 28.749999,0 0,-1.25 0,-22.5 0,-6.25 -28.749999,0 z m 1.250001,1.25 27.499999,0 0,4.8755 -27.499999,0 z m 0,6.1255 27.499999,0 0,0.125 0,21.25 -27.499999,0 z M 29.5,1016.6122 c -1.25,0 -1.25,1.25 -1.25,1.25 l 0,3.75 0,1.25 0.05859,0 c 0,0 1.087502,-0.013 1.191406,-1.0597 l 6e-6,-0.1903 0,-3.75 1.250001,0 0,-1.25 z m -1.25,6.25 -1.25,0.625 1.25,0.625 z m 0,1.25 0,1.25 0,3.75 c 0,0 0,1.25 1.25,1.25 l 1.25,0 0,-1.25 -1.25,0 0,-3.75 0,-0.1904 c -0.1039,-1.0471 -1.191407,-1.0596 -1.191407,-1.0596 z m 5,-7.5 0,1.25 1.25,0 0,3.75 0,0.1903 c 0.1039,1.0472 1.191407,1.0597 1.191407,1.0597 l 0.05859,0 0,-1.25 0,-3.75 c 0,0 0,-1.25 -1.249999,-1.25 z m 2.5,6.25 0,1.25 1.250001,-0.625 z m 0,1.25 -0.05859,0 c 0,0 -1.087502,0.013 -1.191406,1.0596 l -6e-6,0.1904 0,3.75 -1.250001,0 0,1.25 1.250001,0 c 1.25,0 1.25,-1.25 1.25,-1.25 l 0,-3.75 z"
       id="rect4140"
       inkscape:connector-curvature="0"
       sodipodi:nodetypes="cccccccccccccccccccccccscccccccccscccccccsccccccccccccccccsccccccccccccsccc" />
  </g>
</svg>
