<?xml version="1.0" encoding="UTF-8" standalone="no"?>
<!-- Created with Inkscape (http://www.inkscape.org/) -->

<svg
   xmlns:dc="http://purl.org/dc/elements/1.1/"
   xmlns:cc="http://creativecommons.org/ns#"
   xmlns:rdf="http://www.w3.org/1999/02/22-rdf-syntax-ns#"
   xmlns:svg="http://www.w3.org/2000/svg"
   xmlns="http://www.w3.org/2000/svg"
   xmlns:sodipodi="http://sodipodi.sourceforge.net/DTD/sodipodi-0.dtd"
   xmlns:inkscape="http://www.inkscape.org/namespaces/inkscape"
   width="64"
   height="64"
   viewBox="0 0 64 64"
   id="svg4178"
   version="1.1"
   inkscape:version="0.91 r13725"
   sodipodi:docname="google-earth.svg">
  <defs
     id="defs4180" />
  <sodipodi:namedview
     id="base"
     pagecolor="#ffffff"
     bordercolor="#666666"
     borderopacity="1.0"
     inkscape:pageopacity="0.0"
     inkscape:pageshadow="2"
     inkscape:zoom="8.328568"
     inkscape:cx="22.223376"
     inkscape:cy="33.588332"
     inkscape:document-units="px"
     inkscape:current-layer="layer1"
     showgrid="false"
     units="px"
     inkscape:window-width="1280"
     inkscape:window-height="722"
     inkscape:window-x="0"
     inkscape:window-y="28"
     inkscape:window-maximized="1" />
  <metadata
     id="metadata4183">
    <rdf:RDF>
      <cc:Work
         rdf:about="">
        <dc:format>image/svg+xml</dc:format>
        <dc:type
           rdf:resource="http://purl.org/dc/dcmitype/StillImage" />
        <dc:title></dc:title>
      </cc:Work>
    </rdf:RDF>
  </metadata>
  <g
     inkscape:label="Layer 1"
     inkscape:groupmode="layer"
     id="layer1"
     transform="translate(0,-988.3622)">
    <circle
       style="opacity:1;fill:#31363b;fill-opacity:1;stroke:none;stroke-width:1.24300003;stroke-miterlimit:4;stroke-dasharray:none;stroke-opacity:1"
       id="path4746"
       cx="32"
       cy="1020.3622"
       r="32" />
    <path
       inkscape:connector-curvature="0"
       style="opacity:1;fill:#ffffff;fill-opacity:1;stroke:none;stroke-width:1.24300003;stroke-miterlimit:4;stroke-dasharray:none;stroke-opacity:1"
       d="m 31.999999,989.36223 a 31,31 0 0 0 -30.99999956,31.00007 31,31 0 0 0 30.99999956,31 31,31 0 0 0 31,-31 31,31 0 0 0 -31,-31.00007 z m 0,2.69565 a 28.304348,28.304348 0 0 1 28.304348,28.30442 28.304348,28.304348 0 0 1 -28.304348,28.3043 28.304348,28.304348 0 0 1 -28.3043474,-28.3043 28.304348,28.304348 0 0 1 28.3043474,-28.30442 z"
       id="path4145-3" />
    <path
       inkscape:connector-curvature="0"
       style="display:inline;opacity:1;fill:#ffffff;fill-opacity:1;stroke:none;stroke-width:2.79999995;stroke-miterlimit:4;stroke-dasharray:none;stroke-opacity:0.55026455"
       d="m 17000,1005.3618 0,0.9903 0,0.01 0.01,0 8.99,8.9921 0,0.6172 -9,9 0,0.3906 0,1.0234 0,7.9766 0,1 1,0 9,0 0.424,0 9,-9 0.586,0 8.99,8.9902 0,0.01 1,0 0,-0.4238 0,-19.1523 0,-1.4141 0,-9.0098 -29.576,0 -0.424,0 z m 1.424,1 27.576,0 0,9.0098 0,1.4141 0,17.1523 -8,-8 0,-1.1524 0,-1.414 0,-9.0098 -11.578,0 -7.998,-8 z m 8.576,9 0.424,0 9.576,0 0,9.0098 0,0.5664 0,0.4238 -10,0 0,-8.9765 0,-0.033 0,-0.9903 z m -1,2.0234 0,8.9766 9.01,0 -8.01,8.0098 0,-0.01 -9,0 0,-8.9766 8,-8 z"
       id="rect4166" />
    <path
       style="color:#000000;display:inline;overflow:visible;visibility:visible;fill:none;fill-opacity:0.49803922;fill-rule:evenodd;stroke:#ffffff;stroke-width:1.48861325;stroke-miterlimit:4;stroke-dasharray:none;stroke-opacity:1;marker:none;enable-background:accumulate"
       d="m 32,1001.1065 c -10.634624,0 -19.255693,8.621 -19.255693,19.2557 0,10.6346 8.621069,19.2557 19.255693,19.2557 10.634625,0 19.255693,-8.6211 19.255693,-19.2557 0,-10.6347 -8.621068,-19.2557 -19.255693,-19.2557 z m 0,0.8021 c 8.223653,0 15.189176,5.3606 17.57082,12.7974 -0.198988,0.8048 -0.625685,1.5644 -1.444177,1.5644 -0.747863,0 -0.508908,0.1066 -2.126147,-1.2837 -2.656416,-2.285 -2.930121,-5.2853 -6.057522,-7.7424 -0.725587,-0.57 -1.459052,-1.0506 -2.166265,-1.4845 -0.235738,-0.1437 -0.443334,-0.2703 -0.681973,-0.401 -2.863665,-1.5675 -6.040326,-2.1489 -11.633649,-2.2467 2.031925,-0.7705 4.237977,-1.2035 6.538913,-1.2035 z m -7.421464,3.3699 c 3.214518,0 9.209804,7.0981 11.59353,9.1867 3.13068,2.7434 5.537049,4.9746 7.702277,6.539 0.270657,0.1954 0.538232,0.3863 0.802323,0.5615 1.848593,1.2257 3.558093,1.9491 5.455777,2.086 -0.128553,0.713 -0.273319,1.4039 -0.481391,2.086 -5.072211,-0.5431 -11.231744,-4.177 -15.284207,-6.8197 -8.234035,-5.3694 -8.784872,-7.3814 -13.278404,-7.3814 -2.518351,0 -4.301911,1.2053 -6.217987,3.4501 -0.273723,0.3206 -0.519182,0.6807 -0.802319,1.0429 0.294808,-1.2244 0.718015,-2.4142 1.243598,-3.5303 0.06627,-0.1243 0.137619,-0.2468 0.200579,-0.3607 0.989801,-1.7909 4.00564,-5.7121 7.541813,-6.6595 0.126288,-0.033 0.233521,-0.055 0.361045,-0.08 0.382548,-0.078 0.772284,-0.1214 1.163366,-0.1214 z m -6.418566,21.0611 c 1.675667,0 3.064648,0.8397 3.610444,1.1233 2.057628,1.0691 9.199653,4.4127 17.009196,4.4127 4.042506,0 7.146801,-1.0044 8.825524,-1.6848 -0.777841,1.2291 -1.690578,2.3597 -2.727889,3.3696 -2.626372,1.0132 -6.23219,1.4443 -9.106338,1.4443 -5.746205,0 -9.18948,-1.6449 -10.229586,-1.6449 -0.780982,0 -1.444177,0.4125 -1.444177,1.4843 0,0.9218 0.339574,1.7337 0.722087,2.3268 0.05464,0.085 0.106205,0.1649 0.160466,0.2408 -4.095416,-1.6828 -7.429899,-4.7842 -9.427262,-8.7052 0.119607,-1.625 1.182768,-2.3669 2.607535,-2.3669 z"
       id="path3253"
       inkscape:connector-curvature="0" />
  </g>
</svg>
