<?xml version="1.0" encoding="UTF-8" standalone="no"?>
<!-- Created with Inkscape (http://www.inkscape.org/) -->

<svg
   xmlns:dc="http://purl.org/dc/elements/1.1/"
   xmlns:cc="http://creativecommons.org/ns#"
   xmlns:rdf="http://www.w3.org/1999/02/22-rdf-syntax-ns#"
   xmlns:svg="http://www.w3.org/2000/svg"
   xmlns="http://www.w3.org/2000/svg"
   xmlns:sodipodi="http://sodipodi.sourceforge.net/DTD/sodipodi-0.dtd"
   xmlns:inkscape="http://www.inkscape.org/namespaces/inkscape"
   width="68.26667"
   height="68.26667"
   viewBox="0 0 64 64"
   id="svg4178"
   version="1.1"
   inkscape:version="0.92.1 r"
   sodipodi:docname="qupzilla.svg">
  <defs
     id="defs4180">
    <linearGradient
       id="1"
       x1="409.41"
       y1="533.90997"
       x2="409.79001"
       y2="522.20001"
       gradientUnits="userSpaceOnUse">
      <stop
         stop-color="#46a0ff"
         id="stop7" />
      <stop
         offset="1"
         stop-color="#9fe0ff"
         id="stop9" />
    </linearGradient>
    <linearGradient
       id="2"
       x1="403.26001"
       y1="532.59998"
       x2="403.39001"
       y2="511.48999"
       gradientUnits="userSpaceOnUse">
      <stop
         stop-color="#d5dbff"
         id="stop12" />
      <stop
         offset="1"
         stop-color="#f9ffff"
         id="stop14" />
    </linearGradient>
  </defs>
  <sodipodi:namedview
     id="base"
     pagecolor="#ffffff"
     bordercolor="#666666"
     borderopacity="1.0"
     inkscape:pageopacity="0.0"
     inkscape:pageshadow="2"
     inkscape:zoom="1.8384776"
     inkscape:cx="131.4327"
     inkscape:cy="6.5772251"
     inkscape:document-units="px"
     inkscape:current-layer="layer1"
     showgrid="false"
     units="px"
     inkscape:window-width="1280"
     inkscape:window-height="726"
     inkscape:window-x="0"
     inkscape:window-y="26"
     inkscape:window-maximized="1" />
  <metadata
     id="metadata4183">
    <rdf:RDF>
      <cc:Work
         rdf:about="">
        <dc:format>image/svg+xml</dc:format>
        <dc:type
           rdf:resource="http://purl.org/dc/dcmitype/StillImage" />
        <dc:title></dc:title>
      </cc:Work>
    </rdf:RDF>
  </metadata>
  <g
     inkscape:label="Layer 1"
     inkscape:groupmode="layer"
     id="layer1"
     transform="translate(0,-988.3622)">
    <circle
       style="opacity:1;fill:#31363b;fill-opacity:1;stroke:none;stroke-width:1.24300003;stroke-miterlimit:4;stroke-dasharray:none;stroke-opacity:1"
       id="path4746"
       cx="32"
       cy="1020.3622"
       r="32" />
    <path
       inkscape:connector-curvature="0"
       style="opacity:1;fill:#ffffff;fill-opacity:1;stroke:none;stroke-width:1.24300003;stroke-miterlimit:4;stroke-dasharray:none;stroke-opacity:1"
       d="m 31.999999,989.36223 a 31,31 0 0 0 -30.99999956,31.00007 31,31 0 0 0 30.99999956,31 31,31 0 0 0 31,-31 31,31 0 0 0 -31,-31.00007 z m 0,2.69565 a 28.304348,28.304348 0 0 1 28.304348,28.30442 28.304348,28.304348 0 0 1 -28.304348,28.3043 28.304348,28.304348 0 0 1 -28.3043474,-28.3043 28.304348,28.304348 0 0 1 28.3043474,-28.30442 z"
       id="path4145-3" />
    <path
       inkscape:connector-curvature="0"
       style="display:inline;opacity:1;fill:#ffffff;fill-opacity:1;stroke:none;stroke-width:2.79999995;stroke-miterlimit:4;stroke-dasharray:none;stroke-opacity:0.55026455"
       d="m 17000,1005.3618 v 0.9903 0.01 h 0.01 l 8.99,8.9921 v 0.6172 l -9,9 v 0.3906 1.0234 7.9766 1 h 1 9 0.424 l 9,-9 h 0.586 l 8.99,8.9902 v 0.01 h 1 v -0.4238 -19.1523 -1.4141 -9.0098 h -29.576 -0.424 z m 1.424,1 H 17029 v 9.0098 1.4141 17.1523 l -8,-8 v -1.1524 -1.414 -9.0098 h -11.578 z m 8.576,9 h 0.424 9.576 v 9.0098 0.5664 0.4238 h -10 v -8.9765 -0.033 -0.9903 z m -1,2.0234 v 8.9766 h 9.01 l -8.01,8.0098 v -0.01 h -9 v -8.9766 l 8,-8 z"
       id="rect4166" />
    <path
       style="fill:none;fill-opacity:1;fill-rule:evenodd;stroke:#ffffff;stroke-width:0.93770212;stroke-linecap:round;stroke-linejoin:round;stroke-opacity:1"
       d="m 23.71969,1005.9303 c -8.913895,0.285 -13.9556993,8.6116 -7.780151,24.6844 v -0.01 h 0.0037 c 15.1825,-10.563 22.104779,6.7404 39.790647,0.082 -10.659642,-1.1794 -16.888543,-10.2846 -28.544309,-11.4148 5.945256,-3.2071 13.356366,-4.6018 21.910398,-4.5795 -7.08262,-1.8489 -12.43897,-5.2112 -17.142332,-7.11 -2.941789,-1.1876 -5.742024,-1.7369 -8.237915,-1.6571 z"
       id="path21"
       inkscape:connector-curvature="0" />
  </g>
</svg>
