<?xml version="1.0" encoding="UTF-8" standalone="no"?>
<svg
   xmlns:dc="http://purl.org/dc/elements/1.1/"
   xmlns:cc="http://creativecommons.org/ns#"
   xmlns:rdf="http://www.w3.org/1999/02/22-rdf-syntax-ns#"
   xmlns:svg="http://www.w3.org/2000/svg"
   xmlns="http://www.w3.org/2000/svg"
   xmlns:sodipodi="http://sodipodi.sourceforge.net/DTD/sodipodi-0.dtd"
   xmlns:inkscape="http://www.inkscape.org/namespaces/inkscape"
   width="22"
   viewBox="0 0 6.208889 6.208889"
   height="22"
   id="svg2"
   version="1.1"
   inkscape:version="0.91 r13725"
   sodipodi:docname="teamviewer-indicator-busy.svg">
  <metadata
     id="metadata16">
    <rdf:RDF>
      <cc:Work
         rdf:about="">
        <dc:format>image/svg+xml</dc:format>
        <dc:type
           rdf:resource="http://purl.org/dc/dcmitype/StillImage" />
      </cc:Work>
    </rdf:RDF>
  </metadata>
  <defs
     id="defs14" />
  <sodipodi:namedview
     pagecolor="#ffffff"
     bordercolor="#666666"
     borderopacity="1"
     objecttolerance="10"
     gridtolerance="10"
     guidetolerance="10"
     inkscape:pageopacity="0"
     inkscape:pageshadow="2"
     inkscape:window-width="1280"
     inkscape:window-height="726"
     id="namedview12"
     showgrid="false"
     inkscape:zoom="21.957386"
     inkscape:cx="12.292268"
     inkscape:cy="11"
     inkscape:window-x="0"
     inkscape:window-y="26"
     inkscape:window-maximized="1"
     inkscape:current-layer="svg2" />
  <g
     id="g4144"
     style="fill:#ffffff;fill-opacity:1">
    <path
       id="path4"
       style="fill:#ffffff;fill-opacity:1;stroke:none;fill-rule:evenodd"
       d="m 1.411 3.104 0.847 -0.847 0 0.564 1.693 0 0 -0.564 0.847 0.847 -0.847 0.847 0 -0.564 -1.693 0 0 0.564 z" />
    <rect
       id="rect6"
       style="fill:#ffffff;opacity:1;fill-opacity:1;stroke:none;fill-rule:nonzero"
       transform="matrix(0.70710678,0.70710678,-0.70710678,0.70710678,0,0)"
       y="-0.282"
       x="5.842"
       height="0.564"
       width="2.258" />
    <rect
       id="rect8"
       style="fill:#ffffff;opacity:1;fill-opacity:1;stroke:none;fill-rule:nonzero"
       transform="matrix(-0.70710678,0.70710678,-0.70710678,-0.70710678,0,0)"
       width="2.258"
       height="0.564"
       x="-1.129"
       y="-7.253" />
    <path
       id="path10"
       style="visibility:visible;shape-rendering:auto;color-interpolation-filters:linearRGB;fill:#ffffff;opacity:1;image-rendering:auto;fill-opacity:1;stroke:none;display:inline;color:#000;fill-rule:nonzero;color-rendering:auto;color-interpolation:sRGB"
       solid-color="#000000"
       solid-opacity="1"
       white-space="normal"
       isolation="auto"
       mix-blend-mode="normal"
       transform="scale(0.28222222,0.28222222)"
       d="m 10.996 2 c -4.959 0 -8.996 4.04 -8.996 8.996 c 0 4.959 4.04 9 8.996 9 c 0.389 0 0.772 -0.028 1.148 -0.076 l -0.336 -0.334 l 2.125 -2.125 l -0.078 -0.076 c -0.873 0.39 -1.839 0.611 -2.859 0.611 c -3.878 0 -6.996 -3.126 -6.996 -7 c 0 -3.878 3.118 -6.996 6.996 -6.996 c 3.878 0 7 3.118 7 6.996 c 0 1.02 -0.222 1.986 -0.611 2.859 l 0.076 0.078 l 2.125 -2.125 l 0.334 0.334 c 0.048 -0.376 0.076 -0.758 0.076 -1.146 c 0 -4.959 -4.045 -8.996 -9 -8.996 z" />
  </g>
</svg>
