<?xml version="1.0" encoding="UTF-8" standalone="no"?>
<svg
   xmlns:dc="http://purl.org/dc/elements/1.1/"
   xmlns:cc="http://creativecommons.org/ns#"
   xmlns:rdf="http://www.w3.org/1999/02/22-rdf-syntax-ns#"
   xmlns:svg="http://www.w3.org/2000/svg"
   xmlns="http://www.w3.org/2000/svg"
   xmlns:sodipodi="http://sodipodi.sourceforge.net/DTD/sodipodi-0.dtd"
   xmlns:inkscape="http://www.inkscape.org/namespaces/inkscape"
   width="22"
   viewBox="0 0 6.208889 6.208889"
   height="22"
   id="svg2"
   version="1.1"
   inkscape:version="0.91 r13725"
   sodipodi:docname="teamviewer-indicator-away.svg">
  <metadata
     id="metadata16">
    <rdf:RDF>
      <cc:Work
         rdf:about="">
        <dc:format>image/svg+xml</dc:format>
        <dc:type
           rdf:resource="http://purl.org/dc/dcmitype/StillImage" />
      </cc:Work>
    </rdf:RDF>
  </metadata>
  <defs
     id="defs14" />
  <sodipodi:namedview
     pagecolor="#ffffff"
     bordercolor="#666666"
     borderopacity="1"
     objecttolerance="10"
     gridtolerance="10"
     guidetolerance="10"
     inkscape:pageopacity="0"
     inkscape:pageshadow="2"
     inkscape:window-width="802"
     inkscape:window-height="480"
     id="namedview12"
     showgrid="false"
     inkscape:zoom="10.727273"
     inkscape:cx="11"
     inkscape:cy="11"
     inkscape:window-x="0"
     inkscape:window-y="26"
     inkscape:window-maximized="0"
     inkscape:current-layer="svg2" />
  <path
     d="m 1.411 3.104 0.847 -0.847 0 0.564 1.693 0 0 -0.564 0.847 0.847 -0.847 0.847 0 -0.564 -1.693 0 0 0.564 z"
     style="fill:#ffffff;fill-opacity:1;stroke:none;fill-rule:evenodd"
     id="path4" />
  <g
     transform="matrix(0.28222222,0,0,0.28222222,-3.7701383,-2.3834898)"
     id="g6"
     style="fill:#ffffff;fill-opacity:1">
    <path
       d="m 30.565 21.238 1.414 1.414 -1.793 1.793 5.172 0 0 2 -5.172 0 1.793 1.793 -1.414 1.414 -4.207 -4.207 z"
       style="fill:#ffffff;opacity:1;fill-opacity:1;stroke:none;fill-rule:nonzero"
       id="path8" />
  </g>
  <path
     d="m 10.996 2 c -4.959 0 -8.996 4.04 -8.996 8.996 c 0 4.959 4.04 9 8.996 9 c 0.873 0 1.716 -0.132 2.516 -0.365 l -1.686 -1.688 c -0.272 0.032 -0.549 0.053 -0.83 0.053 c -3.878 0 -6.996 -3.126 -6.996 -7 c 0 -3.878 3.118 -6.996 6.996 -6.996 c 3.878 0 7 3.118 7 6.996 c 0 0.151 -0.012 0.299 -0.021 0.447 l 1.74 1.74 c 0.177 -0.702 0.281 -1.432 0.281 -2.188 c 0 -4.959 -4.045 -8.996 -9 -8.996 z"
     transform="scale(0.28222222,0.28222222)"
     mix-blend-mode="normal"
     isolation="auto"
     white-space="normal"
     solid-opacity="1"
     solid-color="#000000"
     style="visibility:visible;shape-rendering:auto;color-interpolation-filters:linearRGB;fill:#ffffff;opacity:1;image-rendering:auto;fill-opacity:1;stroke:none;display:inline;color:#000;fill-rule:nonzero;color-rendering:auto;color-interpolation:sRGB"
     id="path10" />
</svg>
