<?xml version="1.0" encoding="UTF-8" standalone="no"?>
<!-- Created with Inkscape (http://www.inkscape.org/) -->

<svg
   xmlns:dc="http://purl.org/dc/elements/1.1/"
   xmlns:cc="http://creativecommons.org/ns#"
   xmlns:rdf="http://www.w3.org/1999/02/22-rdf-syntax-ns#"
   xmlns:svg="http://www.w3.org/2000/svg"
   xmlns="http://www.w3.org/2000/svg"
   xmlns:sodipodi="http://sodipodi.sourceforge.net/DTD/sodipodi-0.dtd"
   xmlns:inkscape="http://www.inkscape.org/namespaces/inkscape"
   width="68.26667"
   height="68.26667"
   viewBox="0 0 64 64"
   id="svg4178"
   version="1.1"
   inkscape:version="0.92.1 r"
   sodipodi:docname="asc-de.svg">
  <defs
     id="defs4180" />
  <sodipodi:namedview
     id="base"
     pagecolor="#ffffff"
     bordercolor="#666666"
     borderopacity="1.0"
     inkscape:pageopacity="0.0"
     inkscape:pageshadow="2"
     inkscape:zoom="0.72482301"
     inkscape:cx="-271.42437"
     inkscape:cy="-1.4088208"
     inkscape:document-units="px"
     inkscape:current-layer="layer1"
     showgrid="false"
     units="px"
     inkscape:window-width="1280"
     inkscape:window-height="726"
     inkscape:window-x="0"
     inkscape:window-y="26"
     inkscape:window-maximized="1" />
  <metadata
     id="metadata4183">
    <rdf:RDF>
      <cc:Work
         rdf:about="">
        <dc:format>image/svg+xml</dc:format>
        <dc:type
           rdf:resource="http://purl.org/dc/dcmitype/StillImage" />
        <dc:title></dc:title>
      </cc:Work>
    </rdf:RDF>
  </metadata>
  <g
     inkscape:label="Layer 1"
     inkscape:groupmode="layer"
     id="layer1"
     transform="translate(0,-988.3622)">
    <circle
       style="opacity:1;fill:#31363b;fill-opacity:1;stroke:none;stroke-width:1.24300003;stroke-miterlimit:4;stroke-dasharray:none;stroke-opacity:1"
       id="path4746"
       cx="32"
       cy="1020.3622"
       r="32" />
    <path
       inkscape:connector-curvature="0"
       style="opacity:1;fill:#ffffff;fill-opacity:1;stroke:none;stroke-width:1.24300003;stroke-miterlimit:4;stroke-dasharray:none;stroke-opacity:1"
       d="m 31.999999,989.36223 a 31,31 0 0 0 -30.99999956,31.00007 31,31 0 0 0 30.99999956,31 31,31 0 0 0 31,-31 31,31 0 0 0 -31,-31.00007 z m 0,2.69565 a 28.304348,28.304348 0 0 1 28.304348,28.30442 28.304348,28.304348 0 0 1 -28.304348,28.3043 28.304348,28.304348 0 0 1 -28.3043474,-28.3043 28.304348,28.304348 0 0 1 28.3043474,-28.30442 z"
       id="path4145-3" />
    <path
       style="fill:none;stroke:#ffffff;stroke-width:1.61812492;stroke-opacity:1;stroke-miterlimit:4;stroke-dasharray:none"
       d="m 30.446794,1034.1407 c -0.227534,-0.086 -3.259348,-1.3215 -6.737365,-2.7452 -6.778515,-2.7749 -7.091963,-2.9384 -7.091963,-3.7003 0,-0.8131 0.561703,-1.1293 5.496271,-3.0943 0.845126,-0.3366 1.550971,-0.626 1.568544,-0.6432 0.01757,-0.017 -1.432823,-0.6308 -3.223104,-1.3637 -3.455775,-1.4147 -3.841711,-1.6518 -3.841711,-2.3594 0,-0.4034 0.367359,-0.8913 0.867382,-1.152 0.205541,-0.1071 1.703454,-0.7415 3.328696,-1.4097 l 2.954985,-1.2149 -0.472798,-0.1976 c -0.260039,-0.1087 -1.690175,-0.6953 -3.178082,-1.3036 -2.987191,-1.2211 -3.223492,-1.3451 -3.387259,-1.7758 -0.176671,-0.4646 -0.136019,-0.7088 0.180685,-1.0852 0.422997,-0.5027 0.987086,-0.7506 10.580734,-4.6496 l 3.014085,-1.225 h 1.122894 1.122894 l 5.496271,2.2761 c 3.02295,1.2519 6.015164,2.4937 6.649365,2.7594 1.654875,0.6935 2.140739,1.4063 1.476843,2.1665 -0.221048,0.2531 -3.466549,1.668 -6.766915,2.9501 -0.233881,0.091 -0.233774,0.093 0.01,0.1871 2.514627,0.9728 6.496623,2.6916 6.72409,2.9024 0.409187,0.3792 0.414567,1.0858 0.01134,1.489 -0.219549,0.2196 -5.374603,2.4341 -6.922705,2.9739 -0.125437,0.044 -0.131134,0.065 -0.01948,0.071 0.417987,0.025 6.611231,2.6592 6.904592,2.9371 0.38705,0.3666 0.442355,1.039 0.1182,1.4371 -0.122669,0.1506 -1.265111,0.6887 -2.807236,1.3221 -11.798249,4.8465 -10.923071,4.5108 -11.879038,4.5572 -0.551476,0.026 -1.042838,-0.016 -1.300193,-0.1136 z m 2.07228,-7.9266 c 0.322963,-0.09 3.137984,-1.2082 6.255601,-2.4855 3.117617,-1.2772 5.739973,-2.2949 5.827459,-2.2613 0.08749,0.034 0.130051,0.014 0.09459,-0.043 -0.05536,-0.09 0.157056,-0.2002 1.105829,-0.5761 0.115723,-0.046 0.137376,-0.018 0.07039,0.09 -0.06486,0.1049 -0.05113,0.1283 0.04164,0.071 0.07612,-0.047 0.110156,-0.1312 0.07565,-0.187 -0.03451,-0.056 0.04441,-0.1355 0.175371,-0.1772 0.32967,-0.1046 0.313901,-0.657 -0.02783,-0.9751 -0.146272,-0.1361 -1.781856,-0.8688 -3.634631,-1.6281 -1.852776,-0.7594 -3.389561,-1.4006 -3.415076,-1.4251 -0.02552,-0.024 0.02089,-0.1254 0.103122,-0.2245 0.185562,-0.2236 0.131092,-0.2256 -0.304518,-0.011 -0.188764,0.093 -1.646356,0.7178 -3.239093,1.3888 l -2.895885,1.22 h -1.122894 -1.122894 l -3.073184,-1.2834 c -1.690252,-0.7059 -3.123715,-1.3309 -3.185474,-1.3888 -0.188378,-0.1769 -0.340206,-0.1173 -0.183219,0.072 0.123665,0.149 0.08355,0.2038 -0.251475,0.3432 -0.219237,0.091 -1.636376,0.6757 -3.1492,1.2985 -1.512823,0.6229 -2.908552,1.2141 -3.101621,1.314 -0.706449,0.3653 -0.853388,1.1009 -0.311281,1.5583 l 0.253521,0.214 -0.236398,-0.279 -0.2364,-0.279 0.413699,0.2395 c 0.416377,0.241 12.974661,5.3821 13.41563,5.492 0.455786,0.1136 1.076659,0.085 1.658582,-0.077 z m 0,-7.4471 c 0.322963,-0.09 2.417118,-0.9144 4.653678,-1.8321 2.236559,-0.9176 4.098199,-1.6676 4.136978,-1.6666 0.03878,0 -0.0093,0.054 -0.106792,0.1164 -0.09752,0.063 -0.124109,0.1146 -0.0591,0.1146 0.158089,0 0.50564,-0.2282 0.354598,-0.2328 -0.151043,-0.01 0.196509,-0.2328 0.354597,-0.2328 0.06501,0 0.03842,0.051 -0.0591,0.1146 -0.243679,0.1575 -0.07497,0.1473 0.286231,-0.017 0.163544,-0.074 0.263701,-0.1899 0.22257,-0.2565 -0.04536,-0.073 0.0026,-0.091 0.121906,-0.046 0.25734,0.099 0.571586,-0.025 0.472118,-0.186 -0.0488,-0.079 -0.0045,-0.098 0.118879,-0.051 0.232468,0.089 0.57539,-0.019 0.491346,-0.1549 -0.03222,-0.052 0.05618,-0.065 0.19646,-0.028 0.190006,0.05 0.230603,0.027 0.159199,-0.088 -0.06303,-0.102 -0.04974,-0.1266 0.03883,-0.072 0.15422,0.095 1.959326,-0.6559 2.285555,-0.9511 0.300456,-0.2719 0.272958,-0.7897 -0.0589,-1.1091 -0.237502,-0.2286 -11.929287,-5.1261 -13.435549,-5.6279 -1.15878,-0.3861 -1.557185,-0.2722 -7.62386,2.1794 -7.279777,2.9418 -7.507935,3.0418 -7.88981,3.4573 -0.394621,0.4292 -0.409857,0.7146 -0.0591,1.1068 0.297044,0.3322 2.042508,1.0643 2.242576,0.9406 0.07362,-0.046 0.09465,-0.025 0.04931,0.048 -0.09573,0.1548 0.339257,0.3129 0.532556,0.1934 0.08068,-0.05 0.105826,-0.034 0.06084,0.039 -0.09856,0.1595 0.217286,0.2823 0.473246,0.1841 0.123344,-0.047 0.167674,-0.028 0.118878,0.051 -0.09947,0.161 0.214777,0.2848 0.472119,0.186 0.132251,-0.051 0.16869,-0.03 0.111223,0.063 -0.04775,0.077 -0.01718,0.1461 0.06926,0.1558 0.0851,0.01 0.234509,0.028 0.332024,0.042 0.09751,0.013 0.246926,0.032 0.332024,0.042 0.0851,0.01 0.121852,0.071 0.08167,0.1357 -0.04018,0.065 -0.04767,0.1182 -0.01665,0.1182 0.03102,0 0.15384,0.032 0.272924,0.07 0.180071,0.058 0.186672,0.049 0.03922,-0.057 -0.09751,-0.07 -0.12411,-0.1276 -0.0591,-0.1276 0.158089,0 0.505641,0.2281 0.354599,0.2328 -0.151043,0.01 0.196508,0.2328 0.354598,0.2328 0.06501,0 0.03841,-0.051 -0.0591,-0.1146 -0.297925,-0.1925 0.03099,-0.1142 0.531897,0.1267 0.285065,0.1371 0.355465,0.2017 0.177299,0.1629 -0.251552,-0.055 -0.264597,-0.045 -0.08771,0.066 0.114281,0.072 0.262705,0.096 0.32983,0.055 0.06712,-0.042 1.595908,0.5233 3.397296,1.255 4.093055,1.6627 4.15469,1.6786 5.288432,1.3626 z m 7.50187,-2.7913 c 0.09752,-0.063 0.12411,-0.1146 0.0591,-0.1146 -0.06501,0 -0.197984,0.052 -0.295498,0.1146 -0.09752,0.063 -0.12411,0.1146 -0.0591,0.1146 0.06501,0 0.197984,-0.052 0.295498,-0.1146 z m 0.590997,-0.2364 c 0.09752,-0.063 0.124109,-0.1146 0.0591,-0.1146 -0.06501,0 -0.197984,0.051 -0.295499,0.1146 -0.09751,0.063 -0.124109,0.1145 -0.0591,0.1145 0.06501,0 0.197984,-0.051 0.295499,-0.1145 z"
       id="path1036"
       inkscape:connector-curvature="0"
       sodipodi:nodetypes="ccscccsccccccccccccccccccccccccccccccccccccccccscccccccccccccccccccccscsccccccccccccccccccccccccccccsccscscccccccccscsccscsc" />
  </g>
</svg>
