<?xml version="1.0" encoding="UTF-8" standalone="no"?>
<!-- Created with Inkscape (http://www.inkscape.org/) -->

<svg
   xmlns:dc="http://purl.org/dc/elements/1.1/"
   xmlns:cc="http://creativecommons.org/ns#"
   xmlns:rdf="http://www.w3.org/1999/02/22-rdf-syntax-ns#"
   xmlns:svg="http://www.w3.org/2000/svg"
   xmlns="http://www.w3.org/2000/svg"
   xmlns:sodipodi="http://sodipodi.sourceforge.net/DTD/sodipodi-0.dtd"
   xmlns:inkscape="http://www.inkscape.org/namespaces/inkscape"
   width="64"
   height="64"
   viewBox="0 0 64 64"
   id="svg4178"
   version="1.1"
   inkscape:version="0.91 r13725"
   sodipodi:docname="calligraauthor.svg">
  <defs
     id="defs4180" />
  <sodipodi:namedview
     id="base"
     pagecolor="#ffffff"
     bordercolor="#666666"
     borderopacity="1.0"
     inkscape:pageopacity="0.0"
     inkscape:pageshadow="2"
     inkscape:zoom="5.8891869"
     inkscape:cx="33.233499"
     inkscape:cy="23.898013"
     inkscape:document-units="px"
     inkscape:current-layer="layer1"
     showgrid="false"
     units="px"
     inkscape:window-width="1280"
     inkscape:window-height="722"
     inkscape:window-x="0"
     inkscape:window-y="28"
     inkscape:window-maximized="1" />
  <metadata
     id="metadata4183">
    <rdf:RDF>
      <cc:Work
         rdf:about="">
        <dc:format>image/svg+xml</dc:format>
        <dc:type
           rdf:resource="http://purl.org/dc/dcmitype/StillImage" />
        <dc:title></dc:title>
      </cc:Work>
    </rdf:RDF>
  </metadata>
  <g
     inkscape:label="Layer 1"
     inkscape:groupmode="layer"
     id="layer1"
     transform="translate(0,-988.3622)">
    <circle
       style="opacity:1;fill:#31363b;fill-opacity:1;stroke:none;stroke-width:1.24300003;stroke-miterlimit:4;stroke-dasharray:none;stroke-opacity:1"
       id="path4746"
       cx="32"
       cy="1020.3622"
       r="32" />
    <path
       inkscape:connector-curvature="0"
       style="opacity:1;fill:#ffffff;fill-opacity:1;stroke:none;stroke-width:1.24300003;stroke-miterlimit:4;stroke-dasharray:none;stroke-opacity:1"
       d="m 31.999999,989.36223 a 31,31 0 0 0 -30.99999956,31.00007 31,31 0 0 0 30.99999956,31 31,31 0 0 0 31,-31 31,31 0 0 0 -31,-31.00007 z m 0,2.69565 a 28.304348,28.304348 0 0 1 28.304348,28.30442 28.304348,28.304348 0 0 1 -28.304348,28.3043 28.304348,28.304348 0 0 1 -28.3043474,-28.3043 28.304348,28.304348 0 0 1 28.3043474,-28.30442 z"
       id="path4145-3" />
    <path
       style="fill:#ffffff;fill-opacity:1;fill-rule:evenodd"
       d="m 44.951478,999.50805 0,0.004 0.002,0 -0.002,-0.004 z m 0,0.004 -2.328125,1.14265 c -2.332,1.144 -4.794922,3.75 -4.794922,3.75 l 0.367187,2.9453 c -0.138,0.201 -0.283687,0.4149 -0.429687,0.6289 l -1.035156,-1.8575 -1.685547,2.0977 1.142578,1.959 c 4.439758,-6.0243 8.753225,-10.65097 8.763672,-10.66214 l 0,-0.004 z m 0,0.008 c -0.0017,0.002 -1.814292,2.33125 -3.925782,5.13285 l 3.716797,-2.1738 c 0,0 0.04767,-0.5856 0.138672,-1.3496 0.09097,-0.7555 0.07074,-1.59066 0.07031,-1.60945 z m -0.390625,3.63285 -4.169922,2.3477 c -0.760712,1.0161 -1.466036,1.9781 -2.207031,3.0019 0.456412,-0.2027 1.108265,-0.4823 1.728515,-0.6758 0.939,-0.292 3.800781,-0.6972 3.800781,-0.6972 0,0 0.02252,-0.4034 0.228516,-1.2344 0.206,-0.832 0.619141,-2.7422 0.619141,-2.7422 z m -9.839844,5.4492 c 0,0 -0.970219,1.1414 -3.949219,5.4004 -2.979,4.259 -5.441406,9.2168 -5.441406,9.2168 l 0.105469,3.0801 c 3.450388,-5.6733 6.891629,-10.8239 10.296875,-15.5117 0.140497,-0.1935 0.279519,-0.3718 0.419922,-0.5625 l -1.431641,-1.6231 z m 3.212891,0.252 c -0.538259,0.7478 -1.111184,1.5277 -1.570313,2.1972 -2.096197,3.0569 -3.84554,5.7572 -5.458984,8.3086 l 7.636719,-1.1953 c 0,0 0.552531,-1.0484 1.394531,-2.7324 0.842,-1.684 3.019531,-5.9238 3.019531,-5.9238 0,0 -1.461578,-0.042 -2.767578,-0.2207 -1.03686,-0.1432 -1.886658,-0.3437 -2.253906,-0.4336 z m -7.746094,11.6543 c -3.021337,4.8347 -5.364849,8.8996 -7.296875,12.248 -0.03824,0.066 -0.06018,0.1064 -0.0918,0.1621 l -1.074216,-0.2851 c -4.052,7.104 -2.585937,7.0507 -2.585937,7.0507 0,0 0.463098,-1.1851 3.667968,-6.7421 0.749204,-0.2239 1.652344,-0.6973 1.652344,-0.6973 l 0.128906,-0.8555 1.97461,-0.6367 -2.199219,-0.4375 c 0.053,-0.089 0.117875,-0.1971 0.171875,-0.2871 0.263,0.081 0.573297,0.1733 1.154297,0.2793 1.393,0.254 2.330078,-0.2539 2.330078,-0.2539 l 1,-1.2735 c 0,0 -0.777344,0.5413 -1.652344,0.6993 -0.861,0.157 -2.32514,-0.2039 -2.36914,-0.2149 0.077,-0.127 0.159281,-0.2655 0.238281,-0.3945 0.37,-0.094 3.703109,-0.9637 5.662109,-2.3457 2.073,-1.462 6.185547,-5.9746 6.185547,-5.9746 0,0 -0.991906,-0.01 -3.128906,-0.041 -1.893208,-0.028 -3.405122,-0.015 -3.767578,0 z m -5.699219,4.0468 -1.035156,1.7149 -0.259766,1.6543 -0.582031,0.6992 c 0,0 -0.701926,2.6393 -0.787109,3.8027 1.03608,-1.8158 2.070034,-3.5655 3.105468,-5.2832 l -0.441406,-2.5879 z"
       id="path61"
       inkscape:connector-curvature="0" />
  </g>
</svg>
