<?xml version="1.0" encoding="UTF-8" standalone="no"?>
<!-- Created with Inkscape (http://www.inkscape.org/) -->

<svg
   xmlns:dc="http://purl.org/dc/elements/1.1/"
   xmlns:cc="http://creativecommons.org/ns#"
   xmlns:rdf="http://www.w3.org/1999/02/22-rdf-syntax-ns#"
   xmlns:svg="http://www.w3.org/2000/svg"
   xmlns="http://www.w3.org/2000/svg"
   xmlns:sodipodi="http://sodipodi.sourceforge.net/DTD/sodipodi-0.dtd"
   xmlns:inkscape="http://www.inkscape.org/namespaces/inkscape"
   width="64"
   height="64"
   viewBox="0 0 64 64"
   id="svg4178"
   version="1.1"
   inkscape:version="0.91 r13725"
   sodipodi:docname="cups.svg">
  <defs
     id="defs4180" />
  <sodipodi:namedview
     id="base"
     pagecolor="#ffffff"
     bordercolor="#666666"
     borderopacity="1.0"
     inkscape:pageopacity="0.0"
     inkscape:pageshadow="2"
     inkscape:zoom="3.0251982"
     inkscape:cx="-64.661594"
     inkscape:cy="-6.4316006"
     inkscape:document-units="px"
     inkscape:current-layer="layer1"
     showgrid="false"
     units="px"
     inkscape:window-width="1280"
     inkscape:window-height="726"
     inkscape:window-x="0"
     inkscape:window-y="26"
     inkscape:window-maximized="1" />
  <metadata
     id="metadata4183">
    <rdf:RDF>
      <cc:Work
         rdf:about="">
        <dc:format>image/svg+xml</dc:format>
        <dc:type
           rdf:resource="http://purl.org/dc/dcmitype/StillImage" />
        <dc:title />
      </cc:Work>
    </rdf:RDF>
  </metadata>
  <g
     inkscape:label="Layer 1"
     inkscape:groupmode="layer"
     id="layer1"
     transform="translate(0,-988.3622)">
    <circle
       style="opacity:1;fill:#31363b;fill-opacity:1;stroke:none;stroke-width:1.24300003;stroke-miterlimit:4;stroke-dasharray:none;stroke-opacity:1"
       id="path4746"
       cx="32"
       cy="1020.3622"
       r="32" />
    <path
       inkscape:connector-curvature="0"
       style="opacity:1;fill:#ffffff;fill-opacity:1;stroke:none;stroke-width:1.24300003;stroke-miterlimit:4;stroke-dasharray:none;stroke-opacity:1"
       d="m 31.999999,989.36223 a 31,31 0 0 0 -30.99999956,31.00007 31,31 0 0 0 30.99999956,31 31,31 0 0 0 31,-31 31,31 0 0 0 -31,-31.00007 z m 0,2.69565 a 28.304348,28.304348 0 0 1 28.304348,28.30442 28.304348,28.304348 0 0 1 -28.304348,28.3043 28.304348,28.304348 0 0 1 -28.3043474,-28.3043 28.304348,28.304348 0 0 1 28.3043474,-28.30442 z"
       id="path4145-3" />
    <path
       inkscape:connector-curvature="0"
       style="opacity:1;fill:none;fill-opacity:1;stroke:#ffffff;stroke-width:1.048;stroke-linecap:round;stroke-linejoin:miter;stroke-miterlimit:4;stroke-dasharray:none;stroke-opacity:1"
       d="m 22.20717,1005.5994 0,6.5726 -1.460596,0 0,4.3818 21.908936,0 0,-4.3818 -1.460596,0 0,-6.5726 -9.493873,0 -9.493871,0 z"
       id="rect4263" />
    <path
       style="opacity:1;fill:none;fill-opacity:1;stroke:#ffffff;stroke-width:1.048;stroke-linecap:round;stroke-linejoin:miter;stroke-miterlimit:4;stroke-dasharray:none;stroke-opacity:1"
       d="m 12.66932,1016.5871 0,1.4605 0,10.2242 c 0,0.4047 0.325735,0.7304 0.730299,0.7304 l 37.975488,0 c 0.404562,0 0.730297,-0.3257 0.730297,-0.7304 l 0,-10.2242 0,-0.7302 0,-0.7303 -0.730297,0 -1.460597,0 -35.054296,0 z"
       id="rect4185"
       inkscape:connector-curvature="0"
       sodipodi:nodetypes="ccssssccccccc" />
    <path
       inkscape:connector-curvature="0"
       style="opacity:1;fill:none;fill-opacity:1;stroke:#ffffff;stroke-width:1.048;stroke-linecap:round;stroke-linejoin:miter;stroke-miterlimit:4;stroke-dasharray:none;stroke-opacity:1"
       d="m 19.697772,1029.0267 -1.460596,3.8955 0,1.9469 13.875658,0 13.875659,0 0,-1.9469 -1.460595,-3.8955 -12.415064,0 -12.415062,0 z"
       id="rect4201" />
    <rect
       style="opacity:1;fill:none;fill-opacity:1;stroke:#ffffff;stroke-width:1.048;stroke-linecap:round;stroke-linejoin:miter;stroke-miterlimit:4;stroke-dasharray:none;stroke-opacity:1"
       id="rect4342"
       width="20.448339"
       height="4.3817868"
       x="21.888664"
       y="1024.5765" />
    <path
       sodipodi:nodetypes="cccccccssscccc"
       inkscape:connector-curvature="0"
       id="rect4249"
       d="m 36.769164,1031.9217 c -0.449108,0 -0.876202,-0.1353 -1.172688,-0.3728 -0.327704,-0.027 -0.616805,-0.1637 -0.77939,-0.3656 -0.04457,0.012 -0.08949,0.014 -0.1345,0.014 -0.576182,0 -1.043273,-0.3279 -1.043273,-0.7317 4.51e-4,-0.034 0.0037,-0.064 0.01021,-0.095 -0.328049,-0.1291 -0.531291,-0.3724 -0.531839,-0.6358 0,-0.404 0.467092,-0.7318 1.043274,-0.7318 l 4.694786,0 c 0.864281,0 1.564919,0.4913 1.564919,1.0972 0,0.6057 -0.700638,1.0976 -1.564919,1.0976 -0.04565,-3e-4 -0.09114,-0.012 -0.136529,-0.012 -0.162867,0.2003 -0.451435,0.3354 -0.778389,0.3639 -0.296428,0.2367 -0.723067,0.3713 -1.171653,0.3724 z"
       style="opacity:1;fill:none;fill-opacity:1;stroke:#ffffff;stroke-width:1.048;stroke-miterlimit:4;stroke-dasharray:none;stroke-opacity:1" />
  </g>
</svg>
