<?xml version="1.0" encoding="UTF-8" standalone="no"?>
<!-- Created with Inkscape (http://www.inkscape.org/) -->

<svg
   xmlns:dc="http://purl.org/dc/elements/1.1/"
   xmlns:cc="http://creativecommons.org/ns#"
   xmlns:rdf="http://www.w3.org/1999/02/22-rdf-syntax-ns#"
   xmlns:svg="http://www.w3.org/2000/svg"
   xmlns="http://www.w3.org/2000/svg"
   xmlns:sodipodi="http://sodipodi.sourceforge.net/DTD/sodipodi-0.dtd"
   xmlns:inkscape="http://www.inkscape.org/namespaces/inkscape"
   width="64"
   height="64"
   viewBox="0 0 64 64"
   id="svg4178"
   version="1.1"
   inkscape:version="0.91 r13725"
   sodipodi:docname="FBReader.svg">
  <defs
     id="defs4180" />
  <sodipodi:namedview
     id="base"
     pagecolor="#ffffff"
     bordercolor="#666666"
     borderopacity="1.0"
     inkscape:pageopacity="0.0"
     inkscape:pageshadow="2"
     inkscape:zoom="2.0901502"
     inkscape:cx="-0.93459378"
     inkscape:cy="-51.02443"
     inkscape:document-units="px"
     inkscape:current-layer="layer1"
     showgrid="false"
     units="px"
     inkscape:window-width="1280"
     inkscape:window-height="724"
     inkscape:window-x="0"
     inkscape:window-y="26"
     inkscape:window-maximized="1" />
  <metadata
     id="metadata4183">
    <rdf:RDF>
      <cc:Work
         rdf:about="">
        <dc:format>image/svg+xml</dc:format>
        <dc:type
           rdf:resource="http://purl.org/dc/dcmitype/StillImage" />
        <dc:title></dc:title>
      </cc:Work>
    </rdf:RDF>
  </metadata>
  <g
     inkscape:label="Layer 1"
     inkscape:groupmode="layer"
     id="layer1"
     transform="translate(0,-988.3622)">
    <circle
       style="opacity:1;fill:#31363b;fill-opacity:1;stroke:none;stroke-width:1.24300003;stroke-miterlimit:4;stroke-dasharray:none;stroke-opacity:1"
       id="path4746"
       cx="32"
       cy="1020.3622"
       r="32" />
    <path
       inkscape:connector-curvature="0"
       style="opacity:1;fill:#ffffff;fill-opacity:1;stroke:none;stroke-width:1.24300003;stroke-miterlimit:4;stroke-dasharray:none;stroke-opacity:1"
       d="m 31.999999,989.36223 a 31,31 0 0 0 -30.99999956,31.00007 31,31 0 0 0 30.99999956,31 31,31 0 0 0 31,-31 31,31 0 0 0 -31,-31.00007 z m 0,2.69565 a 28.304348,28.304348 0 0 1 28.304348,28.30442 28.304348,28.304348 0 0 1 -28.304348,28.3043 28.304348,28.304348 0 0 1 -28.3043474,-28.3043 28.304348,28.304348 0 0 1 28.3043474,-28.30442 z"
       id="path4145-3" />
    <path
       style="color:#f2f2f2;fill:none;fill-opacity:1;stroke:#ffffff;stroke-width:1.41;stroke-opacity:1;stroke-miterlimit:4;stroke-dasharray:none"
       d="m 25.472997,1004.9487 c -4.543918,0 -6.863208,4.7307 -9.087847,4.7307 -2.224702,0 -2.271958,-1.577 -2.271958,-1.577 l 0,25.2282 c 0,0 -0.09475,1.5771 2.271958,1.5771 2.366633,0 4.543929,-4.7307 9.087847,-4.7307 4.543929,0 6.815889,3.1536 6.815889,3.1536 0,0 2.271972,-3.1536 6.815896,-3.1536 4.543923,0 6.579213,4.7307 9.087851,4.7307 2.508628,0 2.271959,-1.5771 2.271959,-1.5771 l 0,-25.0308 c -0.08431,0.4434 -0.496989,1.3796 -2.271959,1.3796 -2.366632,0 -4.543928,-4.7307 -9.087851,-4.7307 -4.543924,0 -6.815896,3.1537 -6.815896,3.1537 0,0 -2.27196,-3.1537 -6.815889,-3.1537 z"
       class="ColorScheme-Text"
       id="path6"
       inkscape:connector-curvature="0"
       sodipodi:nodetypes="ssccsscssccsscs" />
    <path
       inkscape:connector-curvature="0"
       style="display:inline;opacity:1;fill:none;fill-opacity:1;stroke:#ffffff;stroke-width:0.77652127;stroke-miterlimit:4;stroke-dasharray:none;stroke-opacity:1"
       d="m 36.343201,1005.1562 5.010887,0 0,10.6938 -2.505444,-2.6714 -2.505443,2.6714 z"
       id="rect4166-5"
       sodipodi:nodetypes="cccccc" />
  </g>
</svg>
