<?xml version="1.0" encoding="UTF-8" standalone="no"?>
<!-- Created with Inkscape (http://www.inkscape.org/) -->

<svg
   xmlns:dc="http://purl.org/dc/elements/1.1/"
   xmlns:cc="http://creativecommons.org/ns#"
   xmlns:rdf="http://www.w3.org/1999/02/22-rdf-syntax-ns#"
   xmlns:svg="http://www.w3.org/2000/svg"
   xmlns="http://www.w3.org/2000/svg"
   xmlns:sodipodi="http://sodipodi.sourceforge.net/DTD/sodipodi-0.dtd"
   xmlns:inkscape="http://www.inkscape.org/namespaces/inkscape"
   width="64"
   height="64"
   viewBox="0 0 64 64"
   id="svg4178"
   version="1.1"
   inkscape:version="0.91 r13725"
   sodipodi:docname="kleopatra.svg">
  <defs
     id="defs4180" />
  <sodipodi:namedview
     id="base"
     pagecolor="#ffffff"
     bordercolor="#666666"
     borderopacity="1.0"
     inkscape:pageopacity="0.0"
     inkscape:pageshadow="2"
     inkscape:zoom="1.4779594"
     inkscape:cx="47.490883"
     inkscape:cy="-67.250486"
     inkscape:document-units="px"
     inkscape:current-layer="layer1"
     showgrid="false"
     units="px"
     inkscape:window-width="1280"
     inkscape:window-height="724"
     inkscape:window-x="0"
     inkscape:window-y="26"
     inkscape:window-maximized="1" />
  <metadata
     id="metadata4183">
    <rdf:RDF>
      <cc:Work
         rdf:about="">
        <dc:format>image/svg+xml</dc:format>
        <dc:type
           rdf:resource="http://purl.org/dc/dcmitype/StillImage" />
        <dc:title></dc:title>
      </cc:Work>
    </rdf:RDF>
  </metadata>
  <g
     inkscape:label="Layer 1"
     inkscape:groupmode="layer"
     id="layer1"
     transform="translate(0,-988.3622)">
    <circle
       style="opacity:1;fill:#31363b;fill-opacity:1;stroke:none;stroke-width:1.24300003;stroke-miterlimit:4;stroke-dasharray:none;stroke-opacity:1"
       id="path4746"
       cx="32"
       cy="1020.3622"
       r="32" />
    <path
       inkscape:connector-curvature="0"
       style="opacity:1;fill:#ffffff;fill-opacity:1;stroke:none;stroke-width:1.24300003;stroke-miterlimit:4;stroke-dasharray:none;stroke-opacity:1"
       d="m 31.999999,989.36223 a 31,31 0 0 0 -30.99999956,31.00007 31,31 0 0 0 30.99999956,31 31,31 0 0 0 31,-31 31,31 0 0 0 -31,-31.00007 z m 0,2.69565 a 28.304348,28.304348 0 0 1 28.304348,28.30442 28.304348,28.304348 0 0 1 -28.304348,28.3043 28.304348,28.304348 0 0 1 -28.3043474,-28.3043 28.304348,28.304348 0 0 1 28.3043474,-28.30442 z"
       id="path4145-3" />
    <path
       sodipodi:nodetypes="ssssssssssssscccsssssssscsssssccccsscssssssssssscsssssssssssscsssscss"
       inkscape:connector-curvature="0"
       id="path4719"
       d="m 47.586338,1034.3494 c 0.983135,-1.8381 3.02735,-2.0357 3.026065,-4.2092 -6.9e-4,-1.676 -0.466122,-2.583 -1.600813,-3.1215 -2.085998,-0.9898 -4.116101,0.1848 -4.116101,2.3816 0,2.1563 2.055603,3.3524 3.418657,1.9893 0.568583,-0.5686 0.705862,-1.5224 0.302091,-2.0992 -0.179201,-0.2559 -0.198634,-0.2154 -0.08672,0.1809 0.386174,1.3674 -0.666291,2.3134 -1.87721,1.6872 -1.265512,-0.6545 -1.025487,-2.7565 0.354295,-3.1027 0.681546,-0.171 1.591434,0.4265 2.0383,1.3386 0.240815,0.4916 0.249405,0.7863 0.04296,1.4752 -0.677113,2.26 -3.720334,2.2753 -8.299871,0.041 -1.110056,-0.5415 -2.598026,-1.3592 -3.306591,-1.8172 -1.221236,-0.7893 -2.708272,-1.4516 -4.839756,-3.3244 -1.129145,-0.9922 -1.295659,-0.8572 1.649264,-1.3376 0.846665,-0.1387 3.320693,-0.8564 5.49782,-1.5964 3.867775,-1.3145 4.013845,-1.3456 6.377482,-1.3627 1.330474,-0.014 -0.876798,-0.094 1.330579,0 l 4.013408,0.1744 0,-2.1777 0,-2.1777 -4.673156,-0.1231 c -6.681377,-0.1755 -3.425872,-0.4071 -10.322218,-3.0713 -1.316851,-0.5087 -3.147627,-1.1218 -4.068392,-1.3627 -2.177155,-0.5693 -5.474249,-0.7631 -7.126667,-0.4188 -1.905317,0.3971 -4.599152,1.8416 -6.164251,3.3057 -2.425965,2.2694 -5.167011,6.5119 -4.898503,7.5818 0.120919,0.4816 0.246208,0.5134 2.383817,0.6037 1.240905,0.053 3.814829,0.3357 5.719821,0.6292 l 3.463631,0.5339 0,1.4927 c -0.597509,2.7378 -0.171152,4.2152 -0.06483,5.2125 0.398191,3.6085 0.546664,3.9997 1.468519,3.8691 1.424066,-2.3419 1.444847,-6.8291 1.455166,-9.4175 l 1.594363,1.4226 c 3.980983,3.5522 5.15288,3.5012 8.567095,5.1621 3.223431,1.568 6.764661,2.2303 8.741716,1.635 z m -30.292296,-12.6643 c -0.220163,-0.2201 1.138482,-1.9002 2.919216,-3.6098 2.651774,-2.5457 2.641129,-2.5438 2.647311,-0.5016 0.0061,2.0095 0.487941,3.1029 1.875047,4.2552 l 0.907319,0.7536 -4.118607,-0.3928 c -2.265236,-0.2161 -4.168861,-0.4432 -4.230286,-0.5046 z m 14.852877,0.1918 c 0.393168,-0.3101 0.986934,-1.0264 1.31948,-1.592 0.527595,-0.8975 0.604636,-1.2597 0.604636,-2.8429 0,-0.9978 0.06547,-1.8142 0.145545,-1.8142 0.08006,0 1.649126,0.6441 3.486836,1.4312 1.837712,0.787 3.578249,1.4905 3.867861,1.5632 0.289622,0.072 0.526583,0.2084 0.526583,0.3016 0,0.094 -1.113311,0.7222 -2.474021,1.3978 -2.774943,1.3779 -4.850739,1.9527 -7.532015,2.0859 l -0.659742,0.033 z m 20.90933,-10.5825 c 0,-1.2262 -0.147207,-1.343 -1.694085,-1.343 -3.448574,0 -4.306481,-0.5562 -9.496835,-2.8554 -5.559337,-2.4628 -8.927866,-3.3436 -12.787061,-3.3436 -3.777432,0 -7.756928,1.031 -11.845837,3.069 -3.328264,1.6588 -4.751231,3.0284 -3.964236,3.8154 0.277616,0.2776 0.08727,0.3368 4.749192,-1.4797 3.185984,-1.2415 7.102982,-2.2905 9.221236,-2.4695 3.270766,-0.2765 7.167795,0.5826 14.063963,3.1006 2.476432,0.9042 5.323855,1.8536 6.327622,2.11 2.146747,0.5481 2.371729,0.4618 4.161544,0.468 l 1.264497,0 z"
       style="color:#000000;clip-rule:nonzero;display:inline;overflow:visible;visibility:visible;opacity:1;isolation:auto;mix-blend-mode:normal;color-interpolation:sRGB;color-interpolation-filters:linearRGB;solid-color:#000000;solid-opacity:1;fill:none;fill-opacity:1;fill-rule:nonzero;stroke:#ffffff;stroke-width:1;stroke-linecap:butt;stroke-linejoin:miter;stroke-miterlimit:4;stroke-dasharray:none;stroke-dashoffset:0;stroke-opacity:1;color-rendering:auto;image-rendering:auto;shape-rendering:auto;text-rendering:auto;enable-background:accumulate" />
  </g>
</svg>
