<?xml version="1.0" encoding="UTF-8" standalone="no"?>
<!-- Created with Inkscape (http://www.inkscape.org/) -->

<svg
   xmlns:dc="http://purl.org/dc/elements/1.1/"
   xmlns:cc="http://creativecommons.org/ns#"
   xmlns:rdf="http://www.w3.org/1999/02/22-rdf-syntax-ns#"
   xmlns:svg="http://www.w3.org/2000/svg"
   xmlns="http://www.w3.org/2000/svg"
   xmlns:sodipodi="http://sodipodi.sourceforge.net/DTD/sodipodi-0.dtd"
   xmlns:inkscape="http://www.inkscape.org/namespaces/inkscape"
   width="64"
   height="64"
   viewBox="0 0 64 64"
   id="svg4178"
   version="1.1"
   inkscape:version="0.91 r13725"
   sodipodi:docname="q4wine.svg">
  <defs
     id="defs4180" />
  <sodipodi:namedview
     id="base"
     pagecolor="#ffffff"
     bordercolor="#666666"
     borderopacity="1.0"
     inkscape:pageopacity="0.0"
     inkscape:pageshadow="2"
     inkscape:zoom="2.1812753"
     inkscape:cx="-60.259084"
     inkscape:cy="-42.33857"
     inkscape:document-units="px"
     inkscape:current-layer="layer1"
     showgrid="false"
     units="px"
     inkscape:window-width="1280"
     inkscape:window-height="722"
     inkscape:window-x="0"
     inkscape:window-y="28"
     inkscape:window-maximized="1" />
  <metadata
     id="metadata4183">
    <rdf:RDF>
      <cc:Work
         rdf:about="">
        <dc:format>image/svg+xml</dc:format>
        <dc:type
           rdf:resource="http://purl.org/dc/dcmitype/StillImage" />
        <dc:title />
      </cc:Work>
    </rdf:RDF>
  </metadata>
  <g
     inkscape:label="Layer 1"
     inkscape:groupmode="layer"
     id="layer1"
     transform="translate(0,-988.3622)">
    <circle
       style="opacity:1;fill:#31363b;fill-opacity:1;stroke:none;stroke-width:1.24300003;stroke-miterlimit:4;stroke-dasharray:none;stroke-opacity:1"
       id="path4746"
       cx="32"
       cy="1020.3622"
       r="32" />
    <path
       inkscape:connector-curvature="0"
       style="opacity:1;fill:#ffffff;fill-opacity:1;stroke:none;stroke-width:1.24300003;stroke-miterlimit:4;stroke-dasharray:none;stroke-opacity:1"
       d="m 31.999999,989.36223 a 31,31 0 0 0 -30.99999956,31.00007 31,31 0 0 0 30.99999956,31 31,31 0 0 0 31,-31 31,31 0 0 0 -31,-31.00007 z m 0,2.69565 a 28.304348,28.304348 0 0 1 28.304348,28.30442 28.304348,28.304348 0 0 1 -28.304348,28.3043 28.304348,28.304348 0 0 1 -28.3043474,-28.3043 28.304348,28.304348 0 0 1 28.3043474,-28.30442 z"
       id="path4145-3" />
    <g
       transform="matrix(0.03251654,0,0,0.03251723,23.736978,1011.3494)"
       id="g3"
       style="fill:#ffffff;fill-opacity:1">
      <path
         inkscape:connector-curvature="0"
         d="m 351.994,480 -80,0 0,-161.531 c 34.938,-3.562 67.656,-17.906 93.219,-42.594 60.313,-58.297 64.375,-207.5 7.375,-270.594 L 367.807,0 144.15,0 139.384,5.281 c -56.984,63.094 -52.89,212.312 7.423,270.594 25.531,24.688 58.25,39.031 93.188,42.594 l 0,161.531 -80,0 c -8.844,0 -16,7.156 -16,16 0,8.844 7.156,16 16,16 l 80,0 32,0 80,0 c 8.844,0 16,-7.156 16,-16 0,-8.844 -7.157,-16 -16.001,-16 z M 158.76,32 353.213,32 c 41.063,53.766 36.406,175.797 -10.25,220.859 -46.844,45.266 -127.047,45.329 -173.906,0.016 C 122.4,207.797 117.697,85.766 158.76,32 Z m 21.422,209.375 C 156.869,218.844 145.588,172.547 146.869,128 l 218.25,0 c 1.312,44.563 -9.969,90.844 -33.281,113.359 -38.719,37.453 -112.922,37.453 -151.656,0.016 z"
         id="path5"
         style="fill:#ffffff;fill-opacity:1" />
    </g>
    <g
       id="g4144"
       transform="translate(0.34383555,1.489954)">
      <rect
         y="1002.3183"
         x="19.754187"
         height="31.935934"
         width="24.198879"
         id="rect4138"
         style="opacity:1;fill:none;fill-opacity:1;stroke:#ffffff;stroke-width:1.20000005;stroke-miterlimit:4;stroke-dasharray:none;stroke-opacity:1" />
      <path
         inkscape:connector-curvature="0"
         id="path4140"
         d="m 36.216009,1029.9741 0,8.3956"
         style="fill:none;fill-rule:evenodd;stroke:#ffffff;stroke-width:1.20000005;stroke-linecap:butt;stroke-linejoin:miter;stroke-miterlimit:4;stroke-dasharray:none;stroke-opacity:1" />
    </g>
  </g>
</svg>
