<?xml version="1.0" encoding="UTF-8" standalone="no"?>
<!-- Created with Inkscape (http://www.inkscape.org/) -->

<svg
   xmlns:dc="http://purl.org/dc/elements/1.1/"
   xmlns:cc="http://creativecommons.org/ns#"
   xmlns:rdf="http://www.w3.org/1999/02/22-rdf-syntax-ns#"
   xmlns:svg="http://www.w3.org/2000/svg"
   xmlns="http://www.w3.org/2000/svg"
   xmlns:sodipodi="http://sodipodi.sourceforge.net/DTD/sodipodi-0.dtd"
   xmlns:inkscape="http://www.inkscape.org/namespaces/inkscape"
   width="64"
   height="64"
   viewBox="0 0 64 64"
   id="svg4178"
   version="1.1"
   inkscape:version="0.91 r13725"
   sodipodi:docname="system-help.svg">
  <defs
     id="defs4180" />
  <sodipodi:namedview
     id="base"
     pagecolor="#ffffff"
     bordercolor="#666666"
     borderopacity="1.0"
     inkscape:pageopacity="0.0"
     inkscape:pageshadow="2"
     inkscape:zoom="4.1803005"
     inkscape:cx="-16.980821"
     inkscape:cy="44.856942"
     inkscape:document-units="px"
     inkscape:current-layer="layer1"
     showgrid="false"
     units="px"
     inkscape:window-width="1280"
     inkscape:window-height="724"
     inkscape:window-x="0"
     inkscape:window-y="26"
     inkscape:window-maximized="1" />
  <metadata
     id="metadata4183">
    <rdf:RDF>
      <cc:Work
         rdf:about="">
        <dc:format>image/svg+xml</dc:format>
        <dc:type
           rdf:resource="http://purl.org/dc/dcmitype/StillImage" />
        <dc:title></dc:title>
      </cc:Work>
    </rdf:RDF>
  </metadata>
  <g
     inkscape:label="Layer 1"
     inkscape:groupmode="layer"
     id="layer1"
     transform="translate(0,-988.3622)">
    <circle
       style="opacity:1;fill:#31363b;fill-opacity:1;stroke:none;stroke-width:1.24300003;stroke-miterlimit:4;stroke-dasharray:none;stroke-opacity:1"
       id="path4746"
       cx="32"
       cy="1020.3622"
       r="32" />
    <path
       inkscape:connector-curvature="0"
       style="opacity:1;fill:#ffffff;fill-opacity:1;stroke:none;stroke-width:1.24300003;stroke-miterlimit:4;stroke-dasharray:none;stroke-opacity:1"
       d="m 31.999999,989.36223 a 31,31 0 0 0 -30.99999956,31.00007 31,31 0 0 0 30.99999956,31 31,31 0 0 0 31,-31 31,31 0 0 0 -31,-31.00007 z m 0,2.69565 a 28.304348,28.304348 0 0 1 28.304348,28.30442 28.304348,28.304348 0 0 1 -28.304348,28.3043 28.304348,28.304348 0 0 1 -28.3043474,-28.3043 28.304348,28.304348 0 0 1 28.3043474,-28.30442 z"
       id="path4145-3" />
    <path
       inkscape:connector-curvature="0"
       style="fill:#ffffff;fill-opacity:1;stroke:none"
       d="m 32.500005,1002.3615 c -4.108349,0 -7.868314,1.4109 -10.847776,3.764 -0.01116,0 -0.02303,0.022 -0.03419,0.026 -0.116047,0.092 -0.232466,0.1815 -0.346069,0.2778 l -1.879883,-1.8799 -4.392087,0 0,4.392 2.281492,2.2816 C 15.837303,1013.7705 15,1016.7127 15,1019.8618 c 0,3.1492 0.837303,6.0914 2.281492,8.6389 L 15,1030.7823 l 0,4.392 4.392087,0 1.879883,-1.8799 c 0.113596,0.094 0.230028,0.1859 0.346069,0.2778 0.01116,0 0.02301,0.022 0.03419,0.026 2.979462,2.3531 6.739427,3.764 10.847776,3.764 4.284093,0 8.192402,-1.5297 11.228023,-4.0674 l 1.879885,1.8799 4.392087,0 0,-4.3921 -2.281494,-2.2815 C 49.162695,1025.9529 50,1023.0107 50,1019.8615 c 0,-3.1491 -0.837305,-6.0913 -2.281494,-8.6388 L 50,1008.9411 l 0,-4.392 -4.392087,0 -1.879885,1.8799 c -0.113597,-0.094 -0.230028,-0.1859 -0.346069,-0.2778 -0.01116,0 -0.02299,-0.022 -0.03419,-0.026 -2.97944,-2.3531 -6.739415,-3.764 -10.847764,-3.764 z m 0,2.1875 c 2.713539,0 5.253998,0.7031 7.459714,1.9311 l -5.015866,5.016 c -0.779721,-0.2264 -1.589167,-0.3846 -2.443848,-0.3846 -0.85468,0 -1.664129,0.1575 -2.443848,0.3846 l -2.57202,-2.5721 -2.443848,-2.4439 c 2.205719,-1.228 4.746178,-1.9311 7.459716,-1.9311 z m -14.654537,1.5466 1.845703,1.8458 c -0.312276,0.3355 -0.616177,0.6788 -0.90149,1.0382 -0.0087,0 -0.01684,0.022 -0.02564,0.035 -0.08831,0.1115 -0.170756,0.2277 -0.256346,0.3416 l -1.961058,-1.9608 1.298827,-1.299 z m 29.309074,0 1.298828,1.2989 -1.96106,1.9611 c -0.369902,-0.4929 -0.764555,-0.964 -1.18347,-1.4142 l 1.845702,-1.8458 z m -28.035881,6.3061 5.015868,5.0159 c -0.226421,0.7799 -0.384521,1.5892 -0.384521,2.4439 0,0.8546 0.158091,1.6642 0.384521,2.4439 l -2.57202,2.572 -2.443848,2.4439 c -1.228165,-2.2059 -1.931151,-4.7462 -1.931151,-7.4598 0,-2.7136 0.702986,-5.2539 1.931151,-7.4598 z m 26.762689,0 c 1.228163,2.2059 1.931151,4.7462 1.931151,7.4598 0,2.7136 -0.702988,5.2539 -1.931151,7.4598 l -2.443848,-2.4439 -2.57202,-2.572 c 0.226419,-0.7799 0.384521,-1.5893 0.384521,-2.4439 0,-0.8547 -0.158091,-1.664 -0.384521,-2.4439 l 5.015868,-5.0159 z m -13.381345,0.8973 c 0.199435,0 0.386256,0.042 0.581055,0.059 0.8635,0.077 1.671984,0.3115 2.405394,0.6879 1.218472,0.625 2.203219,1.6098 2.828369,2.8282 0.376285,0.7335 0.61141,1.542 0.687865,2.4054 0.01728,0.1947 0.05981,0.3817 0.05981,0.5812 0,0.1991 -0.04257,0.3861 -0.05981,0.581 -0.07645,0.8634 -0.31158,1.6719 -0.687865,2.4054 -0.62515,1.2184 -1.609897,2.2033 -2.828369,2.8284 -0.73341,0.3763 -1.541894,0.6115 -2.405394,0.6878 -0.194819,0.022 -0.381631,0.059 -0.581063,0.059 -0.199435,0 -0.386256,-0.042 -0.581055,-0.059 -0.8635,-0.077 -1.671984,-0.3115 -2.405396,-0.6878 -1.218461,-0.6251 -2.20321,-1.6097 -2.82836,-2.8284 -0.376283,-0.7332 -0.611408,-1.5417 -0.687866,-2.4054 -0.01728,-0.1947 -0.05981,-0.3815 -0.05981,-0.581 0,-0.199 0.04257,-0.3863 0.05981,-0.581 0.07645,-0.8636 0.311581,-1.6721 0.687866,-2.4053 0.625148,-1.2185 1.609897,-2.2033 2.828367,-2.8285 0.733411,-0.3762 1.541896,-0.6114 2.405396,-0.6879 0.194797,-0.022 0.381622,-0.059 0.581054,-0.059 z m -2.443848,14.9279 c 0.779719,0.2264 1.589168,0.3846 2.443848,0.3846 0.854681,0 1.66413,-0.1575 2.443848,-0.3846 l 5.015866,5.016 c -2.205716,1.228 -4.746175,1.9311 -7.459714,1.9311 -2.713538,0 -5.253997,-0.7031 -7.459716,-1.9311 l 2.443848,-2.4439 2.57202,-2.5721 z m -11.548458,2.1405 c 0.369902,0.4928 0.764557,0.964 1.183472,1.4142 l -1.845703,1.8458 -1.298827,-1.2989 1.961058,-1.9611 z m 27.984611,0 1.96106,1.9611 -1.298828,1.2989 -1.845702,-1.8458 c 0.418915,-0.4502 0.813568,-0.9214 1.18347,-1.4142 z"
       class="ColorScheme-Text"
       id="path6" />
  </g>
</svg>
