<?xml version="1.0" standalone="no"?>
<!DOCTYPE svg PUBLIC "-//W3C//DTD SVG 20010904//EN" "http://www.w3.org/TR/2001/REC-SVG-20010904/DTD/svg10.dtd">
<!-- Created using Karbon, part of Calligra: http://www.calligra.org/karbon -->
<svg xmlns="http://www.w3.org/2000/svg" xmlns:xlink="http://www.w3.org/1999/xlink" width="51.2pt" height="51.2pt">
<defs/>
<g id="layer1">
  <path id="shape0" transform="translate(3.9309, 6.01919)" fill="none" stroke="#808080" stroke-width="0.35433132250" stroke-linecap="butt" stroke-linejoin="miter" stroke-miterlimit="0.00000000000" d="M0 0L24.0768 0.0614203L28.3762 12.0384L56.0768 4.05374L56.261 19.0403L19.1631 28.7447L0.0614203 22.2956C0.0614203 22.2956 0.0409469 14.8637 0 0Z"/>
  <path id="rect4180" transform="translate(4, 5.99989)" fill="#31363b" d="M0 0.00023L0 5.00023L0 27.0002C0 27.554 0.446 28.0002 1 28.0002L55 28.0002C55.554 28.0002 56 27.554 56 27.0002L56 5.01C56 5.007 55.998 5.004 55.998 5L56 5L56 4L28 4L24 0L0 0Z"/>
  <path id="rect4113" transform="translate(3, 24.0001)" fill="#444b52" d="M23 5.68434e-14L19 4L0 4L0 5L0.002 5C0.00195 5.004 0 5.008 0 5.0117L0 33L0 34L1 34L57 34L58 34L58 33L58 5.0117L58 5L58 0Z"/>
  <path id="path4224" transform="translate(3.00001, 24.0001)" fill="#ffffff" fill-opacity="0.23529411765" fill-rule="evenodd" d="M0 4L0 5L20 5L23 0L19 4Z"/>
  <path id="path4228" transform="translate(4, 24.0001)" fill="#000000" fill-opacity="0.23529411765" fill-rule="evenodd" d="M0 3L0 4L18 4L22 0L16 3Z"/>
  <path id="path4151-2" transform="translate(3, 57.0001)" fill="#000000" fill-opacity="0.23529411765" d="M0 0L0 1L1 1L57 1L58 1L58 0L57 0L1 0Z"/>
  <path id="path4196" transform="translate(28, 6)" fill="#ffffff" fill-opacity="0.23529411765" fill-rule="evenodd" d="M0 0L3 5L5 5L32 5L32 4L5 4L4 4Z"/>
 </g>
</svg>
