<?xml version="1.0" standalone="no"?>
<!DOCTYPE svg PUBLIC "-//W3C//DTD SVG 20010904//EN" "http://www.w3.org/TR/2001/REC-SVG-20010904/DTD/svg10.dtd">
<!-- Created using Karbon, part of Calligra: http://www.calligra.org/karbon -->
<svg xmlns="http://www.w3.org/2000/svg" xmlns:xlink="http://www.w3.org/1999/xlink" width="51.2pt" height="51.2pt">
<defs/>
<g id="layer1">
  <path id="shape0" transform="translate(4.05374, 6.03687)" fill="none" stroke="#696969" stroke-width="0.35433132250" stroke-linecap="butt" stroke-linejoin="miter" stroke-miterlimit="0.28346505761" d="M4.98946e-15 0L0 27.0079L55.8807 26.269L55.8807 3.87576L27.8467 3.87576L23.9826 0.000366266C23.9426 0.0411354 15.9484 0.0410133 4.98946e-15 0Z"/>
  <path id="rect4180" transform="translate(4, 5.9999)" fill="#31363b" stroke="#444b52" stroke-opacity="0.78823529412" stroke-width="0.00000000000" stroke-linecap="butt" stroke-linejoin="miter" stroke-miterlimit="0.28346505761" d="M0 0.00023L0 5.00023L0 27.0002C0 27.5539 0.446 28.0002 1 28.0002L55 28.0002C55.554 28.0002 56 27.5539 56 27.0002L56 5.01C56 5.007 55.998 5.004 55.998 5L56 5L56 4L28 4L24 0L0 0Z"/>
  <path id="rect4113" transform="translate(3, 16.0001)" fill="#444b52" d="M23 0L19 4L0 4L0 5L0.002 5C0.00195 5.004 0 5.008 0 5.0117L0 41L0 42L1 42L57 42L58 42L58 41L58 5.0117L58 5L58 0Z"/>
  <path id="path4224" transform="translate(3.00001, 16.0001)" fill="#ffffff" fill-opacity="0.23529411765" fill-rule="evenodd" d="M0 4L0 5L20 5L23 0L19 4Z"/>
  <path id="path4228" transform="translate(4, 16.0001)" fill="#000000" fill-opacity="0.23529411765" fill-rule="evenodd" d="M0 3L0 4L18 4L22 0L16 3Z"/>
  <path id="path4151-2" transform="translate(3, 57.0001)" fill="#000000" fill-opacity="0.23529411765" d="M0 0L0 1L1 1L57 1L58 1L58 0L57 0L1 0Z"/>
  <path id="path4196" transform="translate(28, 6.00001)" fill="#ffffff" fill-opacity="0.23529411765" fill-rule="evenodd" d="M0 0L3 5L5 5L32 5L32 4L5 4L4 4Z"/>
 </g><g id="Новый слой">
  <path id="path4225" transform="translate(20, 28)" fill="#31363b" d="M12.3829 0C8.39357 0 5.15955 3.18304 5.15955 7.10949C5.16229 7.45022 5.1899 7.7903 5.24219 8.12711C5.21464 8.12623 5.18711 8.12558 5.15955 8.12514C2.31001 8.12514 0 10.3987 0 13.2033C0 16.008 2.31001 18.2815 5.15955 18.2815L18.5744 18.2815C21.9939 18.2815 24.7659 15.5532 24.7659 12.1877C24.7632 9.18952 22.5451 6.63872 19.5357 6.1732C19.0592 2.6425 16.0017 0.00376025 12.3829 0ZM12.3829 1.01564C12.5896 1.01539 12.7961 1.02533 13.0017 1.0454C14.0333 1.14807 15.0223 1.50413 15.8778 2.08087C15.8783 2.08087 15.8791 2.08087 15.8797 2.08087C16.3909 2.42523 16.8469 2.84313 17.2321 3.32066C17.2321 3.32134 17.2321 3.322 17.2321 3.32266C17.8813 4.12875 18.3126 5.08346 18.4857 6.09781C18.5438 6.43202 18.5735 6.77042 18.5744 7.10949C18.9196 7.10928 19.264 7.14317 19.6024 7.21067C19.7702 7.24415 19.9364 7.28586 20.1 7.33562C20.1008 7.33562 20.1014 7.33562 20.1022 7.33562C20.2656 7.38591 20.4263 7.44417 20.5838 7.51019C20.5845 7.51019 20.5852 7.51019 20.5859 7.51019C20.7431 7.57601 20.8973 7.64949 21.0474 7.73037C21.0487 7.73104 21.0501 7.7317 21.0514 7.73236C21.2009 7.81318 21.3461 7.90122 21.4867 7.99619C21.4881 7.99686 21.4895 7.99751 21.4906 7.99818C21.6315 8.09332 21.7673 8.19526 21.8979 8.30366C21.8986 8.30433 21.8992 8.305 21.8998 8.30565C22.0306 8.41386 22.1556 8.5284 22.2749 8.64882C22.2755 8.64949 22.2761 8.65015 22.2768 8.65079C22.516 8.8937 22.7302 9.15951 22.9156 9.44428C22.9163 9.44493 22.917 9.44559 22.9177 9.44626C23.0096 9.58816 23.0943 9.73446 23.1717 9.88466C23.1723 9.88535 23.173 9.88594 23.1736 9.88664C23.2512 10.0365 23.3212 10.1902 23.3833 10.3469C23.3838 10.3475 23.3846 10.3482 23.3854 10.3489C23.4472 10.5061 23.5009 10.6663 23.5466 10.8288C23.5466 10.8295 23.5466 10.8302 23.5466 10.8309C23.5924 10.9935 23.6301 11.1584 23.6594 11.3248C23.6594 11.3254 23.6594 11.3261 23.6594 11.3268C23.6887 11.493 23.7096 11.6605 23.7219 11.8286C23.7301 11.9482 23.7342 12.0679 23.734 12.1877C23.734 14.9923 21.4239 17.2659 18.5744 17.2659L5.15955 17.2659C2.87992 17.2659 1.03191 15.4471 1.03191 13.2033C1.03179 13.0683 1.03851 12.9331 1.05206 12.7986C1.26329 10.7219 3.03899 9.14058 5.15955 9.14077C5.26248 9.14161 5.36535 9.14624 5.46791 9.15467C5.46791 9.15532 5.46791 9.15599 5.46791 9.15664C5.87684 9.18643 6.27897 9.27602 6.66107 9.42247C6.50438 9.04685 6.38622 8.65677 6.30836 8.25804C6.27537 8.08727 6.24982 7.91521 6.23177 7.74229C6.22669 7.70331 6.22198 7.6643 6.21766 7.62525C6.20153 7.45377 6.1928 7.28169 6.19147 7.10949C6.19122 6.90612 6.20131 6.70288 6.22171 6.50051C6.5395 3.38617 9.20279 1.01526 12.3829 1.01564Z"/>
 </g>
</svg>
