<?xml version="1.0" encoding="UTF-8" standalone="no"?>
<!-- Created using Karbon, part of Calligra: http://www.calligra.org/karbon -->

<svg
   xmlns:dc="http://purl.org/dc/elements/1.1/"
   xmlns:cc="http://creativecommons.org/ns#"
   xmlns:rdf="http://www.w3.org/1999/02/22-rdf-syntax-ns#"
   xmlns:svg="http://www.w3.org/2000/svg"
   xmlns="http://www.w3.org/2000/svg"
   xmlns:sodipodi="http://sodipodi.sourceforge.net/DTD/sodipodi-0.dtd"
   xmlns:inkscape="http://www.inkscape.org/namespaces/inkscape"
   width="51.2pt"
   height="51.2pt"
   id="svg2"
   version="1.1"
   inkscape:version="0.91 r13725"
   sodipodi:docname="folder-wine.svg">
  <metadata
     id="metadata18">
    <rdf:RDF>
      <cc:Work
         rdf:about="">
        <dc:format>image/svg+xml</dc:format>
        <dc:type
           rdf:resource="http://purl.org/dc/dcmitype/StillImage" />
        <dc:title></dc:title>
      </cc:Work>
    </rdf:RDF>
  </metadata>
  <sodipodi:namedview
     pagecolor="#ffffff"
     bordercolor="#666666"
     borderopacity="1"
     objecttolerance="10"
     gridtolerance="10"
     guidetolerance="10"
     inkscape:pageopacity="0"
     inkscape:pageshadow="2"
     inkscape:window-width="1280"
     inkscape:window-height="726"
     id="namedview16"
     showgrid="false"
     inkscape:zoom="7.5478515"
     inkscape:cx="32"
     inkscape:cy="21.152543"
     inkscape:window-x="0"
     inkscape:window-y="26"
     inkscape:window-maximized="1"
     inkscape:current-layer="svg2" />
  <defs
     id="defs4" />
  <g
     id="layer1">
    <path
       id="shape0"
       transform="translate(4.05374, 6.03687)"
       fill="none"
       stroke="#696969"
       stroke-width="0.35433132250"
       stroke-linecap="butt"
       stroke-linejoin="miter"
       stroke-miterlimit="0.28346505761"
       d="M4.98946e-15 0L0 27.0079L55.8807 26.269L55.8807 3.87576L27.8467 3.87576L23.9826 0.000366266C23.9426 0.0411354 15.9484 0.0410133 4.98946e-15 0Z" />
    <path
       id="rect4180"
       transform="translate(4, 5.9999)"
       fill="#31363b"
       stroke="#444b52"
       stroke-opacity="0.78823529412"
       stroke-width="0.00000000000"
       stroke-linecap="butt"
       stroke-linejoin="miter"
       stroke-miterlimit="0.28346505761"
       d="M0 0.00023L0 5.00023L0 27.0002C0 27.5539 0.446 28.0002 1 28.0002L55 28.0002C55.554 28.0002 56 27.5539 56 27.0002L56 5.01C56 5.007 55.998 5.004 55.998 5L56 5L56 4L28 4L24 0L0 0Z" />
    <path
       id="rect4113"
       transform="translate(3, 16.0001)"
       fill="#444b52"
       d="M23 0L19 4L0 4L0 5L0.002 5C0.00195 5.004 0 5.008 0 5.0117L0 41L0 42L1 42L57 42L58 42L58 41L58 5.0117L58 5L58 0Z" />
    <path
       id="path4224"
       transform="translate(3.00001, 16.0001)"
       fill="#ffffff"
       fill-opacity="0.23529411765"
       fill-rule="evenodd"
       d="M0 4L0 5L20 5L23 0L19 4Z" />
    <path
       id="path4228"
       transform="translate(4, 16.0001)"
       fill="#000000"
       fill-opacity="0.23529411765"
       fill-rule="evenodd"
       d="M0 3L0 4L18 4L22 0L16 3Z" />
    <path
       id="path4151-2"
       transform="translate(3, 57.0001)"
       fill="#000000"
       fill-opacity="0.23529411765"
       d="M0 0L0 1L1 1L57 1L58 1L58 0L57 0L1 0Z" />
    <path
       id="path4196"
       transform="translate(28, 6.00001)"
       fill="#ffffff"
       fill-opacity="0.23529411765"
       fill-rule="evenodd"
       d="M0 0L3 5L5 5L32 5L32 4L5 4L4 4Z" />
  </g>
  <g
     transform="matrix(0.04956782,0,0,0.04956883,20.428429,26.290257)"
     id="g3"
     style="fill:#31363b;fill-opacity:1">
    <path
       inkscape:connector-curvature="0"
       d="m 351.994,480 -80,0 0,-161.531 c 34.938,-3.562 67.656,-17.906 93.219,-42.594 60.313,-58.297 64.375,-207.5 7.375,-270.594 L 367.807,0 144.15,0 139.384,5.281 c -56.984,63.094 -52.89,212.312 7.423,270.594 25.531,24.688 58.25,39.031 93.188,42.594 l 0,161.531 -80,0 c -8.844,0 -16,7.156 -16,16 0,8.844 7.156,16 16,16 l 80,0 32,0 80,0 c 8.844,0 16,-7.156 16,-16 0,-8.844 -7.157,-16 -16.001,-16 z M 158.76,32 353.213,32 c 41.063,53.766 36.406,175.797 -10.25,220.859 -46.844,45.266 -127.047,45.329 -173.906,0.016 C 122.4,207.797 117.697,85.766 158.76,32 Z m 21.422,209.375 C 156.869,218.844 145.588,172.547 146.869,128 l 218.25,0 c 1.312,44.563 -9.969,90.844 -33.281,113.359 -38.719,37.453 -112.922,37.453 -151.656,0.016 z"
       id="path5"
       style="fill:#31363b;fill-opacity:1" />
  </g>
</svg>
