<?xml version="1.0" standalone="no"?>
<!DOCTYPE svg PUBLIC "-//W3C//DTD SVG 20010904//EN" "http://www.w3.org/TR/2001/REC-SVG-20010904/DTD/svg10.dtd">
<!-- Created using Karbon, part of Calligra: http://www.calligra.org/karbon -->
<svg xmlns="http://www.w3.org/2000/svg" xmlns:xlink="http://www.w3.org/1999/xlink" width="51.2pt" height="51.2pt">
<defs/>
<g id="layer1">
  <path id="shape0" transform="translate(4.05374, 6.03687)" fill="none" stroke="#696969" stroke-width="0.35433132250" stroke-linecap="butt" stroke-linejoin="miter" stroke-miterlimit="0.28346505761" d="M4.98946e-15 0L0 27.0079L55.8807 26.269L55.8807 3.87576L27.8467 3.87576L23.9826 0.000366266C23.9426 0.0411354 15.9484 0.0410133 4.98946e-15 0Z"/>
  <path id="rect4180" transform="translate(4, 5.9999)" fill="#31363b" stroke="#444b52" stroke-opacity="0.78823529412" stroke-width="0.00000000000" stroke-linecap="butt" stroke-linejoin="miter" stroke-miterlimit="0.28346505761" d="M0 0.00023L0 5.00023L0 27.0002C0 27.5539 0.446 28.0002 1 28.0002L55 28.0002C55.554 28.0002 56 27.5539 56 27.0002L56 5.01C56 5.007 55.998 5.004 55.998 5L56 5L56 4L28 4L24 0L0 0Z"/>
  <path id="rect4113" transform="translate(3, 16.0001)" fill="#444b52" d="M23 0L19 4L0 4L0 5L0.002 5C0.00195 5.004 0 5.008 0 5.0117L0 41L0 42L1 42L57 42L58 42L58 41L58 5.0117L58 5L58 0Z"/>
  <path id="path4224" transform="translate(3.00001, 16.0001)" fill="#ffffff" fill-opacity="0.23529411765" fill-rule="evenodd" d="M0 4L0 5L20 5L23 0L19 4Z"/>
  <path id="path4228" transform="translate(4, 16.0001)" fill="#000000" fill-opacity="0.23529411765" fill-rule="evenodd" d="M0 3L0 4L18 4L22 0L16 3Z"/>
  <path id="path4151-2" transform="translate(3, 57.0001)" fill="#000000" fill-opacity="0.23529411765" d="M0 0L0 1L1 1L57 1L58 1L58 0L57 0L1 0Z"/>
  <path id="path4196" transform="translate(28, 6.00001)" fill="#ffffff" fill-opacity="0.23529411765" fill-rule="evenodd" d="M0 0L3 5L5 5L32 5L32 4L5 4L4 4Z"/>
 </g><g id="Новый слой">
  <path id="path3858" transform="translate(22.9004, 27)" fill="#31363b" fill-rule="evenodd" d="M16.2502 0C15.1284 0 14.219 0.89543 14.219 2C14.219 3.10458 15.1284 4 16.2502 4C17.3721 4 18.2815 3.10458 18.2815 2C18.2815 0.89543 17.3721 0 16.2502 0ZM12.6955 3C12.4151 3 12.1877 3.22386 12.1877 3.5C12.1877 3.77614 12.4151 4 12.6955 4C12.9761 4 13.2033 3.77614 13.2033 3.5C13.2033 3.22386 12.9761 3 12.6955 3ZM9.64859 5C9.36814 5 9.14077 5.22386 9.14077 5.5C9.14077 5.77614 9.36814 6 9.64859 6C9.9291 6 10.1564 5.77614 10.1564 5.5C10.1564 5.22386 9.9291 5 9.64859 5ZM6.60167 7C6.32121 7 6.09385 7.22386 6.09385 7.5C6.09385 7.77614 6.32121 8 6.60167 8C6.88212 8 7.10949 7.77614 7.10949 7.5C7.10949 7.22386 6.88212 7 6.60167 7ZM2.03128 8C0.909436 8 0 8.89543 0 10C0 11.1046 0.909436 12 2.03128 12C3.15313 12 4.06257 11.1046 4.06257 10C4.06257 8.89543 3.15313 8 2.03128 8ZM6.60167 12C6.32121 12 6.09385 12.2239 6.09385 12.5C6.09385 12.7761 6.32121 13 6.60167 13C6.88212 13 7.10949 12.7761 7.10949 12.5C7.10949 12.2239 6.88212 12 6.60167 12ZM9.64859 14C9.36814 14 9.14077 14.2239 9.14077 14.5C9.14077 14.7761 9.36814 15 9.64859 15C9.9291 15 10.1564 14.7761 10.1564 14.5C10.1564 14.2239 9.9291 14 9.64859 14ZM12.6955 16C12.4151 16 12.1877 16.2239 12.1877 16.5C12.1877 16.7761 12.4151 17 12.6955 17C12.9761 17 13.2033 16.7761 13.2033 16.5C13.2033 16.2239 12.9761 16 12.6955 16ZM16.2502 16C15.1284 16 14.219 16.8954 14.219 18C14.219 19.1046 15.1284 20 16.2502 20C17.3721 20 18.2815 19.1046 18.2815 18C18.2815 16.8954 17.3721 16 16.2502 16Z"/>
 </g>
</svg>
