<?xml version="1.0" standalone="no"?>
<!DOCTYPE svg PUBLIC "-//W3C//DTD SVG 20010904//EN" "http://www.w3.org/TR/2001/REC-SVG-20010904/DTD/svg10.dtd">
<!-- Created using Karbon, part of Calligra: http://www.calligra.org/karbon -->
<svg xmlns="http://www.w3.org/2000/svg" xmlns:xlink="http://www.w3.org/1999/xlink" width="51.2pt" height="51.2pt">
<defs/>
<g id="layer1">
  <path id="shape0" transform="translate(4.05374, 6.03687)" fill="none" stroke="#696969" stroke-width="0.35433132250" stroke-linecap="butt" stroke-linejoin="miter" stroke-miterlimit="0.28346505761" d="M4.98946e-15 0L0 27.0079L55.8807 26.269L55.8807 3.87576L27.8467 3.87576L23.9826 0.000366266C23.9426 0.0411354 15.9484 0.0410133 4.98946e-15 0Z"/>
  <path id="rect4180" transform="translate(4, 5.9999)" fill="#31363b" stroke="#444b52" stroke-opacity="0.78823529412" stroke-width="0.00000000000" stroke-linecap="butt" stroke-linejoin="miter" stroke-miterlimit="0.28346505761" d="M0 0.00023L0 5.00023L0 27.0002C0 27.5539 0.446 28.0002 1 28.0002L55 28.0002C55.554 28.0002 56 27.5539 56 27.0002L56 5.01C56 5.007 55.998 5.004 55.998 5L56 5L56 4L28 4L24 0L0 0Z"/>
  <path id="rect4113" transform="translate(3, 16.0001)" fill="#444b52" d="M23 0L19 4L0 4L0 5L0.002 5C0.00195 5.004 0 5.008 0 5.0117L0 41L0 42L1 42L57 42L58 42L58 41L58 5.0117L58 5L58 0Z"/>
  <path id="path4224" transform="translate(3.00001, 16.0001)" fill="#ffffff" fill-opacity="0.23529411765" fill-rule="evenodd" d="M0 4L0 5L20 5L23 0L19 4Z"/>
  <path id="path4228" transform="translate(4, 16.0001)" fill="#000000" fill-opacity="0.23529411765" fill-rule="evenodd" d="M0 3L0 4L18 4L22 0L16 3Z"/>
  <path id="path4151-2" transform="translate(3, 57.0001)" fill="#000000" fill-opacity="0.23529411765" d="M0 0L0 1L1 1L57 1L58 1L58 0L57 0L1 0Z"/>
  <path id="path4196" transform="translate(28, 6.00001)" fill="#ffffff" fill-opacity="0.23529411765" fill-rule="evenodd" d="M0 0L3 5L5 5L32 5L32 4L5 4L4 4Z"/>
 </g><g id="Новый слой">
  <path id="path26" transform="translate(22, 27)" fill="#31363b" d="M10 0C9.65375 0 9.30574 0.028481 8.96875 0.0625C8.29477 0.130538 7.65827 0.243291 7.03125 0.4375C3.89614 1.40855 1.40855 3.89614 0.4375 7.03125C0.243291 7.65827 0.130538 8.29477 0.0625 8.96875C0.028481 9.30574 0 9.65375 0 10C0 10.3463 0.028481 10.6943 0.0625 11.0312C0.130538 11.7052 0.243291 12.3417 0.4375 12.9688C1.40855 16.1039 3.89614 18.5915 7.03125 19.5625C7.65827 19.7567 8.29477 19.8695 8.96875 19.9375C9.30574 19.9715 9.65375 20 10 20C10.3463 20 10.6943 19.9715 11.0312 19.9375C11.7052 19.8695 12.3417 19.7567 12.9688 19.5625C13.595 19.3678 14.2145 19.0891 14.7812 18.7812C17.0487 17.5525 18.7856 15.4769 19.5625 12.9688C19.7567 12.3417 19.8695 11.7052 19.9375 11.0312C19.9715 10.6943 20 10.3463 20 10C20 9.65483 19.9716 9.30493 19.9375 8.96875C19.8695 8.29477 19.7567 7.65827 19.5625 7.03125C19.1741 5.77721 18.5326 4.61201 17.7188 3.625C17.515 3.37806 17.2888 3.1637 17.0625 2.9375C16.1587 2.03375 15.1034 1.28594 13.9062 0.78125C13.6071 0.654742 13.2819 0.534893 12.9688 0.4375C12.3417 0.243291 11.7052 0.130538 11.0312 0.0625C10.6943 0.028481 10.3463 0 10 0ZM10 1C11.5133 1 12.9359 1.37141 14.1875 2.03125C14.2206 2.04869 14.2484 2.07591 14.2812 2.09375C14.3066 2.12728 14.2992 2.16296 14.3438 2.1875C14.3765 2.2057 14.4067 2.2337 14.4375 2.25C14.4902 2.2791 14.5421 2.32405 14.5312 2.375C14.5167 2.4495 14.3946 2.44544 14.3438 2.5C14.3508 2.60543 14.3085 2.58538 14.2812 2.65625C14.2976 2.70175 14.3365 2.6955 14.3438 2.75C14.3347 2.8082 14.2594 2.81503 14.2812 2.875C14.3795 2.9514 14.4698 2.8877 14.5625 2.875C14.7661 2.8495 14.937 2.87935 15.0625 2.78125C15.0493 2.70348 15.1235 2.68125 15.1562 2.625C15.2226 2.67152 15.2787 2.73299 15.3437 2.78125C15.3055 2.79765 15.222 2.82195 15.1875 2.84375C15.1366 2.87825 15.1208 2.93059 15.0625 2.96875C15.0207 2.99785 14.9186 3.09375 14.875 3.09375C14.8223 3.09375 14.7256 3.0498 14.6875 3.0625C14.6329 3.0789 14.6555 3.16569 14.5938 3.1875C14.4738 3.2311 14.2605 3.0701 14.2188 3.25C14.2696 3.3536 14.4404 3.31867 14.5312 3.375C14.5876 3.4114 14.673 3.59445 14.6875 3.65625C14.702 3.70715 14.7093 3.88298 14.6875 3.9375C14.6311 4.0829 14.4797 4.06614 14.3125 4.0625C14.267 4.0625 14.2294 4.0665 14.1875 4.0625C13.9058 4.0443 13.6273 3.95453 13.5 4.15625C13.509 4.31074 13.5346 4.39675 13.5 4.53125C13.4746 4.62935 13.3695 4.69583 13.375 4.78125C13.377 4.82485 13.4579 4.90876 13.4687 4.96875C13.4757 5.00145 13.4541 5.06473 13.4687 5.09375C13.516 5.18285 13.6351 5.07925 13.7188 5.09375C13.7988 5.10645 13.875 5.22344 13.875 5.3125C13.875 5.3761 13.8525 5.5007 13.8125 5.5625C13.7325 5.68245 13.5832 5.65331 13.4687 5.71875C13.3742 5.77325 13.3376 5.90548 13.2812 6C13.2212 6.10177 13.1639 6.13585 13.1875 6.28125C13.1058 6.44301 13.0129 6.54684 12.8437 6.625C12.7946 6.6468 12.733 6.68605 12.6875 6.71875C12.6511 6.74415 12.6135 6.78551 12.5625 6.84375C12.4989 6.91465 12.4095 6.94548 12.375 7C12.3495 7.0418 12.371 7.13116 12.3438 7.1875C12.3038 7.2639 12.2384 7.32991 12.1875 7.40625C12.1639 7.44265 12.1192 7.48391 12.0938 7.53125C12.0355 7.63667 11.9578 7.71981 11.9688 7.8125C11.9778 7.9016 12.0883 7.92184 12.0938 8C12.0988 8.0436 12.0607 8.07773 12.0625 8.125C12.0645 8.1941 12.0884 8.22672 12.0938 8.28125C12.1064 8.41575 12.0254 8.4698 12 8.5625C11.9873 8.6061 12.0109 8.65298 12 8.6875C11.9782 8.7548 11.8768 8.79503 11.875 8.875C11.873 8.9314 11.9633 8.98258 11.9688 9.0625C11.9728 9.117 11.9266 9.16786 11.9375 9.21875C11.9575 9.31695 12.1424 9.45491 12.2187 9.53125C12.3224 9.63486 12.4233 9.70344 12.4688 9.8125C12.507 9.9052 12.5229 10.0559 12.5938 10.125C12.6465 10.1759 12.7452 10.1973 12.8125 10.25C12.8761 10.2991 12.964 10.3223 13.0312 10.375C13.1421 10.4623 13.2924 10.6377 13.4687 10.625C13.5615 10.618 13.6464 10.5806 13.75 10.5625C13.8572 10.5443 13.9846 10.4891 14.0937 10.5C14.1774 10.509 14.2565 10.568 14.3438 10.5625C14.4346 10.5575 14.5526 10.5142 14.6563 10.4688C14.8362 10.3906 15.1133 10.2431 15.375 10.2813C15.575 10.3104 15.5788 10.5359 15.7188 10.625C15.8788 10.6395 15.9978 10.5941 16.125 10.625C16.2214 10.6486 16.3346 10.8299 16.3438 10.9063C16.3528 10.9844 16.2921 11.0447 16.2812 11.0938C16.2559 11.1992 16.2369 11.339 16.2188 11.4062C16.2043 11.459 16.1857 11.5098 16.1875 11.5625C16.1875 11.6098 16.2634 11.7195 16.3125 11.7812C16.3725 11.8576 16.4585 11.9164 16.5312 12C16.664 12.1527 16.7197 12.3607 16.8125 12.5625C16.8361 12.6134 16.7908 12.6239 16.8125 12.6875C16.7725 12.9929 16.6688 13.1931 16.4688 13.5312C16.3742 13.6402 16.2794 13.77 16.2812 13.9062C16.2742 14.2334 16.452 14.4025 16.4375 14.7187C16.4047 15.144 16.439 15.2102 16.4062 15.4375C16.5499 15.5103 16.4793 15.7241 16.4375 15.875C16.3758 16.0549 16.3157 16.0987 16.2812 16.2188C16.3558 16.251 16.4183 16.2591 16.5 16.25C14.8625 17.9524 12.5486 19 10 19C8.807 19 7.66687 18.7653 6.625 18.3438C6.6215 18.3424 6.6285 18.3139 6.625 18.3125C6.7195 18.2725 6.89967 18.3828 6.96875 18.25C7.00335 18.1864 6.92325 18.0636 6.96875 18C7.00145 17.9564 7.21399 17.9171 7.28125 17.9062C7.37765 17.8899 7.47671 17.9096 7.53125 17.875C7.59125 17.8367 7.66716 17.7377 7.65625 17.625C7.65125 17.5723 7.6042 17.5472 7.5625 17.5C7.528 17.46 7.55485 17.4114 7.53125 17.375C7.48765 17.3114 7.42443 17.2802 7.40625 17.1875C7.53715 17.1621 7.71718 17.334 7.90625 17.2812C7.99535 17.2557 8.14567 17.0836 8.1875 17C8.2002 16.9745 8.173 16.8747 8.1875 16.8438C8.2039 16.8093 8.2445 16.7994 8.25 16.7813C8.2627 16.7321 8.2391 16.7183 8.25 16.6875C8.2827 16.5947 8.38295 16.536 8.4375 16.4688C8.4793 16.4179 8.52428 16.3652 8.5625 16.3125C8.6061 16.2561 8.62725 16.2366 8.65625 16.1875C8.68355 16.0221 8.55375 15.8954 8.59375 15.75C8.63735 15.5864 8.87309 15.4807 9.03125 15.4062C9.08575 15.3808 9.14205 15.3287 9.1875 15.3125C9.29658 15.2743 9.42944 15.2862 9.53125 15.25C9.70215 15.1883 9.76011 15 9.84375 14.8438C9.88375 14.771 9.9302 14.709 9.9375 14.6563C9.9445 14.609 9.9285 14.5545 9.9375 14.5C9.9465 14.4455 9.95425 14.4038 9.96875 14.3438C9.98875 14.2655 10 14.1185 10 14.0313C10 13.9585 9.97055 13.9404 9.96875 13.875C9.95605 13.6388 10.0378 13.629 10.125 13.5C10.1686 13.4364 10.1879 13.3266 10.2188 13.2812C10.366 13.0631 10.6119 12.9557 10.5938 12.625C10.5868 12.516 10.5487 12.2845 10.4688 12.25C10.4232 12.23 10.3173 12.2442 10.25 12.2187C10.0355 12.1387 9.87986 11.8932 9.65625 11.875C9.60895 11.873 9.58399 11.877 9.53125 11.875C9.44395 11.873 9.34817 11.7922 9.25 11.7812C9.1882 11.7742 9.06761 11.7995 9.03125 11.7812C8.97485 11.7539 8.9829 11.6559 8.9375 11.625C8.9011 11.5995 8.8376 11.5825 8.78125 11.5625C8.69215 11.528 8.63487 11.5073 8.53125 11.5C8.49855 11.498 8.41133 11.505 8.375 11.5C8.3186 11.491 8.27148 11.439 8.21875 11.4062C8.15335 11.3663 8.12102 11.3376 8.09375 11.2812C8.15375 11.0849 7.94625 11.052 7.90625 10.9375C7.88805 10.8848 7.92445 10.7973 7.90625 10.75C7.88265 10.6827 7.82455 10.6501 7.75 10.5938C7.6191 10.492 7.49976 10.3986 7.3125 10.375C7.2289 10.366 7.13124 10.382 7.03125 10.375C6.92581 10.368 6.79874 10.3096 6.71875 10.2188C6.64235 10.1296 6.62976 10.0418 6.5625 10C6.4989 9.96 6.38737 9.94795 6.34375 9.90625C6.32375 9.88805 6.3307 9.8542 6.3125 9.8125C6.2798 9.747 6.21 9.73617 6.25 9.65625C6.1773 9.61985 6.20318 9.7021 6.125 9.6875C6.0541 9.5875 6.00372 9.5316 5.84375 9.5625C5.77105 9.577 5.71045 9.68569 5.625 9.6875C5.5541 9.6895 5.49898 9.57522 5.40625 9.5625C5.33535 9.5535 5.23659 9.6359 5.1875 9.625C5.1093 9.6105 5.10211 9.51609 5.03125 9.46875C4.97855 9.43415 4.87284 9.34194 4.84375 9.34375C4.75285 9.34575 4.68794 9.536 4.5625 9.46875C4.5007 9.39055 4.66651 9.38516 4.59375 9.3125C4.53925 9.258 4.51241 9.31475 4.46875 9.34375C4.41785 9.37825 4.36885 9.4176 4.3125 9.4375C4.18705 9.4848 4.09817 9.48045 4 9.53125C3.9091 9.57855 3.89648 9.6573 3.84375 9.75C3.80195 9.8264 3.71987 9.93386 3.65625 9.9375C3.57985 9.9425 3.50659 9.84158 3.4375 9.8125C3.22843 9.7216 3.11021 9.8732 2.9375 9.875C2.77751 9.877 2.55523 9.61963 2.5625 9.46875C2.5675 9.37605 2.6141 9.2395 2.625 9.125C2.634 9.0341 2.71705 8.95861 2.71875 8.875C2.72075 8.76412 2.54148 8.66897 2.46875 8.65625C2.29785 8.62535 2.06952 8.73265 1.875 8.65625C1.8386 8.59445 1.94695 8.55999 1.96875 8.5C1.98145 8.4655 1.95605 8.44445 1.96875 8.40625C1.99055 8.34805 2.06649 8.3118 2.09375 8.25C2.11375 8.2027 2.105 8.12067 2.125 8.0625C2.1486 7.997 2.21325 7.95351 2.21875 7.90625C2.22575 7.84445 2.174 7.75874 2.125 7.71875C1.9741 7.72775 1.86853 7.74165 1.78125 7.78125C1.58491 7.87035 1.63568 8.12571 1.4375 8.1875C1.3702 8.2093 1.26386 8.2373 1.1875 8.25C1.31681 7.59572 1.51845 6.96995 1.78125 6.375C1.85035 6.3877 1.90876 6.432 1.96875 6.4375C2.13601 6.4502 2.14307 6.3227 2.28125 6.25C2.42306 6.27 2.49592 6.2355 2.625 6.25C2.7123 6.259 2.83717 6.36955 2.90625 6.375C2.96445 6.377 2.9767 6.3034 3.03125 6.3125C3.08575 6.3215 3.17841 6.43456 3.1875 6.5C3.1965 6.5818 3.13255 6.65913 3.15625 6.75C3.24175 6.8373 3.40944 6.88661 3.53125 6.9375C3.61125 6.872 3.54395 6.71952 3.53125 6.625C3.52925 6.5832 3.53625 6.53824 3.53125 6.5C3.52225 6.4346 3.5 6.36884 3.5 6.3125C3.5 6.05259 3.70048 5.94554 3.875 5.84375C3.9495 5.80015 4.0283 5.72023 4.09375 5.6875C4.18645 5.642 4.23614 5.63735 4.3125 5.59375C4.45066 5.51555 4.58023 5.43283 4.6875 5.34375C4.7366 5.22563 4.6825 5.08507 4.6875 4.96875C4.7366 4.93785 4.75982 4.97375 4.8125 4.96875C4.8961 4.95055 4.92148 4.8285 4.96875 4.78125C4.99605 4.75395 5.09224 4.74595 5.125 4.71875C5.2086 4.65325 5.2085 4.56034 5.28125 4.53125C5.30675 4.52225 5.3662 4.5109 5.40625 4.5C5.46085 4.4855 5.53774 4.43705 5.625 4.40625C5.6814 4.38625 5.82193 4.3968 5.84375 4.375C5.87105 4.3477 5.83675 4.22931 5.84375 4.1875C5.88735 3.98213 6.19137 3.97533 6.375 3.90625C6.50226 3.85715 6.63944 3.75398 6.78125 3.78125C6.75395 3.87935 6.63261 3.85059 6.65625 3.96875C6.68715 4.13415 6.87933 3.92985 6.9375 3.90625C7.0484 3.85895 7.2608 3.83399 7.40625 3.78125C7.53351 3.73585 7.74497 3.64723 7.625 3.5C7.525 3.493 7.49351 3.58864 7.40625 3.625C7.34625 3.634 7.33213 3.59735 7.28125 3.59375C7.23215 3.59175 7.20539 3.6341 7.15625 3.625C7.10715 3.616 7.03852 3.52691 7.03125 3.46875C7.01125 3.31608 7.1882 3.26894 7.25 3.15625C7.2082 3.01811 7.0226 3.14825 6.90625 3.09375C6.91895 3.01195 6.96615 2.92263 7.0625 2.90625C7.1407 2.89355 7.32773 2.93095 7.375 2.96875C7.4023 2.99235 7.36454 3.0555 7.40625 3.09375C7.45355 3.13555 7.53194 3.10275 7.59375 3.09375C7.61555 2.99015 7.45058 3.036 7.46875 2.96875C7.59238 2.88875 7.81785 2.92625 7.96875 2.90625C8.05605 2.89355 8.14058 2.82307 8.21875 2.78125C8.29145 2.73945 8.36114 2.68089 8.4375 2.75C8.4593 2.8245 8.38545 2.86808 8.34375 2.90625C8.20376 3.02984 8.07783 3.16892 7.96875 3.3125C8.03605 3.378 8.13728 3.33105 8.25 3.34375C8.2936 3.34875 8.36079 3.3678 8.40625 3.375C8.46085 3.384 8.51886 3.366 8.5625 3.375C8.6389 3.3932 8.6424 3.5 8.71875 3.5C8.84238 3.5 8.8522 3.39611 8.78125 3.3125C8.80305 3.227 8.8435 3.15374 8.8125 3.09375C8.7561 2.98106 8.54216 3.11229 8.53125 2.96875C8.52425 2.87785 8.62351 2.85032 8.65625 2.78125C8.64175 2.60677 8.79942 2.59562 8.78125 2.4375C8.77225 2.372 8.70172 2.37424 8.65625 2.3125C8.63265 2.2798 8.62095 2.21112 8.59375 2.1875C8.49925 2.1075 8.32341 2.12144 8.3125 1.96875C8.3075 1.87785 8.3252 1.81689 8.3125 1.71875C8.2998 1.62605 8.20496 1.36192 8.125 1.34375C8.02319 1.32195 7.96556 1.50616 7.84375 1.5625C7.77835 1.5934 7.66101 1.60655 7.59375 1.59375C7.55015 1.58475 7.47421 1.5523 7.46875 1.46875C7.46425 1.4206 7.47984 1.4035 7.5 1.375C7.50475 1.36829 7.49511 1.35081 7.5 1.34375C8.291 1.11642 9.1359 1 10 1ZM6.28125 1.8125C6.19254 2.09661 5.93573 2.2588 5.59375 2.25C5.51015 2.33 5.5454 2.48287 5.5 2.59375C5.4618 2.68645 5.34271 2.75727 5.25 2.75C5.1827 2.745 5.0625 2.65736 5.0625 2.59375C5.0625 2.54161 5.11291 2.48273 5.125 2.4375C5.49305 2.19953 5.87887 1.99558 6.28125 1.8125ZM13.9375 2.125C13.904 2.131 13.8732 2.13895 13.8438 2.15625C13.7746 2.19805 13.7715 2.26126 13.7188 2.28125C13.6442 2.30855 13.5421 2.3078 13.5312 2.375C13.5222 2.4314 13.5956 2.44912 13.5938 2.5C13.5665 2.5673 13.5146 2.5744 13.5 2.65625C13.5928 2.80711 13.823 2.6578 13.9375 2.625C13.9884 2.6105 14.0353 2.63335 14.0625 2.59375C14.0934 2.54465 14.0701 2.44407 14.0937 2.375C14.1193 2.2986 14.1966 2.31724 14.1875 2.25C14.1805 2.1827 14.0503 2.1141 13.9375 2.125ZM4.03125 3.28125C4.09791 3.3617 4.15371 3.4786 4.03125 3.53125C4.01305 3.54025 3.79363 3.5716 3.75 3.5625C3.73646 3.56057 3.7309 3.53969 3.71875 3.53125C3.81432 3.43843 3.93164 3.3698 4.03125 3.28125ZM4.28125 3.59375C4.32485 3.59575 4.35531 3.6839 4.40625 3.6875C4.45535 3.6915 4.53336 3.64715 4.5625 3.65625C4.6389 3.67625 4.66651 3.81865 4.59375 3.875C4.53375 3.882 4.51233 3.8034 4.46875 3.8125C4.34512 3.8343 4.31147 4.06977 4.21875 4.0625C4.13145 4.0535 4.06712 3.87612 4.15625 3.8125C4.15825 3.7579 4.1213 3.74205 4.125 3.6875C4.1523 3.653 4.20849 3.58835 4.28125 3.59375ZM3.875 3.65625C3.9005 3.65625 3.89715 3.64535 3.90625 3.65625C3.89355 3.75255 3.85572 3.76706 3.78125 3.8125C3.65217 3.8907 3.57308 3.98903 3.53125 4.15625C3.51855 4.20535 3.37431 4.35646 3.3125 4.34375C3.16887 4.31285 3.37355 4.0418 3.40625 4C3.44265 3.9545 3.48947 3.92595 3.53125 3.875C3.57305 3.8241 3.5851 3.71657 3.625 3.6875C3.6686 3.6566 3.79865 3.65255 3.875 3.65625ZM16.1875 3.90625C16.3311 3.89725 16.4032 4.069 16.4688 4.15625C16.5233 4.22715 16.6921 4.32593 16.7812 4.375C16.8321 4.4023 16.8811 4.44335 16.9375 4.46875C16.9966 4.4951 17.0865 4.52965 17.1562 4.59375C17.226 4.65785 17.2785 4.75434 17.2812 4.8125C17.2832 4.8707 17.2409 4.91423 17.25 4.96875C17.313 4.979 17.3456 4.9149 17.375 4.84375C17.6106 5.17988 17.8114 5.53859 18 5.90625C17.9617 5.92996 17.9453 5.95316 17.9375 6C17.9192 6.10177 17.9965 6.23182 17.8438 6.25C17.7475 6.2627 17.6328 6.15404 17.5 6.125C17.4455 6.1123 17.3561 6.1395 17.3125 6.125C17.2125 6.0905 17.2417 5.96623 17.1562 5.90625C17.1071 5.87165 16.9844 5.8215 16.9062 5.8125C16.8571 5.8075 16.8321 5.8195 16.7812 5.8125C16.7195 5.8055 16.6134 5.81215 16.5625 5.78125C16.5134 5.75035 16.3877 5.69809 16.375 5.65625C16.355 5.58895 16.5276 5.49385 16.5312 5.4375C16.5353 5.3939 16.4779 5.37793 16.4688 5.3125C16.4617 5.2725 16.4778 5.21296 16.4688 5.1875C16.456 5.1402 16.387 5.09555 16.3125 5.09375C16.247 5.09375 16.1814 5.125 16.125 5.125C16.045 5.127 15.8812 5.08465 15.7812 5.09375C15.7212 5.09875 15.6814 5.1214 15.625 5.125C15.4669 5.1377 15.3736 5.116 15.25 5.125C15.1609 5.13 14.9899 5.18065 14.9062 5.21875C14.8645 5.23875 14.8358 5.2853 14.7812 5.3125C14.7559 5.3252 14.7203 5.32925 14.6875 5.34375C14.6366 5.36735 14.5491 5.4248 14.5 5.4375C14.4291 5.4557 14.3479 5.4325 14.2188 5.4375C14.126 5.4425 13.9706 5.42334 13.9688 5.3125C13.9668 5.14347 14.2775 5.21654 14.4375 5.1875C14.4975 5.1748 14.521 5.10428 14.5938 5.0625C14.6284 5.0425 14.6547 5.0218 14.6875 5C14.742 4.9618 14.8346 4.88738 14.8438 4.84375C14.8508 4.80375 14.807 4.74778 14.8125 4.71875C14.8195 4.68055 14.8884 4.64282 14.9375 4.59375C15.0139 4.51735 15.0617 4.42407 15.1562 4.375C15.2199 4.3405 15.3459 4.33205 15.375 4.28125C15.382 4.22305 15.373 4.20899 15.375 4.15625C15.415 4.11985 15.4047 4.10095 15.4375 4.09375C15.5358 4.07195 15.6355 4.1305 15.75 4.125C15.7991 4.123 15.8535 4.12855 15.9063 4.09375C15.9499 4.06465 15.9876 4.0218 16.0312 4C16.0785 3.9745 16.1292 3.90985 16.1875 3.90625ZM4.71875 4C4.7428 3.99616 4.78337 4.0027 4.8125 4C4.8543 3.998 4.89205 4 4.9375 4C4.983 4 5.04433 3.9818 5.0625 4C5.0334 4.11996 4.75079 4.07495 4.65625 4.03125C4.65875 4.0085 4.6947 4.00384 4.71875 4ZM4.375 4.21875C4.4059 4.21875 4.43605 4.20605 4.46875 4.21875C4.38515 4.28965 4.27045 4.32956 4.125 4.375C4.0559 4.3968 3.95023 4.42005 3.9375 4.34375C3.9229 4.24925 4.00066 4.259 4.0625 4.25C4.1425 4.241 4.28228 4.22055 4.375 4.21875ZM16.2188 4.21875C16.1587 4.23875 16.1296 4.35865 16.2188 4.375C16.2605 4.3496 16.261 4.2951 16.25 4.21875C16.2264 4.19335 16.2369 4.21175 16.2188 4.21875ZM16.1875 4.46875C16.1584 4.47775 16.1245 4.4672 16.0938 4.5C16.0957 4.60177 16.1137 4.66094 16.0938 4.75C16.152 4.86269 16.2834 4.79505 16.3125 4.71875C16.3471 4.52973 16.2748 4.44513 16.1875 4.46875ZM16.9688 4.96875C16.8887 4.96475 16.8285 4.99345 16.7812 5.03125C16.8485 5.14031 16.9741 5.16023 17.125 5.1875C17.1795 5.1475 17.1621 5.03782 17.1875 4.96875C17.122 4.96875 17.08 4.97275 17 4.96875ZM1.09375 8.8125C1.15761 8.89387 1.22664 8.98876 1.3125 9.03125C1.358 9.05485 1.41058 9.0498 1.46875 9.0625C1.51605 9.0715 1.54832 9.1105 1.59375 9.125C1.69015 9.1577 1.8299 9.153 1.90625 9.1875C2.02261 9.2384 2.0875 9.44183 2.1875 9.5C2.1925 9.5582 2.1693 9.61263 2.1875 9.65625C2.2348 9.71985 2.32988 9.73949 2.40625 9.78125C2.49895 9.83215 2.53774 9.96001 2.625 10C2.6559 10.0127 2.70266 9.9855 2.75 10C2.86999 10.0364 2.89637 10.2184 3 10.1875C3.0673 10.1675 3.08285 10.0654 3.09375 10C3.13925 9.9509 3.17904 9.875 3.25 9.875C3.36271 9.873 3.39568 10.0141 3.4375 10.125C3.4611 10.1868 3.51495 10.2471 3.53125 10.3125C3.55855 10.4252 3.55485 10.7452 3.53125 10.8125C3.50215 10.8961 3.38159 10.9404 3.3125 11.0312C3.2798 11.0749 3.24415 11.1272 3.21875 11.1562C3.17515 11.2108 3.12652 11.2322 3.09375 11.2812C3.07555 11.3086 3.0788 11.3681 3.0625 11.4062C3.0079 11.5226 2.92327 11.61 2.96875 11.75C2.98695 11.8064 3.0625 11.8703 3.0625 11.9375C3.0625 12.0175 2.88772 12.0378 2.875 12.125C2.866 12.1886 2.94885 12.3208 2.96875 12.4062C2.98325 12.4699 3.08683 12.5207 3.125 12.5625C3.1886 12.6334 3.25432 12.7216 3.3125 12.8125C3.42703 12.9887 3.48105 13.2024 3.59375 13.375C3.65375 13.4641 3.7725 13.5305 3.8125 13.625C3.8325 13.6723 3.7943 13.7689 3.8125 13.8125C3.8779 13.9597 4.19649 14.1148 4.34375 14.1875C4.41285 14.2221 4.46763 14.2449 4.53125 14.2813C4.62765 14.3359 4.82592 14.4459 4.875 14.5312C4.9186 14.6076 4.94695 14.7845 4.96875 14.9063C4.99605 15.0663 4.96175 15.2024 4.96875 15.375C4.97375 15.4695 5 15.5305 5 15.625C5 15.6577 5.002 15.7172 5 15.75C4.998 15.8627 5.009 15.9793 5 16.0938C4.995 16.1555 4.996 16.2285 5 16.2812C5.005 16.3376 5.0589 16.3573 5.0625 16.4062C5.0665 16.459 4.9945 16.5207 5 16.5625C5.0127 16.677 5.13443 16.7696 5.15625 16.875C5.17445 16.9586 5.1984 17.15 5.1875 17.25C5.1805 17.3027 5.16355 17.3794 5.15625 17.4375C5.15125 17.483 5.16325 17.5208 5.15625 17.5625C2.66454 15.962 1 13.1815 1 10C1 9.59212 1.04119 9.206 1.09375 8.8125ZM4.53125 9.71875C4.61855 9.67875 4.60215 9.83284 4.53125 9.84375C4.46395 9.85275 4.46585 9.7497 4.53125 9.71875Z"/>
 </g>
</svg>
