<?xml version="1.0" encoding="UTF-8" standalone="no"?>
<!-- Created using Karbon, part of Calligra: http://www.calligra.org/karbon -->

<svg
   xmlns:dc="http://purl.org/dc/elements/1.1/"
   xmlns:cc="http://creativecommons.org/ns#"
   xmlns:rdf="http://www.w3.org/1999/02/22-rdf-syntax-ns#"
   xmlns:svg="http://www.w3.org/2000/svg"
   xmlns="http://www.w3.org/2000/svg"
   xmlns:sodipodi="http://sodipodi.sourceforge.net/DTD/sodipodi-0.dtd"
   xmlns:inkscape="http://www.inkscape.org/namespaces/inkscape"
   width="51.2pt"
   height="51.2pt"
   id="svg2"
   version="1.1"
   inkscape:version="0.91 r13725"
   sodipodi:docname="folder-git.svg">
  <metadata
     id="metadata18">
    <rdf:RDF>
      <cc:Work
         rdf:about="">
        <dc:format>image/svg+xml</dc:format>
        <dc:type
           rdf:resource="http://purl.org/dc/dcmitype/StillImage" />
        <dc:title></dc:title>
      </cc:Work>
    </rdf:RDF>
  </metadata>
  <sodipodi:namedview
     pagecolor="#ffffff"
     bordercolor="#666666"
     borderopacity="1"
     objecttolerance="10"
     gridtolerance="10"
     guidetolerance="10"
     inkscape:pageopacity="0"
     inkscape:pageshadow="2"
     inkscape:window-width="1280"
     inkscape:window-height="726"
     id="namedview16"
     showgrid="false"
     inkscape:zoom="2.7311131"
     inkscape:cx="-24.032601"
     inkscape:cy="1.7085334"
     inkscape:window-x="0"
     inkscape:window-y="26"
     inkscape:window-maximized="1"
     inkscape:current-layer="svg2" />
  <defs
     id="defs4" />
  <g
     id="layer1">
    <path
       id="shape0"
       transform="translate(4.05374, 6.03687)"
       fill="none"
       stroke="#696969"
       stroke-width="0.35433132250"
       stroke-linecap="butt"
       stroke-linejoin="miter"
       stroke-miterlimit="0.28346505761"
       d="M4.98946e-15 0L0 27.0079L55.8807 26.269L55.8807 3.87576L27.8467 3.87576L23.9826 0.000366266C23.9426 0.0411354 15.9484 0.0410133 4.98946e-15 0Z" />
    <path
       id="rect4180"
       transform="translate(4, 5.9999)"
       fill="#31363b"
       stroke="#444b52"
       stroke-opacity="0.78823529412"
       stroke-width="0.00000000000"
       stroke-linecap="butt"
       stroke-linejoin="miter"
       stroke-miterlimit="0.28346505761"
       d="M0 0.00023L0 5.00023L0 27.0002C0 27.5539 0.446 28.0002 1 28.0002L55 28.0002C55.554 28.0002 56 27.5539 56 27.0002L56 5.01C56 5.007 55.998 5.004 55.998 5L56 5L56 4L28 4L24 0L0 0Z" />
    <path
       id="rect4113"
       transform="translate(3, 16.0001)"
       fill="#444b52"
       d="M23 0L19 4L0 4L0 5L0.002 5C0.00195 5.004 0 5.008 0 5.0117L0 41L0 42L1 42L57 42L58 42L58 41L58 5.0117L58 5L58 0Z" />
    <path
       id="path4224"
       transform="translate(3.00001, 16.0001)"
       fill="#ffffff"
       fill-opacity="0.23529411765"
       fill-rule="evenodd"
       d="M0 4L0 5L20 5L23 0L19 4Z" />
    <path
       id="path4228"
       transform="translate(4, 16.0001)"
       fill="#000000"
       fill-opacity="0.23529411765"
       fill-rule="evenodd"
       d="M0 3L0 4L18 4L22 0L16 3Z" />
    <path
       id="path4151-2"
       transform="translate(3, 57.0001)"
       fill="#000000"
       fill-opacity="0.23529411765"
       d="M0 0L0 1L1 1L57 1L58 1L58 0L57 0L1 0Z" />
    <path
       id="path4196"
       transform="translate(28, 6.00001)"
       fill="#ffffff"
       fill-opacity="0.23529411765"
       fill-rule="evenodd"
       d="M0 0L3 5L5 5L32 5L32 4L5 4L4 4Z" />
  </g>
  <g
     transform="matrix(0.29479202,0,0,0.29479202,17.878591,23.639878)"
     id="g3"
     style="fill:#31363b;fill-opacity:1">
    <path
       style="fill:#31363b;fill-opacity:1"
       inkscape:connector-curvature="0"
       d="M 92.71,44.408 52.591,4.291 c -2.31,-2.311 -6.057,-2.311 -8.369,0 l -8.33,8.332 10.567,10.567 c 2.456,-0.83 5.272,-0.273 7.229,1.685 1.969,1.97 2.521,4.81 1.67,7.275 l 10.186,10.185 c 2.465,-0.85 5.307,-0.3 7.275,1.671 2.75,2.75 2.75,7.206 0,9.958 -2.752,2.751 -7.208,2.751 -9.961,0 -2.068,-2.07 -2.58,-5.11 -1.531,-7.658 l -9.5,-9.499 0,24.997 c 0.67,0.332 1.303,0.774 1.861,1.332 2.75,2.75 2.75,7.206 0,9.959 -2.75,2.749 -7.209,2.749 -9.957,0 -2.75,-2.754 -2.75,-7.21 0,-9.959 0.68,-0.679 1.467,-1.193 2.307,-1.537 l 0,-25.23 c -0.84,-0.344 -1.625,-0.853 -2.307,-1.537 -2.083,-2.082 -2.584,-5.14 -1.516,-7.698 L 31.798,16.715 4.288,44.222 c -2.311,2.313 -2.311,6.06 0,8.371 l 40.121,40.118 c 2.31,2.311 6.056,2.311 8.369,0 L 92.71,52.779 c 2.311,-2.311 2.311,-6.06 0,-8.371 z"
       id="path5" />
  </g>
</svg>
