<?xml version="1.0" standalone="no"?>
<!DOCTYPE svg PUBLIC "-//W3C//DTD SVG 20010904//EN" "http://www.w3.org/TR/2001/REC-SVG-20010904/DTD/svg10.dtd">
<!-- Created using Karbon, part of Calligra: http://www.calligra.org/karbon -->
<svg xmlns="http://www.w3.org/2000/svg" xmlns:xlink="http://www.w3.org/1999/xlink" width="51.2pt" height="51.2pt">
<defs/>
<g id="layer1">
  <g id="layer1-1" transform="translate(2.375, 5.37489)" fill="none">
   <path id="rect4180" transform="translate(1.625, 0.625)" fill="#800000" d="M0 0.00023L0 5.00023L0 27.0002C0 27.5539 0.446 28.0002 1 28.0002L55 28.0002C55.554 28.0002 56 27.5539 56 27.0002L56 5.01C56 5.007 55.998 5.004 55.998 5L56 5L56 4L28 4L24 0L0 0Z"/>
   <path id="rect4113" transform="translate(0.625, 10.6252)" fill="#c50020" d="M23 0L19 4L0 4L0 5L0.002 5C0.00195 5.004 0 5.008 0 5.0117L0 41L0 42L1 42L57 42L58 42L58 41L58 5.0117L58 5L58 0Z"/>
   <path id="path4224-8" transform="translate(0.62501, 10.6252)" fill="#ffffff" fill-opacity="0.23529411765" fill-rule="evenodd" d="M0 4L0 5L20 5L23 0L19 4Z"/>
   <path id="path4228-3" transform="translate(1.625, 10.6252)" fill="#000000" fill-opacity="0.23529411765" fill-rule="evenodd" d="M0 3L0 4L18 4L22 0L16 3Z"/>
   <path id="path4151-2" transform="translate(0.625, 51.6252)" fill="#000000" fill-opacity="0.23529411765" d="M0 0L0 1L1 1L57 1L58 1L58 0L57 0L1 0Z"/>
   <path id="path4196" transform="translate(25.625, 0.62511)" fill="#ffffff" fill-opacity="0.23529411765" fill-rule="evenodd" d="M0 0L3 5L5 5L32 5L32 4L5 4L4 4Z"/>
  </g>
  <path id="path4153" transform="translate(22, 27)" fill="#800000" d="M6.99999 0L6.99999 2L0 2L1e-05 3L1.99999 3L1.99999 20L2.99999 20L18 20L18 18L18 3L20 3L20 2L13 2L13 1e-05ZM7.99999 1L12 1L12 3L13 3L17 3L17 19L2.99999 19L2.99999 3L7.99999 3ZM6.99999 7L6.99999 15L7.99999 15L7.99999 7ZM12 7L12 15L13 15L13 7Z"/>
 </g>
</svg>
