<?xml version="1.0" encoding="UTF-8" standalone="no"?>
<!-- Created with Inkscape (http://www.inkscape.org/) -->

<svg
   xmlns:dc="http://purl.org/dc/elements/1.1/"
   xmlns:cc="http://creativecommons.org/ns#"
   xmlns:rdf="http://www.w3.org/1999/02/22-rdf-syntax-ns#"
   xmlns:svg="http://www.w3.org/2000/svg"
   xmlns="http://www.w3.org/2000/svg"
   xmlns:sodipodi="http://sodipodi.sourceforge.net/DTD/sodipodi-0.dtd"
   xmlns:inkscape="http://www.inkscape.org/namespaces/inkscape"
   width="64"
   height="64"
   viewBox="0 0 64 64"
   id="svg4178"
   version="1.1"
   inkscape:version="0.91 r13725"
   sodipodi:docname="accessories-calculator.svg">
  <defs
     id="defs4180" />
  <sodipodi:namedview
     id="base"
     pagecolor="#ffffff"
     bordercolor="#666666"
     borderopacity="1.0"
     inkscape:pageopacity="0.0"
     inkscape:pageshadow="2"
     inkscape:zoom="5.8891869"
     inkscape:cx="21.199181"
     inkscape:cy="21.78195"
     inkscape:document-units="px"
     inkscape:current-layer="layer1"
     showgrid="false"
     units="px"
     inkscape:window-width="1280"
     inkscape:window-height="722"
     inkscape:window-x="0"
     inkscape:window-y="28"
     inkscape:window-maximized="1" />
  <metadata
     id="metadata4183">
    <rdf:RDF>
      <cc:Work
         rdf:about="">
        <dc:format>image/svg+xml</dc:format>
        <dc:type
           rdf:resource="http://purl.org/dc/dcmitype/StillImage" />
        <dc:title />
      </cc:Work>
    </rdf:RDF>
  </metadata>
  <g
     inkscape:label="Layer 1"
     inkscape:groupmode="layer"
     id="layer1"
     transform="translate(0,-988.3622)">
    <circle
       style="opacity:1;fill:#31363b;fill-opacity:1;stroke:none;stroke-width:1.24300003;stroke-miterlimit:4;stroke-dasharray:none;stroke-opacity:1"
       id="path4746"
       cx="32"
       cy="1020.3622"
       r="32" />
    <path
       inkscape:connector-curvature="0"
       style="display:inline;opacity:1;fill:#ffffff;fill-opacity:1;stroke:none;stroke-opacity:1"
       d="m 14.5,1002.8622 0,15.1667 15.166667,0 0,-15.1667 -15.166667,0 z m 19.833333,0 0,15.1667 15.166667,0 0,-15.1667 -15.166667,0 z m -18.666666,1.1667 12.833333,0 0,12.8333 -12.833333,0 0,-12.8333 z m 19.833333,0 12.833333,0 0,12.8333 -12.833333,0 0,-12.8333 z m -14,1.1666 0,4.6667 -4.666667,0 0,1.1667 4.666667,0 0,4.6666 1.166667,0 0,-4.6666 4.666666,0 0,-1.1667 -4.666666,0 0,-4.6667 -1.166667,0 z m 15.166667,4.6667 0,1.1667 10.499999,0 0,-1.1667 -10.499999,0 z M 14.5,1022.6955 l 0,15.1667 15.166667,0 0,-15.1667 -15.166667,0 z m 19.833333,0 0,15.1667 15.166667,0 0,-15.1667 -15.166667,0 z m -18.666666,1.1667 12.833333,0 0,12.8333 -12.833333,0 0,-12.8333 z m 19.833333,0 12.833333,0 0,12.8333 -12.833333,0 0,-12.8333 z m -17.841797,1.1667 -0.82487,0.8248 4.425131,4.4252 -4.425131,4.4251 0.82487,0.8249 4.42513,-4.4252 4.425131,4.4252 0.824869,-0.8249 -4.42513,-4.4251 4.42513,-4.4252 -0.824869,-0.8248 -4.425131,4.4251 -4.42513,-4.4251 z m 20.17513,2.3333 0,1.1667 8.166667,0 0,-1.1667 -8.166667,0 z m 0,4.6667 0,1.1666 8.166667,0 0,-1.1666 -8.166667,0 z"
       id="rect4165" />
    <path
       inkscape:connector-curvature="0"
       style="opacity:1;fill:#ffffff;fill-opacity:1;stroke:none;stroke-width:1.24300003;stroke-miterlimit:4;stroke-dasharray:none;stroke-opacity:1"
       d="m 32,989.3622 a 31,31 0 0 0 -31,31 31,31 0 0 0 31,31 31,31 0 0 0 31,-31 31,31 0 0 0 -31,-31 z m 0,2.69565 A 28.304348,28.304348 0 0 1 60.304348,1020.3622 28.304348,28.304348 0 0 1 32,1048.6665 28.304348,28.304348 0 0 1 3.6956522,1020.3622 28.304348,28.304348 0 0 1 32,992.05785 Z"
       id="path4145-3" />
  </g>
</svg>
