<?xml version="1.0" encoding="UTF-8" standalone="no"?>
<!-- Created with Inkscape (http://www.inkscape.org/) -->

<svg
   xmlns:dc="http://purl.org/dc/elements/1.1/"
   xmlns:cc="http://creativecommons.org/ns#"
   xmlns:rdf="http://www.w3.org/1999/02/22-rdf-syntax-ns#"
   xmlns:svg="http://www.w3.org/2000/svg"
   xmlns="http://www.w3.org/2000/svg"
   xmlns:sodipodi="http://sodipodi.sourceforge.net/DTD/sodipodi-0.dtd"
   xmlns:inkscape="http://www.inkscape.org/namespaces/inkscape"
   width="64"
   height="64"
   viewBox="0 0 64 64"
   id="svg4178"
   version="1.1"
   inkscape:version="0.91 r13725"
   sodipodi:docname="google-chrome.svg">
  <defs
     id="defs4180" />
  <sodipodi:namedview
     id="base"
     pagecolor="#ffffff"
     bordercolor="#666666"
     borderopacity="1.0"
     inkscape:pageopacity="0.0"
     inkscape:pageshadow="2"
     inkscape:zoom="12.149324"
     inkscape:cx="10.012317"
     inkscape:cy="16.920658"
     inkscape:document-units="px"
     inkscape:current-layer="layer1"
     showgrid="false"
     units="px"
     inkscape:window-width="1280"
     inkscape:window-height="722"
     inkscape:window-x="0"
     inkscape:window-y="28"
     inkscape:window-maximized="1" />
  <metadata
     id="metadata4183">
    <rdf:RDF>
      <cc:Work
         rdf:about="">
        <dc:format>image/svg+xml</dc:format>
        <dc:type
           rdf:resource="http://purl.org/dc/dcmitype/StillImage" />
        <dc:title />
      </cc:Work>
    </rdf:RDF>
  </metadata>
  <g
     inkscape:label="Layer 1"
     inkscape:groupmode="layer"
     id="layer1"
     transform="translate(0,-988.3622)">
    <circle
       style="opacity:1;fill:#31363b;fill-opacity:1;stroke:none;stroke-width:1.24300003;stroke-miterlimit:4;stroke-dasharray:none;stroke-opacity:1"
       id="path4746"
       cx="32"
       cy="1020.3622"
       r="32" />
    <path
       inkscape:connector-curvature="0"
       style="opacity:1;fill:#ffffff;fill-opacity:1;stroke:none;stroke-width:1.24300003;stroke-miterlimit:4;stroke-dasharray:none;stroke-opacity:1"
       d="m 31.999999,989.36223 a 31,31 0 0 0 -30.99999956,31.00007 31,31 0 0 0 30.99999956,31 31,31 0 0 0 31,-31 31,31 0 0 0 -31,-31.00007 z m 0,2.69565 a 28.304348,28.304348 0 0 1 28.304348,28.30442 28.304348,28.304348 0 0 1 -28.304348,28.3043 28.304348,28.304348 0 0 1 -28.3043474,-28.3043 28.304348,28.304348 0 0 1 28.3043474,-28.30442 z"
       id="path4145-3" />
    <path
       inkscape:connector-curvature="0"
       style="display:inline;opacity:1;fill:#ffffff;fill-opacity:1;stroke:none;stroke-width:2.79999995;stroke-miterlimit:4;stroke-dasharray:none;stroke-opacity:0.55026455"
       d="m 17000,1005.3618 0,0.9903 0,0.01 0.01,0 8.99,8.9921 0,0.6172 -9,9 0,0.3906 0,1.0234 0,7.9766 0,1 1,0 9,0 0.424,0 9,-9 0.586,0 8.99,8.9902 0,0.01 1,0 0,-0.4238 0,-19.1523 0,-1.4141 0,-9.0098 -29.576,0 -0.424,0 z m 1.424,1 27.576,0 0,9.0098 0,1.4141 0,17.1523 -8,-8 0,-1.1524 0,-1.414 0,-9.0098 -11.578,0 -7.998,-8 z m 8.576,9 0.424,0 9.576,0 0,9.0098 0,0.5664 0,0.4238 -10,0 0,-8.9765 0,-0.033 0,-0.9903 z m -1,2.0234 0,8.9766 9.01,0 -8.01,8.0098 0,-0.01 -9,0 0,-8.9766 8,-8 z"
       id="rect4166" />
    <path
       inkscape:connector-curvature="0"
       style="opacity:1;fill:#ffffff;fill-opacity:1;stroke:none;stroke-width:2.79999995;stroke-miterlimit:4;stroke-dasharray:none;stroke-opacity:0.55026455"
       d="m 32,1000.3622 c -5.595928,0 -10.637255,2.2787 -14.260416,5.9583 -0.328955,0.3341 -0.640452,0.6852 -0.945313,1.0417 -2.985822,3.4924 -4.794271,8.024 -4.794271,13 0,7.484 4.076731,13.9712 10.132812,17.4011 0.407357,0.2306 0.827908,0.4382 1.252604,0.6406 2.609028,1.2428 5.522029,1.9583 8.614584,1.9583 11.079993,0 20,-8.92 20,-20 0,-1.8492 -0.268863,-3.6307 -0.734375,-5.3281 -0.124146,-0.4527 -0.264837,-0.8968 -0.41927,-1.336 -2.72e-4,-7e-4 2.7e-4,0 0,0 C 48.109736,1005.9203 40.736688,1000.3649 32,1000.3649 Z m 0,1.3333 c 7.986497,0 14.751577,4.9752 17.427083,12 l -17.427083,0 c -3.425423,0 -6.228109,2.56 -6.617188,5.8776 l -6.947916,-12.0338 c 3.398373,-3.5952 8.204555,-5.8438 13.565104,-5.8438 z m -14.497396,6.8907 8.718751,15.1041 c 0.05424,0.095 0.116346,0.1807 0.174478,0.2708 -0.176982,-0.2757 -0.329593,-0.5661 -0.466145,-0.8672 0.135367,0.3015 0.289316,0.5918 0.466145,0.8672 0,0 0.0027,0 0.0027,0 0.09892,0.154 0.214616,0.2927 0.325521,0.4375 0.134763,0.1729 0.265911,0.3492 0.414063,0.5079 0.218981,0.2341 0.462887,0.4401 0.713541,0.6406 0.08555,0.073 0.169067,0.1504 0.260416,0.2162 0.187139,0.1346 0.387446,0.2469 0.588543,0.362 0.177356,0.1013 0.351319,0.2048 0.536457,0.289 0.191026,0.087 0.390858,0.1523 0.591147,0.2214 0.211292,0.073 0.420572,0.1465 0.63802,0.1978 0.325243,0.076 0.655396,0.1396 0.997396,0.1667 0.05476,0 0.109147,0 0.164063,0.013 0.12416,0.013 0.246348,0.019 0.372333,0.019 l 0.877604,0 -9.765625,9.7631 c -5.832158,-3.1534 -9.778646,-9.3143 -9.778646,-16.4331 0,-4.474 1.563614,-8.5676 4.169271,-11.776 z m 15.507812,5.1927 c 0.04791,0.013 0.09569,0.015 0.143229,0.024 -0.04744,-0.013 -0.09544,-0.016 -0.143229,-0.024 z m 0.713543,0.1692 c 0.193945,0.053 0.386584,0.1066 0.572916,0.1772 -0.186795,-0.068 -0.3786,-0.1254 -0.572916,-0.1772 z m 1.23177,0.4636 c 0.09997,0.051 0.197183,0.104 0.294271,0.1588 -0.09728,-0.055 -0.194017,-0.1094 -0.294271,-0.1588 z M 32,1015.0289 c 2.954667,0 5.333333,2.3786 5.333333,5.3333 0,2.9547 -2.378666,5.3333 -5.333333,5.3333 -2.954667,0 -5.333333,-2.3786 -5.333333,-5.3333 0,-2.9547 2.378666,-5.3333 5.333333,-5.3333 z m 3.973959,0 13.916666,0 c 0.499972,1.6898 0.776042,3.477 0.776042,5.3333 0,10.3413 -8.325339,18.6667 -18.666667,18.6667 -2.718339,0 -5.289435,-0.5891 -7.614584,-1.625 l 12.289063,-12.2865 c -0.21392,0.2103 -0.446671,0.3985 -0.6875,0.5781 l -0.01563,0 c 0.02036,-0.015 0.03971,-0.032 0.05989,-0.047 0.07851,-0.06 0.151544,-0.1267 0.226562,-0.19 0.04165,-0.036 0.08644,-0.068 0.1276,-0.104 0.09363,-0.083 0.200226,-0.1496 0.289062,-0.237 0.04485,-0.044 0.08401,-0.092 0.1276,-0.138 0.11752,-0.1226 0.215011,-0.2622 0.322918,-0.3932 0.14548,-0.1765 0.302754,-0.3428 0.429688,-0.5338 0.02827,-0.043 0.05045,-0.089 0.07292,-0.1355 0.01619,-0.033 0.03256,-0.067 0.05208,-0.099 0.399473,-0.6569 0.706226,-1.3769 0.859374,-2.1589 0.0041,-0.021 0.0064,-0.044 0.0104,-0.065 0.07424,-0.3996 0.117214,-0.8099 0.117214,-1.2318 0,-0.7908 -0.160943,-1.5369 -0.411459,-2.2396 -0.03224,-0.091 -0.04996,-0.1874 -0.08593,-0.276 -0.209731,-0.5162 -0.489359,-0.9906 -0.815104,-1.4322 -0.123227,-0.1671 -0.257616,-0.325 -0.395834,-0.4792 -0.012,-0.013 -0.02167,-0.028 -0.03385,-0.041 -0.28882,-0.3182 -0.605252,-0.6072 -0.950525,-0.8645 z m -10.572918,6.2317 c 0.0077,0.057 0.01688,0.1147 0.02604,0.1719 -0.0093,-0.057 -0.01812,-0.1147 -0.02604,-0.1719 z m 0.138022,0.6745 c 0.06116,0.2532 0.140138,0.4987 0.229166,0.7396 -0.09027,-0.2406 -0.166845,-0.4866 -0.229166,-0.7396 z m 9.580729,4.3022 c -0.02292,0.013 -0.04724,0.021 -0.07031,0.033 0.02317,-0.013 0.04723,-0.021 0.07031,-0.033 z m -0.825521,0.3618 c -0.06987,0.025 -0.134771,0.06 -0.20573,0.083 -0.116146,0.039 -0.240405,0.059 -0.359374,0.091 0.191581,-0.051 0.380841,-0.1067 0.565104,-0.1746 z"
       id="rect4170" />
  </g>
</svg>
