<?xml version="1.0" encoding="UTF-8" standalone="no"?>
<!-- Created with Inkscape (http://www.inkscape.org/) -->

<svg
   xmlns:dc="http://purl.org/dc/elements/1.1/"
   xmlns:cc="http://creativecommons.org/ns#"
   xmlns:rdf="http://www.w3.org/1999/02/22-rdf-syntax-ns#"
   xmlns:svg="http://www.w3.org/2000/svg"
   xmlns="http://www.w3.org/2000/svg"
   xmlns:sodipodi="http://sodipodi.sourceforge.net/DTD/sodipodi-0.dtd"
   xmlns:inkscape="http://www.inkscape.org/namespaces/inkscape"
   width="64"
   height="64"
   viewBox="0 0 64 64"
   id="svg4178"
   version="1.1"
   inkscape:version="0.91 r13725"
   sodipodi:docname="guitarpro6.svg">
  <defs
     id="defs4180" />
  <sodipodi:namedview
     id="base"
     pagecolor="#ffffff"
     bordercolor="#666666"
     borderopacity="1.0"
     inkscape:pageopacity="0.0"
     inkscape:pageshadow="2"
     inkscape:zoom="6.0273031"
     inkscape:cx="46.302261"
     inkscape:cy="37.533547"
     inkscape:document-units="px"
     inkscape:current-layer="layer1"
     showgrid="false"
     units="px"
     inkscape:window-width="1280"
     inkscape:window-height="724"
     inkscape:window-x="0"
     inkscape:window-y="26"
     inkscape:window-maximized="1" />
  <metadata
     id="metadata4183">
    <rdf:RDF>
      <cc:Work
         rdf:about="">
        <dc:format>image/svg+xml</dc:format>
        <dc:type
           rdf:resource="http://purl.org/dc/dcmitype/StillImage" />
        <dc:title />
      </cc:Work>
    </rdf:RDF>
  </metadata>
  <g
     inkscape:label="Layer 1"
     inkscape:groupmode="layer"
     id="layer1"
     transform="translate(0,-988.3622)">
    <circle
       style="opacity:1;fill:#31363b;fill-opacity:1;stroke:none;stroke-width:1.24300003;stroke-miterlimit:4;stroke-dasharray:none;stroke-opacity:1"
       id="path4746"
       cx="32"
       cy="1020.3622"
       r="32" />
    <path
       inkscape:connector-curvature="0"
       style="opacity:1;fill:#ffffff;fill-opacity:1;stroke:none;stroke-width:1.24300003;stroke-miterlimit:4;stroke-dasharray:none;stroke-opacity:1"
       d="m 31.999999,989.36223 a 31,31 0 0 0 -30.99999956,31.00007 31,31 0 0 0 30.99999956,31 31,31 0 0 0 31,-31 31,31 0 0 0 -31,-31.00007 z m 0,2.69565 a 28.304348,28.304348 0 0 1 28.304348,28.30442 28.304348,28.304348 0 0 1 -28.304348,28.3043 28.304348,28.304348 0 0 1 -28.3043474,-28.3043 28.304348,28.304348 0 0 1 28.3043474,-28.30442 z"
       id="path4145-3" />
    <g
       id="g4214">
      <g
         style="fill:none;fill-opacity:1;stroke:#ffffff;stroke-opacity:1;stroke-width:7.06843815;stroke-miterlimit:4;stroke-dasharray:none"
         id="g4252"
         transform="matrix(0.08233785,0,0,0.08233785,10.854819,1000.611)">
        <g
           style="fill:none;fill-opacity:1;stroke:#ffffff;stroke-opacity:1;stroke-width:7.06843815;stroke-miterlimit:4;stroke-dasharray:none"
           id="g4249">
          <path
             sodipodi:nodetypes="ccccccccccccccccccscsccccccccscscccscccccscsccsccscccssccscccsccscccsscccccccscsscccccsccssccccccccsscsscccscscccccccsccccscscccccccccsccscscscccc"
             d="M 222.9,6.1 C 126.10987,14.215519 96.557933,24.45823 52,102.4 42,132.7 41.7,171 51.1,208 c 4.8,18.6 21.1,57.4 40.3,95.8 37.5,69.3 22.67879,43.57888 37.5,69.3 26.9,45 53.9,80.7 81.3,107.6 27.54752,29.80707 66.27298,28.77148 87.6,4.4 8.4,-7.4 21,-20.8 31.3,-33.3 l 6.4,-7.7 c 26.20299,-36.12313 28.32582,-38.61494 30.4,-41.9 5.4,-8.1 13.7,-21.2 18.5,-29.2 18.93394,-27.15072 30.6071,-55.92309 37,-69.7 11.2,-23.6 25.2,-56.2 32.6,-75.8 9,-24.1 12.4,-41 13.6,-68.5 l 0.7,-15.5 -2.4,1.6 c -1.3,0.9 -4,4.5 -5.9,8 -1.9,3.6 -4.5,7.8 -5.6,9.5 -1.2,1.6 -5,9.2 -8.4,16.9 -3.4,7.7 -7.2,16.3 -8.5,19 -1.2,2.8 -5.8,12.9 -10,22.5 -4.2,9.6 -10.6,23.9 -14.2,31.8 -5.8,12.9 -6.4,14.9 -6.2,20 0.2,3.1 0,6.7 -0.4,7.8 -0.7,1.9 -0.3,2.3 2.8,2.8 3.5,0.7 4.2,1.9 2.6,4.5 -0.7,1.1 -1.3,1 -3.5,-0.4 -1.4,-1 -2.6,-2.2 -2.7,-2.9 -0.1,-1.4 -2.8,4.4 -2.9,6.1 0,0.7 0.8,1.3 1.8,1.3 1,0 2.7,0.6 3.8,1.4 1.7,1.3 1.8,1.6 0.3,3.1 -1.4,1.4 -1.8,1.4 -4.2,-0.5 l -2.7,-2.1 -1,2.6 c -1.6,4.1 -1.2,5.5 1.4,5.5 3.2,0 5.1,2.3 3.3,3.9 -1.1,0.8 -2,0.6 -4,-0.9 l -2.5,-2 -0.7,3.2 c -1,4.6 -2.3,6 -4.5,4.8 -1,-0.6 -3,-1 -4.3,-1 -3,0 -7.8,-2.4 -10.2,-5 -1,-1.1 -2.4,-2 -3.2,-2 -1.7,0 -1.7,-1.4 0.2,-5 1.5,-2.9 1.4,-3 -1,-3.6 -1.5,-0.4 -2.5,-1.3 -2.5,-2.4 0,-2.8 1.8,-3.4 4.5,-1.6 2.2,1.5 2.4,1.4 3.4,-1.6 1.4,-4 1.4,-3.8 -0.8,-3.8 -2.5,0 -3.4,-1.5 -2.6,-4.1 0.6,-1.9 0.8,-1.9 3.2,-0.4 1.3,0.9 2.6,1.5 2.8,1.3 0.6,-0.7 2.5,-4.7 2.5,-5.2 0,-0.3 -1.1,-0.6 -2.5,-0.6 -3,0 -4.3,-2.4 -2.5,-4.5 1,-1.2 1.5,-1.2 3.6,0.2 1.6,1 2.4,1.1 2.4,0.4 0,-0.7 1.6,-2.6 3.5,-4.4 2.7,-2.5 5,-7.1 11.1,-22.2 13.7,-34 24.1,-59.8 27.9,-69 4.1,-10 9.5,-23.5 9.5,-23.9 0,-0.1 -2.1,-1.7 -4.6,-3.6 -3.2,-2.3 -4.8,-2.9 -5.3,-2.1 -0.6,0.9 -1.1,0.8 -2,-0.3 -0.9,-1.1 -0.9,-1.5 0,-1.8 0.8,-0.3 0.2,-1.9 -1.6,-4.7 -3.6,-5.4 -4.6,-14.1 -2.1,-18.9 0.9,-1.7 1.6,-3.4 1.6,-3.8 0,-1 -9.6,0.3 -11.8,1.7 -1.1,0.7 -3.9,4.4 -6.3,8.3 -5.6,8.9 -12.9,16.2 -17.7,17.6 -8.6,2.4 -17.2,0.3 -25.2,-6.1 l -3.9,-3.2 -7.3,5.9 c -4,3.2 -8.2,6.6 -9.3,7.6 -1.1,0.9 -11.7,9.8 -23.6,19.7 -22.1,18.4 -27.6,24 -25.8,25.8 0.8,0.8 0.1,1.7 -2,2.9 -1.7,1 -3.1,2.2 -3.1,2.7 0,1.6 -9.2,9.7 -11.1,9.7 -1.1,0 -2.9,0.9 -4.1,2 -2.1,1.9 -2.3,1.9 -4.1,0.2 -1.1,-0.9 -3.8,-3.9 -6,-6.6 l -4.1,-4.9 2.7,-2.3 c 1.5,-1.3 2.7,-3 2.7,-3.8 0,-0.9 1.2,-2.3 2.8,-3.3 1.5,-1 3.3,-2.6 4,-3.5 0.7,-1 2.2,-1.8 3.3,-1.8 1,0 1.9,-0.5 1.9,-1 0,-1.7 3.9,-5 5.3,-4.4 3.2,1.2 5.7,-0.6 22.7,-16.1 3.6,-3.3 11.9,-10.7 18.5,-16.5 6.5,-5.8 14.5,-12.9 17.7,-15.9 3.3,-3 6.6,-6 7.5,-6.6 1.4,-1.1 1.2,-1.9 -1.7,-7.9 -8.3,-16.8 -3.2,-28.9 15.7,-37.1 9.6,-4.2 13.8,-7.5 14.8,-11.8 0.6,-2.2 0.4,-2.7 -1.3,-2.7 -2.8,0 -7.2,-3.8 -7.2,-6.2 0,-1.1 2.2,-4.1 5.2,-6.8 4.3,-4 5.2,-5.4 5.2,-8.2 0,-4.7 -1,-6.8 -3.3,-6.8 -1.8,0 -15.2,5 -52.6,19.5 -30.8,12 -46.8,18.2 -65.5,25.3 -10.2,3.9 -20.6,8 -23.2,9.2 -5.3,2.3 -8.8,6.1 -8.8,9.6 0,2.9 -5.9,5 -18.4,6.3 -4.9,0.6 -9,1.2 -9.1,1.3 -0.2,0.2 -1,2 -1.8,4.1 -2.6,6.2 -10.8,8.1 -15.4,3.4 -3.3,-3.2 -3.4,-7.3 -0.4,-11.5 2.1,-3.1 1.6,-4.7 -1.2,-3.6 -2.5,0.9 -4.1,-3.1 -2.5,-6.3 2.5,-5.2 10.1,-3.4 9.1,2.1 -0.6,3.2 -0.3,3.2 4.1,0.2 3.7,-2.5 3.7,-3.6 0.1,-3.6 -3.5,0 -4.5,-2 -3,-5.8 2.6,-6 10.4,-3.5 8.8,2.8 l -0.6,2.4 3.4,-2.1 c 4.2,-2.7 4.8,-4.3 1.5,-4.3 -3.3,0 -4.7,-2.5 -3.4,-6.2 0.8,-2.3 1.6,-2.8 4.3,-2.8 4.1,0 5.8,1.9 4.9,5.5 -0.6,2.5 -0.5,2.6 1.2,1.6 5.1,-2.9 7.1,-5.8 3.5,-4.8 -2.8,0.7 -5.1,-2.2 -4.4,-5.6 0.4,-1.8 1.3,-2.9 2.8,-3.3 4.4,-1.1 6,-0.1 6.3,3.9 l 0.3,3.7 2.9,-1.7 c 2.8,-1.6 3,-1.6 6.4,1 1.9,1.5 3.9,2.7 4.5,2.7 1,0 16.2,-6.4 48.6,-20.5 11,-4.8 27.7,-12 37,-16 9.4,-4 19,-8.2 21.5,-9.3 2.5,-1.1 7.5,-3.4 11.3,-5.1 5.7,-2.5 6.7,-3.3 6.7,-5.5 0,-5.3 -7.3,-7.1 -16.3,-4 -4.1,1.4 -12.9,1.6 -14.2,0.3 -0.3,-0.3 0.1,-2.7 0.9,-5.3 1.1,-3.5 1.1,-4.8 0.3,-5.1 C 323.1,9.6 298.6,7 284.5,6 267.4,4.9 240,4.9 222.9,6.1 Z"
             id="path18"
             inkscape:connector-curvature="0"
             style="fill:none;fill-opacity:1;stroke:#ffffff;stroke-width:7.06843805;stroke-miterlimit:4;stroke-dasharray:none;stroke-opacity:1" />
        </g>
        <path
           style="fill:none;fill-opacity:1;stroke:#ffffff;stroke-opacity:1;stroke-width:7.06843815;stroke-miterlimit:4;stroke-dasharray:none"
           inkscape:connector-curvature="0"
           id="path20"
           d="m 251.1,283.2 c -6.9,3.6 -8.1,6.8 -8.1,21.6 0,9.4 0.4,13.2 1.6,15.8 3.7,7.7 13.7,10.6 21.4,6.3 6.6,-3.7 8,-7.5 8,-21.9 0,-9.9 -0.3,-12.7 -1.9,-15.8 -3.8,-7.3 -13.3,-10 -21,-6 z" />
        <path
           style="fill:none;fill-opacity:1;stroke:#ffffff;stroke-opacity:1;stroke-width:7.06843815;stroke-miterlimit:4;stroke-dasharray:none"
           inkscape:connector-curvature="0"
           id="path22"
           d="m 178.2,284 c -6.1,3.8 -7.2,6.9 -7.2,21.5 0,11.2 0.3,13.4 2,16.3 6.2,10.1 21.6,9.7 27.1,-0.8 2.7,-4.9 2.7,-25.8 0.1,-31 -3.8,-7.6 -14.6,-10.5 -22,-6 z" />
        <path
           style="fill:none;stroke:#ffffff;stroke-opacity:1;fill-opacity:1;stroke-width:7.06843815;stroke-miterlimit:4;stroke-dasharray:none"
           inkscape:connector-curvature="0"
           id="path60"
           d="m 283.5,185 c -0.4,0.6 -0.3,1.6 0.3,2.2 0.6,0.6 1.2,0.6 1.7,-0.2 0.4,-0.6 0.3,-1.6 -0.3,-2.2 -0.6,-0.6 -1.2,-0.6 -1.7,0.2 z" />
        <path
           style="fill:none;stroke:#ffffff;stroke-opacity:1;fill-opacity:1;stroke-width:7.06843815;stroke-miterlimit:4;stroke-dasharray:none"
           inkscape:connector-curvature="0"
           id="path62"
           d="m 278.2,188.6 c -1.9,1.3 -2.1,1.9 -1.1,3 1,1.3 1.5,1.2 3.5,-0.7 3.6,-3.4 1.7,-5.2 -2.4,-2.3 z" />
        <path
           style="fill:none;stroke:#ffffff;stroke-opacity:1;fill-opacity:1;stroke-width:7.06843815;stroke-miterlimit:4;stroke-dasharray:none"
           inkscape:connector-curvature="0"
           id="path64"
           d="m 288,191.5 c 0,0.9 0.5,1.5 1.1,1.3 0.6,-0.2 1.1,-0.8 1.1,-1.3 0,-0.5 -0.5,-1.1 -1.1,-1.3 -0.6,-0.2 -1.1,0.4 -1.1,1.3 z" />
        <path
           style="fill:none;stroke:#ffffff;stroke-opacity:1;fill-opacity:1;stroke-width:7.06843815;stroke-miterlimit:4;stroke-dasharray:none"
           inkscape:connector-curvature="0"
           id="path66"
           d="m 272.1,193.4 c -2.8,3 -1.2,4.4 2.4,2 2,-1.3 2.3,-1.9 1.4,-3 -1.4,-1.7 -1.2,-1.8 -3.8,1 z" />
        <path
           style="fill:none;stroke:#ffffff;stroke-opacity:1;fill-opacity:1;stroke-width:7.06843815;stroke-miterlimit:4;stroke-dasharray:none"
           inkscape:connector-curvature="0"
           id="path68"
           d="m 283.7,194.8 c -2.5,2.8 -0.6,4.8 2.3,2.4 1.3,-1.1 2,-2.4 1.6,-3 -1,-1.7 -2,-1.5 -3.9,0.6 z" />
        <path
           style="fill:none;stroke:#ffffff;stroke-opacity:1;fill-opacity:1;stroke-width:7.06843815;stroke-miterlimit:4;stroke-dasharray:none"
           inkscape:connector-curvature="0"
           id="path70"
           d="m 268,196.9 c 0,0.5 0.5,1.3 1,1.6 0.6,0.3 1,0.2 1,-0.4 0,-0.5 -0.4,-1.3 -1,-1.6 -0.5,-0.3 -1,-0.2 -1,0.4 z" />
        <path
           style="fill:none;stroke:#ffffff;stroke-opacity:1;fill-opacity:1;stroke-width:7.06843815;stroke-miterlimit:4;stroke-dasharray:none"
           inkscape:connector-curvature="0"
           id="path72"
           d="m 278.5,200 c -0.9,1 -1.5,2.6 -1.1,3.5 0.5,1.3 0.9,1.2 3.1,-0.7 1.9,-1.6 2.2,-2.4 1.4,-3.5 -1.4,-1.6 -1.3,-1.7 -3.4,0.7 z" />
        <path
           style="fill:none;stroke:#ffffff;stroke-opacity:1;fill-opacity:1;stroke-width:7.06843815;stroke-miterlimit:4;stroke-dasharray:none"
           inkscape:connector-curvature="0"
           id="path74"
           d="m 275,205 c 0,0.5 0.5,1 1.1,1 0.5,0 0.7,-0.5 0.4,-1 -0.3,-0.6 -0.8,-1 -1.1,-1 -0.2,0 -0.4,0.4 -0.4,1 z" />
      </g>
      <path
         inkscape:connector-curvature="0"
         id="path18-7"
         d="m 32.406107,1022.567 c -0.50315,0.048 -0.9893,0.2397 -1.332031,0.5547 l -0.189453,0.164 0,-0.3457 0,-0.3457 -0.427734,0.057 c -0.23878,0.025 -0.568168,0.074 -0.72461,0.1074 l -0.289062,0.059 -0.02539,4.2148 c -0.01647,3.6641 3.83e-4,4.2168 0.107422,4.2168 0.06587,0 0.396368,-0.043 0.742187,-0.092 l 0.617188,-0.09 0,-1.4082 c 0,-1.3252 0.0085,-1.3927 0.148437,-1.2774 0.321117,0.2881 0.896866,0.504 1.423829,0.545 0.963352,0.066 1.721659,-0.3224 2.199218,-1.1211 0.214084,-0.3788 0.221394,-0.4194 0.246094,-1.918 0.0247,-1.4327 0.01624,-1.5638 -0.148438,-1.959 -0.205845,-0.4693 -0.740079,-1.0055 -1.201171,-1.2031 -0.201728,-0.084 -0.420009,-0.1357 -0.642579,-0.1582 -0.166927,-0.017 -0.336189,-0.016 -0.503906,0 z m -6.660156,0.043 c -0.302592,0 -0.60476,0.037 -0.847656,0.1231 -0.494027,0.1811 -1.037032,0.6926 -1.267578,1.2031 -0.181141,0.4035 -0.197266,0.535 -0.197266,1.836 0,0.9798 0.03289,1.4984 0.115234,1.7207 0.156442,0.4446 0.707145,1.0214 1.201172,1.2519 0.741041,0.3541 1.835859,0.2303 2.486328,-0.2637 l 0.271485,-0.205 0,0.5019 c 0,0.9798 -0.385835,1.3574 -1.357422,1.3574 -0.576365,-0.01 -1.162223,-0.2138 -1.65625,-0.5761 -0.181146,-0.1317 -0.181069,-0.1234 -0.230469,0.3047 -0.03294,0.2388 -0.07296,0.5774 -0.09766,0.7421 -0.04117,0.2717 -0.01639,0.3126 0.189453,0.4278 0.815145,0.42 2.4046,0.4938 3.162109,0.1562 0.732807,-0.3294 1.22595,-0.9874 1.390625,-1.8437 0.0988,-0.494 0.115961,-6.6385 0.02539,-6.6875 -0.06587,-0.041 -0.832873,0.057 -1.236328,0.1484 -0.115275,0.025 -0.188608,0.116 -0.205078,0.2559 l -0.02539,0.2148 -0.230469,-0.1816 c -0.131741,-0.099 -0.412032,-0.2559 -0.642578,-0.3379 -0.242897,-0.095 -0.545064,-0.1443 -0.847656,-0.1485 z m 6.298828,1.1797 c 0.502132,-0.048 1.001665,0.1899 1.236328,0.6407 0.131742,0.2553 0.15625,0.4855 0.15625,1.3007 0,1.1856 -0.116726,1.4981 -0.660156,1.8028 -0.634001,0.354 -1.457069,0.1164 -1.761719,-0.5176 -0.09881,-0.2141 -0.130859,-0.5287 -0.130859,-1.3027 0,-1.2186 0.09788,-1.481 0.666016,-1.7774 0.1585,-0.082 0.326763,-0.1304 0.49414,-0.1465 z m -5.738281,0.041 c 0.436776,0.034 0.857182,0.2729 1.052734,0.664 0.214112,0.4282 0.2145,2.1492 -0.0078,2.5527 -0.452858,0.8646 -1.719974,0.8981 -2.230469,0.067 -0.139975,-0.2388 -0.166016,-0.4197 -0.166016,-1.3418 0,-1.2022 0.09149,-1.4567 0.59375,-1.7696 0.228488,-0.1389 0.495747,-0.1925 0.757813,-0.1718 z"
         style="fill:#ffffff;fill-opacity:1;stroke:none;stroke-width:0.2;stroke-miterlimit:4;stroke-dasharray:none;stroke-opacity:1" />
    </g>
  </g>
</svg>
