<?xml version="1.0" encoding="UTF-8" standalone="no"?>
<!-- Created with Inkscape (http://www.inkscape.org/) -->

<svg
   xmlns:dc="http://purl.org/dc/elements/1.1/"
   xmlns:cc="http://creativecommons.org/ns#"
   xmlns:rdf="http://www.w3.org/1999/02/22-rdf-syntax-ns#"
   xmlns:svg="http://www.w3.org/2000/svg"
   xmlns="http://www.w3.org/2000/svg"
   xmlns:sodipodi="http://sodipodi.sourceforge.net/DTD/sodipodi-0.dtd"
   xmlns:inkscape="http://www.inkscape.org/namespaces/inkscape"
   width="68.26667"
   height="68.26667"
   viewBox="0 0 64 64"
   id="svg4178"
   version="1.1"
   inkscape:version="0.92.1 r"
   sodipodi:docname="kmail.svg">
  <defs
     id="defs4180" />
  <sodipodi:namedview
     id="base"
     pagecolor="#ffffff"
     bordercolor="#666666"
     borderopacity="1.0"
     inkscape:pageopacity="0.0"
     inkscape:pageshadow="2"
     inkscape:zoom="5.9812055"
     inkscape:cx="11.162672"
     inkscape:cy="26.797751"
     inkscape:document-units="px"
     inkscape:current-layer="layer1"
     showgrid="false"
     units="px"
     inkscape:window-width="1280"
     inkscape:window-height="726"
     inkscape:window-x="0"
     inkscape:window-y="26"
     inkscape:window-maximized="1" />
  <metadata
     id="metadata4183">
    <rdf:RDF>
      <cc:Work
         rdf:about="">
        <dc:format>image/svg+xml</dc:format>
        <dc:type
           rdf:resource="http://purl.org/dc/dcmitype/StillImage" />
        <dc:title />
      </cc:Work>
    </rdf:RDF>
  </metadata>
  <g
     inkscape:label="Layer 1"
     inkscape:groupmode="layer"
     id="layer1"
     transform="translate(0,-988.3622)">
    <circle
       style="opacity:1;fill:#31363b;fill-opacity:1;stroke:none;stroke-width:1.24300003;stroke-miterlimit:4;stroke-dasharray:none;stroke-opacity:1"
       id="path4746"
       cx="32"
       cy="1020.3622"
       r="32" />
    <path
       inkscape:connector-curvature="0"
       style="opacity:1;fill:#ffffff;fill-opacity:1;stroke:none;stroke-width:1.24300003;stroke-miterlimit:4;stroke-dasharray:none;stroke-opacity:1"
       d="m 31.999999,989.36223 a 31,31 0 0 0 -30.99999956,31.00007 31,31 0 0 0 30.99999956,31 31,31 0 0 0 31,-31 31,31 0 0 0 -31,-31.00007 z m 0,2.69565 a 28.304348,28.304348 0 0 1 28.304348,28.30442 28.304348,28.304348 0 0 1 -28.304348,28.3043 28.304348,28.304348 0 0 1 -28.3043474,-28.3043 28.304348,28.304348 0 0 1 28.3043474,-28.30442 z"
       id="path4145-3" />
    <path
       inkscape:connector-curvature="0"
       style="display:inline;opacity:1;fill:#ffffff;fill-opacity:1;stroke:none;stroke-width:2.79999995;stroke-miterlimit:4;stroke-dasharray:none;stroke-opacity:0.55026455"
       d="m 17000,1005.3618 v 0.9903 0.01 h 0.01 l 8.99,8.9921 v 0.6172 l -9,9 v 0.3906 1.0234 7.9766 1 h 1 9 0.424 l 9,-9 h 0.586 l 8.99,8.9902 v 0.01 h 1 v -0.4238 -19.1523 -1.4141 -9.0098 h -29.576 -0.424 z m 1.424,1 H 17029 v 9.0098 1.4141 17.1523 l -8,-8 v -1.1524 -1.414 -9.0098 h -11.578 z m 8.576,9 h 0.424 9.576 v 9.0098 0.5664 0.4238 h -10 v -8.9765 -0.033 -0.9903 z m -1,2.0234 v 8.9766 h 9.01 l -8.01,8.0098 v -0.01 h -9 v -8.9766 l 8,-8 z"
       id="rect4166" />
    <path
       inkscape:connector-curvature="0"
       style="display:inline;opacity:1;fill:#ffffff;fill-opacity:1;stroke:none"
       d="m 32,-15977.638 a 14.999999,4.5 0 0 0 -15,4.5 v 4 a 14.999999,4.5 0 0 0 1.576172,1.996 14.999999,4.5 0 0 0 -1.576172,2.004 v 4 a 14.999999,4.5 0 0 0 2.539062,2.502 14.999999,4.5 0 0 0 -2.539062,2.498 v 4 a 14.999999,4.5 0 0 0 15,4.5 14.999999,4.5 0 0 0 15,-4.5 v -4 a 14.999999,4.5 0 0 0 -2.539062,-2.502 14.999999,4.5 0 0 0 2.539062,-2.498 v -4 a 14.999999,4.5 0 0 0 -1.576172,-1.996 14.999999,4.5 0 0 0 1.576172,-2.004 v -4 a 14.999999,4.5 0 0 0 -15,-4.5 z m 0,1 a 14,3.5 0 0 1 14,3.5 14,3.5 0 0 1 -2,1.795 v -0.01 a 14,3.5 0 0 1 -0.507812,0.203 14,3.5 0 0 1 -0.01563,0.01 14,3.5 0 0 1 -11.476558,1.502 14,3.5 0 0 1 -11.476562,-1.502 14,3.5 0 0 1 -0.01563,-0.01 14,3.5 0 0 1 -0.507812,-0.203 v 0.01 a 14,3.5 0 0 1 -2,-1.795 14,3.5 0 0 1 14,-3.5 z m -14,5.102 a 14.999999,4.5 0 0 0 14,2.898 14.999999,4.5 0 0 0 14,-2.898 v 2.398 a 14,3.5 0 0 1 -14,3.5 14,3.5 0 0 1 -14,-3.5 z m 26.558594,4.855 a 14,3.5 0 0 1 1.441406,1.543 14,3.5 0 0 1 -2,1.795 v -0.01 a 14,3.5 0 0 1 -0.507812,0.203 14,3.5 0 0 1 -0.01563,0.01 14,3.5 0 0 1 -11.476558,1.502 14,3.5 0 0 1 -11.476562,-1.502 14,3.5 0 0 1 -0.01563,-0.01 14,3.5 0 0 1 -0.507812,-0.203 v 0.01 a 14,3.5 0 0 1 -2,-1.795 14,3.5 0 0 1 1.449219,-1.541 14.999999,4.5 0 0 0 12.550781,2.037 14.999999,4.5 0 0 0 12.558594,-2.043 z M 18,-15963.536 a 14.999999,4.5 0 0 0 14,2.898 14.999999,4.5 0 0 0 14,-2.898 v 2.398 a 14,3.5 0 0 1 -14,3.5 14,3.5 0 0 1 -14,-3.5 z m 25.314453,5.343 a 14,3.5 0 0 1 2.685547,2.055 14,3.5 0 0 1 -2,1.795 v -0.01 a 14,3.5 0 0 1 -0.507812,0.203 14,3.5 0 0 1 -0.01563,0.01 14,3.5 0 0 1 -11.476558,1.502 14,3.5 0 0 1 -11.476562,-1.502 14,3.5 0 0 1 -0.01563,-0.01 14,3.5 0 0 1 -0.507812,-0.203 v 0.01 a 14,3.5 0 0 1 -2,-1.795 14,3.5 0 0 1 2.677734,-2.053 14.999999,4.5 0 0 0 11.322266,1.549 14.999999,4.5 0 0 0 11.314453,-1.555 z M 18,-15954.536 a 14.999999,4.5 0 0 0 14,2.898 14.999999,4.5 0 0 0 14,-2.898 v 2.398 a 14,3.5 0 0 1 -14,3.5 14,3.5 0 0 1 -14,-3.5 z"
       id="path4169" />
    <path
       inkscape:connector-curvature="0"
       style="display:inline;opacity:1;fill:#ffffff;fill-opacity:1;stroke:none;stroke-width:3.21815705px;stroke-linecap:butt;stroke-linejoin:miter;stroke-miterlimit:4;stroke-dasharray:none;stroke-dashoffset:0;stroke-opacity:1"
       d="m 13.593749,1008.2997 v 19.7602 1.1047 2.5726 h 37.499998 v -2.5726 -1.1047 -19.7602 z m 1.778157,0.7813 H 49.31559 l -16.971842,12.7289 z m -0.736491,0.5523 11.76351,8.8227 -11.76351,8.8226 z m 35.416666,0 v 17.6453 l -11.763509,-8.8226 z m -22.916666,9.375 5.208333,3.9063 5.208333,-3.9063 12.5,9.375 v 2.5727 H 14.635415 v -2.5727 z"
       id="rect4204" />
  </g>
</svg>
