<?xml version="1.0" encoding="UTF-8" standalone="no"?>
<!-- Created with Inkscape (http://www.inkscape.org/) -->

<svg
   xmlns:dc="http://purl.org/dc/elements/1.1/"
   xmlns:cc="http://creativecommons.org/ns#"
   xmlns:rdf="http://www.w3.org/1999/02/22-rdf-syntax-ns#"
   xmlns:svg="http://www.w3.org/2000/svg"
   xmlns="http://www.w3.org/2000/svg"
   xmlns:sodipodi="http://sodipodi.sourceforge.net/DTD/sodipodi-0.dtd"
   xmlns:inkscape="http://www.inkscape.org/namespaces/inkscape"
   width="68.26667"
   height="68.26667"
   viewBox="0 0 64 64"
   id="svg4178"
   version="1.1"
   inkscape:version="0.92.1 r"
   sodipodi:docname="mkvtoolnix-gui.svg">
  <defs
     id="defs4180" />
  <sodipodi:namedview
     id="base"
     pagecolor="#ffffff"
     bordercolor="#666666"
     borderopacity="1.0"
     inkscape:pageopacity="0.0"
     inkscape:pageshadow="2"
     inkscape:zoom="0.51252726"
     inkscape:cx="-285.56348"
     inkscape:cy="207.22202"
     inkscape:document-units="px"
     inkscape:current-layer="layer1"
     showgrid="false"
     units="px"
     inkscape:window-width="1280"
     inkscape:window-height="726"
     inkscape:window-x="0"
     inkscape:window-y="26"
     inkscape:window-maximized="1" />
  <metadata
     id="metadata4183">
    <rdf:RDF>
      <cc:Work
         rdf:about="">
        <dc:format>image/svg+xml</dc:format>
        <dc:type
           rdf:resource="http://purl.org/dc/dcmitype/StillImage" />
        <dc:title></dc:title>
      </cc:Work>
    </rdf:RDF>
  </metadata>
  <g
     inkscape:label="Layer 1"
     inkscape:groupmode="layer"
     id="layer1"
     transform="translate(0,-988.3622)">
    <circle
       style="opacity:1;fill:#31363b;fill-opacity:1;stroke:none;stroke-width:1.24300003;stroke-miterlimit:4;stroke-dasharray:none;stroke-opacity:1"
       id="path4746"
       cx="32"
       cy="1020.3622"
       r="32" />
    <path
       inkscape:connector-curvature="0"
       style="opacity:1;fill:#ffffff;fill-opacity:1;stroke:none;stroke-width:1.24300003;stroke-miterlimit:4;stroke-dasharray:none;stroke-opacity:1"
       d="m 31.999999,989.36223 a 31,31 0 0 0 -30.99999956,31.00007 31,31 0 0 0 30.99999956,31 31,31 0 0 0 31,-31 31,31 0 0 0 -31,-31.00007 z m 0,2.69565 a 28.304348,28.304348 0 0 1 28.304348,28.30442 28.304348,28.304348 0 0 1 -28.304348,28.3043 28.304348,28.304348 0 0 1 -28.3043474,-28.3043 28.304348,28.304348 0 0 1 28.3043474,-28.30442 z"
       id="path4145-3" />
    <rect
       style="display:none;fill:#ffffff;fill-opacity:1;stroke:none;stroke-width:0.19305007"
       id="rect3659"
       y="848.8479"
       x="19.092644"
       height="11.078305"
       width="48.457619" />
    <g
       id="g852"
       transform="matrix(0.95975081,0,0,0.95975081,1.1364419,39.915018)"
       style="fill:#ffffff;fill-opacity:1;stroke:none;stroke-width:1.00025964;stroke-miterlimit:4;stroke-dasharray:none;stroke-opacity:1">
      <path
         inkscape:connector-curvature="0"
         d="m 21.945915,1018.0733 c -8.238706,1.4937 -13.9297692,4.6821 -13.9297692,8.3796 0,5.1282 10.9499502,9.2905 24.4570312,9.2905 13.50708,0 24.45703,-4.1623 24.45703,-9.2905 0,-3.6346 -5.506842,-6.7764 -13.519537,-8.3012 v 0.7179 c 5.122131,1.3281 8.48817,3.5606 8.48817,6.0932 0,4.0734 -8.696821,7.3781 -19.425663,7.3781 -10.728843,0 -19.431697,-3.3047 -19.431697,-7.3781 0,-2.6003 3.550228,-4.8824 8.904435,-6.1957 z"
         id="path2832"
         style="fill:#ffffff;fill-opacity:1;stroke:none;stroke-width:1.00025964;stroke-miterlimit:4;stroke-dasharray:none;stroke-opacity:1" />
      <g
         transform="matrix(0.19305007,0,0,0.19305007,4.3960997,866.9497)"
         id="text3951-5-1"
         style="font-style:normal;font-variant:normal;font-weight:bold;font-stretch:normal;font-size:166.37013245px;line-height:125%;font-family:'Times New Roman';-inkscape-font-specification:'Times New Roman Bold';text-align:start;writing-mode:lr-tb;text-anchor:start;display:inline;fill:#ffffff;fill-opacity:1;stroke:none;stroke-width:5.18134785;stroke-linecap:butt;stroke-linejoin:round;stroke-miterlimit:4;stroke-dasharray:none;stroke-dashoffset:0;stroke-opacity:1">
        <path
           inkscape:connector-curvature="0"
           d="m 117.34127,684.78876 v 3.65559 c -5.41575,1.02909 -9.40982,2.93812 -11.98223,5.7271 -2.57249,2.78918 -3.85872,5.9709 -3.85868,9.54516 -4e-5,3.62861 0.64984,8.13717 1.94965,13.5257 1.29972,5.38869 1.94961,10.0868 1.94965,14.09434 -4e-5,3.68274 -1.09672,7.4331 -3.29003,11.25111 -2.1934,3.81811 -5.348039,7.08106 -9.463928,9.78886 -2.870349,1.89554 -7.446607,3.68272 -13.728786,5.36154 6.715435,2.11216 11.589555,4.1972 14.622375,6.25513 4.007575,2.76203 7.013279,6.01145 9.017129,9.74825 2.00376,3.73685 3.00567,7.28412 3.00571,10.64184 -4e-5,3.24942 -0.66347,7.58198 -1.99026,12.99766 -1.32689,5.41569 -1.99032,10.12734 -1.99027,14.13497 -5e-5,3.84512 1.23202,7.16223 3.69621,9.95134 2.46409,2.78905 6.48524,4.72516 12.06346,5.80833 v 3.81806 h -2.84324 c -5.52406,0.0541 -10.76374,-1.21856 -15.719054,-3.81806 -4.955396,-2.59956 -8.692221,-5.94375 -11.210488,-10.03258 -2.518324,-4.08886 -3.777472,-8.05585 -3.777447,-11.90098 -2.5e-5,-3.73684 0.839407,-8.85466 2.518298,-15.3535 1.245581,-4.81995 1.868385,-9.12543 1.868415,-12.91643 -3e-5,-4.27837 -1.353952,-7.92042 -4.061771,-10.92616 -2.70787,-3.00568 -6.661323,-4.94179 -11.860371,-5.80833 v -4.95537 c 5.199048,-0.86646 9.152501,-2.87027 11.860371,-6.01142 2.707819,-3.14105 4.061741,-6.95911 4.061771,-11.45419 -3e-5,-3.68261 -0.595755,-7.82561 -1.787179,-12.42902 -1.678892,-6.4446 -2.518323,-11.34579 -2.518298,-14.70361 -2.5e-5,-3.52011 1.056034,-7.09446 3.168181,-10.72307 2.11209,-3.62842 4.765778,-6.57997 7.961071,-8.85466 3.19522,-2.27449 6.688341,-3.92627 10.479371,-4.95536 2.92442,-0.81225 6.87788,-1.29966 11.86037,-1.46224 z"
           id="path2992"
           style="fill:#ffffff;fill-opacity:1;stroke:none;stroke-width:5.18134785;stroke-miterlimit:4;stroke-dasharray:none;stroke-opacity:1" />
        <path
           inkscape:connector-curvature="0"
           d="m 173.47493,831.09374 v -3.73683 c 5.36153,-1.02901 9.34206,-2.93804 11.94161,-5.72709 2.59951,-2.78911 3.89928,-5.97082 3.8993,-9.54516 -2e-5,-3.57437 -0.6499,-8.05586 -1.94965,-13.44447 -1.29979,-5.38861 -1.94967,-10.08672 -1.94965,-14.09434 -2e-5,-3.73681 1.08312,-7.51426 3.24942,-11.33234 2.16625,-3.81804 5.33443,-7.08099 9.50454,-9.78887 2.87028,-1.8413 7.44654,-3.62848 13.72879,-5.36154 -6.7155,-2.11208 -11.58962,-4.19712 -14.62238,-6.25512 -4.0618,-2.76196 -7.09458,-6.01137 -9.09836,-9.74825 -2.00383,-3.73677 -3.00573,-7.28405 -3.00572,-10.64184 -1e-5,-3.24935 0.66341,-7.5819 1.99027,-12.99767 1.32683,-5.41561 1.99025,-10.10018 1.99027,-14.05373 -2e-5,-3.8992 -1.21855,-7.22985 -3.65559,-9.99195 -2.43708,-2.7619 -6.44469,-4.71155 -12.02285,-5.84895 v -3.73683 l 2.84324,-0.0812 c 5.46984,-0.054 10.69598,1.21865 15.67844,3.81807 4.98241,2.59964 8.73277,5.94382 11.2511,10.03257 2.51826,4.08895 3.77741,8.08302 3.77745,11.98222 -4e-5,3.68276 -0.83947,8.77351 -2.5183,15.27226 -1.24564,4.82004 -1.86845,9.12551 -1.86841,12.91643 -4e-5,4.27846 1.34035,7.93405 4.02115,10.96679 2.68073,3.03283 6.64772,4.9554 11.90099,5.76771 v 4.95536 c -5.25327,0.86655 -9.22026,2.87035 -11.90099,6.01142 -2.6808,3.14113 -4.02119,6.95919 -4.02115,11.45419 -4e-5,3.68269 0.59569,7.8257 1.78718,12.42902 1.62467,6.44468 2.43702,11.34588 2.43706,14.70361 -4e-5,3.57435 -1.04256,7.16225 -3.12756,10.7637 -2.08508,3.60141 -4.72523,6.53942 -7.92046,8.81404 -3.19528,2.27456 -6.6884,3.92635 -10.47936,4.95536 -2.9245,0.81232 -6.87795,1.32681 -11.86038,1.54347 z"
           id="path2994"
           style="fill:#ffffff;fill-opacity:1;stroke:none;stroke-width:5.18134785;stroke-miterlimit:4;stroke-dasharray:none;stroke-opacity:1" />
      </g>
    </g>
  </g>
</svg>
